<svg width="483" height="36" viewBox="0 0 483 36" fill="none" xmlns="http://www.w3.org/2000/svg">
<path d="M62.8433 27H59.8354V4.03125H51.5981V1.36523H71.0806V4.03125H62.8433V27ZM86.5811 24.8979C84.4619 26.5272 82.1263 27.3418 79.5742 27.3418C77.7969 27.3418 76.2018 26.943 74.7891 26.1455C73.3763 25.348 72.2598 24.2656 71.4395 22.8984C70.6305 21.5199 70.2261 19.9647 70.2261 18.2329C70.2261 16.5695 70.6021 15.0884 71.354 13.7896C72.106 12.4793 73.137 11.4482 74.4473 10.6963C75.7575 9.94434 77.2443 9.56836 78.9077 9.56836C80.6167 9.56836 82.1206 9.97852 83.4194 10.7988C84.7297 11.6191 85.7493 12.7585 86.4785 14.2168C87.2077 15.6751 87.5723 17.3613 87.5723 19.2754V19.8223H73.2681C73.4731 20.8249 73.8833 21.6965 74.4985 22.437C75.1252 23.1776 75.8999 23.7529 76.8228 24.1631C77.7456 24.5732 78.7767 24.7783 79.916 24.7783C81.8757 24.7783 83.6644 24.1346 85.2822 22.8472L86.5811 24.8979ZM73.1655 17.4297H84.9233C84.798 16.3701 84.4676 15.4473 83.9321 14.6611C83.408 13.8636 82.7244 13.2427 81.8813 12.7983C81.0496 12.354 80.1097 12.1318 79.0615 12.1318C78.002 12.1318 77.0449 12.354 76.1904 12.7983C75.3473 13.2427 74.658 13.8636 74.1226 14.6611C73.5985 15.4473 73.2795 16.3701 73.1655 17.4297ZM105.722 24.5391C104.89 25.4391 103.904 26.1341 102.765 26.624C101.626 27.1025 100.401 27.3418 99.0908 27.3418C97.3932 27.3418 95.8665 26.9544 94.5107 26.1797C93.1663 25.4049 92.1011 24.3454 91.3149 23.001C90.5402 21.6566 90.1528 20.1413 90.1528 18.4551C90.1528 16.7575 90.5402 15.2422 91.3149 13.9092C92.1011 12.5648 93.1663 11.5052 94.5107 10.7305C95.8665 9.95573 97.3932 9.56836 99.0908 9.56836C100.39 9.56836 101.609 9.80762 102.748 10.2861C103.887 10.7646 104.873 11.4539 105.705 12.354L104.03 14.1143C103.426 13.4762 102.702 12.9863 101.859 12.6445C101.028 12.3027 100.145 12.1318 99.2104 12.1318C98.0142 12.1318 96.9489 12.4053 96.0146 12.9521C95.0918 13.4876 94.3626 14.2282 93.8271 15.1738C93.3031 16.1195 93.041 17.2075 93.041 18.438C93.041 19.6685 93.3031 20.7622 93.8271 21.7192C94.3626 22.6763 95.0918 23.4282 96.0146 23.9751C96.9489 24.5106 98.0142 24.7783 99.2104 24.7783C100.145 24.7783 101.033 24.6074 101.876 24.2656C102.72 23.9124 103.437 23.4225 104.03 22.7959L105.722 24.5391ZM109.669 27V1.36523H112.472V12.4736C113.76 10.5368 115.753 9.56836 118.454 9.56836C120.721 9.56836 122.487 10.2463 123.751 11.6021C125.028 12.9465 125.666 14.8263 125.666 17.2417V27H122.863V17.8911C122.863 16.0568 122.407 14.6326 121.496 13.6187C120.596 12.5933 119.337 12.0806 117.719 12.0806C116.09 12.0806 114.808 12.599 113.874 13.6357C112.939 14.6725 112.472 16.091 112.472 17.8911V27H109.669ZM146.618 27H143.815V17.4639C143.815 15.846 143.354 14.5529 142.431 13.5845C141.508 12.616 140.283 12.1318 138.756 12.1318C137.173 12.1318 135.885 12.6559 134.894 13.7041C133.914 14.7409 133.424 16.1081 133.424 17.8057V27H130.622V9.91016H133.065L133.168 12.6787C133.795 11.6761 134.621 10.9071 135.646 10.3716C136.671 9.8361 137.879 9.56836 139.269 9.56836C141.536 9.56836 143.325 10.252 144.635 11.6191C145.957 12.9863 146.618 14.8605 146.618 17.2417V27ZM159.162 27.3418C157.464 27.3418 155.937 26.9544 154.582 26.1797C153.226 25.4049 152.155 24.3511 151.369 23.0181C150.594 21.6737 150.207 20.1527 150.207 18.4551C150.207 16.7689 150.594 15.2593 151.369 13.9263C152.155 12.5819 153.226 11.5223 154.582 10.7476C155.937 9.96143 157.464 9.56836 159.162 9.56836C160.859 9.56836 162.38 9.96143 163.725 10.7476C165.069 11.5223 166.129 12.5819 166.903 13.9263C167.678 15.2593 168.065 16.7689 168.065 18.4551C168.065 20.1527 167.678 21.6737 166.903 23.0181C166.129 24.3511 165.069 25.4049 163.725 26.1797C162.38 26.9544 160.859 27.3418 159.162 27.3418ZM159.145 24.8125C160.295 24.8125 161.326 24.5334 162.238 23.9751C163.149 23.4168 163.867 22.6592 164.391 21.7021C164.927 20.7451 165.194 19.6571 165.194 18.438C165.194 17.2417 164.927 16.165 164.391 15.208C163.867 14.251 163.149 13.4933 162.238 12.9351C161.326 12.3768 160.295 12.0977 159.145 12.0977C157.994 12.0977 156.957 12.3768 156.034 12.9351C155.123 13.4933 154.399 14.251 153.864 15.208C153.34 16.165 153.078 17.2417 153.078 18.438C153.078 19.6571 153.34 20.7451 153.864 21.7021C154.399 22.6592 155.123 23.4168 156.034 23.9751C156.957 24.5334 157.994 24.8125 159.145 24.8125ZM174.987 27H172.013V0.681641H174.987V27ZM187.873 27.3418C186.175 27.3418 184.648 26.9544 183.292 26.1797C181.937 25.4049 180.866 24.3511 180.08 23.0181C179.305 21.6737 178.917 20.1527 178.917 18.4551C178.917 16.7689 179.305 15.2593 180.08 13.9263C180.866 12.5819 181.937 11.5223 183.292 10.7476C184.648 9.96143 186.175 9.56836 187.873 9.56836C189.57 9.56836 191.091 9.96143 192.436 10.7476C193.78 11.5223 194.84 12.5819 195.614 13.9263C196.389 15.2593 196.776 16.7689 196.776 18.4551C196.776 20.1527 196.389 21.6737 195.614 23.0181C194.84 24.3511 193.78 25.4049 192.436 26.1797C191.091 26.9544 189.57 27.3418 187.873 27.3418ZM187.855 24.8125C189.006 24.8125 190.037 24.5334 190.949 23.9751C191.86 23.4168 192.578 22.6592 193.102 21.7021C193.638 20.7451 193.905 19.6571 193.905 18.438C193.905 17.2417 193.638 16.165 193.102 15.208C192.578 14.251 191.86 13.4933 190.949 12.9351C190.037 12.3768 189.006 12.0977 187.855 12.0977C186.705 12.0977 185.668 12.3768 184.745 12.9351C183.834 13.4933 183.11 14.251 182.575 15.208C182.051 16.165 181.789 17.2417 181.789 18.438C181.789 19.6571 182.051 20.7451 182.575 21.7021C183.11 22.6592 183.834 23.4168 184.745 23.9751C185.668 24.5334 186.705 24.8125 187.855 24.8125ZM207.987 27C206.347 27 204.871 26.6183 203.561 25.855C202.262 25.0916 201.237 24.0549 200.485 22.7446C199.733 21.423 199.357 19.9362 199.357 18.2842C199.357 16.6208 199.733 15.134 200.485 13.8237C201.237 12.5135 202.262 11.4767 203.561 10.7134C204.871 9.95003 206.352 9.56836 208.004 9.56836C209.326 9.56836 210.539 9.81901 211.645 10.3203C212.75 10.8102 213.69 11.4938 214.464 12.3711L214.601 9.91016H217.079V26.5557C217.079 28.4697 216.703 30.1217 215.951 31.5117C215.199 32.9131 214.128 33.9897 212.738 34.7417C211.348 35.505 209.696 35.8867 207.782 35.8867C205.071 35.8867 202.712 34.9867 200.707 33.1865L201.938 30.9307C203.498 32.5485 205.407 33.3574 207.663 33.3574C209.018 33.3574 210.186 33.0726 211.166 32.5029C212.157 31.9447 212.921 31.1528 213.456 30.1274C214.003 29.1021 214.276 27.8887 214.276 26.4873V24.3853C213.502 25.1942 212.573 25.8322 211.491 26.2993C210.42 26.7664 209.252 27 207.987 27ZM208.227 24.522C209.343 24.522 210.357 24.2713 211.269 23.77C212.18 23.2573 212.909 22.5623 213.456 21.6851C214.003 20.7964 214.276 19.7938 214.276 18.6772V17.8911C214.276 16.7632 214.003 15.7606 213.456 14.8833C212.909 14.006 212.18 13.3167 211.269 12.8154C210.357 12.3027 209.343 12.0464 208.227 12.0464C207.076 12.0464 206.045 12.3198 205.133 12.8667C204.222 13.4136 203.498 14.1598 202.963 15.1055C202.439 16.0397 202.177 17.0993 202.177 18.2842C202.177 19.4691 202.439 20.5343 202.963 21.48C203.498 22.4256 204.222 23.1719 205.133 23.7188C206.045 24.2542 207.076 24.522 208.227 24.522ZM223.693 4.50977C223.214 4.50977 222.81 4.34456 222.479 4.01416C222.16 3.67236 222.001 3.26221 222.001 2.78369C222.001 2.31657 222.16 1.91781 222.479 1.5874C222.81 1.257 223.214 1.0918 223.693 1.0918C224.183 1.0918 224.593 1.257 224.923 1.5874C225.254 1.91781 225.419 2.31657 225.419 2.78369C225.419 3.26221 225.254 3.67236 224.923 4.01416C224.593 4.34456 224.183 4.50977 223.693 4.50977ZM225.094 27H222.292V9.91016H225.094V27ZM245.482 24.8979C243.363 26.5272 241.028 27.3418 238.476 27.3418C236.698 27.3418 235.103 26.943 233.69 26.1455C232.278 25.348 231.161 24.2656 230.341 22.8984C229.532 21.5199 229.127 19.9647 229.127 18.2329C229.127 16.5695 229.503 15.0884 230.255 13.7896C231.007 12.4793 232.038 11.4482 233.349 10.6963C234.659 9.94434 236.146 9.56836 237.809 9.56836C239.518 9.56836 241.022 9.97852 242.321 10.7988C243.631 11.6191 244.651 12.7585 245.38 14.2168C246.109 15.6751 246.474 17.3613 246.474 19.2754V19.8223H232.169C232.375 20.8249 232.785 21.6965 233.4 22.437C234.027 23.1776 234.801 23.7529 235.724 24.1631C236.647 24.5732 237.678 24.7783 238.817 24.7783C240.777 24.7783 242.566 24.1346 244.184 22.8472L245.482 24.8979ZM232.067 17.4297H243.825C243.699 16.3701 243.369 15.4473 242.833 14.6611C242.309 13.8636 241.626 13.2427 240.783 12.7983C239.951 12.354 239.011 12.1318 237.963 12.1318C236.903 12.1318 235.946 12.354 235.092 12.7983C234.249 13.2427 233.559 13.8636 233.024 14.6611C232.5 15.4473 232.181 16.3701 232.067 17.4297ZM249.225 25.5132L249.96 22.8813C250.37 23.2687 250.837 23.6048 251.361 23.8896C251.885 24.1745 252.438 24.3966 253.019 24.5562C253.6 24.7043 254.187 24.7783 254.779 24.7783C255.839 24.7783 256.693 24.5448 257.343 24.0776C257.992 23.6105 258.317 23.001 258.317 22.249C258.317 21.7021 258.146 21.2521 257.804 20.8989C257.474 20.5343 257.035 20.221 256.488 19.959C255.941 19.6969 255.355 19.4463 254.728 19.207C253.965 18.9108 253.207 18.5747 252.455 18.1987C251.703 17.8228 251.076 17.3271 250.575 16.7119C250.085 16.0967 249.84 15.2878 249.84 14.2852C249.84 13.3281 250.08 12.4964 250.558 11.79C251.037 11.0837 251.703 10.5368 252.558 10.1494C253.424 9.76204 254.415 9.56836 255.531 9.56836C257.217 9.56836 258.875 9.98991 260.504 10.833L259.667 13.3623C259.302 13.123 258.881 12.9123 258.402 12.73C257.924 12.5363 257.434 12.3882 256.933 12.2856C256.431 12.1831 255.958 12.1318 255.514 12.1318C254.682 12.1318 254.01 12.3255 253.498 12.7129C252.985 13.0889 252.729 13.5959 252.729 14.2339C252.729 14.5985 252.831 14.9346 253.036 15.2422C253.253 15.5384 253.611 15.8346 254.113 16.1309C254.614 16.4271 255.309 16.7575 256.198 17.1221C256.984 17.4411 257.759 17.8057 258.522 18.2158C259.285 18.6146 259.918 19.133 260.419 19.771C260.932 20.3976 261.188 21.2179 261.188 22.2319C261.188 23.2345 260.92 24.1232 260.385 24.8979C259.861 25.6613 259.126 26.2594 258.18 26.6924C257.246 27.1253 256.164 27.3418 254.933 27.3418C252.894 27.3418 250.991 26.7323 249.225 25.5132Z" fill="white"/>
<rect x="16" width="13" height="13" rx="2" fill="white"/>
<rect x="16" y="16" width="13" height="13" rx="2" fill="white"/>
<rect width="13" height="13" rx="2" fill="white"/>
</svg>
