<svg width="483" height="36" viewBox="0 0 483 36" fill="none" xmlns="http://www.w3.org/2000/svg">
<path d="M56.6567 1.36523H53.6489V27H56.6567V1.36523Z" fill="white"/>
<path d="M77.9507 27H75.1479V17.4639C75.1479 15.846 74.6865 14.5529 73.7637 13.5845C72.8408 12.616 71.616 12.1318 70.0894 12.1318C68.5057 12.1318 67.2183 12.6559 66.2271 13.7041C65.2472 14.7409 64.7573 16.1081 64.7573 17.8057V27H61.9546V9.91016H64.3984L64.501 12.6787C65.1276 11.6761 65.9536 10.9071 66.979 10.3716C68.0044 9.8361 69.2121 9.56836 70.6021 9.56836C72.8693 9.56836 74.658 10.252 75.9683 11.6191C77.2899 12.9863 77.9507 14.8605 77.9507 17.2417V27Z" fill="white"/>
<path d="M99.5864 27H97.0913L96.9375 24.5049C96.1514 25.3822 95.1943 26.0771 94.0664 26.5898C92.9385 27.0911 91.708 27.3418 90.375 27.3418C88.6888 27.3418 87.1792 26.9544 85.8462 26.1797C84.5132 25.4049 83.4593 24.3454 82.6846 23.001C81.9212 21.6566 81.5396 20.1413 81.5396 18.4551C81.5396 16.7575 81.9212 15.2422 82.6846 13.9092C83.4593 12.5648 84.5132 11.5052 85.8462 10.7305C87.1792 9.95573 88.6888 9.56836 90.375 9.56836C91.6624 9.56836 92.853 9.80192 93.9468 10.269C95.0519 10.7362 95.9976 11.3856 96.7837 12.2173V1.36523H99.5864V27ZM90.6143 24.8125C91.7536 24.8125 92.7904 24.5505 93.7246 24.0264C94.6589 23.4909 95.3994 22.7674 95.9463 21.856C96.5046 20.9331 96.7837 19.8906 96.7837 18.7285V18.1475C96.7837 16.9854 96.5046 15.9486 95.9463 15.0371C95.3994 14.1143 94.6589 13.3908 93.7246 12.8667C92.7904 12.3426 91.7536 12.0806 90.6143 12.0806C89.4294 12.0806 88.3698 12.3597 87.4355 12.918C86.5013 13.4762 85.7607 14.2339 85.2139 15.1909C84.6784 16.1479 84.4106 17.2303 84.4106 18.438C84.4106 19.6457 84.6784 20.7337 85.2139 21.7021C85.7607 22.6592 86.5013 23.4168 87.4355 23.9751C88.3698 24.5334 89.4294 24.8125 90.6143 24.8125Z" fill="white"/>
<path d="M120.539 27H118.078L117.975 24.2314C117.348 25.234 116.522 26.0031 115.497 26.5386C114.483 27.0741 113.281 27.3418 111.891 27.3418C109.624 27.3418 107.829 26.6582 106.508 25.291C105.198 23.9124 104.542 22.0326 104.542 19.6514V9.91016H107.345V19.4463C107.345 21.0641 107.801 22.3573 108.712 23.3257C109.635 24.2941 110.86 24.7783 112.387 24.7783C113.982 24.7783 115.269 24.2542 116.249 23.2061C117.24 22.1579 117.736 20.7907 117.736 19.1045V9.91016H120.539V27Z" fill="white"/>
<path d="M124.64 25.5132L125.375 22.8813C125.785 23.2687 126.252 23.6048 126.776 23.8896C127.3 24.1745 127.853 24.3966 128.434 24.5562C129.015 24.7043 129.602 24.7783 130.194 24.7783C131.254 24.7783 132.108 24.5448 132.758 24.0776C133.407 23.6105 133.732 23.001 133.732 22.249C133.732 21.7021 133.561 21.2521 133.219 20.8989C132.889 20.5343 132.45 20.221 131.903 19.959C131.356 19.6969 130.77 19.4463 130.143 19.207C129.38 18.9108 128.622 18.5747 127.87 18.1987C127.118 17.8228 126.492 17.3271 125.99 16.7119C125.5 16.0967 125.255 15.2878 125.255 14.2852C125.255 13.3281 125.495 12.4964 125.973 11.79C126.452 11.0837 127.118 10.5368 127.973 10.1494C128.839 9.76204 129.83 9.56836 130.946 9.56836C132.632 9.56836 134.29 9.98991 135.919 10.833L135.082 13.3623C134.717 13.123 134.296 12.9123 133.817 12.73C133.339 12.5363 132.849 12.3882 132.348 12.2856C131.846 12.1831 131.374 12.1318 130.929 12.1318C130.097 12.1318 129.425 12.3255 128.913 12.7129C128.4 13.0889 128.144 13.5959 128.144 14.2339C128.144 14.5985 128.246 14.9346 128.451 15.2422C128.668 15.5384 129.027 15.8346 129.528 16.1309C130.029 16.4271 130.724 16.7575 131.613 17.1221C132.399 17.4411 133.174 17.8057 133.937 18.2158C134.7 18.6146 135.333 19.133 135.834 19.771C136.347 20.3976 136.603 21.2179 136.603 22.2319C136.603 23.2345 136.335 24.1232 135.8 24.8979C135.276 25.6613 134.541 26.2594 133.595 26.6924C132.661 27.1253 131.579 27.3418 130.348 27.3418C128.309 27.3418 126.406 26.7323 124.64 25.5132Z" fill="white"/>
<path d="M150.446 26.5898C149.318 27.0911 148.218 27.3418 147.147 27.3418C146.122 27.3418 145.222 27.1196 144.447 26.6753C143.673 26.2196 143.069 25.5872 142.636 24.7783C142.203 23.958 141.986 23.0067 141.986 21.9243V12.4224H138.996V9.91016H142.123V5.6377H144.789V9.91016H149.899V12.4224H144.789V21.4116C144.789 22.437 145.062 23.263 145.609 23.8896C146.168 24.5163 146.897 24.8296 147.797 24.8296C148.526 24.8296 149.255 24.6131 149.984 24.1802L150.446 26.5898Z" fill="white"/>
<path d="M156.496 27H153.693V9.91016H156.154L156.273 13.2939C156.866 12.1204 157.698 11.209 158.769 10.5596C159.851 9.89876 161.093 9.56836 162.494 9.56836C162.802 9.56836 163.115 9.58545 163.434 9.61963C163.753 9.65381 164.072 9.70508 164.391 9.77344L164.049 12.3027C163.423 12.1546 162.802 12.0806 162.187 12.0806C161.07 12.0806 160.079 12.354 159.213 12.9009C158.358 13.4478 157.692 14.1997 157.213 15.1567C156.735 16.1138 156.496 17.2132 156.496 18.4551V27Z" fill="white"/>
<path d="M168.766 4.50977C168.288 4.50977 167.883 4.34456 167.553 4.01416C167.234 3.67236 167.074 3.26221 167.074 2.78369C167.074 2.31657 167.234 1.91781 167.553 1.5874C167.883 1.257 168.288 1.0918 168.766 1.0918C169.256 1.0918 169.666 1.257 169.997 1.5874C170.327 1.91781 170.492 2.31657 170.492 2.78369C170.492 3.26221 170.327 3.67236 169.997 4.01416C169.666 4.34456 169.256 4.50977 168.766 4.50977ZM170.167 27H167.365V9.91016H170.167V27Z" fill="white"/>
<path d="M190.556 24.8979C188.437 26.5272 186.101 27.3418 183.549 27.3418C181.771 27.3418 180.176 26.943 178.764 26.1455C177.351 25.348 176.234 24.2656 175.414 22.8984C174.605 21.5199 174.201 19.9647 174.201 18.2329C174.201 16.5695 174.577 15.0884 175.329 13.7896C176.081 12.4793 177.112 11.4482 178.422 10.6963C179.732 9.94434 181.219 9.56836 182.882 9.56836C184.591 9.56836 186.095 9.97852 187.394 10.7988C188.704 11.6191 189.724 12.7585 190.453 14.2168C191.182 15.6751 191.547 17.3613 191.547 19.2754V19.8223H177.243C177.448 20.8249 177.858 21.6965 178.473 22.437C179.1 23.1776 179.875 23.7529 180.797 24.1631C181.72 24.5732 182.751 24.7783 183.891 24.7783C185.85 24.7783 187.639 24.1346 189.257 22.8472L190.556 24.8979ZM177.14 17.4297H188.898C188.773 16.3701 188.442 15.4473 187.907 14.6611C187.383 13.8636 186.699 13.2427 185.856 12.7983C185.024 12.354 184.084 12.1318 183.036 12.1318C181.977 12.1318 181.02 12.354 180.165 12.7983C179.322 13.2427 178.633 13.8636 178.097 14.6611C177.573 15.4473 177.254 16.3701 177.14 17.4297Z" fill="white"/>
<path d="M194.298 25.5132L195.033 22.8813C195.443 23.2687 195.91 23.6048 196.435 23.8896C196.959 24.1745 197.511 24.3966 198.092 24.5562C198.673 24.7043 199.26 24.7783 199.853 24.7783C200.912 24.7783 201.767 24.5448 202.416 24.0776C203.065 23.6105 203.39 23.001 203.39 22.249C203.39 21.7021 203.219 21.2521 202.877 20.8989C202.547 20.5343 202.108 20.221 201.562 19.959C201.015 19.6969 200.428 19.4463 199.801 19.207C199.038 18.9108 198.28 18.5747 197.528 18.1987C196.776 17.8228 196.15 17.3271 195.648 16.7119C195.159 16.0967 194.914 15.2878 194.914 14.2852C194.914 13.3281 195.153 12.4964 195.631 11.79C196.11 11.0837 196.776 10.5368 197.631 10.1494C198.497 9.76204 199.488 9.56836 200.604 9.56836C202.291 9.56836 203.948 9.98991 205.578 10.833L204.74 13.3623C204.376 13.123 203.954 12.9123 203.476 12.73C202.997 12.5363 202.507 12.3882 202.006 12.2856C201.505 12.1831 201.032 12.1318 200.587 12.1318C199.756 12.1318 199.083 12.3255 198.571 12.7129C198.058 13.0889 197.802 13.5959 197.802 14.2339C197.802 14.5985 197.904 14.9346 198.109 15.2422C198.326 15.5384 198.685 15.8346 199.186 16.1309C199.687 16.4271 200.382 16.7575 201.271 17.1221C202.057 17.4411 202.832 17.8057 203.595 18.2158C204.359 18.6146 204.991 19.133 205.492 19.771C206.005 20.3976 206.261 21.2179 206.261 22.2319C206.261 23.2345 205.993 24.1232 205.458 24.8979C204.934 25.6613 204.199 26.2594 203.253 26.6924C202.319 27.1253 201.237 27.3418 200.006 27.3418C197.967 27.3418 196.064 26.7323 194.298 25.5132Z" fill="white"/>
<path d="M16 2C16 0.89543 16.8954 0 18 0H27C28.1046 0 29 0.895431 29 2V11C29 12.1046 28.1046 13 27 13H18C16.8954 13 16 12.1046 16 11V2Z" fill="white"/>
<path d="M16 18C16 16.8954 16.8954 16 18 16H27C28.1046 16 29 16.8954 29 18V27C29 28.1046 28.1046 29 27 29H18C16.8954 29 16 28.1046 16 27V18Z" fill="white"/>
<path d="M0 2C0 0.89543 0.895431 0 2 0H11C12.1046 0 13 0.895431 13 2V11C13 12.1046 12.1046 13 11 13H2C0.89543 13 0 12.1046 0 11V2Z" fill="white"/>
    <rect x="16" width="13" height="13" rx="2" fill="white"/>
    <rect x="16" y="16" width="13" height="13" rx="2" fill="white"/>
    <rect width="13" height="13" rx="2" fill="white"/>
</svg>
