<svg width="159" height="29" viewBox="0 0 159 29" fill="none" xmlns="http://www.w3.org/2000/svg">
<path d="M51.4526 24.5049L52.9053 22.1978C53.6458 22.8016 54.3864 23.3029 55.127 23.7017C55.8675 24.1004 56.6195 24.3966 57.3828 24.5903C58.1576 24.784 58.9437 24.8809 59.7412 24.8809C60.9033 24.8809 61.9173 24.6872 62.7832 24.2998C63.6605 23.9124 64.3441 23.377 64.834 22.6934C65.3239 21.9984 65.5688 21.2008 65.5688 20.3008C65.5688 19.321 65.2897 18.512 64.7314 17.874C64.1846 17.2246 63.4725 16.672 62.5952 16.2163C61.7179 15.7606 60.7837 15.3276 59.7925 14.9175C58.9608 14.5643 58.1348 14.1883 57.3145 13.7896C56.4941 13.3908 55.7479 12.9294 55.0757 12.4053C54.4149 11.8698 53.8851 11.2261 53.4863 10.4741C53.0876 9.72217 52.8882 8.81641 52.8882 7.75684C52.8882 6.40104 53.23 5.20475 53.9136 4.16797C54.5972 3.13118 55.5428 2.32227 56.7505 1.74121C57.9696 1.16016 59.3709 0.869629 60.9546 0.869629C62.0256 0.869629 63.1022 1.01204 64.1846 1.29688C65.2669 1.57031 66.3151 1.97477 67.3291 2.51025L66.0986 4.97119C65.3011 4.50407 64.4637 4.14518 63.5864 3.89453C62.7205 3.64388 61.866 3.51855 61.0229 3.51855C60.0203 3.51855 59.1374 3.68945 58.374 4.03125C57.6221 4.36165 57.0296 4.82878 56.5967 5.43262C56.1751 6.02507 55.9644 6.72005 55.9644 7.51758C55.9644 8.40625 56.2207 9.15251 56.7334 9.75635C57.2575 10.3602 57.9297 10.8843 58.75 11.3286C59.5817 11.7616 60.459 12.1831 61.3818 12.5933C62.2591 12.9806 63.125 13.3908 63.9795 13.8237C64.8454 14.2453 65.6258 14.7466 66.3208 15.3276C67.0272 15.8973 67.5911 16.5809 68.0127 17.3784C68.4342 18.1759 68.645 19.1387 68.645 20.2666C68.645 21.7135 68.2804 22.9839 67.5513 24.0776C66.8221 25.16 65.7967 26.0031 64.4751 26.6069C63.1649 27.2108 61.6268 27.5127 59.8608 27.5127C58.3114 27.5127 56.8359 27.262 55.4346 26.7607C54.0332 26.2594 52.7059 25.5075 51.4526 24.5049Z" fill="white"/>
<path d="M81.9751 26.5898C80.8472 27.0911 79.7477 27.3418 78.6768 27.3418C77.6514 27.3418 76.7513 27.1196 75.9766 26.6753C75.2018 26.2196 74.598 25.5872 74.165 24.7783C73.7321 23.958 73.5156 23.0067 73.5156 21.9243V12.4224H70.5249V9.91016H73.6523V5.6377H76.3184V9.91016H81.4282V12.4224H76.3184V21.4116C76.3184 22.437 76.5918 23.263 77.1387 23.8896C77.6969 24.5163 78.4261 24.8296 79.3262 24.8296C80.0553 24.8296 80.7845 24.6131 81.5137 24.1802L81.9751 26.5898Z" fill="white"/>
<path d="M93.3228 27.3418C91.6252 27.3418 90.0985 26.9544 88.7427 26.1797C87.3869 25.4049 86.3159 24.3511 85.5298 23.0181C84.755 21.6737 84.3677 20.1527 84.3677 18.4551C84.3677 16.7689 84.755 15.2593 85.5298 13.9263C86.3159 12.5819 87.3869 11.5223 88.7427 10.7476C90.0985 9.96143 91.6252 9.56836 93.3228 9.56836C95.0203 9.56836 96.5413 9.96143 97.8857 10.7476C99.2301 11.5223 100.29 12.5819 101.064 13.9263C101.839 15.2593 102.227 16.7689 102.227 18.4551C102.227 20.1527 101.839 21.6737 101.064 23.0181C100.29 24.3511 99.2301 25.4049 97.8857 26.1797C96.5413 26.9544 95.0203 27.3418 93.3228 27.3418ZM93.3057 24.8125C94.4564 24.8125 95.4875 24.5334 96.3989 23.9751C97.3104 23.4168 98.0282 22.6592 98.5522 21.7021C99.0877 20.7451 99.3555 19.6571 99.3555 18.438C99.3555 17.2417 99.0877 16.165 98.5522 15.208C98.0282 14.251 97.3104 13.4933 96.3989 12.9351C95.4875 12.3768 94.4564 12.0977 93.3057 12.0977C92.1549 12.0977 91.1182 12.3768 90.1953 12.9351C89.2839 13.4933 88.5604 14.251 88.0249 15.208C87.5008 16.165 87.2388 17.2417 87.2388 18.438C87.2388 19.6571 87.5008 20.7451 88.0249 21.7021C88.5604 22.6592 89.2839 23.4168 90.1953 23.9751C91.1182 24.5334 92.1549 24.8125 93.3057 24.8125Z" fill="white"/>
<path d="M108.977 27H106.174V9.91016H108.635L108.755 13.2939C109.347 12.1204 110.179 11.209 111.25 10.5596C112.332 9.89876 113.574 9.56836 114.976 9.56836C115.283 9.56836 115.597 9.58545 115.916 9.61963C116.235 9.65381 116.554 9.70508 116.873 9.77344L116.531 12.3027C115.904 12.1546 115.283 12.0806 114.668 12.0806C113.551 12.0806 112.56 12.354 111.694 12.9009C110.84 13.4478 110.173 14.1997 109.695 15.1567C109.216 16.1138 108.977 17.2132 108.977 18.4551V27Z" fill="white"/>
<path d="M121.248 4.50977C120.769 4.50977 120.365 4.34456 120.034 4.01416C119.715 3.67236 119.556 3.26221 119.556 2.78369C119.556 2.31657 119.715 1.91781 120.034 1.5874C120.365 1.257 120.769 1.0918 121.248 1.0918C121.737 1.0918 122.148 1.257 122.478 1.5874C122.808 1.91781 122.974 2.31657 122.974 2.78369C122.974 3.26221 122.808 3.67236 122.478 4.01416C122.148 4.34456 121.737 4.50977 121.248 4.50977ZM122.649 27H119.846V9.91016H122.649V27Z" fill="white"/>
<path d="M143.037 24.8979C140.918 26.5272 138.582 27.3418 136.03 27.3418C134.253 27.3418 132.658 26.943 131.245 26.1455C129.832 25.348 128.716 24.2656 127.896 22.8984C127.087 21.5199 126.682 19.9647 126.682 18.2329C126.682 16.5695 127.058 15.0884 127.81 13.7896C128.562 12.4793 129.593 11.4482 130.903 10.6963C132.214 9.94434 133.7 9.56836 135.364 9.56836C137.073 9.56836 138.577 9.97852 139.875 10.7988C141.186 11.6191 142.205 12.7585 142.935 14.2168C143.664 15.6751 144.028 17.3613 144.028 19.2754V19.8223H129.724C129.929 20.8249 130.339 21.6965 130.955 22.437C131.581 23.1776 132.356 23.7529 133.279 24.1631C134.202 24.5732 135.233 24.7783 136.372 24.7783C138.332 24.7783 140.12 24.1346 141.738 22.8472L143.037 24.8979ZM129.622 17.4297H141.379C141.254 16.3701 140.924 15.4473 140.388 14.6611C139.864 13.8636 139.181 13.2427 138.337 12.7983C137.506 12.354 136.566 12.1318 135.518 12.1318C134.458 12.1318 133.501 12.354 132.646 12.7983C131.803 13.2427 131.114 13.8636 130.579 14.6611C130.055 15.4473 129.736 16.3701 129.622 17.4297Z" fill="white"/>
<path d="M146.78 25.5132L147.515 22.8813C147.925 23.2687 148.392 23.6048 148.916 23.8896C149.44 24.1745 149.993 24.3966 150.574 24.5562C151.155 24.7043 151.742 24.7783 152.334 24.7783C153.394 24.7783 154.248 24.5448 154.897 24.0776C155.547 23.6105 155.872 23.001 155.872 22.249C155.872 21.7021 155.701 21.2521 155.359 20.8989C155.028 20.5343 154.59 20.221 154.043 19.959C153.496 19.6969 152.909 19.4463 152.283 19.207C151.519 18.9108 150.762 18.5747 150.01 18.1987C149.258 17.8228 148.631 17.3271 148.13 16.7119C147.64 16.0967 147.395 15.2878 147.395 14.2852C147.395 13.3281 147.634 12.4964 148.113 11.79C148.591 11.0837 149.258 10.5368 150.112 10.1494C150.978 9.76204 151.969 9.56836 153.086 9.56836C154.772 9.56836 156.43 9.98991 158.059 10.833L157.222 13.3623C156.857 13.123 156.436 12.9123 155.957 12.73C155.479 12.5363 154.989 12.3882 154.487 12.2856C153.986 12.1831 153.513 12.1318 153.069 12.1318C152.237 12.1318 151.565 12.3255 151.052 12.7129C150.54 13.0889 150.283 13.5959 150.283 14.2339C150.283 14.5985 150.386 14.9346 150.591 15.2422C150.807 15.5384 151.166 15.8346 151.667 16.1309C152.169 16.4271 152.864 16.7575 153.752 17.1221C154.539 17.4411 155.313 17.8057 156.077 18.2158C156.84 18.6146 157.472 19.133 157.974 19.771C158.486 20.3976 158.743 21.2179 158.743 22.2319C158.743 23.2345 158.475 24.1232 157.939 24.8979C157.415 25.6613 156.681 26.2594 155.735 26.6924C154.801 27.1253 153.718 27.3418 152.488 27.3418C150.448 27.3418 148.546 26.7323 146.78 25.5132Z" fill="white"/>
<path d="M27 0H18C16.8954 0 16 0.89543 16 2V11C16 12.1046 16.8954 13 18 13H27C28.1046 13 29 12.1046 29 11V2C29 0.89543 28.1046 0 27 0Z" fill="white"/>
<path d="M27 16H18C16.8954 16 16 16.8954 16 18V27C16 28.1046 16.8954 29 18 29H27C28.1046 29 29 28.1046 29 27V18C29 16.8954 28.1046 16 27 16Z" fill="white"/>
<path d="M11 0H2C0.89543 0 0 0.89543 0 2V11C0 12.1046 0.89543 13 2 13H11C12.1046 13 13 12.1046 13 11V2C13 0.89543 12.1046 0 11 0Z" fill="white"/>
</svg>
