<svg width="976" height="321" viewBox="0 0 976 321" fill="none" xmlns="http://www.w3.org/2000/svg">
<path d="M143.716 239H129.614L94.5459 127.95L59.4775 239H45.376L0.102539 99.8398H17.1729L52.334 211.168L87.4951 99.8398H101.597L136.665 210.89L171.641 99.8398H188.804L143.716 239Z" fill="black"/>
<path d="M261.664 239H245.336V99.8398H261.664V163.111H339.316V99.8398H355.644V239H339.316V177.584H261.664V239Z" fill="black"/>
<path d="M479.808 239H463.48V179.532L409.486 99.8398H429.339L471.644 165.895L514.134 99.8398H533.895L479.808 179.718V239Z" fill="black"/>
<path d="M823.182 99.8398V176.749C823.182 190.232 820.831 201.86 816.131 211.632C811.492 221.342 804.812 228.795 796.092 233.99C787.371 239.186 776.919 241.783 764.734 241.783C752.612 241.783 742.19 239.186 733.47 233.99C724.749 228.795 718.038 221.342 713.338 211.632C708.699 201.86 706.38 190.232 706.38 176.749V99.8398H722.708V175.45C722.708 186.397 724.378 195.737 727.718 203.468C731.058 211.199 735.851 217.105 742.098 221.188C748.406 225.27 755.952 227.311 764.734 227.311C773.579 227.311 781.124 225.27 787.371 221.188C793.68 217.105 798.504 211.199 801.844 203.468C805.184 195.737 806.854 186.397 806.854 175.45V99.8398H823.182Z" fill="black"/>
<path d="M882.59 225.455L890.476 212.931C894.496 216.209 898.516 218.93 902.536 221.095C906.556 223.259 910.639 224.868 914.782 225.919C918.988 226.97 923.256 227.496 927.585 227.496C933.894 227.496 939.398 226.445 944.099 224.342C948.861 222.239 952.572 219.332 955.232 215.621C957.891 211.848 959.221 207.519 959.221 202.633C959.221 197.314 957.706 192.923 954.675 189.459C951.706 185.934 947.841 182.934 943.078 180.46C938.316 177.986 933.244 175.636 927.863 173.409C923.348 171.492 918.864 169.451 914.411 167.286C909.958 165.121 905.907 162.617 902.258 159.771C898.671 156.865 895.795 153.37 893.63 149.288C891.465 145.206 890.383 140.289 890.383 134.537C890.383 127.177 892.238 120.683 895.949 115.055C899.66 109.426 904.794 105.035 911.35 101.881C917.968 98.7266 925.575 97.1494 934.172 97.1494C939.986 97.1494 945.831 97.9225 951.706 99.4688C957.582 100.953 963.272 103.149 968.777 106.056L962.097 119.415C957.767 116.879 953.222 114.931 948.459 113.57C943.759 112.21 939.12 111.529 934.543 111.529C929.1 111.529 924.307 112.457 920.163 114.312C916.081 116.106 912.865 118.642 910.515 121.92C908.226 125.136 907.082 128.909 907.082 133.238C907.082 138.062 908.474 142.114 911.257 145.392C914.102 148.67 917.751 151.515 922.204 153.927C926.719 156.277 931.482 158.565 936.491 160.792C941.254 162.895 945.954 165.121 950.593 167.472C955.293 169.76 959.53 172.481 963.303 175.636C967.138 178.728 970.199 182.439 972.487 186.769C974.776 191.098 975.92 196.324 975.92 202.447C975.92 210.302 973.941 217.198 969.983 223.136C966.024 229.011 960.458 233.588 953.283 236.866C946.171 240.144 937.821 241.783 928.235 241.783C919.823 241.783 911.814 240.423 904.206 237.701C896.599 234.98 889.393 230.898 882.59 225.455Z" fill="black"/>
<path d="M625 0H632V321H625V0Z" fill="black"/>
</svg>
