<svg width="1447" height="367" viewBox="0 0 1447 367" fill="none" xmlns="http://www.w3.org/2000/svg">
<path d="M1252.44 60.6523V202.84C1252.44 227.563 1248.22 248.868 1239.79 266.756C1231.48 284.643 1219.51 298.372 1203.91 307.942C1188.3 317.399 1169.55 322.127 1147.68 322.127C1126.03 322.127 1107.35 317.342 1091.62 307.771C1076.02 298.201 1064 284.529 1055.57 266.756C1047.25 248.868 1043.09 227.563 1043.09 202.84V60.6523H1058.13V203.182C1058.13 224.829 1061.77 243.571 1069.07 259.407C1076.36 275.13 1086.67 287.264 1100 295.809C1113.44 304.24 1129.34 308.455 1147.68 308.455C1166.25 308.455 1182.2 304.24 1195.53 295.809C1208.98 287.264 1219.29 275.13 1226.46 259.407C1233.76 243.571 1237.4 224.829 1237.4 203.182V60.6523H1252.44Z" fill="#8CE3FF"/>
<path d="M1286.46 293.758L1294.15 282.137C1301.22 287.947 1308.45 292.846 1315.86 296.834C1323.38 300.708 1331.12 303.67 1339.1 305.721C1347.07 307.658 1355.22 308.626 1363.54 308.626C1376.87 308.626 1388.66 306.176 1398.91 301.277C1409.17 296.378 1417.14 289.599 1422.84 280.94C1428.65 272.282 1431.56 262.369 1431.56 251.204C1431.56 239.241 1428.48 229.5 1422.33 221.98C1416.17 214.347 1408.26 207.967 1398.57 202.84C1388.89 197.713 1378.69 192.928 1367.98 188.484C1359.66 184.952 1351.46 181.25 1343.37 177.376C1335.28 173.388 1327.99 168.831 1321.5 163.704C1315 158.577 1309.82 152.425 1305.95 145.247C1302.19 138.069 1300.31 129.467 1300.31 119.441C1300.31 106.795 1303.44 95.6865 1309.71 86.1162C1315.97 76.432 1324.74 68.9124 1336.02 63.5576C1347.42 58.2028 1360.46 55.5254 1375.16 55.5254C1385.07 55.5254 1394.81 56.7786 1404.38 59.2852C1413.95 61.7917 1423.07 65.4375 1431.73 70.2227L1424.89 82.8691C1417.03 78.4258 1408.83 75.0648 1400.28 72.7861C1391.74 70.3936 1383.25 69.1973 1374.82 69.1973C1363.2 69.1973 1352.94 71.305 1344.06 75.5205C1335.28 79.6221 1328.33 85.3757 1323.21 92.7812C1318.19 100.187 1315.69 108.789 1315.69 118.587C1315.69 129.297 1318.53 138.126 1324.23 145.076C1330.04 152.026 1337.5 157.951 1346.62 162.85C1355.85 167.635 1365.59 172.192 1375.84 176.521C1384.5 180.281 1393.05 184.269 1401.48 188.484C1409.91 192.586 1417.54 197.428 1424.38 203.011C1431.21 208.479 1436.68 215.088 1440.78 222.835C1444.89 230.468 1446.94 239.811 1446.94 250.862C1446.94 264.876 1443.46 277.238 1436.51 287.947C1429.56 298.657 1419.88 307.031 1407.46 313.069C1395.04 319.108 1380.68 322.127 1364.39 322.127C1350.26 322.127 1336.59 319.734 1323.38 314.949C1310.16 310.05 1297.86 302.986 1286.46 293.758Z" fill="#8CE3FF"/>
<path d="M915.183 0H925.183V367H915.183V0Z" fill="#8CE3FF"/>
<path d="M251.392 317H240.283L167.48 90.3887L94.5068 317H83.3984L0 60.6523H15.7227L88.8672 287.435L161.841 60.6523H172.949L245.923 286.922L318.555 60.6523H334.448L251.392 317Z" fill="#8CE3FF"/>
<path d="M378.383 317H363.344V60.6523H378.383V183.528H542.787V60.6523H557.826V317H542.787V197.2H378.383V317Z" fill="#8CE3FF"/>
<path d="M697.464 317H682.425V207.454L581.424 60.6523H599.71L690.115 193.953L780.691 60.6523H798.807L697.464 207.625V317Z" fill="#8CE3FF"/>
</svg>
