<svg width="483" height="36" viewBox="0 0 483 36" fill="none" xmlns="http://www.w3.org/2000/svg">
<path d="M52.4526 24.5049L53.9053 22.1978C54.6458 22.8016 55.3864 23.3029 56.127 23.7017C56.8675 24.1004 57.6195 24.3966 58.3828 24.5903C59.1576 24.784 59.9437 24.8809 60.7412 24.8809C61.9033 24.8809 62.9173 24.6872 63.7832 24.2998C64.6605 23.9124 65.3441 23.377 65.834 22.6934C66.3239 21.9984 66.5688 21.2008 66.5688 20.3008C66.5688 19.321 66.2897 18.512 65.7314 17.874C65.1846 17.2246 64.4725 16.672 63.5952 16.2163C62.7179 15.7606 61.7837 15.3276 60.7925 14.9175C59.9608 14.5643 59.1348 14.1883 58.3145 13.7896C57.4941 13.3908 56.7479 12.9294 56.0757 12.4053C55.4149 11.8698 54.8851 11.2261 54.4863 10.4741C54.0876 9.72217 53.8882 8.81641 53.8882 7.75684C53.8882 6.40104 54.23 5.20475 54.9136 4.16797C55.5972 3.13118 56.5428 2.32227 57.7505 1.74121C58.9696 1.16016 60.3709 0.869629 61.9546 0.869629C63.0256 0.869629 64.1022 1.01204 65.1846 1.29688C66.2669 1.57031 67.3151 1.97477 68.3291 2.51025L67.0986 4.97119C66.3011 4.50407 65.4637 4.14518 64.5864 3.89453C63.7205 3.64388 62.866 3.51855 62.0229 3.51855C61.0203 3.51855 60.1374 3.68945 59.374 4.03125C58.6221 4.36165 58.0296 4.82878 57.5967 5.43262C57.1751 6.02507 56.9644 6.72005 56.9644 7.51758C56.9644 8.40625 57.2207 9.15251 57.7334 9.75635C58.2575 10.3602 58.9297 10.8843 59.75 11.3286C60.5817 11.7616 61.459 12.1831 62.3818 12.5933C63.2591 12.9806 64.125 13.3908 64.9795 13.8237C65.8454 14.2453 66.6258 14.7466 67.3208 15.3276C68.0272 15.8973 68.5911 16.5809 69.0127 17.3784C69.4342 18.1759 69.645 19.1387 69.645 20.2666C69.645 21.7135 69.2804 22.9839 68.5513 24.0776C67.8221 25.16 66.7967 26.0031 65.4751 26.6069C64.1649 27.2108 62.6268 27.5127 60.8608 27.5127C59.3114 27.5127 57.8359 27.262 56.4346 26.7607C55.0332 26.2594 53.7059 25.5075 52.4526 24.5049Z" fill="white"/>
<path d="M82.9751 26.5898C81.8472 27.0911 80.7477 27.3418 79.6768 27.3418C78.6514 27.3418 77.7513 27.1196 76.9766 26.6753C76.2018 26.2196 75.598 25.5872 75.165 24.7783C74.7321 23.958 74.5156 23.0067 74.5156 21.9243V12.4224H71.5249V9.91016H74.6523V5.6377H77.3184V9.91016H82.4282V12.4224H77.3184V21.4116C77.3184 22.437 77.5918 23.263 78.1387 23.8896C78.6969 24.5163 79.4261 24.8296 80.3262 24.8296C81.0553 24.8296 81.7845 24.6131 82.5137 24.1802L82.9751 26.5898Z" fill="white"/>
<path d="M94.3228 27.3418C92.6252 27.3418 91.0985 26.9544 89.7427 26.1797C88.3869 25.4049 87.3159 24.3511 86.5298 23.0181C85.755 21.6737 85.3677 20.1527 85.3677 18.4551C85.3677 16.7689 85.755 15.2593 86.5298 13.9263C87.3159 12.5819 88.3869 11.5223 89.7427 10.7476C91.0985 9.96143 92.6252 9.56836 94.3228 9.56836C96.0203 9.56836 97.5413 9.96143 98.8857 10.7476C100.23 11.5223 101.29 12.5819 102.064 13.9263C102.839 15.2593 103.227 16.7689 103.227 18.4551C103.227 20.1527 102.839 21.6737 102.064 23.0181C101.29 24.3511 100.23 25.4049 98.8857 26.1797C97.5413 26.9544 96.0203 27.3418 94.3228 27.3418ZM94.3057 24.8125C95.4564 24.8125 96.4875 24.5334 97.3989 23.9751C98.3104 23.4168 99.0282 22.6592 99.5522 21.7021C100.088 20.7451 100.355 19.6571 100.355 18.438C100.355 17.2417 100.088 16.165 99.5522 15.208C99.0282 14.251 98.3104 13.4933 97.3989 12.9351C96.4875 12.3768 95.4564 12.0977 94.3057 12.0977C93.1549 12.0977 92.1182 12.3768 91.1953 12.9351C90.2839 13.4933 89.5604 14.251 89.0249 15.208C88.5008 16.165 88.2388 17.2417 88.2388 18.438C88.2388 19.6571 88.5008 20.7451 89.0249 21.7021C89.5604 22.6592 90.2839 23.4168 91.1953 23.9751C92.1182 24.5334 93.1549 24.8125 94.3057 24.8125Z" fill="white"/>
<path d="M109.977 27H107.174V9.91016H109.635L109.755 13.2939C110.347 12.1204 111.179 11.209 112.25 10.5596C113.332 9.89876 114.574 9.56836 115.976 9.56836C116.283 9.56836 116.597 9.58545 116.916 9.61963C117.235 9.65381 117.554 9.70508 117.873 9.77344L117.531 12.3027C116.904 12.1546 116.283 12.0806 115.668 12.0806C114.551 12.0806 113.56 12.354 112.694 12.9009C111.84 13.4478 111.173 14.1997 110.695 15.1567C110.216 16.1138 109.977 17.2132 109.977 18.4551V27Z" fill="white"/>
<path d="M122.248 4.50977C121.769 4.50977 121.365 4.34456 121.034 4.01416C120.715 3.67236 120.556 3.26221 120.556 2.78369C120.556 2.31657 120.715 1.91781 121.034 1.5874C121.365 1.257 121.769 1.0918 122.248 1.0918C122.737 1.0918 123.148 1.257 123.478 1.5874C123.808 1.91781 123.974 2.31657 123.974 2.78369C123.974 3.26221 123.808 3.67236 123.478 4.01416C123.148 4.34456 122.737 4.50977 122.248 4.50977ZM123.649 27H120.846V9.91016H123.649V27Z" fill="white"/>
<path d="M144.037 24.8979C141.918 26.5272 139.582 27.3418 137.03 27.3418C135.253 27.3418 133.658 26.943 132.245 26.1455C130.832 25.348 129.716 24.2656 128.896 22.8984C128.087 21.5199 127.682 19.9647 127.682 18.2329C127.682 16.5695 128.058 15.0884 128.81 13.7896C129.562 12.4793 130.593 11.4482 131.903 10.6963C133.214 9.94434 134.7 9.56836 136.364 9.56836C138.073 9.56836 139.577 9.97852 140.875 10.7988C142.186 11.6191 143.205 12.7585 143.935 14.2168C144.664 15.6751 145.028 17.3613 145.028 19.2754V19.8223H130.724C130.929 20.8249 131.339 21.6965 131.955 22.437C132.581 23.1776 133.356 23.7529 134.279 24.1631C135.202 24.5732 136.233 24.7783 137.372 24.7783C139.332 24.7783 141.12 24.1346 142.738 22.8472L144.037 24.8979ZM130.622 17.4297H142.379C142.254 16.3701 141.924 15.4473 141.388 14.6611C140.864 13.8636 140.181 13.2427 139.337 12.7983C138.506 12.354 137.566 12.1318 136.518 12.1318C135.458 12.1318 134.501 12.354 133.646 12.7983C132.803 13.2427 132.114 13.8636 131.579 14.6611C131.055 15.4473 130.736 16.3701 130.622 17.4297Z" fill="white"/>
<path d="M147.78 25.5132L148.515 22.8813C148.925 23.2687 149.392 23.6048 149.916 23.8896C150.44 24.1745 150.993 24.3966 151.574 24.5562C152.155 24.7043 152.742 24.7783 153.334 24.7783C154.394 24.7783 155.248 24.5448 155.897 24.0776C156.547 23.6105 156.872 23.001 156.872 22.249C156.872 21.7021 156.701 21.2521 156.359 20.8989C156.028 20.5343 155.59 20.221 155.043 19.959C154.496 19.6969 153.909 19.4463 153.283 19.207C152.519 18.9108 151.762 18.5747 151.01 18.1987C150.258 17.8228 149.631 17.3271 149.13 16.7119C148.64 16.0967 148.395 15.2878 148.395 14.2852C148.395 13.3281 148.634 12.4964 149.113 11.79C149.591 11.0837 150.258 10.5368 151.112 10.1494C151.978 9.76204 152.969 9.56836 154.086 9.56836C155.772 9.56836 157.43 9.98991 159.059 10.833L158.222 13.3623C157.857 13.123 157.436 12.9123 156.957 12.73C156.479 12.5363 155.989 12.3882 155.487 12.2856C154.986 12.1831 154.513 12.1318 154.069 12.1318C153.237 12.1318 152.565 12.3255 152.052 12.7129C151.54 13.0889 151.283 13.5959 151.283 14.2339C151.283 14.5985 151.386 14.9346 151.591 15.2422C151.807 15.5384 152.166 15.8346 152.667 16.1309C153.169 16.4271 153.864 16.7575 154.752 17.1221C155.539 17.4411 156.313 17.8057 157.077 18.2158C157.84 18.6146 158.472 19.133 158.974 19.771C159.486 20.3976 159.743 21.2179 159.743 22.2319C159.743 23.2345 159.475 24.1232 158.939 24.8979C158.415 25.6613 157.681 26.2594 156.735 26.6924C155.801 27.1253 154.718 27.3418 153.488 27.3418C151.448 27.3418 149.546 26.7323 147.78 25.5132Z" fill="white"/>
<path d="M16 2C16 0.89543 16.8954 0 18 0H27C28.1046 0 29 0.895431 29 2V11C29 12.1046 28.1046 13 27 13H18C16.8954 13 16 12.1046 16 11V2Z" fill="white"/>
<path d="M16 18C16 16.8954 16.8954 16 18 16H27C28.1046 16 29 16.8954 29 18V27C29 28.1046 28.1046 29 27 29H18C16.8954 29 16 28.1046 16 27V18Z" fill="white"/>
<path d="M0 2C0 0.89543 0.895431 0 2 0H11C12.1046 0 13 0.895431 13 2V11C13 12.1046 12.1046 13 11 13H2C0.89543 13 0 12.1046 0 11V2Z" fill="white"/>
    <rect x="16" width="13" height="13" rx="2" fill="white"/>
    <rect x="16" y="16" width="13" height="13" rx="2" fill="white"/>
    <rect width="13" height="13" rx="2" fill="white"/>
</svg>
