<svg width="483" height="36" viewBox="0 0 483 36" fill="none" xmlns="http://www.w3.org/2000/svg">
<path d="M75.3188 23.7188C74.1453 24.9036 72.744 25.8322 71.1147 26.5044C69.4855 27.1766 67.7082 27.5127 65.7827 27.5127C63.8573 27.5127 62.0799 27.1823 60.4507 26.5215C58.8328 25.8607 57.4258 24.9321 56.2295 23.7358C55.0332 22.5282 54.1047 21.1154 53.4438 19.4976C52.783 17.8683 52.4526 16.0967 52.4526 14.1826C52.4526 12.2572 52.783 10.4855 53.4438 8.86768C54.1047 7.23844 55.0332 5.82568 56.2295 4.62939C57.4258 3.43311 58.8328 2.50456 60.4507 1.84375C62.0799 1.18294 63.8573 0.852539 65.7827 0.852539C67.6968 0.852539 69.4684 1.18864 71.0977 1.86084C72.7269 2.52165 74.1283 3.4445 75.3018 4.62939L73.1997 6.76562C72.2882 5.75163 71.1945 4.9598 69.9185 4.39014C68.6424 3.80908 67.2467 3.51855 65.7314 3.51855C64.2617 3.51855 62.9059 3.7863 61.6641 4.32178C60.4222 4.84587 59.3398 5.59212 58.417 6.56055C57.5055 7.51758 56.7935 8.64551 56.2808 9.94434C55.7795 11.2432 55.5288 12.6559 55.5288 14.1826C55.5288 15.7207 55.7795 17.1392 56.2808 18.438C56.7935 19.7254 57.5055 20.8534 58.417 21.8218C59.3398 22.7788 60.4222 23.5251 61.6641 24.0605C62.9059 24.5846 64.2617 24.8467 65.7314 24.8467C67.2467 24.8467 68.6424 24.5618 69.9185 23.9922C71.1945 23.4111 72.2882 22.6136 73.1997 21.5996L75.3188 23.7188ZM87.0083 27.3418C85.3107 27.3418 83.784 26.9544 82.4282 26.1797C81.0724 25.4049 80.0015 24.3511 79.2153 23.0181C78.4406 21.6737 78.0532 20.1527 78.0532 18.4551C78.0532 16.7689 78.4406 15.2593 79.2153 13.9263C80.0015 12.5819 81.0724 11.5223 82.4282 10.7476C83.784 9.96143 85.3107 9.56836 87.0083 9.56836C88.7059 9.56836 90.2269 9.96143 91.5713 10.7476C92.9157 11.5223 93.9753 12.5819 94.75 13.9263C95.5247 15.2593 95.9121 16.7689 95.9121 18.4551C95.9121 20.1527 95.5247 21.6737 94.75 23.0181C93.9753 24.3511 92.9157 25.4049 91.5713 26.1797C90.2269 26.9544 88.7059 27.3418 87.0083 27.3418ZM86.9912 24.8125C88.1419 24.8125 89.173 24.5334 90.0845 23.9751C90.9959 23.4168 91.7137 22.6592 92.2378 21.7021C92.7733 20.7451 93.041 19.6571 93.041 18.438C93.041 17.2417 92.7733 16.165 92.2378 15.208C91.7137 14.251 90.9959 13.4933 90.0845 12.9351C89.173 12.3768 88.1419 12.0977 86.9912 12.0977C85.8405 12.0977 84.8037 12.3768 83.8809 12.9351C82.9694 13.4933 82.2459 14.251 81.7104 15.208C81.1864 16.165 80.9243 17.2417 80.9243 18.438C80.9243 19.6571 81.1864 20.7451 81.7104 21.7021C82.2459 22.6592 82.9694 23.4168 83.8809 23.9751C84.8037 24.5334 85.8405 24.8125 86.9912 24.8125ZM113.532 19.4976H99.8599V17.293H113.532V19.4976ZM117.633 24.5049L119.086 22.1978C119.826 22.8016 120.567 23.3029 121.308 23.7017C122.048 24.1004 122.8 24.3966 123.563 24.5903C124.338 24.784 125.124 24.8809 125.922 24.8809C127.084 24.8809 128.098 24.6872 128.964 24.2998C129.841 23.9124 130.525 23.377 131.015 22.6934C131.505 21.9984 131.75 21.2008 131.75 20.3008C131.75 19.321 131.47 18.512 130.912 17.874C130.365 17.2246 129.653 16.672 128.776 16.2163C127.899 15.7606 126.964 15.3276 125.973 14.9175C125.141 14.5643 124.315 14.1883 123.495 13.7896C122.675 13.3908 121.929 12.9294 121.256 12.4053C120.596 11.8698 120.066 11.2261 119.667 10.4741C119.268 9.72217 119.069 8.81641 119.069 7.75684C119.069 6.40104 119.411 5.20475 120.094 4.16797C120.778 3.13118 121.723 2.32227 122.931 1.74121C124.15 1.16016 125.552 0.869629 127.135 0.869629C128.206 0.869629 129.283 1.01204 130.365 1.29688C131.448 1.57031 132.496 1.97477 133.51 2.51025L132.279 4.97119C131.482 4.50407 130.644 4.14518 129.767 3.89453C128.901 3.64388 128.047 3.51855 127.204 3.51855C126.201 3.51855 125.318 3.68945 124.555 4.03125C123.803 4.36165 123.21 4.82878 122.777 5.43262C122.356 6.02507 122.145 6.72005 122.145 7.51758C122.145 8.40625 122.401 9.15251 122.914 9.75635C123.438 10.3602 124.11 10.8843 124.931 11.3286C125.762 11.7616 126.64 12.1831 127.562 12.5933C128.44 12.9806 129.306 13.3908 130.16 13.8237C131.026 14.2453 131.806 14.7466 132.501 15.3276C133.208 15.8973 133.772 16.5809 134.193 17.3784C134.615 18.1759 134.826 19.1387 134.826 20.2666C134.826 21.7135 134.461 22.9839 133.732 24.0776C133.003 25.16 131.977 26.0031 130.656 26.6069C129.346 27.2108 127.807 27.5127 126.042 27.5127C124.492 27.5127 123.017 27.262 121.615 26.7607C120.214 26.2594 118.887 25.5075 117.633 24.5049ZM146.857 27.3418C145.159 27.3418 143.633 26.9544 142.277 26.1797C140.921 25.4049 139.85 24.3511 139.064 23.0181C138.289 21.6737 137.902 20.1527 137.902 18.4551C137.902 16.7689 138.289 15.2593 139.064 13.9263C139.85 12.5819 140.921 11.5223 142.277 10.7476C143.633 9.96143 145.159 9.56836 146.857 9.56836C148.555 9.56836 150.076 9.96143 151.42 10.7476C152.764 11.5223 153.824 12.5819 154.599 13.9263C155.373 15.2593 155.761 16.7689 155.761 18.4551C155.761 20.1527 155.373 21.6737 154.599 23.0181C153.824 24.3511 152.764 25.4049 151.42 26.1797C150.076 26.9544 148.555 27.3418 146.857 27.3418ZM146.84 24.8125C147.991 24.8125 149.022 24.5334 149.933 23.9751C150.845 23.4168 151.562 22.6592 152.086 21.7021C152.622 20.7451 152.89 19.6571 152.89 18.438C152.89 17.2417 152.622 16.165 152.086 15.208C151.562 14.251 150.845 13.4933 149.933 12.9351C149.022 12.3768 147.991 12.0977 146.84 12.0977C145.689 12.0977 144.652 12.3768 143.729 12.9351C142.818 13.4933 142.095 14.251 141.559 15.208C141.035 16.165 140.773 17.2417 140.773 18.438C140.773 19.6571 141.035 20.7451 141.559 21.7021C142.095 22.6592 142.818 23.4168 143.729 23.9751C144.652 24.5334 145.689 24.8125 146.84 24.8125ZM175.363 27H172.902L172.799 24.2314C172.173 25.234 171.347 26.0031 170.321 26.5386C169.307 27.0741 168.105 27.3418 166.715 27.3418C164.448 27.3418 162.654 26.6582 161.332 25.291C160.022 23.9124 159.367 22.0326 159.367 19.6514V9.91016H162.169V19.4463C162.169 21.0641 162.625 22.3573 163.537 23.3257C164.459 24.2941 165.684 24.7783 167.211 24.7783C168.806 24.7783 170.093 24.2542 171.073 23.2061C172.064 22.1579 172.56 20.7907 172.56 19.1045V9.91016H175.363V27ZM183.463 27H180.661V9.91016H183.122L183.241 13.2939C183.834 12.1204 184.665 11.209 185.736 10.5596C186.819 9.89876 188.061 9.56836 189.462 9.56836C189.77 9.56836 190.083 9.58545 190.402 9.61963C190.721 9.65381 191.04 9.70508 191.359 9.77344L191.017 12.3027C190.39 12.1546 189.77 12.0806 189.154 12.0806C188.038 12.0806 187.047 12.354 186.181 12.9009C185.326 13.4478 184.66 14.1997 184.181 15.1567C183.703 16.1138 183.463 17.2132 183.463 18.4551V27ZM208.466 24.5391C207.634 25.4391 206.649 26.1341 205.509 26.624C204.37 27.1025 203.145 27.3418 201.835 27.3418C200.137 27.3418 198.611 26.9544 197.255 26.1797C195.91 25.4049 194.845 24.3454 194.059 23.001C193.284 21.6566 192.897 20.1413 192.897 18.4551C192.897 16.7575 193.284 15.2422 194.059 13.9092C194.845 12.5648 195.91 11.5052 197.255 10.7305C198.611 9.95573 200.137 9.56836 201.835 9.56836C203.134 9.56836 204.353 9.80762 205.492 10.2861C206.632 10.7646 207.617 11.4539 208.449 12.354L206.774 14.1143C206.17 13.4762 205.447 12.9863 204.604 12.6445C203.772 12.3027 202.889 12.1318 201.955 12.1318C200.758 12.1318 199.693 12.4053 198.759 12.9521C197.836 13.4876 197.107 14.2282 196.571 15.1738C196.047 16.1195 195.785 17.2075 195.785 18.438C195.785 19.6685 196.047 20.7622 196.571 21.7192C197.107 22.6763 197.836 23.4282 198.759 23.9751C199.693 24.5106 200.758 24.7783 201.955 24.7783C202.889 24.7783 203.778 24.6074 204.621 24.2656C205.464 23.9124 206.181 23.4225 206.774 22.7959L208.466 24.5391ZM213.883 4.50977C213.405 4.50977 213 4.34456 212.67 4.01416C212.351 3.67236 212.191 3.26221 212.191 2.78369C212.191 2.31657 212.351 1.91781 212.67 1.5874C213 1.257 213.405 1.0918 213.883 1.0918C214.373 1.0918 214.783 1.257 215.114 1.5874C215.444 1.91781 215.609 2.31657 215.609 2.78369C215.609 3.26221 215.444 3.67236 215.114 4.01416C214.783 4.34456 214.373 4.50977 213.883 4.50977ZM215.285 27H212.482V9.91016H215.285V27ZM236.681 27H233.878V17.4639C233.878 15.846 233.417 14.5529 232.494 13.5845C231.571 12.616 230.347 12.1318 228.82 12.1318C227.236 12.1318 225.949 12.6559 224.958 13.7041C223.978 14.7409 223.488 16.1081 223.488 17.8057V27H220.685V9.91016H223.129L223.231 12.6787C223.858 11.6761 224.684 10.9071 225.709 10.3716C226.735 9.8361 227.943 9.56836 229.333 9.56836C231.6 9.56836 233.389 10.252 234.699 11.6191C236.02 12.9863 236.681 14.8605 236.681 17.2417V27ZM248.9 27C247.26 27 245.784 26.6183 244.474 25.855C243.175 25.0916 242.15 24.0549 241.398 22.7446C240.646 21.423 240.27 19.9362 240.27 18.2842C240.27 16.6208 240.646 15.134 241.398 13.8237C242.15 12.5135 243.175 11.4767 244.474 10.7134C245.784 9.95003 247.265 9.56836 248.917 9.56836C250.239 9.56836 251.452 9.81901 252.558 10.3203C253.663 10.8102 254.603 11.4938 255.377 12.3711L255.514 9.91016H257.992V26.5557C257.992 28.4697 257.616 30.1217 256.864 31.5117C256.112 32.9131 255.041 33.9897 253.651 34.7417C252.261 35.505 250.609 35.8867 248.695 35.8867C245.984 35.8867 243.625 34.9867 241.62 33.1865L242.851 30.9307C244.411 32.5485 246.32 33.3574 248.576 33.3574C249.931 33.3574 251.099 33.0726 252.079 32.5029C253.07 31.9447 253.834 31.1528 254.369 30.1274C254.916 29.1021 255.189 27.8887 255.189 26.4873V24.3853C254.415 25.1942 253.486 25.8322 252.404 26.2993C251.333 26.7664 250.165 27 248.9 27ZM249.14 24.522C250.256 24.522 251.27 24.2713 252.182 23.77C253.093 23.2573 253.822 22.5623 254.369 21.6851C254.916 20.7964 255.189 19.7938 255.189 18.6772V17.8911C255.189 16.7632 254.916 15.7606 254.369 14.8833C253.822 14.006 253.093 13.3167 252.182 12.8154C251.27 12.3027 250.256 12.0464 249.14 12.0464C247.989 12.0464 246.958 12.3198 246.046 12.8667C245.135 13.4136 244.411 14.1598 243.876 15.1055C243.352 16.0397 243.09 17.0993 243.09 18.2842C243.09 19.4691 243.352 20.5343 243.876 21.48C244.411 22.4256 245.135 23.1719 246.046 23.7188C246.958 24.2542 247.989 24.522 249.14 24.522Z" fill="white"/>
<rect x="16" width="13" height="13" rx="2" fill="white"/>
<rect x="16" y="16" width="13" height="13" rx="2" fill="white"/>
<rect width="13" height="13" rx="2" fill="white"/>
</svg>
