<svg width="483" height="36" viewBox="0 0 483 36" fill="none" xmlns="http://www.w3.org/2000/svg">
<path d="M56.6567 1.36523H53.6489V27H56.6567V1.36523ZM77.9507 27H75.1479V17.4639C75.1479 15.846 74.6865 14.5529 73.7637 13.5845C72.8408 12.616 71.616 12.1318 70.0894 12.1318C68.5057 12.1318 67.2183 12.6559 66.2271 13.7041C65.2472 14.7409 64.7573 16.1081 64.7573 17.8057V27H61.9546V9.91016H64.3984L64.501 12.6787C65.1276 11.6761 65.9536 10.9071 66.979 10.3716C68.0044 9.8361 69.2121 9.56836 70.6021 9.56836C72.8693 9.56836 74.658 10.252 75.9683 11.6191C77.2899 12.9863 77.9507 14.8605 77.9507 17.2417V27ZM92.4771 26.5898C91.3491 27.0911 90.2497 27.3418 89.1787 27.3418C88.1533 27.3418 87.2533 27.1196 86.4785 26.6753C85.7038 26.2196 85.0999 25.5872 84.667 24.7783C84.234 23.958 84.0176 23.0067 84.0176 21.9243V12.4224H81.0269V9.91016H84.1543V5.6377H86.8203V9.91016H91.9302V12.4224H86.8203V21.4116C86.8203 22.437 87.0938 23.263 87.6406 23.8896C88.1989 24.5163 88.9281 24.8296 89.8281 24.8296C90.5573 24.8296 91.2865 24.6131 92.0156 24.1802L92.4771 26.5898ZM111.225 24.8979C109.105 26.5272 106.77 27.3418 104.218 27.3418C102.44 27.3418 100.845 26.943 99.4326 26.1455C98.0199 25.348 96.9033 24.2656 96.083 22.8984C95.2741 21.5199 94.8696 19.9647 94.8696 18.2329C94.8696 16.5695 95.2456 15.0884 95.9976 13.7896C96.7495 12.4793 97.7806 11.4482 99.0908 10.6963C100.401 9.94434 101.888 9.56836 103.551 9.56836C105.26 9.56836 106.764 9.97852 108.063 10.7988C109.373 11.6191 110.393 12.7585 111.122 14.2168C111.851 15.6751 112.216 17.3613 112.216 19.2754V19.8223H97.9116C98.1167 20.8249 98.5269 21.6965 99.1421 22.437C99.7687 23.1776 100.543 23.7529 101.466 24.1631C102.389 24.5732 103.42 24.7783 104.56 24.7783C106.519 24.7783 108.308 24.1346 109.926 22.8472L111.225 24.8979ZM97.8091 17.4297H109.567C109.442 16.3701 109.111 15.4473 108.576 14.6611C108.052 13.8636 107.368 13.2427 106.525 12.7983C105.693 12.354 104.753 12.1318 103.705 12.1318C102.646 12.1318 101.688 12.354 100.834 12.7983C99.9909 13.2427 99.3016 13.8636 98.7661 14.6611C98.242 15.4473 97.923 16.3701 97.8091 17.4297ZM123.427 27C121.786 27 120.311 26.6183 119 25.855C117.702 25.0916 116.676 24.0549 115.924 22.7446C115.172 21.423 114.796 19.9362 114.796 18.2842C114.796 16.6208 115.172 15.134 115.924 13.8237C116.676 12.5135 117.702 11.4767 119 10.7134C120.311 9.95003 121.792 9.56836 123.444 9.56836C124.765 9.56836 125.979 9.81901 127.084 10.3203C128.189 10.8102 129.129 11.4938 129.904 12.3711L130.041 9.91016H132.519V26.5557C132.519 28.4697 132.143 30.1217 131.391 31.5117C130.639 32.9131 129.568 33.9897 128.178 34.7417C126.788 35.505 125.136 35.8867 123.222 35.8867C120.51 35.8867 118.152 34.9867 116.146 33.1865L117.377 30.9307C118.938 32.5485 120.846 33.3574 123.102 33.3574C124.458 33.3574 125.626 33.0726 126.605 32.5029C127.597 31.9447 128.36 31.1528 128.896 30.1274C129.442 29.1021 129.716 27.8887 129.716 26.4873V24.3853C128.941 25.1942 128.013 25.8322 126.93 26.2993C125.859 26.7664 124.691 27 123.427 27ZM123.666 24.522C124.783 24.522 125.797 24.2713 126.708 23.77C127.619 23.2573 128.349 22.5623 128.896 21.6851C129.442 20.7964 129.716 19.7938 129.716 18.6772V17.8911C129.716 16.7632 129.442 15.7606 128.896 14.8833C128.349 14.006 127.619 13.3167 126.708 12.8154C125.797 12.3027 124.783 12.0464 123.666 12.0464C122.515 12.0464 121.484 12.3198 120.573 12.8667C119.661 13.4136 118.938 14.1598 118.402 15.1055C117.878 16.0397 117.616 17.0993 117.616 18.2842C117.616 19.4691 117.878 20.5343 118.402 21.48C118.938 22.4256 119.661 23.1719 120.573 23.7188C121.484 24.2542 122.515 24.522 123.666 24.522ZM140.465 27H137.663V9.91016H140.124L140.243 13.2939C140.836 12.1204 141.667 11.209 142.738 10.5596C143.821 9.89876 145.062 9.56836 146.464 9.56836C146.771 9.56836 147.085 9.58545 147.404 9.61963C147.723 9.65381 148.042 9.70508 148.361 9.77344L148.019 12.3027C147.392 12.1546 146.771 12.0806 146.156 12.0806C145.04 12.0806 144.049 12.354 143.183 12.9009C142.328 13.4478 141.662 14.1997 141.183 15.1567C140.705 16.1138 140.465 17.2132 140.465 18.4551V27ZM164.545 27H162.135L161.947 24.7441C161.321 25.5531 160.523 26.1911 159.555 26.6582C158.586 27.1139 157.504 27.3418 156.308 27.3418C155.077 27.3418 153.978 27.1025 153.009 26.624C152.041 26.1341 151.278 25.4676 150.719 24.6245C150.172 23.7814 149.899 22.8244 149.899 21.7534C149.899 20.6255 150.195 19.6343 150.788 18.7798C151.391 17.9139 152.206 17.236 153.231 16.7461C154.268 16.2562 155.442 16.0112 156.752 16.0112C157.606 16.0112 158.478 16.1195 159.367 16.3359C160.255 16.541 161.047 16.8258 161.742 17.1904V16.4727C161.742 15.5612 161.514 14.7865 161.059 14.1484C160.603 13.499 159.993 13.0034 159.23 12.6616C158.467 12.3084 157.624 12.1318 156.701 12.1318C155.903 12.1318 155.089 12.2799 154.257 12.5762C153.425 12.861 152.628 13.3053 151.864 13.9092L150.941 11.4995C151.933 10.8615 152.975 10.383 154.069 10.064C155.163 9.73356 156.245 9.56836 157.316 9.56836C158.797 9.56836 160.073 9.87028 161.144 10.4741C162.226 11.0666 163.064 11.9154 163.656 13.0205C164.249 14.1143 164.545 15.4131 164.545 16.917V27ZM156.803 24.7783C157.681 24.7783 158.484 24.596 159.213 24.2314C159.942 23.8669 160.535 23.3428 160.99 22.6592C161.446 21.9642 161.697 21.1439 161.742 20.1982V19.9077C161.116 19.4178 160.409 19.0418 159.623 18.7798C158.848 18.5063 158.056 18.3696 157.248 18.3696C155.983 18.3696 154.923 18.6772 154.069 19.2925C153.226 19.9077 152.804 20.6882 152.804 21.6338C152.804 22.2262 152.975 22.7617 153.317 23.2402C153.67 23.7188 154.149 24.0947 154.752 24.3682C155.356 24.6416 156.04 24.7783 156.803 24.7783ZM178.917 26.5898C177.79 27.0911 176.69 27.3418 175.619 27.3418C174.594 27.3418 173.694 27.1196 172.919 26.6753C172.144 26.2196 171.54 25.5872 171.107 24.7783C170.674 23.958 170.458 23.0067 170.458 21.9243V12.4224H167.467V9.91016H170.595V5.6377H173.261V9.91016H178.371V12.4224H173.261V21.4116C173.261 22.437 173.534 23.263 174.081 23.8896C174.639 24.5163 175.368 24.8296 176.269 24.8296C176.998 24.8296 177.727 24.6131 178.456 24.1802L178.917 26.5898ZM183.634 4.50977C183.156 4.50977 182.751 4.34456 182.421 4.01416C182.102 3.67236 181.942 3.26221 181.942 2.78369C181.942 2.31657 182.102 1.91781 182.421 1.5874C182.751 1.257 183.156 1.0918 183.634 1.0918C184.124 1.0918 184.534 1.257 184.865 1.5874C185.195 1.91781 185.36 2.31657 185.36 2.78369C185.36 3.26221 185.195 3.67236 184.865 4.01416C184.534 4.34456 184.124 4.50977 183.634 4.50977ZM185.036 27H182.233V9.91016H185.036V27ZM198.024 27.3418C196.326 27.3418 194.8 26.9544 193.444 26.1797C192.088 25.4049 191.017 24.3511 190.231 23.0181C189.456 21.6737 189.069 20.1527 189.069 18.4551C189.069 16.7689 189.456 15.2593 190.231 13.9263C191.017 12.5819 192.088 11.5223 193.444 10.7476C194.8 9.96143 196.326 9.56836 198.024 9.56836C199.722 9.56836 201.243 9.96143 202.587 10.7476C203.931 11.5223 204.991 12.5819 205.766 13.9263C206.54 15.2593 206.928 16.7689 206.928 18.4551C206.928 20.1527 206.54 21.6737 205.766 23.0181C204.991 24.3511 203.931 25.4049 202.587 26.1797C201.243 26.9544 199.722 27.3418 198.024 27.3418ZM198.007 24.8125C199.158 24.8125 200.189 24.5334 201.1 23.9751C202.012 23.4168 202.729 22.6592 203.253 21.7021C203.789 20.7451 204.057 19.6571 204.057 18.438C204.057 17.2417 203.789 16.165 203.253 15.208C202.729 14.251 202.012 13.4933 201.1 12.9351C200.189 12.3768 199.158 12.0977 198.007 12.0977C196.856 12.0977 195.819 12.3768 194.896 12.9351C193.985 13.4933 193.262 14.251 192.726 15.208C192.202 16.165 191.94 17.2417 191.94 18.438C191.94 19.6571 192.202 20.7451 192.726 21.7021C193.262 22.6592 193.985 23.4168 194.896 23.9751C195.819 24.5334 196.856 24.8125 198.007 24.8125ZM226.872 27H224.069V17.4639C224.069 15.846 223.607 14.5529 222.685 13.5845C221.762 12.616 220.537 12.1318 219.01 12.1318C217.427 12.1318 216.139 12.6559 215.148 13.7041C214.168 14.7409 213.678 16.1081 213.678 17.8057V27H210.875V9.91016H213.319L213.422 12.6787C214.049 11.6761 214.875 10.9071 215.9 10.3716C216.925 9.8361 218.133 9.56836 219.523 9.56836C221.79 9.56836 223.579 10.252 224.889 11.6191C226.211 12.9863 226.872 14.8605 226.872 17.2417V27ZM241.654 27H238.493L249.02 1.36523H252.284L262.794 27H259.633L256.847 20.0786H244.44L241.654 27ZM245.5 17.4126H255.788L250.644 4.6123L245.5 17.4126ZM269.015 27H266.212V9.91016H268.673L268.793 13.2939C269.385 12.1204 270.217 11.209 271.288 10.5596C272.37 9.89876 273.612 9.56836 275.014 9.56836C275.321 9.56836 275.635 9.58545 275.954 9.61963C276.273 9.65381 276.592 9.70508 276.911 9.77344L276.569 12.3027C275.942 12.1546 275.321 12.0806 274.706 12.0806C273.59 12.0806 272.598 12.354 271.732 12.9009C270.878 13.4478 270.211 14.1997 269.733 15.1567C269.254 16.1138 269.015 17.2132 269.015 18.4551V27ZM294.018 24.5391C293.186 25.4391 292.2 26.1341 291.061 26.624C289.922 27.1025 288.697 27.3418 287.387 27.3418C285.689 27.3418 284.162 26.9544 282.807 26.1797C281.462 25.4049 280.397 24.3454 279.611 23.001C278.836 21.6566 278.449 20.1413 278.449 18.4551C278.449 16.7575 278.836 15.2422 279.611 13.9092C280.397 12.5648 281.462 11.5052 282.807 10.7305C284.162 9.95573 285.689 9.56836 287.387 9.56836C288.686 9.56836 289.905 9.80762 291.044 10.2861C292.183 10.7646 293.169 11.4539 294 12.354L292.326 14.1143C291.722 13.4762 290.998 12.9863 290.155 12.6445C289.324 12.3027 288.441 12.1318 287.506 12.1318C286.31 12.1318 285.245 12.4053 284.311 12.9521C283.388 13.4876 282.659 14.2282 282.123 15.1738C281.599 16.1195 281.337 17.2075 281.337 18.438C281.337 19.6685 281.599 20.7622 282.123 21.7192C282.659 22.6763 283.388 23.4282 284.311 23.9751C285.245 24.5106 286.31 24.7783 287.506 24.7783C288.441 24.7783 289.329 24.6074 290.172 24.2656C291.015 23.9124 291.733 23.4225 292.326 22.7959L294.018 24.5391ZM297.965 27V1.36523H300.768V12.4736C302.056 10.5368 304.049 9.56836 306.75 9.56836C309.017 9.56836 310.783 10.2463 312.047 11.6021C313.323 12.9465 313.961 14.8263 313.961 17.2417V27H311.159V17.8911C311.159 16.0568 310.703 14.6326 309.792 13.6187C308.891 12.5933 307.632 12.0806 306.015 12.0806C304.385 12.0806 303.104 12.599 302.169 13.6357C301.235 14.6725 300.768 16.091 300.768 17.8911V27H297.965ZM320.387 4.50977C319.909 4.50977 319.504 4.34456 319.174 4.01416C318.855 3.67236 318.695 3.26221 318.695 2.78369C318.695 2.31657 318.855 1.91781 319.174 1.5874C319.504 1.257 319.909 1.0918 320.387 1.0918C320.877 1.0918 321.287 1.257 321.618 1.5874C321.948 1.91781 322.113 2.31657 322.113 2.78369C322.113 3.26221 321.948 3.67236 321.618 4.01416C321.287 4.34456 320.877 4.50977 320.387 4.50977ZM321.789 27H318.986V9.91016H321.789V27ZM337.101 26.5898C335.973 27.0911 334.874 27.3418 333.803 27.3418C332.777 27.3418 331.877 27.1196 331.103 26.6753C330.328 26.2196 329.724 25.5872 329.291 24.7783C328.858 23.958 328.642 23.0067 328.642 21.9243V12.4224H325.651V9.91016H328.778V5.6377H331.444V9.91016H336.554V12.4224H331.444V21.4116C331.444 22.437 331.718 23.263 332.265 23.8896C332.823 24.5163 333.552 24.8296 334.452 24.8296C335.181 24.8296 335.91 24.6131 336.64 24.1802L337.101 26.5898ZM355.849 24.8979C353.729 26.5272 351.394 27.3418 348.842 27.3418C347.064 27.3418 345.469 26.943 344.057 26.1455C342.644 25.348 341.527 24.2656 340.707 22.8984C339.898 21.5199 339.494 19.9647 339.494 18.2329C339.494 16.5695 339.87 15.0884 340.622 13.7896C341.374 12.4793 342.405 11.4482 343.715 10.6963C345.025 9.94434 346.512 9.56836 348.175 9.56836C349.884 9.56836 351.388 9.97852 352.687 10.7988C353.997 11.6191 355.017 12.7585 355.746 14.2168C356.475 15.6751 356.84 17.3613 356.84 19.2754V19.8223H342.536C342.741 20.8249 343.151 21.6965 343.766 22.437C344.393 23.1776 345.167 23.7529 346.09 24.1631C347.013 24.5732 348.044 24.7783 349.184 24.7783C351.143 24.7783 352.932 24.1346 354.55 22.8472L355.849 24.8979ZM342.433 17.4297H354.191C354.066 16.3701 353.735 15.4473 353.2 14.6611C352.676 13.8636 351.992 13.2427 351.149 12.7983C350.317 12.354 349.377 12.1318 348.329 12.1318C347.27 12.1318 346.312 12.354 345.458 12.7983C344.615 13.2427 343.926 13.8636 343.39 14.6611C342.866 15.4473 342.547 16.3701 342.433 17.4297ZM374.989 24.5391C374.158 25.4391 373.172 26.1341 372.033 26.624C370.893 27.1025 369.669 27.3418 368.358 27.3418C366.661 27.3418 365.134 26.9544 363.778 26.1797C362.434 25.4049 361.369 24.3454 360.583 23.001C359.808 21.6566 359.42 20.1413 359.42 18.4551C359.42 16.7575 359.808 15.2422 360.583 13.9092C361.369 12.5648 362.434 11.5052 363.778 10.7305C365.134 9.95573 366.661 9.56836 368.358 9.56836C369.657 9.56836 370.876 9.80762 372.016 10.2861C373.155 10.7646 374.14 11.4539 374.972 12.354L373.297 14.1143C372.694 13.4762 371.97 12.9863 371.127 12.6445C370.295 12.3027 369.412 12.1318 368.478 12.1318C367.282 12.1318 366.216 12.4053 365.282 12.9521C364.359 13.4876 363.63 14.2282 363.095 15.1738C362.571 16.1195 362.309 17.2075 362.309 18.438C362.309 19.6685 362.571 20.7622 363.095 21.7192C363.63 22.6763 364.359 23.4282 365.282 23.9751C366.216 24.5106 367.282 24.7783 368.478 24.7783C369.412 24.7783 370.301 24.6074 371.144 24.2656C371.987 23.9124 372.705 23.4225 373.297 22.7959L374.989 24.5391ZM388.678 26.5898C387.55 27.0911 386.451 27.3418 385.38 27.3418C384.354 27.3418 383.454 27.1196 382.68 26.6753C381.905 26.2196 381.301 25.5872 380.868 24.7783C380.435 23.958 380.219 23.0067 380.219 21.9243V12.4224H377.228V9.91016H380.355V5.6377H383.021V9.91016H388.131V12.4224H383.021V21.4116C383.021 22.437 383.295 23.263 383.842 23.8896C384.4 24.5163 385.129 24.8296 386.029 24.8296C386.758 24.8296 387.488 24.6131 388.217 24.1802L388.678 26.5898ZM408.092 27H405.631L405.529 24.2314C404.902 25.234 404.076 26.0031 403.051 26.5386C402.037 27.0741 400.835 27.3418 399.445 27.3418C397.178 27.3418 395.383 26.6582 394.062 25.291C392.751 23.9124 392.096 22.0326 392.096 19.6514V9.91016H394.899V19.4463C394.899 21.0641 395.355 22.3573 396.266 23.3257C397.189 24.2941 398.414 24.7783 399.94 24.7783C401.535 24.7783 402.823 24.2542 403.803 23.2061C404.794 22.1579 405.29 20.7907 405.29 19.1045V9.91016H408.092V27ZM416.193 27H413.39V9.91016H415.851L415.971 13.2939C416.563 12.1204 417.395 11.209 418.466 10.5596C419.548 9.89876 420.79 9.56836 422.191 9.56836C422.499 9.56836 422.812 9.58545 423.131 9.61963C423.45 9.65381 423.769 9.70508 424.088 9.77344L423.747 12.3027C423.12 12.1546 422.499 12.0806 421.884 12.0806C420.767 12.0806 419.776 12.354 418.91 12.9009C418.056 13.4478 417.389 14.1997 416.911 15.1567C416.432 16.1138 416.193 17.2132 416.193 18.4551V27ZM441.981 24.8979C439.862 26.5272 437.527 27.3418 434.975 27.3418C433.197 27.3418 431.602 26.943 430.189 26.1455C428.777 25.348 427.66 24.2656 426.84 22.8984C426.031 21.5199 425.626 19.9647 425.626 18.2329C425.626 16.5695 426.002 15.0884 426.754 13.7896C427.506 12.4793 428.537 11.4482 429.848 10.6963C431.158 9.94434 432.645 9.56836 434.308 9.56836C436.017 9.56836 437.521 9.97852 438.82 10.7988C440.13 11.6191 441.15 12.7585 441.879 14.2168C442.608 15.6751 442.973 17.3613 442.973 19.2754V19.8223H428.668C428.874 20.8249 429.284 21.6965 429.899 22.437C430.526 23.1776 431.3 23.7529 432.223 24.1631C433.146 24.5732 434.177 24.7783 435.316 24.7783C437.276 24.7783 439.065 24.1346 440.683 22.8472L441.981 24.8979ZM428.566 17.4297H440.324C440.198 16.3701 439.868 15.4473 439.333 14.6611C438.808 13.8636 438.125 13.2427 437.282 12.7983C436.45 12.354 435.51 12.1318 434.462 12.1318C433.402 12.1318 432.445 12.354 431.591 12.7983C430.748 13.2427 430.058 13.8636 429.523 14.6611C428.999 15.4473 428.68 16.3701 428.566 17.4297Z" fill="white"/>
<rect x="16" width="13" height="13" rx="2" fill="white"/>
<rect x="16" y="16" width="13" height="13" rx="2" fill="white"/>
<rect width="13" height="13" rx="2" fill="white"/>
</svg>
