<svg width="483" height="36" viewBox="0 0 483 36" fill="none" xmlns="http://www.w3.org/2000/svg">
<path d="M75.3188 23.7188C74.1453 24.9036 72.744 25.8322 71.1147 26.5044C69.4855 27.1766 67.7082 27.5127 65.7827 27.5127C63.8573 27.5127 62.0799 27.1823 60.4507 26.5215C58.8328 25.8607 57.4258 24.9321 56.2295 23.7358C55.0332 22.5282 54.1047 21.1154 53.4438 19.4976C52.783 17.8683 52.4526 16.0967 52.4526 14.1826C52.4526 12.2572 52.783 10.4855 53.4438 8.86768C54.1047 7.23844 55.0332 5.82568 56.2295 4.62939C57.4258 3.43311 58.8328 2.50456 60.4507 1.84375C62.0799 1.18294 63.8573 0.852539 65.7827 0.852539C67.6968 0.852539 69.4684 1.18864 71.0977 1.86084C72.7269 2.52165 74.1283 3.4445 75.3018 4.62939L73.1997 6.76562C72.2882 5.75163 71.1945 4.9598 69.9185 4.39014C68.6424 3.80908 67.2467 3.51855 65.7314 3.51855C64.2617 3.51855 62.9059 3.7863 61.6641 4.32178C60.4222 4.84587 59.3398 5.59212 58.417 6.56055C57.5055 7.51758 56.7935 8.64551 56.2808 9.94434C55.7795 11.2432 55.5288 12.6559 55.5288 14.1826C55.5288 15.7207 55.7795 17.1392 56.2808 18.438C56.7935 19.7254 57.5055 20.8534 58.417 21.8218C59.3398 22.7788 60.4222 23.5251 61.6641 24.0605C62.9059 24.5846 64.2617 24.8467 65.7314 24.8467C67.2467 24.8467 68.6424 24.5618 69.9185 23.9922C71.1945 23.4111 72.2882 22.6136 73.1997 21.5996L75.3188 23.7188ZM82.7358 27H79.7622V0.681641H82.7358V27ZM95.6216 27.3418C93.924 27.3418 92.3973 26.9544 91.0415 26.1797C89.6857 25.4049 88.6147 24.3511 87.8286 23.0181C87.0539 21.6737 86.6665 20.1527 86.6665 18.4551C86.6665 16.7689 87.0539 15.2593 87.8286 13.9263C88.6147 12.5819 89.6857 11.5223 91.0415 10.7476C92.3973 9.96143 93.924 9.56836 95.6216 9.56836C97.3192 9.56836 98.8402 9.96143 100.185 10.7476C101.529 11.5223 102.589 12.5819 103.363 13.9263C104.138 15.2593 104.525 16.7689 104.525 18.4551C104.525 20.1527 104.138 21.6737 103.363 23.0181C102.589 24.3511 101.529 25.4049 100.185 26.1797C98.8402 26.9544 97.3192 27.3418 95.6216 27.3418ZM95.6045 24.8125C96.7552 24.8125 97.7863 24.5334 98.6978 23.9751C99.6092 23.4168 100.327 22.6592 100.851 21.7021C101.387 20.7451 101.654 19.6571 101.654 18.438C101.654 17.2417 101.387 16.165 100.851 15.208C100.327 14.251 99.6092 13.4933 98.6978 12.9351C97.7863 12.3768 96.7552 12.0977 95.6045 12.0977C94.4538 12.0977 93.417 12.3768 92.4941 12.9351C91.5827 13.4933 90.8592 14.251 90.3237 15.208C89.7996 16.165 89.5376 17.2417 89.5376 18.438C89.5376 19.6571 89.7996 20.7451 90.3237 21.7021C90.8592 22.6592 91.5827 23.4168 92.4941 23.9751C93.417 24.5334 94.4538 24.8125 95.6045 24.8125ZM124.127 27H121.667L121.564 24.2314C120.937 25.234 120.111 26.0031 119.086 26.5386C118.072 27.0741 116.87 27.3418 115.48 27.3418C113.213 27.3418 111.418 26.6582 110.097 25.291C108.786 23.9124 108.131 22.0326 108.131 19.6514V9.91016H110.934V19.4463C110.934 21.0641 111.39 22.3573 112.301 23.3257C113.224 24.2941 114.449 24.7783 115.976 24.7783C117.571 24.7783 118.858 24.2542 119.838 23.2061C120.829 22.1579 121.325 20.7907 121.325 19.1045V9.91016H124.127V27ZM146.105 27H143.61L143.456 24.5049C142.67 25.3822 141.713 26.0771 140.585 26.5898C139.457 27.0911 138.227 27.3418 136.894 27.3418C135.207 27.3418 133.698 26.9544 132.365 26.1797C131.032 25.4049 129.978 24.3454 129.203 23.001C128.44 21.6566 128.058 20.1413 128.058 18.4551C128.058 16.7575 128.44 15.2422 129.203 13.9092C129.978 12.5648 131.032 11.5052 132.365 10.7305C133.698 9.95573 135.207 9.56836 136.894 9.56836C138.181 9.56836 139.372 9.80192 140.465 10.269C141.57 10.7362 142.516 11.3856 143.302 12.2173V1.36523H146.105V27ZM137.133 24.8125C138.272 24.8125 139.309 24.5505 140.243 24.0264C141.177 23.4909 141.918 22.7674 142.465 21.856C143.023 20.9331 143.302 19.8906 143.302 18.7285V18.1475C143.302 16.9854 143.023 15.9486 142.465 15.0371C141.918 14.1143 141.177 13.3908 140.243 12.8667C139.309 12.3426 138.272 12.0806 137.133 12.0806C135.948 12.0806 134.888 12.3597 133.954 12.918C133.02 13.4762 132.279 14.2339 131.732 15.1909C131.197 16.1479 130.929 17.2303 130.929 18.438C130.929 19.6457 131.197 20.7337 131.732 21.7021C132.279 22.6592 133.02 23.4168 133.954 23.9751C134.888 24.5334 135.948 24.8125 137.133 24.8125ZM181.618 23.7188C180.444 24.9036 179.043 25.8322 177.414 26.5044C175.784 27.1766 174.007 27.5127 172.082 27.5127C170.156 27.5127 168.379 27.1823 166.75 26.5215C165.132 25.8607 163.725 24.9321 162.528 23.7358C161.332 22.5282 160.403 21.1154 159.743 19.4976C159.082 17.8683 158.751 16.0967 158.751 14.1826C158.751 12.2572 159.082 10.4855 159.743 8.86768C160.403 7.23844 161.332 5.82568 162.528 4.62939C163.725 3.43311 165.132 2.50456 166.75 1.84375C168.379 1.18294 170.156 0.852539 172.082 0.852539C173.996 0.852539 175.767 1.18864 177.396 1.86084C179.026 2.52165 180.427 3.4445 181.601 4.62939L179.499 6.76562C178.587 5.75163 177.493 4.9598 176.217 4.39014C174.941 3.80908 173.546 3.51855 172.03 3.51855C170.561 3.51855 169.205 3.7863 167.963 4.32178C166.721 4.84587 165.639 5.59212 164.716 6.56055C163.804 7.51758 163.092 8.64551 162.58 9.94434C162.078 11.2432 161.828 12.6559 161.828 14.1826C161.828 15.7207 162.078 17.1392 162.58 18.438C163.092 19.7254 163.804 20.8534 164.716 21.8218C165.639 22.7788 166.721 23.5251 167.963 24.0605C169.205 24.5846 170.561 24.8467 172.03 24.8467C173.546 24.8467 174.941 24.5618 176.217 23.9922C177.493 23.4111 178.587 22.6136 179.499 21.5996L181.618 23.7188ZM193.307 27.3418C191.61 27.3418 190.083 26.9544 188.727 26.1797C187.371 25.4049 186.3 24.3511 185.514 23.0181C184.739 21.6737 184.352 20.1527 184.352 18.4551C184.352 16.7689 184.739 15.2593 185.514 13.9263C186.3 12.5819 187.371 11.5223 188.727 10.7476C190.083 9.96143 191.61 9.56836 193.307 9.56836C195.005 9.56836 196.526 9.96143 197.87 10.7476C199.215 11.5223 200.274 12.5819 201.049 13.9263C201.824 15.2593 202.211 16.7689 202.211 18.4551C202.211 20.1527 201.824 21.6737 201.049 23.0181C200.274 24.3511 199.215 25.4049 197.87 26.1797C196.526 26.9544 195.005 27.3418 193.307 27.3418ZM193.29 24.8125C194.441 24.8125 195.472 24.5334 196.383 23.9751C197.295 23.4168 198.013 22.6592 198.537 21.7021C199.072 20.7451 199.34 19.6571 199.34 18.438C199.34 17.2417 199.072 16.165 198.537 15.208C198.013 14.251 197.295 13.4933 196.383 12.9351C195.472 12.3768 194.441 12.0977 193.29 12.0977C192.139 12.0977 191.103 12.3768 190.18 12.9351C189.268 13.4933 188.545 14.251 188.009 15.208C187.485 16.165 187.223 17.2417 187.223 18.438C187.223 19.6571 187.485 20.7451 188.009 21.7021C188.545 22.6592 189.268 23.4168 190.18 23.9751C191.103 24.5334 192.139 24.8125 193.29 24.8125ZM233.212 27H230.409V17.8911C230.409 16.0568 230.005 14.6326 229.196 13.6187C228.398 12.5933 227.27 12.0806 225.812 12.0806C224.342 12.0806 223.186 12.599 222.343 13.6357C221.511 14.6611 221.095 16.0796 221.095 17.8911V27H218.292V17.8911C218.292 16.0568 217.888 14.6326 217.079 13.6187C216.27 12.5933 215.137 12.0806 213.678 12.0806C212.208 12.0806 211.052 12.599 210.209 13.6357C209.377 14.6611 208.961 16.0796 208.961 17.8911V27H206.159V9.91016H208.449L208.568 12.9692C209.138 11.8527 209.913 11.0096 210.893 10.4399C211.884 9.85889 213.052 9.56836 214.396 9.56836C215.832 9.56836 217.056 9.89307 218.07 10.5425C219.096 11.1805 219.859 12.0977 220.36 13.2939C220.919 12.0749 221.71 11.152 222.736 10.5254C223.773 9.88737 225.009 9.56836 226.444 9.56836C228.575 9.56836 230.233 10.2463 231.417 11.6021C232.614 12.9465 233.212 14.8263 233.212 17.2417V27ZM240.988 35.5449H238.185V9.91016H240.68L240.817 12.4053C241.614 11.528 242.577 10.8387 243.705 10.3374C244.833 9.82471 246.069 9.56836 247.414 9.56836C249.088 9.56836 250.587 9.95573 251.908 10.7305C253.241 11.5052 254.289 12.5648 255.053 13.9092C255.827 15.2422 256.215 16.7575 256.215 18.4551C256.215 20.1413 255.827 21.6566 255.053 23.001C254.289 24.3454 253.241 25.4049 251.908 26.1797C250.587 26.9544 249.088 27.3418 247.414 27.3418C246.126 27.3418 244.93 27.1082 243.825 26.6411C242.731 26.174 241.785 25.5246 240.988 24.6929V35.5449ZM247.191 24.7783C248.388 24.7783 249.447 24.5106 250.37 23.9751C251.293 23.4282 252.011 22.6763 252.523 21.7192C253.048 20.7622 253.31 19.6685 253.31 18.438C253.31 17.1961 253.048 16.1024 252.523 15.1567C251.999 14.1997 251.276 13.4478 250.353 12.9009C249.442 12.354 248.393 12.0806 247.208 12.0806C246.081 12.0806 245.061 12.3312 244.149 12.8325C243.249 13.3338 242.52 14.0231 241.962 14.9004C241.404 15.7663 241.079 16.7575 240.988 17.874V19.0361C241.079 20.1527 241.398 21.1439 241.945 22.0098C242.492 22.8757 243.215 23.5535 244.115 24.0435C245.027 24.5334 246.052 24.7783 247.191 24.7783ZM275.817 27H273.356L273.253 24.2314C272.627 25.234 271.801 26.0031 270.775 26.5386C269.761 27.0741 268.559 27.3418 267.169 27.3418C264.902 27.3418 263.108 26.6582 261.786 25.291C260.476 23.9124 259.821 22.0326 259.821 19.6514V9.91016H262.624V19.4463C262.624 21.0641 263.079 22.3573 263.991 23.3257C264.914 24.2941 266.138 24.7783 267.665 24.7783C269.26 24.7783 270.548 24.2542 271.527 23.2061C272.519 22.1579 273.014 20.7907 273.014 19.1045V9.91016H275.817V27ZM291.027 26.5898C289.899 27.0911 288.799 27.3418 287.729 27.3418C286.703 27.3418 285.803 27.1196 285.028 26.6753C284.254 26.2196 283.65 25.5872 283.217 24.7783C282.784 23.958 282.567 23.0067 282.567 21.9243V12.4224H279.577V9.91016H282.704V5.6377H285.37V9.91016H290.48V12.4224H285.37V21.4116C285.37 22.437 285.644 23.263 286.19 23.8896C286.749 24.5163 287.478 24.8296 288.378 24.8296C289.107 24.8296 289.836 24.6131 290.565 24.1802L291.027 26.5898ZM295.744 4.50977C295.265 4.50977 294.861 4.34456 294.53 4.01416C294.211 3.67236 294.052 3.26221 294.052 2.78369C294.052 2.31657 294.211 1.91781 294.53 1.5874C294.861 1.257 295.265 1.0918 295.744 1.0918C296.234 1.0918 296.644 1.257 296.974 1.5874C297.305 1.91781 297.47 2.31657 297.47 2.78369C297.47 3.26221 297.305 3.67236 296.974 4.01416C296.644 4.34456 296.234 4.50977 295.744 4.50977ZM297.145 27H294.342V9.91016H297.145V27ZM318.542 27H315.739V17.4639C315.739 15.846 315.277 14.5529 314.354 13.5845C313.432 12.616 312.207 12.1318 310.68 12.1318C309.097 12.1318 307.809 12.6559 306.818 13.7041C305.838 14.7409 305.348 16.1081 305.348 17.8057V27H302.545V9.91016H304.989L305.092 12.6787C305.718 11.6761 306.544 10.9071 307.57 10.3716C308.595 9.8361 309.803 9.56836 311.193 9.56836C313.46 9.56836 315.249 10.252 316.559 11.6191C317.881 12.9863 318.542 14.8605 318.542 17.2417V27ZM330.761 27C329.12 27 327.645 26.6183 326.334 25.855C325.036 25.0916 324.01 24.0549 323.258 22.7446C322.506 21.423 322.13 19.9362 322.13 18.2842C322.13 16.6208 322.506 15.134 323.258 13.8237C324.01 12.5135 325.036 11.4767 326.334 10.7134C327.645 9.95003 329.126 9.56836 330.778 9.56836C332.099 9.56836 333.313 9.81901 334.418 10.3203C335.523 10.8102 336.463 11.4938 337.238 12.3711L337.375 9.91016H339.853V26.5557C339.853 28.4697 339.477 30.1217 338.725 31.5117C337.973 32.9131 336.902 33.9897 335.512 34.7417C334.122 35.505 332.47 35.8867 330.556 35.8867C327.844 35.8867 325.486 34.9867 323.48 33.1865L324.711 30.9307C326.272 32.5485 328.18 33.3574 330.436 33.3574C331.792 33.3574 332.96 33.0726 333.939 32.5029C334.931 31.9447 335.694 31.1528 336.229 30.1274C336.776 29.1021 337.05 27.8887 337.05 26.4873V24.3853C336.275 25.1942 335.347 25.8322 334.264 26.2993C333.193 26.7664 332.025 27 330.761 27ZM331 24.522C332.117 24.522 333.131 24.2713 334.042 23.77C334.953 23.2573 335.683 22.5623 336.229 21.6851C336.776 20.7964 337.05 19.7938 337.05 18.6772V17.8911C337.05 16.7632 336.776 15.7606 336.229 14.8833C335.683 14.006 334.953 13.3167 334.042 12.8154C333.131 12.3027 332.117 12.0464 331 12.0464C329.849 12.0464 328.818 12.3198 327.907 12.8667C326.995 13.4136 326.272 14.1598 325.736 15.1055C325.212 16.0397 324.95 17.0993 324.95 18.2842C324.95 19.4691 325.212 20.5343 325.736 21.48C326.272 22.4256 326.995 23.1719 327.907 23.7188C328.818 24.2542 329.849 24.522 331 24.522Z" fill="white"/>
<rect x="16" width="13" height="13" rx="2" fill="white"/>
<rect x="16" y="16" width="13" height="13" rx="2" fill="white"/>
<rect width="13" height="13" rx="2" fill="white"/>
</svg>
