<svg width="483" height="36" viewBox="0 0 483 36" fill="none" xmlns="http://www.w3.org/2000/svg">
<path d="M53.6489 27V1.36523H69.3545V4.03125H56.6567V12.6445H68.6538V15.3105H56.6567V24.334H69.5254V27H53.6489ZM90.6655 27H87.8628V17.4639C87.8628 15.846 87.4014 14.5529 86.4785 13.5845C85.5557 12.616 84.3309 12.1318 82.8042 12.1318C81.2205 12.1318 79.9331 12.6559 78.9419 13.7041C77.9621 14.7409 77.4722 16.1081 77.4722 17.8057V27H74.6694V9.91016H77.1133L77.2158 12.6787C77.8424 11.6761 78.6685 10.9071 79.6938 10.3716C80.7192 9.8361 81.9269 9.56836 83.3169 9.56836C85.5841 9.56836 87.3729 10.252 88.6831 11.6191C90.0047 12.9863 90.6655 14.8605 90.6655 17.2417V27ZM105.192 26.5898C104.064 27.0911 102.965 27.3418 101.894 27.3418C100.868 27.3418 99.9681 27.1196 99.1934 26.6753C98.4186 26.2196 97.8148 25.5872 97.3818 24.7783C96.9489 23.958 96.7324 23.0067 96.7324 21.9243V12.4224H93.7417V9.91016H96.8691V5.6377H99.5352V9.91016H104.645V12.4224H99.5352V21.4116C99.5352 22.437 99.8086 23.263 100.355 23.8896C100.914 24.5163 101.643 24.8296 102.543 24.8296C103.272 24.8296 104.001 24.6131 104.73 24.1802L105.192 26.5898ZM123.939 24.8979C121.82 26.5272 119.485 27.3418 116.933 27.3418C115.155 27.3418 113.56 26.943 112.147 26.1455C110.735 25.348 109.618 24.2656 108.798 22.8984C107.989 21.5199 107.584 19.9647 107.584 18.2329C107.584 16.5695 107.96 15.0884 108.712 13.7896C109.464 12.4793 110.495 11.4482 111.806 10.6963C113.116 9.94434 114.603 9.56836 116.266 9.56836C117.975 9.56836 119.479 9.97852 120.778 10.7988C122.088 11.6191 123.108 12.7585 123.837 14.2168C124.566 15.6751 124.931 17.3613 124.931 19.2754V19.8223H110.626C110.832 20.8249 111.242 21.6965 111.857 22.437C112.484 23.1776 113.258 23.7529 114.181 24.1631C115.104 24.5732 116.135 24.7783 117.274 24.7783C119.234 24.7783 121.023 24.1346 122.641 22.8472L123.939 24.8979ZM110.524 17.4297H122.282C122.156 16.3701 121.826 15.4473 121.291 14.6611C120.766 13.8636 120.083 13.2427 119.24 12.7983C118.408 12.354 117.468 12.1318 116.42 12.1318C115.36 12.1318 114.403 12.354 113.549 12.7983C112.706 13.2427 112.016 13.8636 111.481 14.6611C110.957 15.4473 110.638 16.3701 110.524 17.4297ZM131.681 27H128.878V9.91016H131.339L131.459 13.2939C132.051 12.1204 132.883 11.209 133.954 10.5596C135.036 9.89876 136.278 9.56836 137.68 9.56836C137.987 9.56836 138.301 9.58545 138.62 9.61963C138.939 9.65381 139.258 9.70508 139.577 9.77344L139.235 12.3027C138.608 12.1546 137.987 12.0806 137.372 12.0806C136.256 12.0806 135.264 12.354 134.398 12.9009C133.544 13.4478 132.877 14.1997 132.399 15.1567C131.92 16.1138 131.681 17.2132 131.681 18.4551V27ZM145.285 35.5449H142.482V9.91016H144.977L145.114 12.4053C145.911 11.528 146.874 10.8387 148.002 10.3374C149.13 9.82471 150.366 9.56836 151.71 9.56836C153.385 9.56836 154.883 9.95573 156.205 10.7305C157.538 11.5052 158.586 12.5648 159.35 13.9092C160.124 15.2422 160.512 16.7575 160.512 18.4551C160.512 20.1413 160.124 21.6566 159.35 23.001C158.586 24.3454 157.538 25.4049 156.205 26.1797C154.883 26.9544 153.385 27.3418 151.71 27.3418C150.423 27.3418 149.227 27.1082 148.122 26.6411C147.028 26.174 146.082 25.5246 145.285 24.6929V35.5449ZM151.488 24.7783C152.685 24.7783 153.744 24.5106 154.667 23.9751C155.59 23.4282 156.308 22.6763 156.82 21.7192C157.344 20.7622 157.606 19.6685 157.606 18.438C157.606 17.1961 157.344 16.1024 156.82 15.1567C156.296 14.1997 155.573 13.4478 154.65 12.9009C153.738 12.354 152.69 12.0806 151.505 12.0806C150.377 12.0806 149.358 12.3312 148.446 12.8325C147.546 13.3338 146.817 14.0231 146.259 14.9004C145.701 15.7663 145.376 16.7575 145.285 17.874V19.0361C145.376 20.1527 145.695 21.1439 146.242 22.0098C146.789 22.8757 147.512 23.5535 148.412 24.0435C149.324 24.5334 150.349 24.7783 151.488 24.7783ZM167.262 27H164.459V9.91016H166.92L167.04 13.2939C167.632 12.1204 168.464 11.209 169.535 10.5596C170.618 9.89876 171.859 9.56836 173.261 9.56836C173.568 9.56836 173.882 9.58545 174.201 9.61963C174.52 9.65381 174.839 9.70508 175.158 9.77344L174.816 12.3027C174.189 12.1546 173.568 12.0806 172.953 12.0806C171.837 12.0806 170.845 12.354 169.979 12.9009C169.125 13.4478 168.458 14.1997 167.98 15.1567C167.501 16.1138 167.262 17.2132 167.262 18.4551V27ZM179.533 4.50977C179.054 4.50977 178.65 4.34456 178.319 4.01416C178 3.67236 177.841 3.26221 177.841 2.78369C177.841 2.31657 178 1.91781 178.319 1.5874C178.65 1.257 179.054 1.0918 179.533 1.0918C180.023 1.0918 180.433 1.257 180.763 1.5874C181.094 1.91781 181.259 2.31657 181.259 2.78369C181.259 3.26221 181.094 3.67236 180.763 4.01416C180.433 4.34456 180.023 4.50977 179.533 4.50977ZM180.934 27H178.131V9.91016H180.934V27ZM185.138 25.5132L185.873 22.8813C186.283 23.2687 186.75 23.6048 187.274 23.8896C187.799 24.1745 188.351 24.3966 188.932 24.5562C189.513 24.7043 190.1 24.7783 190.692 24.7783C191.752 24.7783 192.606 24.5448 193.256 24.0776C193.905 23.6105 194.23 23.001 194.23 22.249C194.23 21.7021 194.059 21.2521 193.717 20.8989C193.387 20.5343 192.948 20.221 192.401 19.959C191.854 19.6969 191.268 19.4463 190.641 19.207C189.878 18.9108 189.12 18.5747 188.368 18.1987C187.616 17.8228 186.99 17.3271 186.488 16.7119C185.998 16.0967 185.753 15.2878 185.753 14.2852C185.753 13.3281 185.993 12.4964 186.471 11.79C186.95 11.0837 187.616 10.5368 188.471 10.1494C189.337 9.76204 190.328 9.56836 191.444 9.56836C193.131 9.56836 194.788 9.98991 196.417 10.833L195.58 13.3623C195.215 13.123 194.794 12.9123 194.315 12.73C193.837 12.5363 193.347 12.3882 192.846 12.2856C192.344 12.1831 191.872 12.1318 191.427 12.1318C190.596 12.1318 189.923 12.3255 189.411 12.7129C188.898 13.0889 188.642 13.5959 188.642 14.2339C188.642 14.5985 188.744 14.9346 188.949 15.2422C189.166 15.5384 189.525 15.8346 190.026 16.1309C190.527 16.4271 191.222 16.7575 192.111 17.1221C192.897 17.4411 193.672 17.8057 194.435 18.2158C195.198 18.6146 195.831 19.133 196.332 19.771C196.845 20.3976 197.101 21.2179 197.101 22.2319C197.101 23.2345 196.833 24.1232 196.298 24.8979C195.774 25.6613 195.039 26.2594 194.093 26.6924C193.159 27.1253 192.077 27.3418 190.846 27.3418C188.807 27.3418 186.904 26.7323 185.138 25.5132ZM216.19 24.8979C214.071 26.5272 211.736 27.3418 209.184 27.3418C207.406 27.3418 205.811 26.943 204.398 26.1455C202.986 25.348 201.869 24.2656 201.049 22.8984C200.24 21.5199 199.835 19.9647 199.835 18.2329C199.835 16.5695 200.211 15.0884 200.963 13.7896C201.715 12.4793 202.746 11.4482 204.057 10.6963C205.367 9.94434 206.854 9.56836 208.517 9.56836C210.226 9.56836 211.73 9.97852 213.029 10.7988C214.339 11.6191 215.359 12.7585 216.088 14.2168C216.817 15.6751 217.182 17.3613 217.182 19.2754V19.8223H202.877C203.083 20.8249 203.493 21.6965 204.108 22.437C204.735 23.1776 205.509 23.7529 206.432 24.1631C207.355 24.5732 208.386 24.7783 209.525 24.7783C211.485 24.7783 213.274 24.1346 214.892 22.8472L216.19 24.8979ZM202.775 17.4297H214.533C214.407 16.3701 214.077 15.4473 213.542 14.6611C213.017 13.8636 212.334 13.2427 211.491 12.7983C210.659 12.354 209.719 12.1318 208.671 12.1318C207.611 12.1318 206.654 12.354 205.8 12.7983C204.957 13.2427 204.267 13.8636 203.732 14.6611C203.208 15.4473 202.889 16.3701 202.775 17.4297ZM230.956 27H227.794L238.322 1.36523H241.586L252.096 27H248.935L246.149 20.0786H233.742L230.956 27ZM234.801 17.4126H245.089L239.945 4.6123L234.801 17.4126ZM258.317 35.5449H255.514V9.91016H258.009L258.146 12.4053C258.944 11.528 259.906 10.8387 261.034 10.3374C262.162 9.82471 263.398 9.56836 264.743 9.56836C266.417 9.56836 267.916 9.95573 269.237 10.7305C270.57 11.5052 271.618 12.5648 272.382 13.9092C273.157 15.2422 273.544 16.7575 273.544 18.4551C273.544 20.1413 273.157 21.6566 272.382 23.001C271.618 24.3454 270.57 25.4049 269.237 26.1797C267.916 26.9544 266.417 27.3418 264.743 27.3418C263.455 27.3418 262.259 27.1082 261.154 26.6411C260.06 26.174 259.114 25.5246 258.317 24.6929V35.5449ZM264.521 24.7783C265.717 24.7783 266.776 24.5106 267.699 23.9751C268.622 23.4282 269.34 22.6763 269.853 21.7192C270.377 20.7622 270.639 19.6685 270.639 18.438C270.639 17.1961 270.377 16.1024 269.853 15.1567C269.328 14.1997 268.605 13.4478 267.682 12.9009C266.771 12.354 265.722 12.0806 264.538 12.0806C263.41 12.0806 262.39 12.3312 261.479 12.8325C260.578 13.3338 259.849 14.0231 259.291 14.9004C258.733 15.7663 258.408 16.7575 258.317 17.874V19.0361C258.408 20.1527 258.727 21.1439 259.274 22.0098C259.821 22.8757 260.544 23.5535 261.444 24.0435C262.356 24.5334 263.381 24.7783 264.521 24.7783ZM280.294 35.5449H277.492V9.91016H279.987L280.124 12.4053C280.921 11.528 281.884 10.8387 283.012 10.3374C284.14 9.82471 285.376 9.56836 286.72 9.56836C288.395 9.56836 289.893 9.95573 291.215 10.7305C292.548 11.5052 293.596 12.5648 294.359 13.9092C295.134 15.2422 295.521 16.7575 295.521 18.4551C295.521 20.1413 295.134 21.6566 294.359 23.001C293.596 24.3454 292.548 25.4049 291.215 26.1797C289.893 26.9544 288.395 27.3418 286.72 27.3418C285.433 27.3418 284.236 27.1082 283.131 26.6411C282.038 26.174 281.092 25.5246 280.294 24.6929V35.5449ZM286.498 24.7783C287.694 24.7783 288.754 24.5106 289.677 23.9751C290.6 23.4282 291.317 22.6763 291.83 21.7192C292.354 20.7622 292.616 19.6685 292.616 18.438C292.616 17.1961 292.354 16.1024 291.83 15.1567C291.306 14.1997 290.583 13.4478 289.66 12.9009C288.748 12.354 287.7 12.0806 286.515 12.0806C285.387 12.0806 284.368 12.3312 283.456 12.8325C282.556 13.3338 281.827 14.0231 281.269 14.9004C280.71 15.7663 280.386 16.7575 280.294 17.874V19.0361C280.386 20.1527 280.705 21.1439 281.251 22.0098C281.798 22.8757 282.522 23.5535 283.422 24.0435C284.333 24.5334 285.359 24.7783 286.498 24.7783ZM302.443 27H299.469V0.681641H302.443V27ZM309.21 4.50977C308.732 4.50977 308.327 4.34456 307.997 4.01416C307.678 3.67236 307.519 3.26221 307.519 2.78369C307.519 2.31657 307.678 1.91781 307.997 1.5874C308.327 1.257 308.732 1.0918 309.21 1.0918C309.7 1.0918 310.111 1.257 310.441 1.5874C310.771 1.91781 310.937 2.31657 310.937 2.78369C310.937 3.26221 310.771 3.67236 310.441 4.01416C310.111 4.34456 309.7 4.50977 309.21 4.50977ZM310.612 27H307.809V9.91016H310.612V27ZM330.214 24.5391C329.382 25.4391 328.397 26.1341 327.257 26.624C326.118 27.1025 324.893 27.3418 323.583 27.3418C321.885 27.3418 320.359 26.9544 319.003 26.1797C317.659 25.4049 316.593 24.3454 315.807 23.001C315.032 21.6566 314.645 20.1413 314.645 18.4551C314.645 16.7575 315.032 15.2422 315.807 13.9092C316.593 12.5648 317.659 11.5052 319.003 10.7305C320.359 9.95573 321.885 9.56836 323.583 9.56836C324.882 9.56836 326.101 9.80762 327.24 10.2861C328.38 10.7646 329.365 11.4539 330.197 12.354L328.522 14.1143C327.918 13.4762 327.195 12.9863 326.352 12.6445C325.52 12.3027 324.637 12.1318 323.703 12.1318C322.506 12.1318 321.441 12.4053 320.507 12.9521C319.584 13.4876 318.855 14.2282 318.319 15.1738C317.795 16.1195 317.533 17.2075 317.533 18.438C317.533 19.6685 317.795 20.7622 318.319 21.7192C318.855 22.6763 319.584 23.4282 320.507 23.9751C321.441 24.5106 322.506 24.7783 323.703 24.7783C324.637 24.7783 325.526 24.6074 326.369 24.2656C327.212 23.9124 327.93 23.4225 328.522 22.7959L330.214 24.5391ZM347.953 27H345.543L345.355 24.7441C344.729 25.5531 343.931 26.1911 342.963 26.6582C341.994 27.1139 340.912 27.3418 339.716 27.3418C338.485 27.3418 337.386 27.1025 336.417 26.624C335.449 26.1341 334.686 25.4676 334.127 24.6245C333.581 23.7814 333.307 22.8244 333.307 21.7534C333.307 20.6255 333.603 19.6343 334.196 18.7798C334.8 17.9139 335.614 17.236 336.64 16.7461C337.676 16.2562 338.85 16.0112 340.16 16.0112C341.015 16.0112 341.886 16.1195 342.775 16.3359C343.664 16.541 344.455 16.8258 345.15 17.1904V16.4727C345.15 15.5612 344.923 14.7865 344.467 14.1484C344.011 13.499 343.402 13.0034 342.638 12.6616C341.875 12.3084 341.032 12.1318 340.109 12.1318C339.311 12.1318 338.497 12.2799 337.665 12.5762C336.833 12.861 336.036 13.3053 335.272 13.9092L334.35 11.4995C335.341 10.8615 336.383 10.383 337.477 10.064C338.571 9.73356 339.653 9.56836 340.724 9.56836C342.205 9.56836 343.481 9.87028 344.552 10.4741C345.635 11.0666 346.472 11.9154 347.064 13.0205C347.657 14.1143 347.953 15.4131 347.953 16.917V27ZM340.211 24.7783C341.089 24.7783 341.892 24.596 342.621 24.2314C343.35 23.8669 343.943 23.3428 344.398 22.6592C344.854 21.9642 345.105 21.1439 345.15 20.1982V19.9077C344.524 19.4178 343.817 19.0418 343.031 18.7798C342.257 18.5063 341.465 18.3696 340.656 18.3696C339.391 18.3696 338.332 18.6772 337.477 19.2925C336.634 19.9077 336.212 20.6882 336.212 21.6338C336.212 22.2262 336.383 22.7617 336.725 23.2402C337.078 23.7188 337.557 24.0947 338.161 24.3682C338.764 24.6416 339.448 24.7783 340.211 24.7783ZM362.326 26.5898C361.198 27.0911 360.098 27.3418 359.027 27.3418C358.002 27.3418 357.102 27.1196 356.327 26.6753C355.552 26.2196 354.949 25.5872 354.516 24.7783C354.083 23.958 353.866 23.0067 353.866 21.9243V12.4224H350.875V9.91016H354.003V5.6377H356.669V9.91016H361.779V12.4224H356.669V21.4116C356.669 22.437 356.942 23.263 357.489 23.8896C358.048 24.5163 358.777 24.8296 359.677 24.8296C360.406 24.8296 361.135 24.6131 361.864 24.1802L362.326 26.5898ZM367.042 4.50977C366.564 4.50977 366.16 4.34456 365.829 4.01416C365.51 3.67236 365.351 3.26221 365.351 2.78369C365.351 2.31657 365.51 1.91781 365.829 1.5874C366.16 1.257 366.564 1.0918 367.042 1.0918C367.532 1.0918 367.943 1.257 368.273 1.5874C368.603 1.91781 368.769 2.31657 368.769 2.78369C368.769 3.26221 368.603 3.67236 368.273 4.01416C367.943 4.34456 367.532 4.50977 367.042 4.50977ZM368.444 27H365.641V9.91016H368.444V27ZM381.432 27.3418C379.735 27.3418 378.208 26.9544 376.852 26.1797C375.496 25.4049 374.425 24.3511 373.639 23.0181C372.864 21.6737 372.477 20.1527 372.477 18.4551C372.477 16.7689 372.864 15.2593 373.639 13.9263C374.425 12.5819 375.496 11.5223 376.852 10.7476C378.208 9.96143 379.735 9.56836 381.432 9.56836C383.13 9.56836 384.651 9.96143 385.995 10.7476C387.34 11.5223 388.399 12.5819 389.174 13.9263C389.949 15.2593 390.336 16.7689 390.336 18.4551C390.336 20.1527 389.949 21.6737 389.174 23.0181C388.399 24.3511 387.34 25.4049 385.995 26.1797C384.651 26.9544 383.13 27.3418 381.432 27.3418ZM381.415 24.8125C382.566 24.8125 383.597 24.5334 384.508 23.9751C385.42 23.4168 386.138 22.6592 386.662 21.7021C387.197 20.7451 387.465 19.6571 387.465 18.438C387.465 17.2417 387.197 16.165 386.662 15.208C386.138 14.251 385.42 13.4933 384.508 12.9351C383.597 12.3768 382.566 12.0977 381.415 12.0977C380.264 12.0977 379.228 12.3768 378.305 12.9351C377.393 13.4933 376.67 14.251 376.134 15.208C375.61 16.165 375.348 17.2417 375.348 18.438C375.348 19.6571 375.61 20.7451 376.134 21.7021C376.67 22.6592 377.393 23.4168 378.305 23.9751C379.228 24.5334 380.264 24.8125 381.415 24.8125ZM410.28 27H407.477V17.4639C407.477 15.846 407.016 14.5529 406.093 13.5845C405.17 12.616 403.945 12.1318 402.418 12.1318C400.835 12.1318 399.547 12.6559 398.556 13.7041C397.576 14.7409 397.086 16.1081 397.086 17.8057V27H394.284V9.91016H396.728L396.83 12.6787C397.457 11.6761 398.283 10.9071 399.308 10.3716C400.333 9.8361 401.541 9.56836 402.931 9.56836C405.198 9.56836 406.987 10.252 408.297 11.6191C409.619 12.9863 410.28 14.8605 410.28 17.2417V27ZM414.04 25.5132L414.774 22.8813C415.185 23.2687 415.652 23.6048 416.176 23.8896C416.7 24.1745 417.252 24.3966 417.833 24.5562C418.415 24.7043 419.001 24.7783 419.594 24.7783C420.653 24.7783 421.508 24.5448 422.157 24.0776C422.807 23.6105 423.131 23.001 423.131 22.249C423.131 21.7021 422.96 21.2521 422.619 20.8989C422.288 20.5343 421.85 20.221 421.303 19.959C420.756 19.6969 420.169 19.4463 419.542 19.207C418.779 18.9108 418.021 18.5747 417.27 18.1987C416.518 17.8228 415.891 17.3271 415.39 16.7119C414.9 16.0967 414.655 15.2878 414.655 14.2852C414.655 13.3281 414.894 12.4964 415.373 11.79C415.851 11.0837 416.518 10.5368 417.372 10.1494C418.238 9.76204 419.229 9.56836 420.346 9.56836C422.032 9.56836 423.69 9.98991 425.319 10.833L424.481 13.3623C424.117 13.123 423.695 12.9123 423.217 12.73C422.738 12.5363 422.248 12.3882 421.747 12.2856C421.246 12.1831 420.773 12.1318 420.329 12.1318C419.497 12.1318 418.825 12.3255 418.312 12.7129C417.799 13.0889 417.543 13.5959 417.543 14.2339C417.543 14.5985 417.646 14.9346 417.851 15.2422C418.067 15.5384 418.426 15.8346 418.927 16.1309C419.429 16.4271 420.124 16.7575 421.012 17.1221C421.798 17.4411 422.573 17.8057 423.336 18.2158C424.1 18.6146 424.732 19.133 425.233 19.771C425.746 20.3976 426.002 21.2179 426.002 22.2319C426.002 23.2345 425.735 24.1232 425.199 24.8979C424.675 25.6613 423.94 26.2594 422.995 26.6924C422.06 27.1253 420.978 27.3418 419.748 27.3418C417.708 27.3418 415.806 26.7323 414.04 25.5132Z" fill="white"/>
<rect x="16" width="13" height="13" rx="2" fill="white"/>
<rect x="16" y="16" width="13" height="13" rx="2" fill="white"/>
<rect width="13" height="13" rx="2" fill="white"/>
</svg>
