<svg width="180" height="29" viewBox="0 0 180 29" fill="none" xmlns="http://www.w3.org/2000/svg">
<path d="M74.3188 23.7188C73.1453 24.9036 71.744 25.8322 70.1147 26.5044C68.4855 27.1766 66.7082 27.5127 64.7827 27.5127C62.8573 27.5127 61.0799 27.1823 59.4507 26.5215C57.8328 25.8607 56.4258 24.9321 55.2295 23.7358C54.0332 22.5282 53.1047 21.1154 52.4438 19.4976C51.783 17.8683 51.4526 16.0967 51.4526 14.1826C51.4526 12.2572 51.783 10.4855 52.4438 8.86768C53.1047 7.23844 54.0332 5.82568 55.2295 4.62939C56.4258 3.43311 57.8328 2.50456 59.4507 1.84375C61.0799 1.18294 62.8573 0.852539 64.7827 0.852539C66.6968 0.852539 68.4684 1.18864 70.0977 1.86084C71.7269 2.52165 73.1283 3.4445 74.3018 4.62939L72.1997 6.76562C71.2882 5.75163 70.1945 4.9598 68.9185 4.39014C67.6424 3.80908 66.2467 3.51855 64.7314 3.51855C63.2617 3.51855 61.9059 3.7863 60.6641 4.32178C59.4222 4.84587 58.3398 5.59212 57.417 6.56055C56.5055 7.51758 55.7935 8.64551 55.2808 9.94434C54.7795 11.2432 54.5288 12.6559 54.5288 14.1826C54.5288 15.7207 54.7795 17.1392 55.2808 18.438C55.7935 19.7254 56.5055 20.8534 57.417 21.8218C58.3398 22.7788 59.4222 23.5251 60.6641 24.0605C61.9059 24.5846 63.2617 24.8467 64.7314 24.8467C66.2467 24.8467 67.6424 24.5618 68.9185 23.9922C70.1945 23.4111 71.2882 22.6136 72.1997 21.5996L74.3188 23.7188Z" fill="white"/>
<path d="M86.0083 27.3418C84.3107 27.3418 82.784 26.9544 81.4282 26.1797C80.0724 25.4049 79.0015 24.3511 78.2153 23.0181C77.4406 21.6737 77.0532 20.1527 77.0532 18.4551C77.0532 16.7689 77.4406 15.2593 78.2153 13.9263C79.0015 12.5819 80.0724 11.5223 81.4282 10.7476C82.784 9.96143 84.3107 9.56836 86.0083 9.56836C87.7059 9.56836 89.2269 9.96143 90.5713 10.7476C91.9157 11.5223 92.9753 12.5819 93.75 13.9263C94.5247 15.2593 94.9121 16.7689 94.9121 18.4551C94.9121 20.1527 94.5247 21.6737 93.75 23.0181C92.9753 24.3511 91.9157 25.4049 90.5713 26.1797C89.2269 26.9544 87.7059 27.3418 86.0083 27.3418ZM85.9912 24.8125C87.1419 24.8125 88.173 24.5334 89.0845 23.9751C89.9959 23.4168 90.7137 22.6592 91.2378 21.7021C91.7733 20.7451 92.041 19.6571 92.041 18.438C92.041 17.2417 91.7733 16.165 91.2378 15.208C90.7137 14.251 89.9959 13.4933 89.0845 12.9351C88.173 12.3768 87.1419 12.0977 85.9912 12.0977C84.8405 12.0977 83.8037 12.3768 82.8809 12.9351C81.9694 13.4933 81.2459 14.251 80.7104 15.208C80.1864 16.165 79.9243 17.2417 79.9243 18.438C79.9243 19.6571 80.1864 20.7451 80.7104 21.7021C81.2459 22.6592 81.9694 23.4168 82.8809 23.9751C83.8037 24.5334 84.8405 24.8125 85.9912 24.8125Z" fill="white"/>
<path d="M114.856 27H112.053V17.4639C112.053 15.846 111.592 14.5529 110.669 13.5845C109.746 12.616 108.521 12.1318 106.995 12.1318C105.411 12.1318 104.124 12.6559 103.132 13.7041C102.153 14.7409 101.663 16.1081 101.663 17.8057V27H98.8599V9.91016H101.304L101.406 12.6787C102.033 11.6761 102.859 10.9071 103.884 10.3716C104.91 9.8361 106.117 9.56836 107.507 9.56836C109.775 9.56836 111.563 10.252 112.874 11.6191C114.195 12.9863 114.856 14.8605 114.856 17.2417V27Z" fill="white"/>
<path d="M129.382 26.5898C128.254 27.0911 127.155 27.3418 126.084 27.3418C125.059 27.3418 124.159 27.1196 123.384 26.6753C122.609 26.2196 122.005 25.5872 121.572 24.7783C121.139 23.958 120.923 23.0067 120.923 21.9243V12.4224H117.932V9.91016H121.06V5.6377H123.726V9.91016H128.835V12.4224H123.726V21.4116C123.726 22.437 123.999 23.263 124.546 23.8896C125.104 24.5163 125.833 24.8296 126.733 24.8296C127.463 24.8296 128.192 24.6131 128.921 24.1802L129.382 26.5898Z" fill="white"/>
<path d="M146.592 27H144.182L143.994 24.7441C143.368 25.5531 142.57 26.1911 141.602 26.6582C140.633 27.1139 139.551 27.3418 138.354 27.3418C137.124 27.3418 136.025 27.1025 135.056 26.624C134.088 26.1341 133.324 25.4676 132.766 24.6245C132.219 23.7814 131.946 22.8244 131.946 21.7534C131.946 20.6255 132.242 19.6343 132.834 18.7798C133.438 17.9139 134.253 17.236 135.278 16.7461C136.315 16.2562 137.489 16.0112 138.799 16.0112C139.653 16.0112 140.525 16.1195 141.414 16.3359C142.302 16.541 143.094 16.8258 143.789 17.1904V16.4727C143.789 15.5612 143.561 14.7865 143.105 14.1484C142.65 13.499 142.04 13.0034 141.277 12.6616C140.514 12.3084 139.67 12.1318 138.748 12.1318C137.95 12.1318 137.135 12.2799 136.304 12.5762C135.472 12.861 134.674 13.3053 133.911 13.9092L132.988 11.4995C133.979 10.8615 135.022 10.383 136.116 10.064C137.209 9.73356 138.292 9.56836 139.363 9.56836C140.844 9.56836 142.12 9.87028 143.191 10.4741C144.273 11.0666 145.111 11.9154 145.703 13.0205C146.296 14.1143 146.592 15.4131 146.592 16.917V27ZM138.85 24.7783C139.727 24.7783 140.531 24.596 141.26 24.2314C141.989 23.8669 142.581 23.3428 143.037 22.6592C143.493 21.9642 143.743 21.1439 143.789 20.1982V19.9077C143.162 19.4178 142.456 19.0418 141.67 18.7798C140.895 18.5063 140.103 18.3696 139.294 18.3696C138.03 18.3696 136.97 18.6772 136.116 19.2925C135.273 19.9077 134.851 20.6882 134.851 21.6338C134.851 22.2262 135.022 22.7617 135.364 23.2402C135.717 23.7188 136.195 24.0947 136.799 24.3682C137.403 24.6416 138.087 24.7783 138.85 24.7783Z" fill="white"/>
<path d="M165.767 24.5391C164.935 25.4391 163.949 26.1341 162.81 26.624C161.671 27.1025 160.446 27.3418 159.136 27.3418C157.438 27.3418 155.911 26.9544 154.556 26.1797C153.211 25.4049 152.146 24.3454 151.36 23.001C150.585 21.6566 150.198 20.1413 150.198 18.4551C150.198 16.7575 150.585 15.2422 151.36 13.9092C152.146 12.5648 153.211 11.5052 154.556 10.7305C155.911 9.95573 157.438 9.56836 159.136 9.56836C160.435 9.56836 161.654 9.80762 162.793 10.2861C163.932 10.7646 164.918 11.4539 165.75 12.354L164.075 14.1143C163.471 13.4762 162.747 12.9863 161.904 12.6445C161.073 12.3027 160.19 12.1318 159.255 12.1318C158.059 12.1318 156.994 12.4053 156.06 12.9521C155.137 13.4876 154.408 14.2282 153.872 15.1738C153.348 16.1195 153.086 17.2075 153.086 18.438C153.086 19.6685 153.348 20.7622 153.872 21.7192C154.408 22.6763 155.137 23.4282 156.06 23.9751C156.994 24.5106 158.059 24.7783 159.255 24.7783C160.19 24.7783 161.078 24.6074 161.921 24.2656C162.764 23.9124 163.482 23.4225 164.075 22.7959L165.767 24.5391Z" fill="white"/>
<path d="M179.456 26.5898C178.328 27.0911 177.228 27.3418 176.157 27.3418C175.132 27.3418 174.232 27.1196 173.457 26.6753C172.682 26.2196 172.078 25.5872 171.646 24.7783C171.213 23.958 170.996 23.0067 170.996 21.9243V12.4224H168.005V9.91016H171.133V5.6377H173.799V9.91016H178.909V12.4224H173.799V21.4116C173.799 22.437 174.072 23.263 174.619 23.8896C175.177 24.5163 175.907 24.8296 176.807 24.8296C177.536 24.8296 178.265 24.6131 178.994 24.1802L179.456 26.5898Z" fill="white"/>
<path d="M27 0H18C16.8954 0 16 0.89543 16 2V11C16 12.1046 16.8954 13 18 13H27C28.1046 13 29 12.1046 29 11V2C29 0.89543 28.1046 0 27 0Z" fill="white"/>
<path d="M27 16H18C16.8954 16 16 16.8954 16 18V27C16 28.1046 16.8954 29 18 29H27C28.1046 29 29 28.1046 29 27V18C29 16.8954 28.1046 16 27 16Z" fill="white"/>
<path d="M11 0H2C0.89543 0 0 0.89543 0 2V11C0 12.1046 0.89543 13 2 13H11C12.1046 13 13 12.1046 13 11V2C13 0.89543 12.1046 0 11 0Z" fill="white"/>
</svg>
