<svg width="176" height="29" viewBox="0 0 176 29" fill="none" xmlns="http://www.w3.org/2000/svg">
<path d="M74.3188 23.7188C73.1453 24.9036 71.744 25.8322 70.1147 26.5044C68.4855 27.1766 66.7082 27.5127 64.7827 27.5127C62.8573 27.5127 61.0799 27.1823 59.4507 26.5215C57.8328 25.8607 56.4258 24.9321 55.2295 23.7358C54.0332 22.5282 53.1047 21.1154 52.4438 19.4976C51.783 17.8683 51.4526 16.0967 51.4526 14.1826C51.4526 12.2572 51.783 10.4855 52.4438 8.86768C53.1047 7.23844 54.0332 5.82568 55.2295 4.62939C56.4258 3.43311 57.8328 2.50456 59.4507 1.84375C61.0799 1.18294 62.8573 0.852539 64.7827 0.852539C66.6968 0.852539 68.4684 1.18864 70.0977 1.86084C71.7269 2.52165 73.1283 3.4445 74.3018 4.62939L72.1997 6.76562C71.2882 5.75163 70.1945 4.9598 68.9185 4.39014C67.6424 3.80908 66.2467 3.51855 64.7314 3.51855C63.2617 3.51855 61.9059 3.7863 60.6641 4.32178C59.4222 4.84587 58.3398 5.59212 57.417 6.56055C56.5055 7.51758 55.7935 8.64551 55.2808 9.94434C54.7795 11.2432 54.5288 12.6559 54.5288 14.1826C54.5288 15.7207 54.7795 17.1392 55.2808 18.438C55.7935 19.7254 56.5055 20.8534 57.417 21.8218C58.3398 22.7788 59.4222 23.5251 60.6641 24.0605C61.9059 24.5846 63.2617 24.8467 64.7314 24.8467C66.2467 24.8467 67.6424 24.5618 68.9185 23.9922C70.1945 23.4111 71.2882 22.6136 72.1997 21.5996L74.3188 23.7188Z" fill="white"/>
<path d="M92.2119 27H89.8022L89.6143 24.7441C88.9876 25.5531 88.1901 26.1911 87.2217 26.6582C86.2533 27.1139 85.1709 27.3418 83.9746 27.3418C82.7441 27.3418 81.6447 27.1025 80.6763 26.624C79.7078 26.1341 78.9445 25.4676 78.3862 24.6245C77.8394 23.7814 77.5659 22.8244 77.5659 21.7534C77.5659 20.6255 77.8621 19.6343 78.4546 18.7798C79.0584 17.9139 79.873 17.236 80.8984 16.7461C81.9352 16.2562 83.1087 16.0112 84.4189 16.0112C85.2734 16.0112 86.145 16.1195 87.0337 16.3359C87.9224 16.541 88.7142 16.8258 89.4092 17.1904V16.4727C89.4092 15.5612 89.1813 14.7865 88.7256 14.1484C88.2699 13.499 87.6603 13.0034 86.897 12.6616C86.1336 12.3084 85.2905 12.1318 84.3677 12.1318C83.5701 12.1318 82.7555 12.2799 81.9238 12.5762C81.0921 12.861 80.2946 13.3053 79.5312 13.9092L78.6084 11.4995C79.5996 10.8615 80.6421 10.383 81.7358 10.064C82.8296 9.73356 83.9119 9.56836 84.9829 9.56836C86.464 9.56836 87.7401 9.87028 88.811 10.4741C89.8934 11.0666 90.7308 11.9154 91.3232 13.0205C91.9157 14.1143 92.2119 15.4131 92.2119 16.917V27ZM84.4702 24.7783C85.3475 24.7783 86.1507 24.596 86.8799 24.2314C87.609 23.8669 88.2015 23.3428 88.6572 22.6592C89.113 21.9642 89.3636 21.1439 89.4092 20.1982V19.9077C88.7826 19.4178 88.0762 19.0418 87.29 18.7798C86.5153 18.5063 85.7235 18.3696 84.9146 18.3696C83.6499 18.3696 82.5903 18.6772 81.7358 19.2925C80.8927 19.9077 80.4712 20.6882 80.4712 21.6338C80.4712 22.2262 80.6421 22.7617 80.9839 23.2402C81.3371 23.7188 81.8156 24.0947 82.4194 24.3682C83.0233 24.6416 83.7069 24.7783 84.4702 24.7783Z" fill="white"/>
<path d="M99.9878 27H97.1851V9.91016H99.646L99.7656 13.2939C100.358 12.1204 101.19 11.209 102.261 10.5596C103.343 9.89876 104.585 9.56836 105.986 9.56836C106.294 9.56836 106.607 9.58545 106.926 9.61963C107.245 9.65381 107.564 9.70508 107.883 9.77344L107.542 12.3027C106.915 12.1546 106.294 12.0806 105.679 12.0806C104.562 12.0806 103.571 12.354 102.705 12.9009C101.851 13.4478 101.184 14.1997 100.706 15.1567C100.227 16.1138 99.9878 17.2132 99.9878 18.4551V27Z" fill="white"/>
<path d="M125.776 24.8979C123.657 26.5272 121.322 27.3418 118.77 27.3418C116.992 27.3418 115.397 26.943 113.984 26.1455C112.572 25.348 111.455 24.2656 110.635 22.8984C109.826 21.5199 109.421 19.9647 109.421 18.2329C109.421 16.5695 109.797 15.0884 110.549 13.7896C111.301 12.4793 112.332 11.4482 113.643 10.6963C114.953 9.94434 116.44 9.56836 118.103 9.56836C119.812 9.56836 121.316 9.97852 122.615 10.7988C123.925 11.6191 124.945 12.7585 125.674 14.2168C126.403 15.6751 126.768 17.3613 126.768 19.2754V19.8223H112.463C112.668 20.8249 113.079 21.6965 113.694 22.437C114.32 23.1776 115.095 23.7529 116.018 24.1631C116.941 24.5732 117.972 24.7783 119.111 24.7783C121.071 24.7783 122.86 24.1346 124.478 22.8472L125.776 24.8979ZM112.361 17.4297H124.119C123.993 16.3701 123.663 15.4473 123.127 14.6611C122.603 13.8636 121.92 13.2427 121.077 12.7983C120.245 12.354 119.305 12.1318 118.257 12.1318C117.197 12.1318 116.24 12.354 115.386 12.7983C114.543 13.2427 113.853 13.8636 113.318 14.6611C112.794 15.4473 112.475 16.3701 112.361 17.4297Z" fill="white"/>
<path d="M145.703 24.8979C143.584 26.5272 141.248 27.3418 138.696 27.3418C136.919 27.3418 135.324 26.943 133.911 26.1455C132.498 25.348 131.382 24.2656 130.562 22.8984C129.753 21.5199 129.348 19.9647 129.348 18.2329C129.348 16.5695 129.724 15.0884 130.476 13.7896C131.228 12.4793 132.259 11.4482 133.569 10.6963C134.88 9.94434 136.366 9.56836 138.03 9.56836C139.739 9.56836 141.243 9.97852 142.542 10.7988C143.852 11.6191 144.871 12.7585 145.601 14.2168C146.33 15.6751 146.694 17.3613 146.694 19.2754V19.8223H132.39C132.595 20.8249 133.005 21.6965 133.621 22.437C134.247 23.1776 135.022 23.7529 135.945 24.1631C136.868 24.5732 137.899 24.7783 139.038 24.7783C140.998 24.7783 142.786 24.1346 144.404 22.8472L145.703 24.8979ZM132.288 17.4297H144.045C143.92 16.3701 143.59 15.4473 143.054 14.6611C142.53 13.8636 141.847 13.2427 141.003 12.7983C140.172 12.354 139.232 12.1318 138.184 12.1318C137.124 12.1318 136.167 12.354 135.312 12.7983C134.469 13.2427 133.78 13.8636 133.245 14.6611C132.721 15.4473 132.402 16.3701 132.288 17.4297Z" fill="white"/>
<path d="M153.445 27H150.642V9.91016H153.103L153.223 13.2939C153.815 12.1204 154.647 11.209 155.718 10.5596C156.8 9.89876 158.042 9.56836 159.443 9.56836C159.751 9.56836 160.064 9.58545 160.383 9.61963C160.702 9.65381 161.021 9.70508 161.34 9.77344L160.999 12.3027C160.372 12.1546 159.751 12.0806 159.136 12.0806C158.019 12.0806 157.028 12.354 156.162 12.9009C155.308 13.4478 154.641 14.1997 154.163 15.1567C153.684 16.1138 153.445 17.2132 153.445 18.4551V27Z" fill="white"/>
<path d="M163.049 25.5132L163.784 22.8813C164.194 23.2687 164.661 23.6048 165.186 23.8896C165.71 24.1745 166.262 24.3966 166.843 24.5562C167.424 24.7043 168.011 24.7783 168.604 24.7783C169.663 24.7783 170.518 24.5448 171.167 24.0776C171.816 23.6105 172.141 23.001 172.141 22.249C172.141 21.7021 171.97 21.2521 171.628 20.8989C171.298 20.5343 170.859 20.221 170.312 19.959C169.766 19.6969 169.179 19.4463 168.552 19.207C167.789 18.9108 167.031 18.5747 166.279 18.1987C165.527 17.8228 164.901 17.3271 164.399 16.7119C163.91 16.0967 163.665 15.2878 163.665 14.2852C163.665 13.3281 163.904 12.4964 164.382 11.79C164.861 11.0837 165.527 10.5368 166.382 10.1494C167.248 9.76204 168.239 9.56836 169.355 9.56836C171.042 9.56836 172.699 9.98991 174.329 10.833L173.491 13.3623C173.127 13.123 172.705 12.9123 172.227 12.73C171.748 12.5363 171.258 12.3882 170.757 12.2856C170.256 12.1831 169.783 12.1318 169.338 12.1318C168.507 12.1318 167.834 12.3255 167.322 12.7129C166.809 13.0889 166.553 13.5959 166.553 14.2339C166.553 14.5985 166.655 14.9346 166.86 15.2422C167.077 15.5384 167.436 15.8346 167.937 16.1309C168.438 16.4271 169.133 16.7575 170.022 17.1221C170.808 17.4411 171.583 17.8057 172.346 18.2158C173.11 18.6146 173.742 19.133 174.243 19.771C174.756 20.3976 175.012 21.2179 175.012 22.2319C175.012 23.2345 174.744 24.1232 174.209 24.8979C173.685 25.6613 172.95 26.2594 172.004 26.6924C171.07 27.1253 169.988 27.3418 168.757 27.3418C166.718 27.3418 164.815 26.7323 163.049 25.5132Z" fill="white"/>
<path d="M27 0H18C16.8954 0 16 0.89543 16 2V11C16 12.1046 16.8954 13 18 13H27C28.1046 13 29 12.1046 29 11V2C29 0.89543 28.1046 0 27 0Z" fill="white"/>
<path d="M27 16H18C16.8954 16 16 16.8954 16 18V27C16 28.1046 16.8954 29 18 29H27C28.1046 29 29 28.1046 29 27V18C29 16.8954 28.1046 16 27 16Z" fill="white"/>
<path d="M11 0H2C0.89543 0 0 0.89543 0 2V11C0 12.1046 0.89543 13 2 13H11C12.1046 13 13 12.1046 13 11V2C13 0.89543 12.1046 0 11 0Z" fill="white"/>
</svg>
