<svg width="483" height="36" viewBox="0 0 483 36" fill="none" xmlns="http://www.w3.org/2000/svg">
<path d="M79.4717 27H76.4639V5.58643L67.9019 22.6934H65.1846L56.6567 5.68896V27H53.6489V1.36523H57.5283L66.5518 19.5317L75.541 1.36523H79.4717V27ZM98.5781 27H96.1685L95.9805 24.7441C95.3538 25.5531 94.5563 26.1911 93.5879 26.6582C92.6195 27.1139 91.5371 27.3418 90.3408 27.3418C89.1104 27.3418 88.0109 27.1025 87.0425 26.624C86.0741 26.1341 85.3107 25.4676 84.7524 24.6245C84.2056 23.7814 83.9321 22.8244 83.9321 21.7534C83.9321 20.6255 84.2284 19.6343 84.8208 18.7798C85.4246 17.9139 86.2393 17.236 87.2646 16.7461C88.3014 16.2562 89.4749 16.0112 90.7852 16.0112C91.6396 16.0112 92.5112 16.1195 93.3999 16.3359C94.2886 16.541 95.0804 16.8258 95.7754 17.1904V16.4727C95.7754 15.5612 95.5475 14.7865 95.0918 14.1484C94.6361 13.499 94.0265 13.0034 93.2632 12.6616C92.4998 12.3084 91.6567 12.1318 90.7339 12.1318C89.9364 12.1318 89.1217 12.2799 88.29 12.5762C87.4583 12.861 86.6608 13.3053 85.8975 13.9092L84.9746 11.4995C85.9658 10.8615 87.0083 10.383 88.1021 10.064C89.1958 9.73356 90.2782 9.56836 91.3491 9.56836C92.8302 9.56836 94.1063 9.87028 95.1772 10.4741C96.2596 11.0666 97.097 11.9154 97.6895 13.0205C98.2819 14.1143 98.5781 15.4131 98.5781 16.917V27ZM90.8364 24.7783C91.7137 24.7783 92.5169 24.596 93.2461 24.2314C93.9753 23.8669 94.5677 23.3428 95.0234 22.6592C95.4792 21.9642 95.7298 21.1439 95.7754 20.1982V19.9077C95.1488 19.4178 94.4424 19.0418 93.6562 18.7798C92.8815 18.5063 92.0897 18.3696 91.2808 18.3696C90.0161 18.3696 88.9565 18.6772 88.1021 19.2925C87.259 19.9077 86.8374 20.6882 86.8374 21.6338C86.8374 22.2262 87.0083 22.7617 87.3501 23.2402C87.7033 23.7188 88.1818 24.0947 88.7856 24.3682C89.3895 24.6416 90.0731 24.7783 90.8364 24.7783ZM119.547 27H116.745V17.4639C116.745 15.846 116.283 14.5529 115.36 13.5845C114.438 12.616 113.213 12.1318 111.686 12.1318C110.102 12.1318 108.815 12.6559 107.824 13.7041C106.844 14.7409 106.354 16.1081 106.354 17.8057V27H103.551V9.91016H105.995L106.098 12.6787C106.724 11.6761 107.55 10.9071 108.576 10.3716C109.601 9.8361 110.809 9.56836 112.199 9.56836C114.466 9.56836 116.255 10.252 117.565 11.6191C118.887 12.9863 119.547 14.8605 119.547 17.2417V27ZM138.295 27H135.885L135.697 24.7441C135.071 25.5531 134.273 26.1911 133.305 26.6582C132.336 27.1139 131.254 27.3418 130.058 27.3418C128.827 27.3418 127.728 27.1025 126.759 26.624C125.791 26.1341 125.028 25.4676 124.469 24.6245C123.922 23.7814 123.649 22.8244 123.649 21.7534C123.649 20.6255 123.945 19.6343 124.538 18.7798C125.141 17.9139 125.956 17.236 126.981 16.7461C128.018 16.2562 129.192 16.0112 130.502 16.0112C131.356 16.0112 132.228 16.1195 133.117 16.3359C134.005 16.541 134.797 16.8258 135.492 17.1904V16.4727C135.492 15.5612 135.264 14.7865 134.809 14.1484C134.353 13.499 133.743 13.0034 132.98 12.6616C132.217 12.3084 131.374 12.1318 130.451 12.1318C129.653 12.1318 128.839 12.2799 128.007 12.5762C127.175 12.861 126.378 13.3053 125.614 13.9092L124.691 11.4995C125.683 10.8615 126.725 10.383 127.819 10.064C128.913 9.73356 129.995 9.56836 131.066 9.56836C132.547 9.56836 133.823 9.87028 134.894 10.4741C135.976 11.0666 136.814 11.9154 137.406 13.0205C137.999 14.1143 138.295 15.4131 138.295 16.917V27ZM130.553 24.7783C131.431 24.7783 132.234 24.596 132.963 24.2314C133.692 23.8669 134.285 23.3428 134.74 22.6592C135.196 21.9642 135.447 21.1439 135.492 20.1982V19.9077C134.866 19.4178 134.159 19.0418 133.373 18.7798C132.598 18.5063 131.806 18.3696 130.998 18.3696C129.733 18.3696 128.673 18.6772 127.819 19.2925C126.976 19.9077 126.554 20.6882 126.554 21.6338C126.554 22.2262 126.725 22.7617 127.067 23.2402C127.42 23.7188 127.899 24.0947 128.502 24.3682C129.106 24.6416 129.79 24.7783 130.553 24.7783ZM150.531 27C148.891 27 147.415 26.6183 146.105 25.855C144.806 25.0916 143.781 24.0549 143.029 22.7446C142.277 21.423 141.901 19.9362 141.901 18.2842C141.901 16.6208 142.277 15.134 143.029 13.8237C143.781 12.5135 144.806 11.4767 146.105 10.7134C147.415 9.95003 148.896 9.56836 150.548 9.56836C151.87 9.56836 153.083 9.81901 154.188 10.3203C155.294 10.8102 156.234 11.4938 157.008 12.3711L157.145 9.91016H159.623V26.5557C159.623 28.4697 159.247 30.1217 158.495 31.5117C157.743 32.9131 156.672 33.9897 155.282 34.7417C153.892 35.505 152.24 35.8867 150.326 35.8867C147.615 35.8867 145.256 34.9867 143.251 33.1865L144.481 30.9307C146.042 32.5485 147.951 33.3574 150.207 33.3574C151.562 33.3574 152.73 33.0726 153.71 32.5029C154.701 31.9447 155.465 31.1528 156 30.1274C156.547 29.1021 156.82 27.8887 156.82 26.4873V24.3853C156.046 25.1942 155.117 25.8322 154.035 26.2993C152.964 26.7664 151.796 27 150.531 27ZM150.771 24.522C151.887 24.522 152.901 24.2713 153.812 23.77C154.724 23.2573 155.453 22.5623 156 21.6851C156.547 20.7964 156.82 19.7938 156.82 18.6772V17.8911C156.82 16.7632 156.547 15.7606 156 14.8833C155.453 14.006 154.724 13.3167 153.812 12.8154C152.901 12.3027 151.887 12.0464 150.771 12.0464C149.62 12.0464 148.589 12.3198 147.677 12.8667C146.766 13.4136 146.042 14.1598 145.507 15.1055C144.983 16.0397 144.721 17.0993 144.721 18.2842C144.721 19.4691 144.983 20.5343 145.507 21.48C146.042 22.4256 146.766 23.1719 147.677 23.7188C148.589 24.2542 149.62 24.522 150.771 24.522ZM179.755 24.8979C177.636 26.5272 175.3 27.3418 172.748 27.3418C170.971 27.3418 169.376 26.943 167.963 26.1455C166.55 25.348 165.434 24.2656 164.613 22.8984C163.804 21.5199 163.4 19.9647 163.4 18.2329C163.4 16.5695 163.776 15.0884 164.528 13.7896C165.28 12.4793 166.311 11.4482 167.621 10.6963C168.931 9.94434 170.418 9.56836 172.082 9.56836C173.791 9.56836 175.294 9.97852 176.593 10.7988C177.903 11.6191 178.923 12.7585 179.652 14.2168C180.382 15.6751 180.746 17.3613 180.746 19.2754V19.8223H166.442C166.647 20.8249 167.057 21.6965 167.672 22.437C168.299 23.1776 169.074 23.7529 169.997 24.1631C170.919 24.5732 171.951 24.7783 173.09 24.7783C175.049 24.7783 176.838 24.1346 178.456 22.8472L179.755 24.8979ZM166.339 17.4297H178.097C177.972 16.3701 177.641 15.4473 177.106 14.6611C176.582 13.8636 175.898 13.2427 175.055 12.7983C174.223 12.354 173.284 12.1318 172.235 12.1318C171.176 12.1318 170.219 12.354 169.364 12.7983C168.521 13.2427 167.832 13.8636 167.296 14.6611C166.772 15.4473 166.453 16.3701 166.339 17.4297ZM201.374 27H198.878L198.725 24.5049C197.938 25.3822 196.981 26.0771 195.854 26.5898C194.726 27.0911 193.495 27.3418 192.162 27.3418C190.476 27.3418 188.966 26.9544 187.633 26.1797C186.3 25.4049 185.246 24.3454 184.472 23.001C183.708 21.6566 183.327 20.1413 183.327 18.4551C183.327 16.7575 183.708 15.2422 184.472 13.9092C185.246 12.5648 186.3 11.5052 187.633 10.7305C188.966 9.95573 190.476 9.56836 192.162 9.56836C193.45 9.56836 194.64 9.80192 195.734 10.269C196.839 10.7362 197.785 11.3856 198.571 12.2173V1.36523H201.374V27ZM192.401 24.8125C193.541 24.8125 194.577 24.5505 195.512 24.0264C196.446 23.4909 197.187 22.7674 197.733 21.856C198.292 20.9331 198.571 19.8906 198.571 18.7285V18.1475C198.571 16.9854 198.292 15.9486 197.733 15.0371C197.187 14.1143 196.446 13.3908 195.512 12.8667C194.577 12.3426 193.541 12.0806 192.401 12.0806C191.216 12.0806 190.157 12.3597 189.223 12.918C188.288 13.4762 187.548 14.2339 187.001 15.1909C186.465 16.1479 186.198 17.2303 186.198 18.438C186.198 19.6457 186.465 20.7337 187.001 21.7021C187.548 22.6592 188.288 23.4168 189.223 23.9751C190.157 24.5334 191.216 24.8125 192.401 24.8125ZM214.02 24.5049L215.473 22.1978C216.213 22.8016 216.954 23.3029 217.694 23.7017C218.435 24.1004 219.187 24.3966 219.95 24.5903C220.725 24.784 221.511 24.8809 222.309 24.8809C223.471 24.8809 224.485 24.6872 225.351 24.2998C226.228 23.9124 226.911 23.377 227.401 22.6934C227.891 21.9984 228.136 21.2008 228.136 20.3008C228.136 19.321 227.857 18.512 227.299 17.874C226.752 17.2246 226.04 16.672 225.163 16.2163C224.285 15.7606 223.351 15.3276 222.36 14.9175C221.528 14.5643 220.702 14.1883 219.882 13.7896C219.062 13.3908 218.315 12.9294 217.643 12.4053C216.982 11.8698 216.452 11.2261 216.054 10.4741C215.655 9.72217 215.456 8.81641 215.456 7.75684C215.456 6.40104 215.797 5.20475 216.481 4.16797C217.165 3.13118 218.11 2.32227 219.318 1.74121C220.537 1.16016 221.938 0.869629 223.522 0.869629C224.593 0.869629 225.67 1.01204 226.752 1.29688C227.834 1.57031 228.882 1.97477 229.896 2.51025L228.666 4.97119C227.868 4.50407 227.031 4.14518 226.154 3.89453C225.288 3.64388 224.433 3.51855 223.59 3.51855C222.588 3.51855 221.705 3.68945 220.941 4.03125C220.189 4.36165 219.597 4.82878 219.164 5.43262C218.743 6.02507 218.532 6.72005 218.532 7.51758C218.532 8.40625 218.788 9.15251 219.301 9.75635C219.825 10.3602 220.497 10.8843 221.317 11.3286C222.149 11.7616 223.026 12.1831 223.949 12.5933C224.826 12.9806 225.692 13.3908 226.547 13.8237C227.413 14.2453 228.193 14.7466 228.888 15.3276C229.595 15.8973 230.159 16.5809 230.58 17.3784C231.002 18.1759 231.212 19.1387 231.212 20.2666C231.212 21.7135 230.848 22.9839 230.119 24.0776C229.389 25.16 228.364 26.0031 227.042 26.6069C225.732 27.2108 224.194 27.5127 222.428 27.5127C220.879 27.5127 219.403 27.262 218.002 26.7607C216.601 26.2594 215.273 25.5075 214.02 24.5049ZM250.644 24.8979C248.524 26.5272 246.189 27.3418 243.637 27.3418C241.859 27.3418 240.264 26.943 238.852 26.1455C237.439 25.348 236.322 24.2656 235.502 22.8984C234.693 21.5199 234.289 19.9647 234.289 18.2329C234.289 16.5695 234.665 15.0884 235.417 13.7896C236.168 12.4793 237.2 11.4482 238.51 10.6963C239.82 9.94434 241.307 9.56836 242.97 9.56836C244.679 9.56836 246.183 9.97852 247.482 10.7988C248.792 11.6191 249.812 12.7585 250.541 14.2168C251.27 15.6751 251.635 17.3613 251.635 19.2754V19.8223H237.331C237.536 20.8249 237.946 21.6965 238.561 22.437C239.188 23.1776 239.962 23.7529 240.885 24.1631C241.808 24.5732 242.839 24.7783 243.979 24.7783C245.938 24.7783 247.727 24.1346 249.345 22.8472L250.644 24.8979ZM237.228 17.4297H248.986C248.861 16.3701 248.53 15.4473 247.995 14.6611C247.471 13.8636 246.787 13.2427 245.944 12.7983C245.112 12.354 244.172 12.1318 243.124 12.1318C242.064 12.1318 241.107 12.354 240.253 12.7983C239.41 13.2427 238.721 13.8636 238.185 14.6611C237.661 15.4473 237.342 16.3701 237.228 17.4297ZM258.385 27H255.583V9.91016H258.043L258.163 13.2939C258.756 12.1204 259.587 11.209 260.658 10.5596C261.741 9.89876 262.982 9.56836 264.384 9.56836C264.691 9.56836 265.005 9.58545 265.324 9.61963C265.643 9.65381 265.962 9.70508 266.281 9.77344L265.939 12.3027C265.312 12.1546 264.691 12.0806 264.076 12.0806C262.96 12.0806 261.968 12.354 261.103 12.9009C260.248 13.4478 259.582 14.1997 259.103 15.1567C258.625 16.1138 258.385 17.2132 258.385 18.4551V27ZM285.25 9.91016L278.056 27H275.338L268.161 9.91016H271.186L276.723 24.0605L282.277 9.91016H285.25ZM290.651 4.50977C290.172 4.50977 289.768 4.34456 289.438 4.01416C289.118 3.67236 288.959 3.26221 288.959 2.78369C288.959 2.31657 289.118 1.91781 289.438 1.5874C289.768 1.257 290.172 1.0918 290.651 1.0918C291.141 1.0918 291.551 1.257 291.881 1.5874C292.212 1.91781 292.377 2.31657 292.377 2.78369C292.377 3.26221 292.212 3.67236 291.881 4.01416C291.551 4.34456 291.141 4.50977 290.651 4.50977ZM292.052 27H289.25V9.91016H292.052V27ZM311.654 24.5391C310.823 25.4391 309.837 26.1341 308.698 26.624C307.558 27.1025 306.334 27.3418 305.023 27.3418C303.326 27.3418 301.799 26.9544 300.443 26.1797C299.099 25.4049 298.034 24.3454 297.248 23.001C296.473 21.6566 296.085 20.1413 296.085 18.4551C296.085 16.7575 296.473 15.2422 297.248 13.9092C298.034 12.5648 299.099 11.5052 300.443 10.7305C301.799 9.95573 303.326 9.56836 305.023 9.56836C306.322 9.56836 307.541 9.80762 308.681 10.2861C309.82 10.7646 310.806 11.4539 311.637 12.354L309.962 14.1143C309.359 13.4762 308.635 12.9863 307.792 12.6445C306.96 12.3027 306.077 12.1318 305.143 12.1318C303.947 12.1318 302.882 12.4053 301.947 12.9521C301.024 13.4876 300.295 14.2282 299.76 15.1738C299.236 16.1195 298.974 17.2075 298.974 18.438C298.974 19.6685 299.236 20.7622 299.76 21.7192C300.295 22.6763 301.024 23.4282 301.947 23.9751C302.882 24.5106 303.947 24.7783 305.143 24.7783C306.077 24.7783 306.966 24.6074 307.809 24.2656C308.652 23.9124 309.37 23.4225 309.962 22.7959L311.654 24.5391ZM330.59 24.8979C328.471 26.5272 326.135 27.3418 323.583 27.3418C321.806 27.3418 320.211 26.943 318.798 26.1455C317.385 25.348 316.269 24.2656 315.448 22.8984C314.639 21.5199 314.235 19.9647 314.235 18.2329C314.235 16.5695 314.611 15.0884 315.363 13.7896C316.115 12.4793 317.146 11.4482 318.456 10.6963C319.766 9.94434 321.253 9.56836 322.917 9.56836C324.625 9.56836 326.129 9.97852 327.428 10.7988C328.738 11.6191 329.758 12.7585 330.487 14.2168C331.216 15.6751 331.581 17.3613 331.581 19.2754V19.8223H317.277C317.482 20.8249 317.892 21.6965 318.507 22.437C319.134 23.1776 319.909 23.7529 320.832 24.1631C321.754 24.5732 322.785 24.7783 323.925 24.7783C325.884 24.7783 327.673 24.1346 329.291 22.8472L330.59 24.8979ZM317.174 17.4297H328.932C328.807 16.3701 328.476 15.4473 327.941 14.6611C327.417 13.8636 326.733 13.2427 325.89 12.7983C325.058 12.354 324.118 12.1318 323.07 12.1318C322.011 12.1318 321.054 12.354 320.199 12.7983C319.356 13.2427 318.667 13.8636 318.131 14.6611C317.607 15.4473 317.288 16.3701 317.174 17.4297ZM334.333 25.5132L335.067 22.8813C335.478 23.2687 335.945 23.6048 336.469 23.8896C336.993 24.1745 337.545 24.3966 338.126 24.5562C338.708 24.7043 339.294 24.7783 339.887 24.7783C340.946 24.7783 341.801 24.5448 342.45 24.0776C343.1 23.6105 343.424 23.001 343.424 22.249C343.424 21.7021 343.253 21.2521 342.912 20.8989C342.581 20.5343 342.143 20.221 341.596 19.959C341.049 19.6969 340.462 19.4463 339.835 19.207C339.072 18.9108 338.314 18.5747 337.562 18.1987C336.811 17.8228 336.184 17.3271 335.683 16.7119C335.193 16.0967 334.948 15.2878 334.948 14.2852C334.948 13.3281 335.187 12.4964 335.666 11.79C336.144 11.0837 336.811 10.5368 337.665 10.1494C338.531 9.76204 339.522 9.56836 340.639 9.56836C342.325 9.56836 343.983 9.98991 345.612 10.833L344.774 13.3623C344.41 13.123 343.988 12.9123 343.51 12.73C343.031 12.5363 342.541 12.3882 342.04 12.2856C341.539 12.1831 341.066 12.1318 340.622 12.1318C339.79 12.1318 339.118 12.3255 338.605 12.7129C338.092 13.0889 337.836 13.5959 337.836 14.2339C337.836 14.5985 337.938 14.9346 338.144 15.2422C338.36 15.5384 338.719 15.8346 339.22 16.1309C339.722 16.4271 340.417 16.7575 341.305 17.1221C342.091 17.4411 342.866 17.8057 343.629 18.2158C344.393 18.6146 345.025 19.133 345.526 19.771C346.039 20.3976 346.295 21.2179 346.295 22.2319C346.295 23.2345 346.028 24.1232 345.492 24.8979C344.968 25.6613 344.233 26.2594 343.288 26.6924C342.353 27.1253 341.271 27.3418 340.041 27.3418C338.001 27.3418 336.098 26.7323 334.333 25.5132Z" fill="white"/>
<rect x="16" width="13" height="13" rx="2" fill="white"/>
<rect x="16" y="16" width="13" height="13" rx="2" fill="white"/>
<rect width="13" height="13" rx="2" fill="white"/>
</svg>
