<svg width="2422" height="367" viewBox="0 0 2422 367" fill="none" xmlns="http://www.w3.org/2000/svg">
<path d="M1103 0H1113V367H1103V0Z" fill="#8CE3FF"/>
<path d="M1818 0H1828V367H1818V0Z" fill="#8CE3FF"/>
<path d="M252.209 312H241.101L168.298 85.3887L95.3242 312H84.2158L0.817383 55.6523H16.54L89.6846 282.435L162.658 55.6523H173.767L246.74 281.922L319.372 55.6523H335.266L252.209 312Z" fill="#8CE3FF"/>
<path d="M379.2 312H364.161V55.6523H379.2V178.528H543.604V55.6523H558.644V312H543.604V192.2H379.2V312Z" fill="#8CE3FF"/>
<path d="M601.724 312H585.659L692.983 55.6523H710.415L817.568 312H801.675L768.691 233.387H634.365L601.724 312ZM640.005 219.715H763.223L701.528 71.7168L640.005 219.715Z" fill="#8CE3FF"/>
<path d="M909.184 312H894.145V69.3242H807.157V55.6523H996V69.3242H909.184V312Z" fill="#8CE3FF"/>
<path d="M1454.21 312H1443.1L1370.3 85.3887L1297.32 312H1286.22L1202.82 55.6523H1218.54L1291.68 282.435L1364.66 55.6523H1375.77L1448.74 281.922L1521.37 55.6523H1537.27L1454.21 312Z" fill="#8CE3FF"/>
<path d="M1566.16 312V55.6523H1717.58V69.3242H1581.2V174.085H1710.57V187.757H1581.2V298.328H1719.29V312H1566.16Z" fill="#8CE3FF"/>
<path d="M1918.91 312V55.6523H1986.07C2017.74 55.6523 2044.86 60.7223 2067.42 70.8623C2089.98 81.0023 2107.24 95.6426 2119.2 114.783C2131.16 133.81 2137.14 156.824 2137.14 183.826C2137.14 210.714 2131.16 233.729 2119.2 252.869C2107.24 272.01 2089.98 286.65 2067.42 296.79C2044.86 306.93 2017.74 312 1986.07 312H1918.91ZM1933.95 298.328H1987.1C2015.46 298.328 2039.68 293.828 2059.73 284.827C2079.78 275.713 2095.1 262.61 2105.7 245.521C2116.41 228.431 2121.76 207.866 2121.76 183.826C2121.76 159.786 2116.41 139.222 2105.7 122.132C2095.1 105.042 2079.78 91.9967 2059.73 82.9961C2039.68 73.8815 2015.46 69.3242 1987.1 69.3242H1933.95V298.328Z" fill="#8CE3FF"/>
<path d="M2289.26 317.127C2270.23 317.127 2252.63 313.823 2236.45 307.215C2220.39 300.607 2206.37 291.321 2194.41 279.358C2182.56 267.396 2173.33 253.325 2166.72 237.146C2160.23 220.854 2156.98 203.081 2156.98 183.826C2156.98 164.572 2160.23 146.855 2166.72 130.677C2173.33 114.384 2182.56 100.257 2194.41 88.2939C2206.37 76.3311 2220.39 67.0456 2236.45 60.4375C2252.63 53.8294 2270.23 50.5254 2289.26 50.5254C2308.4 50.5254 2325.94 53.8294 2341.89 60.4375C2357.96 67.0456 2371.92 76.3311 2383.76 88.2939C2395.73 100.257 2404.96 114.384 2411.45 130.677C2418.06 146.855 2421.36 164.572 2421.36 183.826C2421.36 203.081 2418.06 220.854 2411.45 237.146C2404.96 253.325 2395.73 267.396 2383.76 279.358C2371.92 291.321 2357.96 300.607 2341.89 307.215C2325.94 313.823 2308.4 317.127 2289.26 317.127ZM2289.26 303.455C2306.01 303.455 2321.5 300.493 2335.74 294.568C2349.98 288.53 2362.35 280.156 2372.83 269.446C2383.31 258.623 2391.46 245.976 2397.27 231.507C2403.08 216.924 2405.98 201.03 2405.98 183.826C2405.98 166.622 2403.08 150.729 2397.27 136.146C2391.46 121.562 2383.31 108.916 2372.83 98.2061C2362.35 87.3825 2349.98 79.0085 2335.74 73.084C2321.5 67.1595 2306.01 64.1973 2289.26 64.1973C2272.4 64.1973 2256.84 67.1595 2242.6 73.084C2228.36 79.0085 2216 87.3825 2205.52 98.2061C2195.04 108.916 2186.89 121.562 2181.08 136.146C2175.27 150.729 2172.36 166.622 2172.36 183.826C2172.36 201.03 2175.27 216.924 2181.08 231.507C2186.89 246.09 2195.04 258.794 2205.52 269.617C2216 280.327 2228.36 288.644 2242.6 294.568C2256.84 300.493 2272.4 303.455 2289.26 303.455Z" fill="#8CE3FF"/>
</svg>
