<svg width="319" height="62" viewBox="0 0 319 62" fill="none" xmlns="http://www.w3.org/2000/svg">
<path d="M25.1144 44H22.7394L16.8331 25.2969L10.9269 44H8.55188L0.92688 20.5625H3.80188L9.72375 39.3125L15.6456 20.5625H18.0206L23.9269 39.2656L29.8175 20.5625H32.7081L25.1144 44Z" fill="black"/>
<path d="M50.0994 44H47.3494V20.5625H50.0994V31.2188H63.1775V20.5625H65.9275V44H63.1775V33.6562H50.0994V44Z" fill="black"/>
<path d="M83.3188 44H80.4281L90.0531 20.5625H93.0375L102.647 44H99.7563L97.2094 37.6719H85.8656L83.3188 44ZM86.8344 35.2344H96.2406L91.5375 23.5312L86.8344 35.2344Z" fill="black"/>
<path d="M123.976 44H121.226V23H113.694V20.5625H131.507V23H123.976V44Z" fill="black"/>
<path d="M187.633 44H185.258L179.352 25.2969L173.446 44H171.071L163.446 20.5625H166.321L172.243 39.3125L178.164 20.5625H180.539L186.446 39.2656L192.336 20.5625H195.227L187.633 44Z" fill="black"/>
<path d="M209.868 44V20.5625H224.228V23H212.618V30.875H223.587V33.3125H212.618V41.5625H224.384V44H209.868Z" fill="black"/>
<path d="M259.619 44V20.5625H266.369C269.244 20.5625 271.713 21.0312 273.776 21.9688C275.849 22.9062 277.437 24.25 278.541 26C279.656 27.75 280.213 29.8438 280.213 32.2812C280.213 34.7083 279.656 36.8021 278.541 38.5625C277.437 40.3125 275.849 41.6562 273.776 42.5938C271.713 43.5312 269.244 44 266.369 44H259.619ZM262.369 41.5625H266.494C268.796 41.5625 270.76 41.1979 272.385 40.4688C274.01 39.7396 275.25 38.6823 276.104 37.2969C276.968 35.9115 277.401 34.2396 277.401 32.2812C277.401 30.3229 276.968 28.651 276.104 27.2656C275.25 25.8802 274.01 24.8229 272.385 24.0938C270.76 23.3646 268.796 23 266.494 23H262.369V41.5625Z" fill="black"/>
<path d="M306.417 44.4688C304.656 44.4688 303.031 44.1667 301.542 43.5625C300.063 42.9583 298.776 42.1094 297.682 41.0156C296.589 39.9115 295.74 38.6198 295.136 37.1406C294.531 35.651 294.229 34.0312 294.229 32.2812C294.229 30.5208 294.531 28.901 295.136 27.4219C295.74 25.9323 296.589 24.6406 297.682 23.5469C298.776 22.4531 300.063 21.6042 301.542 21C303.031 20.3958 304.656 20.0938 306.417 20.0938C308.177 20.0938 309.797 20.3958 311.276 21C312.755 21.6042 314.042 22.4531 315.136 23.5469C316.229 24.6406 317.078 25.9323 317.682 27.4219C318.287 28.901 318.589 30.5208 318.589 32.2812C318.589 34.0312 318.287 35.651 317.682 37.1406C317.078 38.6198 316.229 39.9115 315.136 41.0156C314.042 42.1094 312.755 42.9583 311.276 43.5625C309.797 44.1667 308.177 44.4688 306.417 44.4688ZM306.417 42.0312C307.761 42.0312 309 41.7865 310.136 41.2969C311.281 40.8073 312.276 40.125 313.12 39.25C313.964 38.3646 314.615 37.3333 315.073 36.1562C315.542 34.9688 315.776 33.6771 315.776 32.2812C315.776 30.8854 315.542 29.5938 315.073 28.4062C314.615 27.2188 313.964 26.1875 313.12 25.3125C312.276 24.4271 311.281 23.7448 310.136 23.2656C309 22.776 307.761 22.5312 306.417 22.5312C305.073 22.5312 303.828 22.776 302.682 23.2656C301.547 23.7448 300.557 24.4271 299.714 25.3125C298.87 26.1875 298.214 27.2188 297.745 28.4062C297.276 29.5938 297.042 30.8854 297.042 32.2812C297.042 33.6771 297.276 34.9688 297.745 36.1562C298.214 37.3438 298.87 38.3802 299.714 39.2656C300.557 40.1406 301.547 40.8229 302.682 41.3125C303.828 41.7917 305.073 42.0312 306.417 42.0312Z" fill="black"/>
<path d="M148 0H149V62H148V0Z" fill="black"/>
<path d="M241 0H242V62H241V0Z" fill="black"/>
</svg>
