<svg width="1698" height="321" viewBox="0 0 1698 321" fill="none" xmlns="http://www.w3.org/2000/svg">
<path d="M143.716 250H129.614L94.5459 138.95L59.4775 250H45.376L0.102539 110.84H17.1729L52.334 222.168L87.4951 110.84H101.597L136.665 221.89L171.641 110.84H188.804L143.716 250Z" fill="black"/>
<path d="M261.664 250H245.336V110.84H261.664V174.111H339.316V110.84H355.644V250H339.316V188.584H261.664V250Z" fill="black"/>
<path d="M428.504 250H411.341L468.49 110.84H486.209L543.265 250H526.102L510.98 212.427H443.626L428.504 250ZM449.378 197.954H505.228L477.303 128.467L449.378 197.954Z" fill="black"/>
<path d="M639.505 250H623.176V125.312H578.46V110.84H684.221V125.312H639.505V250Z" fill="black"/>
<path d="M1008.72 250H994.614L959.546 138.95L924.478 250H910.376L865.103 110.84H882.173L917.334 222.168L952.495 110.84H966.597L1001.67 221.89L1036.64 110.84H1053.8L1008.72 250Z" fill="black"/>
<path d="M1110.34 250V110.84H1195.59V125.312H1126.66V172.07H1191.79V186.543H1126.66V235.527H1196.52V250H1110.34Z" fill="black"/>
<path d="M1377.38 250V110.84H1417.46C1434.53 110.84 1449.19 113.623 1461.43 119.189C1473.74 124.756 1483.17 132.734 1489.73 143.125C1496.35 153.516 1499.66 165.947 1499.66 180.42C1499.66 194.831 1496.35 207.262 1489.73 217.715C1483.17 228.105 1473.74 236.084 1461.43 241.65C1449.19 247.217 1434.53 250 1417.46 250H1377.38ZM1393.71 235.527H1418.2C1431.87 235.527 1443.53 233.363 1453.18 229.033C1462.82 224.704 1470.18 218.426 1475.26 210.2C1480.39 201.974 1482.96 192.048 1482.96 180.42C1482.96 168.792 1480.39 158.866 1475.26 150.64C1470.18 142.414 1462.82 136.136 1453.18 131.807C1443.53 127.477 1431.87 125.312 1418.2 125.312H1393.71V235.527Z" fill="black"/>
<path d="M1624.84 252.783C1614.39 252.783 1604.74 250.99 1595.89 247.402C1587.11 243.815 1579.47 238.774 1572.98 232.28C1566.49 225.724 1561.44 218.055 1557.86 209.272C1554.27 200.428 1552.48 190.811 1552.48 180.42C1552.48 169.967 1554.27 160.35 1557.86 151.567C1561.44 142.723 1566.49 135.054 1572.98 128.56C1579.47 122.065 1587.11 117.025 1595.89 113.438C1604.74 109.85 1614.39 108.057 1624.84 108.057C1635.29 108.057 1644.91 109.85 1653.69 113.438C1662.48 117.025 1670.11 122.065 1676.61 128.56C1683.1 135.054 1688.14 142.723 1691.73 151.567C1695.32 160.35 1697.11 169.967 1697.11 180.42C1697.11 190.811 1695.32 200.428 1691.73 209.272C1688.14 218.055 1683.1 225.724 1676.61 232.28C1670.11 238.774 1662.48 243.815 1653.69 247.402C1644.91 250.99 1635.29 252.783 1624.84 252.783ZM1624.84 238.311C1632.82 238.311 1640.18 236.857 1646.92 233.95C1653.72 231.043 1659.63 226.992 1664.64 221.797C1669.65 216.54 1673.52 210.417 1676.24 203.428C1679.02 196.377 1680.41 188.708 1680.41 180.42C1680.41 172.132 1679.02 164.463 1676.24 157.412C1673.52 150.361 1669.65 144.238 1664.64 139.043C1659.63 133.786 1653.72 129.735 1646.92 126.89C1640.18 123.983 1632.82 122.529 1624.84 122.529C1616.86 122.529 1609.47 123.983 1602.67 126.89C1595.93 129.735 1590.05 133.786 1585.04 139.043C1580.03 144.238 1576.13 150.361 1573.35 157.412C1570.57 164.463 1569.18 172.132 1569.18 180.42C1569.18 188.708 1570.57 196.377 1573.35 203.428C1576.13 210.479 1580.03 216.632 1585.04 221.89C1590.05 227.085 1595.93 231.136 1602.67 234.043C1609.47 236.888 1616.86 238.311 1624.84 238.311Z" fill="black"/>
<path d="M784 0H791V321H784V0Z" fill="black"/>
<path d="M1278 0H1285V321H1278V0Z" fill="black"/>
</svg>
