<svg width="757" height="190" viewBox="0 0 757 190" fill="none" xmlns="http://www.w3.org/2000/svg">
<rect x="29.5" y="30.5" width="697" height="125" rx="14.5" stroke="black"/>
<path d="M88.915 87H86.8789L95.9902 65.0273H98.1289L107.24 87H105.189L102.597 80.6572H91.5225L88.915 87ZM92.2109 78.9287H101.908L97.0596 67.1074L92.2109 78.9287ZM117.934 87V65.0273H125.609C127.631 65.0273 129.223 65.5107 130.385 66.4775C131.547 67.4346 132.128 68.7432 132.128 70.4033C132.128 71.6436 131.811 72.7178 131.176 73.626C130.541 74.5342 129.701 75.1689 128.656 75.5303C130.033 75.833 131.122 76.4678 131.923 77.4346C132.733 78.3916 133.139 79.5732 133.139 80.9795C133.139 82.1709 132.841 83.2207 132.245 84.1289C131.649 85.0371 130.819 85.7451 129.755 86.2529C128.69 86.751 127.45 87 126.034 87H117.934ZM119.867 74.8857H125.624C127.001 74.8857 128.109 74.5098 128.949 73.7578C129.789 73.0059 130.209 72.0146 130.209 70.7842C130.209 69.5439 129.779 68.5625 128.92 67.8398C128.07 67.1172 126.908 66.7559 125.434 66.7559H119.867V74.8857ZM119.867 85.2715H125.668C126.752 85.2715 127.704 85.0811 128.524 84.7002C129.345 84.3096 129.989 83.7725 130.458 83.0889C130.927 82.3955 131.161 81.6045 131.161 80.7158C131.161 79.8467 130.937 79.0898 130.487 78.4453C130.048 77.8008 129.428 77.3027 128.627 76.9512C127.826 76.5898 126.884 76.4092 125.8 76.4092H119.867V85.2715ZM155.229 65.0273V77.1855C155.229 79.3145 154.862 81.1455 154.13 82.6787C153.407 84.2119 152.367 85.3887 151.01 86.209C149.652 87.0293 148.026 87.4395 146.132 87.4395C144.237 87.4395 142.611 87.0293 141.254 86.209C139.896 85.3887 138.852 84.2119 138.119 82.6787C137.396 81.1455 137.035 79.3145 137.035 77.1855V65.0273H138.969V77.0977C138.969 78.8945 139.257 80.4375 139.833 81.7266C140.409 83.0059 141.229 83.9922 142.294 84.6855C143.368 85.3691 144.647 85.7109 146.132 85.7109C147.616 85.7109 148.891 85.3691 149.955 84.6855C151.029 83.9922 151.854 83.0059 152.431 81.7266C153.007 80.4375 153.295 78.8945 153.295 77.0977V65.0273H155.229ZM159.037 84.9346L159.989 83.4404C160.604 83.9482 161.229 84.373 161.864 84.7148C162.509 85.0566 163.168 85.3105 163.842 85.4766C164.516 85.6426 165.199 85.7256 165.893 85.7256C166.967 85.7256 167.909 85.54 168.72 85.1689C169.53 84.7881 170.165 84.2656 170.624 83.6016C171.083 82.9375 171.312 82.1709 171.312 81.3018C171.312 80.374 171.059 79.6123 170.551 79.0166C170.053 78.4111 169.408 77.9033 168.617 77.4932C167.826 77.0732 166.986 76.6777 166.098 76.3066C165.385 76.0039 164.682 75.6865 163.988 75.3545C163.295 75.0127 162.665 74.6172 162.099 74.168C161.532 73.7188 161.078 73.1816 160.736 72.5566C160.404 71.9316 160.238 71.1748 160.238 70.2861C160.238 69.1631 160.521 68.1768 161.088 67.3271C161.654 66.4678 162.436 65.7988 163.432 65.3203C164.438 64.8418 165.6 64.6025 166.918 64.6025C167.797 64.6025 168.671 64.7148 169.54 64.9395C170.419 65.1641 171.259 65.4961 172.06 65.9355L171.254 67.5322C170.57 67.1416 169.857 66.8438 169.115 66.6387C168.383 66.4238 167.655 66.3164 166.933 66.3164C166.005 66.3164 165.185 66.4775 164.472 66.7998C163.769 67.1221 163.217 67.5713 162.816 68.1475C162.416 68.7236 162.216 69.3926 162.216 70.1543C162.216 70.9844 162.45 71.6777 162.919 72.2344C163.397 72.791 164.008 73.2695 164.75 73.6699C165.502 74.0605 166.293 74.4414 167.123 74.8125C167.875 75.1348 168.612 75.4766 169.335 75.8379C170.067 76.1992 170.731 76.624 171.327 77.1123C171.923 77.5908 172.396 78.167 172.748 78.8408C173.109 79.5146 173.29 80.3252 173.29 81.2725C173.29 82.4932 172.982 83.5674 172.367 84.4951C171.752 85.4229 170.897 86.1455 169.804 86.6631C168.71 87.1807 167.436 87.4395 165.98 87.4395C164.711 87.4395 163.49 87.2295 162.318 86.8096C161.156 86.3896 160.062 85.7646 159.037 84.9346ZM179.34 65.0273H177.406V87H179.34V65.0273ZM202.968 87H200.873L186.107 67.9863V87H184.174V65.0273H186.269L201.034 84.041V65.0273H202.968V87ZM207.816 87V65.0273H221.044V66.7559H209.75V74.9443H220.443V76.6729H209.75V85.2715H221.19V87H207.816ZM224.721 84.9346L225.673 83.4404C226.288 83.9482 226.913 84.373 227.548 84.7148C228.192 85.0566 228.852 85.3105 229.525 85.4766C230.199 85.6426 230.883 85.7256 231.576 85.7256C232.65 85.7256 233.593 85.54 234.403 85.1689C235.214 84.7881 235.849 84.2656 236.308 83.6016C236.767 82.9375 236.996 82.1709 236.996 81.3018C236.996 80.374 236.742 79.6123 236.234 79.0166C235.736 78.4111 235.092 77.9033 234.301 77.4932C233.51 77.0732 232.67 76.6777 231.781 76.3066C231.068 76.0039 230.365 75.6865 229.672 75.3545C228.979 75.0127 228.349 74.6172 227.782 74.168C227.216 73.7188 226.762 73.1816 226.42 72.5566C226.088 71.9316 225.922 71.1748 225.922 70.2861C225.922 69.1631 226.205 68.1768 226.771 67.3271C227.338 66.4678 228.119 65.7988 229.115 65.3203C230.121 64.8418 231.283 64.6025 232.602 64.6025C233.48 64.6025 234.354 64.7148 235.224 64.9395C236.103 65.1641 236.942 65.4961 237.743 65.9355L236.938 67.5322C236.254 67.1416 235.541 66.8438 234.799 66.6387C234.066 66.4238 233.339 66.3164 232.616 66.3164C231.688 66.3164 230.868 66.4775 230.155 66.7998C229.452 67.1221 228.9 67.5713 228.5 68.1475C228.1 68.7236 227.899 69.3926 227.899 70.1543C227.899 70.9844 228.134 71.6777 228.603 72.2344C229.081 72.791 229.691 73.2695 230.434 73.6699C231.186 74.0605 231.977 74.4414 232.807 74.8125C233.559 75.1348 234.296 75.4766 235.019 75.8379C235.751 76.1992 236.415 76.624 237.011 77.1123C237.606 77.5908 238.08 78.167 238.432 78.8408C238.793 79.5146 238.974 80.3252 238.974 81.2725C238.974 82.4932 238.666 83.5674 238.051 84.4951C237.436 85.4229 236.581 86.1455 235.487 86.6631C234.394 87.1807 233.119 87.4395 231.664 87.4395C230.395 87.4395 229.174 87.2295 228.002 86.8096C226.84 86.3896 225.746 85.7646 224.721 84.9346ZM241.771 84.9346L242.724 83.4404C243.339 83.9482 243.964 84.373 244.599 84.7148C245.243 85.0566 245.902 85.3105 246.576 85.4766C247.25 85.6426 247.934 85.7256 248.627 85.7256C249.701 85.7256 250.644 85.54 251.454 85.1689C252.265 84.7881 252.899 84.2656 253.358 83.6016C253.817 82.9375 254.047 82.1709 254.047 81.3018C254.047 80.374 253.793 79.6123 253.285 79.0166C252.787 78.4111 252.143 77.9033 251.352 77.4932C250.561 77.0732 249.721 76.6777 248.832 76.3066C248.119 76.0039 247.416 75.6865 246.723 75.3545C246.029 75.0127 245.399 74.6172 244.833 74.168C244.267 73.7188 243.812 73.1816 243.471 72.5566C243.139 71.9316 242.973 71.1748 242.973 70.2861C242.973 69.1631 243.256 68.1768 243.822 67.3271C244.389 66.4678 245.17 65.7988 246.166 65.3203C247.172 64.8418 248.334 64.6025 249.652 64.6025C250.531 64.6025 251.405 64.7148 252.274 64.9395C253.153 65.1641 253.993 65.4961 254.794 65.9355L253.988 67.5322C253.305 67.1416 252.592 66.8438 251.85 66.6387C251.117 66.4238 250.39 66.3164 249.667 66.3164C248.739 66.3164 247.919 66.4775 247.206 66.7998C246.503 67.1221 245.951 67.5713 245.551 68.1475C245.15 68.7236 244.95 69.3926 244.95 70.1543C244.95 70.9844 245.185 71.6777 245.653 72.2344C246.132 72.791 246.742 73.2695 247.484 73.6699C248.236 74.0605 249.027 74.4414 249.857 74.8125C250.609 75.1348 251.347 75.4766 252.069 75.8379C252.802 76.1992 253.466 76.624 254.062 77.1123C254.657 77.5908 255.131 78.167 255.482 78.8408C255.844 79.5146 256.024 80.3252 256.024 81.2725C256.024 82.4932 255.717 83.5674 255.102 84.4951C254.486 85.4229 253.632 86.1455 252.538 86.6631C251.444 87.1807 250.17 87.4395 248.715 87.4395C247.445 87.4395 246.225 87.2295 245.053 86.8096C243.891 86.3896 242.797 85.7646 241.771 84.9346ZM266.586 84.9346L267.538 83.4404C268.153 83.9482 268.778 84.373 269.413 84.7148C270.058 85.0566 270.717 85.3105 271.391 85.4766C272.064 85.6426 272.748 85.7256 273.441 85.7256C274.516 85.7256 275.458 85.54 276.269 85.1689C277.079 84.7881 277.714 84.2656 278.173 83.6016C278.632 82.9375 278.861 82.1709 278.861 81.3018C278.861 80.374 278.607 79.6123 278.1 79.0166C277.602 78.4111 276.957 77.9033 276.166 77.4932C275.375 77.0732 274.535 76.6777 273.646 76.3066C272.934 76.0039 272.23 75.6865 271.537 75.3545C270.844 75.0127 270.214 74.6172 269.647 74.168C269.081 73.7188 268.627 73.1816 268.285 72.5566C267.953 71.9316 267.787 71.1748 267.787 70.2861C267.787 69.1631 268.07 68.1768 268.637 67.3271C269.203 66.4678 269.984 65.7988 270.98 65.3203C271.986 64.8418 273.148 64.6025 274.467 64.6025C275.346 64.6025 276.22 64.7148 277.089 64.9395C277.968 65.1641 278.808 65.4961 279.608 65.9355L278.803 67.5322C278.119 67.1416 277.406 66.8438 276.664 66.6387C275.932 66.4238 275.204 66.3164 274.481 66.3164C273.554 66.3164 272.733 66.4775 272.021 66.7998C271.317 67.1221 270.766 67.5713 270.365 68.1475C269.965 68.7236 269.765 69.3926 269.765 70.1543C269.765 70.9844 269.999 71.6777 270.468 72.2344C270.946 72.791 271.557 73.2695 272.299 73.6699C273.051 74.0605 273.842 74.4414 274.672 74.8125C275.424 75.1348 276.161 75.4766 276.884 75.8379C277.616 76.1992 278.28 76.624 278.876 77.1123C279.472 77.5908 279.945 78.167 280.297 78.8408C280.658 79.5146 280.839 80.3252 280.839 81.2725C280.839 82.4932 280.531 83.5674 279.916 84.4951C279.301 85.4229 278.446 86.1455 277.353 86.6631C276.259 87.1807 274.984 87.4395 273.529 87.4395C272.26 87.4395 271.039 87.2295 269.867 86.8096C268.705 86.3896 267.611 85.7646 266.586 84.9346ZM292.089 87H290.155V66.7559H282.904V65.0273H299.354V66.7559H292.089V87ZM317.694 87H315.541L310.062 77.7275H304.379V87H302.445V65.0273H309.799C311.303 65.0273 312.602 65.2861 313.695 65.8037C314.789 66.3213 315.634 67.0537 316.229 68.001C316.825 68.9482 317.123 70.0762 317.123 71.3848C317.123 72.9766 316.679 74.3047 315.79 75.3691C314.901 76.4238 313.671 77.1221 312.099 77.4639L317.694 87ZM304.379 75.999H309.696C311.376 75.999 312.704 75.5889 313.681 74.7686C314.657 73.9385 315.146 72.8105 315.146 71.3848C315.146 69.9492 314.657 68.8213 313.681 68.001C312.714 67.1709 311.386 66.7559 309.696 66.7559H304.379V75.999ZM321.796 87H319.76L328.871 65.0273H331.01L340.121 87H338.07L335.478 80.6572H324.403L321.796 87ZM325.092 78.9287H334.789L329.94 67.1074L325.092 78.9287ZM349.306 87H347.372V66.7559H340.121V65.0273H356.571V66.7559H349.306V87ZM359.662 87V65.0273H372.89V66.7559H361.596V74.9443H372.289V76.6729H361.596V85.2715H373.036V87H359.662ZM394.525 68.9092C393.666 68.0693 392.66 67.4297 391.508 66.9902C390.355 66.541 389.13 66.3164 387.831 66.3164C386.474 66.3164 385.224 66.5557 384.081 67.0342C382.948 67.5029 381.962 68.1719 381.122 69.041C380.292 69.9102 379.647 70.9404 379.188 72.1318C378.729 73.3135 378.5 74.6123 378.5 76.0283C378.5 77.4248 378.725 78.7139 379.174 79.8955C379.623 81.0771 380.253 82.1025 381.063 82.9717C381.874 83.8408 382.831 84.5146 383.935 84.9932C385.048 85.4717 386.264 85.7109 387.582 85.7109C388.832 85.7109 389.989 85.4961 391.054 85.0664C392.118 84.6367 393.051 84.0312 393.852 83.25C394.662 82.4688 395.307 81.541 395.785 80.4668C396.264 79.3828 396.537 78.2012 396.605 76.9219H388.007V75.3545H398.349L398.407 76.0576C398.407 77.7275 398.144 79.2559 397.616 80.6426C397.089 82.0293 396.342 83.2305 395.375 84.2461C394.418 85.2617 393.28 86.0479 391.962 86.6045C390.653 87.1611 389.213 87.4395 387.641 87.4395C386.039 87.4395 384.56 87.1562 383.202 86.5898C381.854 86.0234 380.678 85.2275 379.672 84.2021C378.676 83.1768 377.899 81.9756 377.343 80.5986C376.796 79.2119 376.522 77.7031 376.522 76.0723C376.522 74.4219 376.801 72.8984 377.357 71.502C377.924 70.1055 378.715 68.8896 379.73 67.8545C380.746 66.8193 381.942 66.0186 383.319 65.4521C384.696 64.876 386.195 64.5879 387.816 64.5879C389.35 64.5879 390.8 64.8516 392.167 65.3789C393.544 65.9062 394.765 66.6631 395.829 67.6494L394.525 68.9092ZM410.36 87H408.427V77.6104L399.828 65.0273H402.172L409.394 75.9551L416.63 65.0273H418.974L410.36 77.625V87ZM447.846 85.9453L446.835 87.3955C446.132 86.917 445.443 86.4336 444.77 85.9453C444.096 85.4473 443.446 84.959 442.821 84.4805C441.845 85.4473 440.79 86.1846 439.657 86.6924C438.524 87.1904 437.323 87.4395 436.054 87.4395C434.687 87.4395 433.466 87.1709 432.392 86.6338C431.317 86.0869 430.473 85.3398 429.857 84.3926C429.252 83.4355 428.949 82.3467 428.949 81.126C428.949 80.0811 429.164 79.1924 429.594 78.46C430.023 77.7178 430.585 77.0781 431.278 76.541C431.972 76.0039 432.704 75.5107 433.476 75.0615C432.763 73.9873 432.216 72.9668 431.835 72C431.454 71.0332 431.264 70.1348 431.264 69.3047C431.264 68.3965 431.474 67.5908 431.894 66.8877C432.323 66.1748 432.909 65.6133 433.651 65.2031C434.394 64.793 435.238 64.5879 436.186 64.5879C437.123 64.5879 437.943 64.7881 438.646 65.1885C439.359 65.5791 439.916 66.1309 440.316 66.8438C440.717 67.5469 440.917 68.3574 440.917 69.2754C440.917 70.3398 440.668 71.2432 440.17 71.9854C439.682 72.7178 439.047 73.3574 438.266 73.9043C437.494 74.4414 436.688 74.9541 435.849 75.4424C436.659 76.4971 437.636 77.5859 438.778 78.709C439.921 79.832 441.21 80.9746 442.646 82.1367C443.271 81.3457 443.847 80.4326 444.374 79.3975C444.911 78.3623 445.39 77.2148 445.81 75.9551L447.377 76.5557C446.918 77.8936 446.405 79.1191 445.839 80.2324C445.272 81.3359 444.652 82.3125 443.979 83.1621C444.584 83.6211 445.209 84.085 445.854 84.5537C446.498 85.0225 447.162 85.4863 447.846 85.9453ZM434.955 74.2266C435.707 73.8164 436.405 73.3965 437.05 72.9668C437.694 72.5273 438.212 72.0293 438.603 71.4727C439.003 70.9062 439.203 70.2324 439.203 69.4512C439.203 68.5137 438.92 67.7471 438.354 67.1514C437.797 66.5557 437.074 66.2578 436.186 66.2578C435.297 66.2578 434.564 66.5605 433.988 67.166C433.422 67.7715 433.139 68.5479 433.139 69.4951C433.139 70.1689 433.295 70.9062 433.607 71.707C433.92 72.5078 434.369 73.3477 434.955 74.2266ZM434.398 76.3213C433.754 76.7021 433.158 77.1172 432.611 77.5664C432.074 78.0156 431.64 78.5234 431.308 79.0898C430.985 79.6562 430.824 80.3252 430.824 81.0967C430.824 81.9951 431.054 82.8008 431.513 83.5137C431.972 84.2168 432.597 84.7686 433.388 85.1689C434.188 85.5693 435.097 85.7695 436.112 85.7695C437.089 85.7695 438.026 85.5742 438.925 85.1836C439.833 84.7832 440.683 84.1973 441.474 83.4258C440.009 82.2051 438.681 80.999 437.489 79.8076C436.298 78.6064 435.268 77.4443 434.398 76.3213ZM466.405 87H464.472V66.7559H457.221V65.0273H473.671V66.7559H466.405V87ZM476.762 87V65.0273H489.989V66.7559H478.695V74.9443H489.389V76.6729H478.695V85.2715H490.136V87H476.762ZM513.148 84.1729C512.152 85.1982 510.956 85.999 509.56 86.5752C508.163 87.1514 506.645 87.4395 505.004 87.4395C503.354 87.4395 501.835 87.1562 500.448 86.5898C499.062 86.0234 497.855 85.2275 496.83 84.2021C495.814 83.167 495.023 81.9561 494.457 80.5693C493.9 79.1729 493.622 77.6543 493.622 76.0137C493.622 74.3633 493.9 72.8447 494.457 71.458C495.023 70.0615 495.814 68.8506 496.83 67.8252C497.855 66.7998 499.062 66.0039 500.448 65.4375C501.835 64.8711 503.354 64.5879 505.004 64.5879C506.645 64.5879 508.158 64.876 509.545 65.4521C510.941 66.0283 512.143 66.8242 513.148 67.8398L511.786 69.2168C510.956 68.3086 509.955 67.6006 508.783 67.0928C507.621 66.5752 506.347 66.3164 504.96 66.3164C503.612 66.3164 502.367 66.5605 501.225 67.0488C500.082 67.5273 499.091 68.2061 498.251 69.085C497.411 69.9541 496.757 70.9795 496.288 72.1611C495.829 73.333 495.6 74.6172 495.6 76.0137C495.6 77.4102 495.829 78.6992 496.288 79.8809C496.757 81.0527 497.411 82.0781 498.251 82.957C499.091 83.8262 500.082 84.5049 501.225 84.9932C502.367 85.4717 503.612 85.7109 504.96 85.7109C506.347 85.7109 507.621 85.457 508.783 84.9492C509.955 84.4316 510.956 83.7188 511.786 82.8105L513.148 84.1729ZM519.037 87H517.104V65.0273H519.037V75.2959H532.221V65.0273H534.154V87H532.221V77.0244H519.037V87ZM557.782 87H555.688L540.922 67.9863V87H538.988V65.0273H541.083L555.849 84.041V65.0273H557.782V87ZM572.943 87.4395C571.293 87.4395 569.774 87.1562 568.388 86.5898C567.001 86.0234 565.795 85.2275 564.77 84.2021C563.754 83.167 562.963 81.9561 562.396 80.5693C561.84 79.1729 561.562 77.6543 561.562 76.0137C561.562 74.3633 561.84 72.8447 562.396 71.458C562.963 70.0615 563.754 68.8506 564.77 67.8252C565.795 66.7998 567.001 66.0039 568.388 65.4375C569.774 64.8711 571.293 64.5879 572.943 64.5879C574.584 64.5879 576.093 64.8711 577.47 65.4375C578.856 66.0039 580.058 66.7998 581.073 67.8252C582.099 68.8506 582.89 70.0615 583.446 71.458C584.013 72.8447 584.296 74.3633 584.296 76.0137C584.296 77.6543 584.013 79.1729 583.446 80.5693C582.89 81.9561 582.099 83.167 581.073 84.2021C580.058 85.2275 578.856 86.0234 577.47 86.5898C576.093 87.1562 574.584 87.4395 572.943 87.4395ZM572.929 85.7109C574.286 85.7109 575.536 85.4717 576.679 84.9932C577.821 84.5049 578.812 83.8262 579.652 82.957C580.502 82.0781 581.156 81.0479 581.615 79.8662C582.084 78.6846 582.318 77.4004 582.318 76.0137C582.318 74.627 582.084 73.3428 581.615 72.1611C581.156 70.9795 580.502 69.9541 579.652 69.085C578.812 68.2061 577.821 67.5273 576.679 67.0488C575.536 66.5605 574.286 66.3164 572.929 66.3164C571.581 66.3164 570.336 66.5605 569.193 67.0488C568.051 67.5273 567.055 68.2061 566.205 69.085C565.365 69.9541 564.711 70.9795 564.242 72.1611C563.773 73.333 563.539 74.6172 563.539 76.0137C563.539 77.4102 563.773 78.6992 564.242 79.8809C564.711 81.0527 565.365 82.0781 566.205 82.957C567.055 83.8262 568.051 84.5049 569.193 84.9932C570.336 85.4717 571.581 85.7109 572.929 85.7109ZM601.244 87H588.061V65.0273H589.994V85.2715H601.244V87ZM613.9 87.4395C612.25 87.4395 610.731 87.1562 609.345 86.5898C607.958 86.0234 606.752 85.2275 605.727 84.2021C604.711 83.167 603.92 81.9561 603.354 80.5693C602.797 79.1729 602.519 77.6543 602.519 76.0137C602.519 74.3633 602.797 72.8447 603.354 71.458C603.92 70.0615 604.711 68.8506 605.727 67.8252C606.752 66.7998 607.958 66.0039 609.345 65.4375C610.731 64.8711 612.25 64.5879 613.9 64.5879C615.541 64.5879 617.05 64.8711 618.427 65.4375C619.813 66.0039 621.015 66.7998 622.03 67.8252C623.056 68.8506 623.847 70.0615 624.403 71.458C624.97 72.8447 625.253 74.3633 625.253 76.0137C625.253 77.6543 624.97 79.1729 624.403 80.5693C623.847 81.9561 623.056 83.167 622.03 84.2021C621.015 85.2275 619.813 86.0234 618.427 86.5898C617.05 87.1562 615.541 87.4395 613.9 87.4395ZM613.886 85.7109C615.243 85.7109 616.493 85.4717 617.636 84.9932C618.778 84.5049 619.77 83.8262 620.609 82.957C621.459 82.0781 622.113 81.0479 622.572 79.8662C623.041 78.6846 623.275 77.4004 623.275 76.0137C623.275 74.627 623.041 73.3428 622.572 72.1611C622.113 70.9795 621.459 69.9541 620.609 69.085C619.77 68.2061 618.778 67.5273 617.636 67.0488C616.493 66.5605 615.243 66.3164 613.886 66.3164C612.538 66.3164 611.293 66.5605 610.15 67.0488C609.008 67.5273 608.012 68.2061 607.162 69.085C606.322 69.9541 605.668 70.9795 605.199 72.1611C604.73 73.333 604.496 74.6172 604.496 76.0137C604.496 77.4102 604.73 78.6992 605.199 79.8809C605.668 81.0527 606.322 82.0781 607.162 82.957C608.012 83.8262 609.008 84.5049 610.15 84.9932C611.293 85.4717 612.538 85.7109 613.886 85.7109ZM645.951 68.9092C645.092 68.0693 644.086 67.4297 642.934 66.9902C641.781 66.541 640.556 66.3164 639.257 66.3164C637.899 66.3164 636.649 66.5557 635.507 67.0342C634.374 67.5029 633.388 68.1719 632.548 69.041C631.718 69.9102 631.073 70.9404 630.614 72.1318C630.155 73.3135 629.926 74.6123 629.926 76.0283C629.926 77.4248 630.15 78.7139 630.6 79.8955C631.049 81.0771 631.679 82.1025 632.489 82.9717C633.3 83.8408 634.257 84.5146 635.36 84.9932C636.474 85.4717 637.689 85.7109 639.008 85.7109C640.258 85.7109 641.415 85.4961 642.479 85.0664C643.544 84.6367 644.477 84.0312 645.277 83.25C646.088 82.4688 646.732 81.541 647.211 80.4668C647.689 79.3828 647.963 78.2012 648.031 76.9219H639.433V75.3545H649.774L649.833 76.0576C649.833 77.7275 649.569 79.2559 649.042 80.6426C648.515 82.0293 647.768 83.2305 646.801 84.2461C645.844 85.2617 644.706 86.0479 643.388 86.6045C642.079 87.1611 640.639 87.4395 639.066 87.4395C637.465 87.4395 635.985 87.1562 634.628 86.5898C633.28 86.0234 632.104 85.2275 631.098 84.2021C630.102 83.1768 629.325 81.9756 628.769 80.5986C628.222 79.2119 627.948 77.7031 627.948 76.0723C627.948 74.4219 628.227 72.8984 628.783 71.502C629.35 70.1055 630.141 68.8896 631.156 67.8545C632.172 66.8193 633.368 66.0186 634.745 65.4521C636.122 64.876 637.621 64.5879 639.242 64.5879C640.775 64.5879 642.226 64.8516 643.593 65.3789C644.97 65.9062 646.19 66.6631 647.255 67.6494L645.951 68.9092ZM661.786 87H659.853V77.6104L651.254 65.0273H653.598L660.819 75.9551L668.056 65.0273H670.399L661.786 77.625V87ZM261.576 121.173C260.58 122.198 259.384 122.999 257.987 123.575C256.591 124.151 255.072 124.439 253.432 124.439C251.781 124.439 250.263 124.156 248.876 123.59C247.489 123.023 246.283 122.228 245.258 121.202C244.242 120.167 243.451 118.956 242.885 117.569C242.328 116.173 242.05 114.654 242.05 113.014C242.05 111.363 242.328 109.845 242.885 108.458C243.451 107.062 244.242 105.851 245.258 104.825C246.283 103.8 247.489 103.004 248.876 102.438C250.263 101.871 251.781 101.588 253.432 101.588C255.072 101.588 256.586 101.876 257.973 102.452C259.369 103.028 260.57 103.824 261.576 104.84L260.214 106.217C259.384 105.309 258.383 104.601 257.211 104.093C256.049 103.575 254.774 103.316 253.388 103.316C252.04 103.316 250.795 103.561 249.652 104.049C248.51 104.527 247.519 105.206 246.679 106.085C245.839 106.954 245.185 107.979 244.716 109.161C244.257 110.333 244.027 111.617 244.027 113.014C244.027 114.41 244.257 115.699 244.716 116.881C245.185 118.053 245.839 119.078 246.679 119.957C247.519 120.826 248.51 121.505 249.652 121.993C250.795 122.472 252.04 122.711 253.388 122.711C254.774 122.711 256.049 122.457 257.211 121.949C258.383 121.432 259.384 120.719 260.214 119.811L261.576 121.173ZM275.99 124.439C274.34 124.439 272.821 124.156 271.435 123.59C270.048 123.023 268.842 122.228 267.816 121.202C266.801 120.167 266.01 118.956 265.443 117.569C264.887 116.173 264.608 114.654 264.608 113.014C264.608 111.363 264.887 109.845 265.443 108.458C266.01 107.062 266.801 105.851 267.816 104.825C268.842 103.8 270.048 103.004 271.435 102.438C272.821 101.871 274.34 101.588 275.99 101.588C277.631 101.588 279.14 101.871 280.517 102.438C281.903 103.004 283.104 103.8 284.12 104.825C285.146 105.851 285.937 107.062 286.493 108.458C287.06 109.845 287.343 111.363 287.343 113.014C287.343 114.654 287.06 116.173 286.493 117.569C285.937 118.956 285.146 120.167 284.12 121.202C283.104 122.228 281.903 123.023 280.517 123.59C279.14 124.156 277.631 124.439 275.99 124.439ZM275.976 122.711C277.333 122.711 278.583 122.472 279.726 121.993C280.868 121.505 281.859 120.826 282.699 119.957C283.549 119.078 284.203 118.048 284.662 116.866C285.131 115.685 285.365 114.4 285.365 113.014C285.365 111.627 285.131 110.343 284.662 109.161C284.203 107.979 283.549 106.954 282.699 106.085C281.859 105.206 280.868 104.527 279.726 104.049C278.583 103.561 277.333 103.316 275.976 103.316C274.628 103.316 273.383 103.561 272.24 104.049C271.098 104.527 270.102 105.206 269.252 106.085C268.412 106.954 267.758 107.979 267.289 109.161C266.82 110.333 266.586 111.617 266.586 113.014C266.586 114.41 266.82 115.699 267.289 116.881C267.758 118.053 268.412 119.078 269.252 119.957C270.102 120.826 271.098 121.505 272.24 121.993C273.383 122.472 274.628 122.711 275.976 122.711ZM309.901 124H307.807L293.041 104.986V124H291.107V102.027H293.202L307.968 121.041V102.027H309.901V124ZM313.725 121.935L314.677 120.44C315.292 120.948 315.917 121.373 316.552 121.715C317.196 122.057 317.855 122.311 318.529 122.477C319.203 122.643 319.887 122.726 320.58 122.726C321.654 122.726 322.597 122.54 323.407 122.169C324.218 121.788 324.853 121.266 325.312 120.602C325.771 119.938 326 119.171 326 118.302C326 117.374 325.746 116.612 325.238 116.017C324.74 115.411 324.096 114.903 323.305 114.493C322.514 114.073 321.674 113.678 320.785 113.307C320.072 113.004 319.369 112.687 318.676 112.354C317.982 112.013 317.353 111.617 316.786 111.168C316.22 110.719 315.766 110.182 315.424 109.557C315.092 108.932 314.926 108.175 314.926 107.286C314.926 106.163 315.209 105.177 315.775 104.327C316.342 103.468 317.123 102.799 318.119 102.32C319.125 101.842 320.287 101.603 321.605 101.603C322.484 101.603 323.358 101.715 324.228 101.939C325.106 102.164 325.946 102.496 326.747 102.936L325.941 104.532C325.258 104.142 324.545 103.844 323.803 103.639C323.07 103.424 322.343 103.316 321.62 103.316C320.692 103.316 319.872 103.478 319.159 103.8C318.456 104.122 317.904 104.571 317.504 105.147C317.104 105.724 316.903 106.393 316.903 107.154C316.903 107.984 317.138 108.678 317.606 109.234C318.085 109.791 318.695 110.27 319.438 110.67C320.189 111.061 320.98 111.441 321.811 111.812C322.562 112.135 323.3 112.477 324.022 112.838C324.755 113.199 325.419 113.624 326.015 114.112C326.61 114.591 327.084 115.167 327.436 115.841C327.797 116.515 327.978 117.325 327.978 118.272C327.978 119.493 327.67 120.567 327.055 121.495C326.439 122.423 325.585 123.146 324.491 123.663C323.397 124.181 322.123 124.439 320.668 124.439C319.398 124.439 318.178 124.229 317.006 123.81C315.844 123.39 314.75 122.765 313.725 121.935ZM350.287 102.027V114.186C350.287 116.314 349.921 118.146 349.188 119.679C348.466 121.212 347.426 122.389 346.068 123.209C344.711 124.029 343.085 124.439 341.19 124.439C339.296 124.439 337.67 124.029 336.312 123.209C334.955 122.389 333.91 121.212 333.178 119.679C332.455 118.146 332.094 116.314 332.094 114.186V102.027H334.027V114.098C334.027 115.895 334.315 117.438 334.892 118.727C335.468 120.006 336.288 120.992 337.353 121.686C338.427 122.369 339.706 122.711 341.19 122.711C342.675 122.711 343.949 122.369 345.014 121.686C346.088 120.992 346.913 120.006 347.489 118.727C348.065 117.438 348.354 115.895 348.354 114.098V102.027H350.287ZM368.305 124H355.121V102.027H357.055V122.271H368.305V124ZM375.878 124H373.944V103.756H366.693V102.027H383.144V103.756H375.878V124ZM388.168 102.027H386.234V124H388.168V102.027ZM411.796 124H409.701L394.936 104.986V124H393.002V102.027H395.097L409.862 121.041V102.027H411.796V124ZM433.578 105.909C432.719 105.069 431.713 104.43 430.561 103.99C429.408 103.541 428.183 103.316 426.884 103.316C425.526 103.316 424.276 103.556 423.134 104.034C422.001 104.503 421.015 105.172 420.175 106.041C419.345 106.91 418.7 107.94 418.241 109.132C417.782 110.313 417.553 111.612 417.553 113.028C417.553 114.425 417.777 115.714 418.227 116.896C418.676 118.077 419.306 119.103 420.116 119.972C420.927 120.841 421.884 121.515 422.987 121.993C424.101 122.472 425.316 122.711 426.635 122.711C427.885 122.711 429.042 122.496 430.106 122.066C431.171 121.637 432.104 121.031 432.904 120.25C433.715 119.469 434.359 118.541 434.838 117.467C435.316 116.383 435.59 115.201 435.658 113.922H427.06V112.354H437.401L437.46 113.058C437.46 114.728 437.196 116.256 436.669 117.643C436.142 119.029 435.395 120.23 434.428 121.246C433.471 122.262 432.333 123.048 431.015 123.604C429.706 124.161 428.266 124.439 426.693 124.439C425.092 124.439 423.612 124.156 422.255 123.59C420.907 123.023 419.73 122.228 418.725 121.202C417.729 120.177 416.952 118.976 416.396 117.599C415.849 116.212 415.575 114.703 415.575 113.072C415.575 111.422 415.854 109.898 416.41 108.502C416.977 107.105 417.768 105.89 418.783 104.854C419.799 103.819 420.995 103.019 422.372 102.452C423.749 101.876 425.248 101.588 426.869 101.588C428.402 101.588 429.853 101.852 431.22 102.379C432.597 102.906 433.817 103.663 434.882 104.649L433.578 105.909ZM448.695 124V102.027H461.776V103.756H450.629V111.944H461.176V113.673H450.629V124H448.695ZM468.412 102.027H466.479V124H468.412V102.027ZM488.495 124H486.342L480.863 114.728H475.18V124H473.246V102.027H480.6C482.104 102.027 483.402 102.286 484.496 102.804C485.59 103.321 486.435 104.054 487.03 105.001C487.626 105.948 487.924 107.076 487.924 108.385C487.924 109.977 487.479 111.305 486.591 112.369C485.702 113.424 484.472 114.122 482.899 114.464L488.495 124ZM475.18 112.999H480.497C482.177 112.999 483.505 112.589 484.481 111.769C485.458 110.938 485.946 109.811 485.946 108.385C485.946 106.949 485.458 105.821 484.481 105.001C483.515 104.171 482.187 103.756 480.497 103.756H475.18V112.999ZM513.866 124H511.933V104.679L503.905 120.309H502.104L494.105 104.767V124H492.172V102.027H494.706L503.012 118.302L511.288 102.027H513.866V124Z" fill="#43729E"/>
</svg>
