<svg width="637" height="437" viewBox="0 0 637 437" fill="none" xmlns="http://www.w3.org/2000/svg">
<path fill-rule="evenodd" clip-rule="evenodd" d="M432.493 0L458 30.0869V209.681L432.493 239.767V0Z" fill="#43729E"/>
<path fill-rule="evenodd" clip-rule="evenodd" d="M183.238 33.7V0H423.003V239.767H373.727L321.852 162.957C344.299 151.778 359.737 128.595 359.737 101.835C359.737 64.4637 329.63 34.0697 292.372 33.5988C292.27 33.5981 211.226 33.6738 183.238 33.7ZM418.23 36.4061C418.23 34.5624 416.731 33.0656 414.887 33.0656H397.204C395.357 33.0656 393.861 34.5624 393.861 36.4061V54.0929C393.861 55.9366 395.357 57.4334 397.204 57.4334H414.887C416.731 57.4334 418.23 55.9366 418.23 54.0929V36.4061ZM389.156 8.04526C389.156 6.20159 387.66 4.70476 385.816 4.70476H368.129C366.286 4.70476 364.79 6.20159 364.79 8.04526V25.7321C364.79 27.5758 366.286 29.0726 368.129 29.0726H385.816C387.66 29.0726 389.156 27.5758 389.156 25.7321V8.04526ZM418.23 8.00234C418.23 6.15866 416.731 4.66184 414.887 4.66184H397.204C395.357 4.66184 393.861 6.15866 393.861 8.00234V25.6892C393.861 27.5329 395.357 29.0297 397.204 29.0297H414.887C416.731 29.0297 418.23 27.5329 418.23 25.6892V8.00234Z" fill="#43729E"/>
<path fill-rule="evenodd" clip-rule="evenodd" d="M274.605 160.924H211.999L211.893 239.992H183V42.8486L292.252 42.7431C324.517 43.1382 350.592 69.4765 350.592 101.847C350.592 128.764 332.523 151.521 307.871 158.632L362.813 239.808H327.862L308.924 211.652L274.605 160.924ZM211.867 132.004V71.4785L291.567 71.3994C308.108 71.6101 321.672 85.0954 321.672 101.689C321.672 118.361 308.002 131.899 291.356 132.004H211.867Z" fill="#43729E"/>
<path d="M155.498 339.638H145.928L128.447 309.853H111.162V339.638H102.568V266.396H127.91C133.151 266.396 137.66 267.275 141.436 269.033C145.212 270.79 148.125 273.297 150.176 276.552C152.227 279.775 153.252 283.632 153.252 288.124C153.252 293.365 151.852 297.76 149.053 301.308C146.286 304.856 142.396 307.314 137.383 308.681L155.498 339.638ZM111.162 302.236H127.373C132.679 302.236 136.846 300.982 139.873 298.476C142.933 295.969 144.463 292.519 144.463 288.124C144.463 283.73 142.949 280.279 139.922 277.773C136.895 275.266 132.712 274.013 127.373 274.013H111.162V302.236Z" fill="#272727"/>
<rect x="167.838" y="301.638" width="15.9645" height="16" rx="2" fill="#43729E"/>
<path d="M263.263 329.263C259.91 332.648 255.906 335.301 251.251 337.222C246.596 339.143 241.518 340.103 236.017 340.103C230.516 340.103 225.437 339.159 220.782 337.271C216.16 335.383 212.14 332.73 208.722 329.312C205.304 325.861 202.651 321.825 200.763 317.203C198.875 312.548 197.931 307.486 197.931 302.017C197.931 296.516 198.875 291.454 200.763 286.831C202.651 282.176 205.304 278.14 208.722 274.722C212.14 271.304 216.16 268.651 220.782 266.763C225.437 264.875 230.516 263.931 236.017 263.931C241.486 263.931 246.547 264.891 251.202 266.812C255.857 268.7 259.861 271.337 263.214 274.722L257.208 280.826C254.604 277.928 251.479 275.666 247.833 274.038C244.187 272.378 240.2 271.548 235.87 271.548C231.671 271.548 227.797 272.313 224.249 273.843C220.701 275.341 217.609 277.473 214.972 280.24C212.368 282.974 210.333 286.197 208.868 289.908C207.436 293.619 206.72 297.655 206.72 302.017C206.72 306.411 207.436 310.464 208.868 314.175C210.333 317.854 212.368 321.076 214.972 323.843C217.609 326.578 220.701 328.71 224.249 330.24C227.797 331.737 231.671 332.486 235.87 332.486C240.2 332.486 244.187 331.672 247.833 330.044C251.479 328.384 254.604 326.106 257.208 323.208L263.263 329.263ZM337.433 265.396V305.874C337.433 312.971 336.196 319.091 333.722 324.234C331.281 329.344 327.765 333.267 323.175 336.001C318.585 338.736 313.084 340.103 306.671 340.103C300.291 340.103 294.806 338.736 290.216 336.001C285.626 333.267 282.094 329.344 279.62 324.234C277.179 319.091 275.958 312.971 275.958 305.874V265.396H284.552V305.191C284.552 310.953 285.431 315.868 287.189 319.937C288.947 324.006 291.469 327.115 294.757 329.263C298.077 331.411 302.049 332.486 306.671 332.486C311.326 332.486 315.297 331.411 318.585 329.263C321.906 327.115 324.445 324.006 326.202 319.937C327.96 315.868 328.839 310.953 328.839 305.191V265.396H337.433ZM352.618 338.638V265.396H378.595C385.594 265.396 391.095 267.007 395.099 270.23C399.103 273.453 401.105 277.88 401.105 283.511C401.105 287.515 400.112 291.014 398.126 294.009C396.141 296.971 393.488 299.12 390.167 300.454C394.627 301.561 398.126 303.693 400.665 306.851C403.237 309.976 404.523 313.817 404.523 318.374C404.523 322.411 403.514 325.959 401.495 329.019C399.51 332.046 396.726 334.406 393.146 336.099C389.565 337.792 385.382 338.638 380.597 338.638H352.618ZM361.212 297.72H378.4C382.697 297.72 386.131 296.581 388.702 294.302C391.307 292.023 392.609 289.012 392.609 285.269C392.609 281.493 391.29 278.514 388.654 276.333C386.017 274.12 382.42 273.013 377.863 273.013H361.212V297.72ZM361.212 331.021H378.741C382.127 331.021 385.089 330.451 387.628 329.312C390.167 328.14 392.153 326.529 393.585 324.478C395.017 322.395 395.734 320.002 395.734 317.3C395.734 314.663 395.05 312.369 393.683 310.415C392.348 308.462 390.444 306.965 387.97 305.923C385.529 304.849 382.648 304.312 379.327 304.312H361.212V331.021ZM416.29 338.638V265.396H461.163V273.013H424.884V297.622H459.161V305.24H424.884V331.021H461.652V338.638H416.29ZM476.349 338.638V265.396H497.443C506.427 265.396 514.142 266.861 520.587 269.79C527.065 272.72 532.029 276.919 535.48 282.388C538.963 287.857 540.704 294.4 540.704 302.017C540.704 309.602 538.963 316.145 535.48 321.646C532.029 327.115 527.065 331.314 520.587 334.244C514.142 337.173 506.427 338.638 497.443 338.638H476.349ZM484.943 331.021H497.833C505.027 331.021 511.163 329.882 516.241 327.603C521.32 325.324 525.193 322.02 527.863 317.691C530.564 313.361 531.915 308.137 531.915 302.017C531.915 295.897 530.564 290.673 527.863 286.343C525.193 282.014 521.32 278.71 516.241 276.431C511.163 274.152 505.027 273.013 497.833 273.013H484.943V331.021Z" fill="#272727"/>
<path d="M475.939 429H473.26L468.365 420.66H463.525V429H461.119V408.492H468.215C469.682 408.492 470.945 408.738 472.002 409.23C473.059 409.723 473.875 410.424 474.449 411.336C475.023 412.238 475.311 413.318 475.311 414.576C475.311 416.044 474.919 417.274 474.135 418.268C473.36 419.261 472.271 419.949 470.867 420.332L475.939 429ZM463.525 418.527H468.064C469.55 418.527 470.717 418.176 471.564 417.475C472.421 416.773 472.85 415.807 472.85 414.576C472.85 413.346 472.426 412.38 471.578 411.678C470.73 410.976 469.559 410.625 468.064 410.625H463.525V418.527ZM479.084 429V408.492H491.648V410.625H481.49V417.516H491.088V419.648H481.49V426.867H491.785V429H479.084ZM495.9 429V408.492H502.217C503.894 408.492 505.329 408.752 506.523 409.271C507.727 409.791 508.647 410.534 509.285 411.5C509.923 412.466 510.242 413.624 510.242 414.973C510.242 416.312 509.923 417.47 509.285 418.445C508.647 419.421 507.727 420.173 506.523 420.701C505.329 421.221 503.894 421.48 502.217 421.48H498.307V429H495.9ZM498.307 419.348H502.012C503.853 419.348 505.275 418.96 506.277 418.186C507.28 417.411 507.781 416.34 507.781 414.973C507.781 413.605 507.28 412.539 506.277 411.773C505.275 411.008 503.853 410.625 502.012 410.625H498.307V419.348ZM530.75 408.492V419.826C530.75 421.813 530.404 423.527 529.711 424.967C529.027 426.398 528.043 427.496 526.758 428.262C525.473 429.027 523.932 429.41 522.137 429.41C520.35 429.41 518.814 429.027 517.529 428.262C516.244 427.496 515.255 426.398 514.562 424.967C513.879 423.527 513.537 421.813 513.537 419.826V408.492H515.943V419.635C515.943 421.248 516.189 422.624 516.682 423.764C517.174 424.903 517.88 425.773 518.801 426.375C519.73 426.977 520.842 427.277 522.137 427.277C523.44 427.277 524.552 426.977 525.473 426.375C526.402 425.773 527.113 424.903 527.605 423.764C528.098 422.624 528.344 421.248 528.344 419.635V408.492H530.75ZM542.357 429H539.951V410.625H533.361V408.492H548.947V410.625H542.357V429ZM550.93 429H548.4L556.822 408.492H559.434L567.842 429H565.312L563.084 423.463H553.158L550.93 429ZM554.006 421.33H562.236L558.121 411.09L554.006 421.33ZM576.564 429H574.158V410.625H567.568V408.492H583.154V410.625H576.564V429ZM588.158 408.492H585.752V429H588.158V408.492ZM602.104 429.41C600.563 429.41 599.141 429.146 597.838 428.617C596.544 428.089 595.418 427.346 594.461 426.389C593.504 425.423 592.761 424.292 592.232 422.998C591.704 421.695 591.439 420.277 591.439 418.746C591.439 417.206 591.704 415.788 592.232 414.494C592.761 413.191 593.504 412.061 594.461 411.104C595.418 410.146 596.544 409.404 597.838 408.875C599.141 408.346 600.563 408.082 602.104 408.082C603.644 408.082 605.061 408.346 606.355 408.875C607.65 409.404 608.775 410.146 609.732 411.104C610.689 412.061 611.432 413.191 611.961 414.494C612.49 415.788 612.754 417.206 612.754 418.746C612.754 420.277 612.49 421.695 611.961 422.998C611.432 424.292 610.689 425.423 609.732 426.389C608.775 427.346 607.65 428.089 606.355 428.617C605.061 429.146 603.644 429.41 602.104 429.41ZM602.104 427.277C603.279 427.277 604.364 427.063 605.357 426.635C606.36 426.206 607.23 425.609 607.969 424.844C608.707 424.069 609.277 423.167 609.678 422.137C610.088 421.098 610.293 419.967 610.293 418.746C610.293 417.525 610.088 416.395 609.678 415.355C609.277 414.316 608.707 413.414 607.969 412.648C607.23 411.874 606.36 411.277 605.357 410.857C604.364 410.429 603.279 410.215 602.104 410.215C600.928 410.215 599.839 410.429 598.836 410.857C597.842 411.277 596.977 411.874 596.238 412.648C595.5 413.414 594.926 414.316 594.516 415.355C594.105 416.395 593.9 417.525 593.9 418.746C593.9 419.967 594.105 421.098 594.516 422.137C594.926 423.176 595.5 424.083 596.238 424.857C596.977 425.623 597.842 426.22 598.836 426.648C599.839 427.068 600.928 427.277 602.104 427.277ZM633.891 429H631.348L618.455 412.252V429H616.049V408.492H618.592L631.484 425.24V408.492H633.891V429Z" fill="#4A4A4A"/>
<circle cx="428.5" cy="417.5" r="5" stroke="black"/>
<path d="M295.939 429H293.26L288.365 420.66H283.525V429H281.119V408.492H288.215C289.682 408.492 290.945 408.738 292.002 409.23C293.059 409.723 293.875 410.424 294.449 411.336C295.023 412.238 295.311 413.318 295.311 414.576C295.311 416.044 294.919 417.274 294.135 418.268C293.36 419.261 292.271 419.949 290.867 420.332L295.939 429ZM283.525 418.527H288.064C289.55 418.527 290.717 418.176 291.564 417.475C292.421 416.773 292.85 415.807 292.85 414.576C292.85 413.346 292.426 412.38 291.578 411.678C290.73 410.976 289.559 410.625 288.064 410.625H283.525V418.527ZM299.084 429V408.492H311.648V410.625H301.49V417.516H311.088V419.648H301.49V426.867H311.785V429H299.084ZM314.807 427.004L315.969 425.158C316.561 425.641 317.154 426.042 317.746 426.361C318.339 426.68 318.94 426.917 319.551 427.072C320.171 427.227 320.799 427.305 321.438 427.305C322.367 427.305 323.178 427.15 323.871 426.84C324.573 426.53 325.12 426.102 325.512 425.555C325.904 424.999 326.1 424.361 326.1 423.641C326.1 422.857 325.876 422.21 325.43 421.699C324.992 421.18 324.423 420.738 323.721 420.373C323.019 420.008 322.271 419.662 321.479 419.334C320.813 419.051 320.152 418.751 319.496 418.432C318.84 418.113 318.243 417.743 317.705 417.324C317.176 416.896 316.753 416.381 316.434 415.779C316.115 415.178 315.955 414.453 315.955 413.605C315.955 412.521 316.229 411.564 316.775 410.734C317.322 409.905 318.079 409.258 319.045 408.793C320.02 408.328 321.141 408.096 322.408 408.096C323.265 408.096 324.126 408.21 324.992 408.438C325.858 408.656 326.697 408.98 327.508 409.408L326.523 411.377C325.885 411.003 325.215 410.716 324.514 410.516C323.821 410.315 323.137 410.215 322.463 410.215C321.661 410.215 320.954 410.352 320.344 410.625C319.742 410.889 319.268 411.263 318.922 411.746C318.585 412.22 318.416 412.776 318.416 413.414C318.416 414.125 318.621 414.722 319.031 415.205C319.451 415.688 319.988 416.107 320.645 416.463C321.31 416.809 322.012 417.146 322.75 417.475C323.452 417.785 324.145 418.113 324.828 418.459C325.521 418.796 326.145 419.197 326.701 419.662C327.266 420.118 327.717 420.665 328.055 421.303C328.392 421.941 328.561 422.711 328.561 423.613C328.561 424.771 328.269 425.787 327.686 426.662C327.102 427.528 326.282 428.202 325.225 428.686C324.176 429.169 322.946 429.41 321.533 429.41C320.294 429.41 319.113 429.21 317.992 428.809C316.871 428.408 315.809 427.806 314.807 427.004ZM349.328 408.492V419.826C349.328 421.813 348.982 423.527 348.289 424.967C347.605 426.398 346.621 427.496 345.336 428.262C344.051 429.027 342.51 429.41 340.715 429.41C338.928 429.41 337.393 429.027 336.107 428.262C334.822 427.496 333.833 426.398 333.141 424.967C332.457 423.527 332.115 421.813 332.115 419.826V408.492H334.521V419.635C334.521 421.248 334.768 422.624 335.26 423.764C335.752 424.903 336.458 425.773 337.379 426.375C338.309 426.977 339.421 427.277 340.715 427.277C342.018 427.277 343.13 426.977 344.051 426.375C344.98 425.773 345.691 424.903 346.184 423.764C346.676 422.624 346.922 421.248 346.922 419.635V408.492H349.328ZM366.158 429H353.58V408.492H355.986V426.867H366.158V429ZM373.377 429H370.971V410.625H364.381V408.492H379.967V410.625H373.377V429ZM381.607 427.004L382.77 425.158C383.362 425.641 383.954 426.042 384.547 426.361C385.139 426.68 385.741 426.917 386.352 427.072C386.971 427.227 387.6 427.305 388.238 427.305C389.168 427.305 389.979 427.15 390.672 426.84C391.374 426.53 391.921 426.102 392.312 425.555C392.704 424.999 392.9 424.361 392.9 423.641C392.9 422.857 392.677 422.21 392.23 421.699C391.793 421.18 391.223 420.738 390.521 420.373C389.82 420.008 389.072 419.662 388.279 419.334C387.614 419.051 386.953 418.751 386.297 418.432C385.641 418.113 385.044 417.743 384.506 417.324C383.977 416.896 383.553 416.381 383.234 415.779C382.915 415.178 382.756 414.453 382.756 413.605C382.756 412.521 383.029 411.564 383.576 410.734C384.123 409.905 384.88 409.258 385.846 408.793C386.821 408.328 387.942 408.096 389.209 408.096C390.066 408.096 390.927 408.21 391.793 408.438C392.659 408.656 393.497 408.98 394.309 409.408L393.324 411.377C392.686 411.003 392.016 410.716 391.314 410.516C390.622 410.315 389.938 410.215 389.264 410.215C388.462 410.215 387.755 410.352 387.145 410.625C386.543 410.889 386.069 411.263 385.723 411.746C385.385 412.22 385.217 412.776 385.217 413.414C385.217 414.125 385.422 414.722 385.832 415.205C386.251 415.688 386.789 416.107 387.445 416.463C388.111 416.809 388.812 417.146 389.551 417.475C390.253 417.785 390.945 418.113 391.629 418.459C392.322 418.796 392.946 419.197 393.502 419.662C394.067 420.118 394.518 420.665 394.855 421.303C395.193 421.941 395.361 422.711 395.361 423.613C395.361 424.771 395.07 425.787 394.486 426.662C393.903 427.528 393.083 428.202 392.025 428.686C390.977 429.169 389.747 429.41 388.334 429.41C387.094 429.41 385.914 429.21 384.793 428.809C383.672 428.408 382.61 427.806 381.607 427.004Z" fill="#4A4A4A"/>
<circle cx="247.5" cy="417.5" r="5" stroke="black"/>
<path d="M16.9395 429H14.2598L9.36523 420.66H4.52539V429H2.11914V408.492H9.21484C10.6823 408.492 11.9447 408.738 13.002 409.23C14.0592 409.723 14.875 410.424 15.4492 411.336C16.0234 412.238 16.3105 413.318 16.3105 414.576C16.3105 416.044 15.9186 417.274 15.1348 418.268C14.36 419.261 13.2708 419.949 11.8672 420.332L16.9395 429ZM4.52539 418.527H9.06445C10.5501 418.527 11.7168 418.176 12.5645 417.475C13.4212 416.773 13.8496 415.807 13.8496 414.576C13.8496 413.346 13.4258 412.38 12.5781 411.678C11.7305 410.976 10.5592 410.625 9.06445 410.625H4.52539V418.527ZM20.084 429V408.492H32.6484V410.625H22.4902V417.516H32.0879V419.648H22.4902V426.867H32.7852V429H20.084ZM49.4785 429H36.9004V408.492H39.3066V426.867H49.4785V429ZM53.6484 429H51.1191L59.541 408.492H62.1523L70.5605 429H68.0312L65.8027 423.463H55.877L53.6484 429ZM56.7246 421.33H64.9551L60.8398 411.09L56.7246 421.33ZM79.2832 429H76.877V410.625H70.2871V408.492H85.873V410.625H79.2832V429ZM90.877 408.492H88.4707V429H90.877V408.492ZM104.822 429.41C103.282 429.41 101.86 429.146 100.557 428.617C99.2624 428.089 98.1367 427.346 97.1797 426.389C96.2227 425.423 95.4798 424.292 94.9512 422.998C94.4225 421.695 94.1582 420.277 94.1582 418.746C94.1582 417.206 94.4225 415.788 94.9512 414.494C95.4798 413.191 96.2227 412.061 97.1797 411.104C98.1367 410.146 99.2624 409.404 100.557 408.875C101.86 408.346 103.282 408.082 104.822 408.082C106.363 408.082 107.78 408.346 109.074 408.875C110.368 409.404 111.494 410.146 112.451 411.104C113.408 412.061 114.151 413.191 114.68 414.494C115.208 415.788 115.473 417.206 115.473 418.746C115.473 420.277 115.208 421.695 114.68 422.998C114.151 424.292 113.408 425.423 112.451 426.389C111.494 427.346 110.368 428.089 109.074 428.617C107.78 429.146 106.363 429.41 104.822 429.41ZM104.822 427.277C105.998 427.277 107.083 427.063 108.076 426.635C109.079 426.206 109.949 425.609 110.688 424.844C111.426 424.069 111.995 423.167 112.396 422.137C112.807 421.098 113.012 419.967 113.012 418.746C113.012 417.525 112.807 416.395 112.396 415.355C111.995 414.316 111.426 413.414 110.688 412.648C109.949 411.874 109.079 411.277 108.076 410.857C107.083 410.429 105.998 410.215 104.822 410.215C103.646 410.215 102.557 410.429 101.555 410.857C100.561 411.277 99.6953 411.874 98.957 412.648C98.2188 413.414 97.6445 414.316 97.2344 415.355C96.8242 416.395 96.6191 417.525 96.6191 418.746C96.6191 419.967 96.8242 421.098 97.2344 422.137C97.6445 423.176 98.2188 424.083 98.957 424.857C99.6953 425.623 100.561 426.22 101.555 426.648C102.557 427.068 103.646 427.277 104.822 427.277ZM136.609 429H134.066L121.174 412.252V429H118.768V408.492H121.311L134.203 425.24V408.492H136.609V429ZM139.904 427.004L141.066 425.158C141.659 425.641 142.251 426.042 142.844 426.361C143.436 426.68 144.038 426.917 144.648 427.072C145.268 427.227 145.897 427.305 146.535 427.305C147.465 427.305 148.276 427.15 148.969 426.84C149.671 426.53 150.217 426.102 150.609 425.555C151.001 424.999 151.197 424.361 151.197 423.641C151.197 422.857 150.974 422.21 150.527 421.699C150.09 421.18 149.52 420.738 148.818 420.373C148.117 420.008 147.369 419.662 146.576 419.334C145.911 419.051 145.25 418.751 144.594 418.432C143.938 418.113 143.34 417.743 142.803 417.324C142.274 416.896 141.85 416.381 141.531 415.779C141.212 415.178 141.053 414.453 141.053 413.605C141.053 412.521 141.326 411.564 141.873 410.734C142.42 409.905 143.176 409.258 144.143 408.793C145.118 408.328 146.239 408.096 147.506 408.096C148.363 408.096 149.224 408.21 150.09 408.438C150.956 408.656 151.794 408.98 152.605 409.408L151.621 411.377C150.983 411.003 150.313 410.716 149.611 410.516C148.919 410.315 148.235 410.215 147.561 410.215C146.758 410.215 146.052 410.352 145.441 410.625C144.84 410.889 144.366 411.263 144.02 411.746C143.682 412.22 143.514 412.776 143.514 413.414C143.514 414.125 143.719 414.722 144.129 415.205C144.548 415.688 145.086 416.107 145.742 416.463C146.408 416.809 147.109 417.146 147.848 417.475C148.549 417.785 149.242 418.113 149.926 418.459C150.618 418.796 151.243 419.197 151.799 419.662C152.364 420.118 152.815 420.665 153.152 421.303C153.49 421.941 153.658 422.711 153.658 423.613C153.658 424.771 153.367 425.787 152.783 426.662C152.2 427.528 151.38 428.202 150.322 428.686C149.274 429.169 148.044 429.41 146.631 429.41C145.391 429.41 144.211 429.21 143.09 428.809C141.969 428.408 140.907 427.806 139.904 427.004ZM159.619 429H157.213V408.492H159.619V417.816H171.062V408.492H173.469V429H171.062V419.949H159.619V429ZM180.127 408.492H177.721V429H180.127V408.492ZM184.365 429V408.492H190.682C192.359 408.492 193.794 408.752 194.988 409.271C196.191 409.791 197.112 410.534 197.75 411.5C198.388 412.466 198.707 413.624 198.707 414.973C198.707 416.312 198.388 417.47 197.75 418.445C197.112 419.421 196.191 420.173 194.988 420.701C193.794 421.221 192.359 421.48 190.682 421.48H186.771V429H184.365ZM186.771 419.348H190.477C192.318 419.348 193.74 418.96 194.742 418.186C195.745 417.411 196.246 416.34 196.246 414.973C196.246 413.605 195.745 412.539 194.742 411.773C193.74 411.008 192.318 410.625 190.477 410.625H186.771V419.348ZM200.225 427.004L201.387 425.158C201.979 425.641 202.572 426.042 203.164 426.361C203.757 426.68 204.358 426.917 204.969 427.072C205.589 427.227 206.217 427.305 206.855 427.305C207.785 427.305 208.596 427.15 209.289 426.84C209.991 426.53 210.538 426.102 210.93 425.555C211.322 424.999 211.518 424.361 211.518 423.641C211.518 422.857 211.294 422.21 210.848 421.699C210.41 421.18 209.84 420.738 209.139 420.373C208.437 420.008 207.689 419.662 206.896 419.334C206.231 419.051 205.57 418.751 204.914 418.432C204.258 418.113 203.661 417.743 203.123 417.324C202.594 416.896 202.171 416.381 201.852 415.779C201.533 415.178 201.373 414.453 201.373 413.605C201.373 412.521 201.646 411.564 202.193 410.734C202.74 409.905 203.497 409.258 204.463 408.793C205.438 408.328 206.559 408.096 207.826 408.096C208.683 408.096 209.544 408.21 210.41 408.438C211.276 408.656 212.115 408.98 212.926 409.408L211.941 411.377C211.303 411.003 210.633 410.716 209.932 410.516C209.239 410.315 208.555 410.215 207.881 410.215C207.079 410.215 206.372 410.352 205.762 410.625C205.16 410.889 204.686 411.263 204.34 411.746C204.003 412.22 203.834 412.776 203.834 413.414C203.834 414.125 204.039 414.722 204.449 415.205C204.868 415.688 205.406 416.107 206.062 416.463C206.728 416.809 207.43 417.146 208.168 417.475C208.87 417.785 209.562 418.113 210.246 418.459C210.939 418.796 211.563 419.197 212.119 419.662C212.684 420.118 213.135 420.665 213.473 421.303C213.81 421.941 213.979 422.711 213.979 423.613C213.979 424.771 213.687 425.787 213.104 426.662C212.52 427.528 211.7 428.202 210.643 428.686C209.594 429.169 208.364 429.41 206.951 429.41C205.712 429.41 204.531 429.21 203.41 428.809C202.289 428.408 201.227 427.806 200.225 427.004Z" fill="#4A4A4A"/>
</svg>
