<svg width="743" height="91" viewBox="0 0 743 91" fill="none" xmlns="http://www.w3.org/2000/svg">
<path d="M15.3867 30.5859C13.1862 30.5859 11.1615 30.2083 9.3125 29.4531C7.46354 28.6979 5.85547 27.6367 4.48828 26.2695C3.13411 24.8893 2.07943 23.2747 1.32422 21.4258C0.582031 19.5638 0.210938 17.5391 0.210938 15.3516C0.210938 13.151 0.582031 11.1263 1.32422 9.27734C2.07943 7.41536 3.13411 5.80078 4.48828 4.43359C5.85547 3.06641 7.46354 2.00521 9.3125 1.25C11.1615 0.494792 13.1862 0.117188 15.3867 0.117188C17.5742 0.117188 19.5859 0.494792 21.4219 1.25C23.2708 2.00521 24.8724 3.06641 26.2266 4.43359C27.5938 5.80078 28.6484 7.41536 29.3906 9.27734C30.1458 11.1263 30.5234 13.151 30.5234 15.3516C30.5234 17.5391 30.1458 19.5638 29.3906 21.4258C28.6484 23.2747 27.5938 24.8893 26.2266 26.2695C24.8724 27.6367 23.2708 28.6979 21.4219 29.4531C19.5859 30.2083 17.5742 30.5859 15.3867 30.5859ZM15.3672 28.2812C17.1771 28.2812 18.8438 27.9622 20.3672 27.3242C21.8906 26.6732 23.2122 25.7682 24.332 24.6094C25.4648 23.4375 26.3372 22.0638 26.9492 20.4883C27.5742 18.9128 27.8867 17.2005 27.8867 15.3516C27.8867 13.5026 27.5742 11.7904 26.9492 10.2148C26.3372 8.63932 25.4648 7.27214 24.332 6.11328C23.2122 4.94141 21.8906 4.03646 20.3672 3.39844C18.8438 2.7474 17.1771 2.42188 15.3672 2.42188C13.5703 2.42188 11.9102 2.7474 10.3867 3.39844C8.86328 4.03646 7.53516 4.94141 6.40234 6.11328C5.28255 7.27214 4.41016 8.63932 3.78516 10.2148C3.16016 11.7773 2.84766 13.4896 2.84766 15.3516C2.84766 17.2135 3.16016 18.9323 3.78516 20.5078C4.41016 22.0703 5.28255 23.4375 6.40234 24.6094C7.53516 25.7682 8.86328 26.6732 10.3867 27.3242C11.9102 27.9622 13.5703 28.2812 15.3672 28.2812ZM52.8281 30H50.6992L50.6211 26.3281C49.931 27.6432 48.9805 28.6523 47.7695 29.3555C46.5716 30.0456 45.1328 30.3906 43.4531 30.3906C40.875 30.3906 38.8438 29.6094 37.3594 28.0469C35.888 26.4714 35.1523 24.3099 35.1523 21.5625V10.4688H37.5547V21.4062C37.5547 23.4896 38.1211 25.1432 39.2539 26.3672C40.3867 27.5781 41.9167 28.1836 43.8438 28.1836C45.8359 28.1836 47.431 27.5456 48.6289 26.2695C49.8268 24.9805 50.4258 23.2682 50.4258 21.1328V10.4688H52.8281V30ZM61.6953 30H59.293V10.4688H61.4219L61.5195 14.7852C62.1706 13.2747 63.1341 12.1159 64.4102 11.3086C65.6992 10.4883 67.2031 10.0781 68.9219 10.0781C69.2344 10.0781 69.5534 10.0977 69.8789 10.1367C70.2174 10.1628 70.5495 10.2083 70.875 10.2734L70.582 12.4414C69.944 12.3112 69.306 12.2461 68.668 12.2461C67.3138 12.2461 66.1094 12.5781 65.0547 13.2422C64 13.9062 63.1732 14.8242 62.5742 15.9961C61.9883 17.1549 61.6953 18.4961 61.6953 20.0195V30ZM86.4219 9.10156H84.5664L86.9297 0.3125H88.3945L86.4219 9.10156ZM93.2578 9.10156H91.4023L93.7656 0.3125H95.2305L93.2578 9.10156ZM129.195 30H127.086L119.234 5.35156L111.363 30H109.254L99.7227 0.703125H102.418L110.309 25.3711L118.18 0.703125H120.289L128.141 25.332L135.992 0.703125H138.688L129.195 30ZM145.777 30H143.199V0.703125H145.777V14.3945H163.355V0.703125H165.934V30H163.355V16.6992H145.777V30ZM183.883 30H181.305V17.4805L169.84 0.703125H172.965L182.594 15.2734L192.242 0.703125H195.367L183.883 17.5V30ZM207.574 9.10156H206.129L208.102 0.3125H209.938L207.574 9.10156ZM200.758 9.10156H199.293L201.266 0.3125H203.121L200.758 9.10156ZM227.73 3.61328C227.275 3.61328 226.891 3.45703 226.578 3.14453C226.279 2.81901 226.129 2.42839 226.129 1.97266C226.129 1.52995 226.279 1.15234 226.578 0.839844C226.891 0.527344 227.275 0.371094 227.73 0.371094C228.199 0.371094 228.59 0.527344 228.902 0.839844C229.228 1.15234 229.391 1.52995 229.391 1.97266C229.391 2.42839 229.228 2.81901 228.902 3.14453C228.59 3.45703 228.199 3.61328 227.73 3.61328ZM228.941 30H226.539V10.4688H228.941V30ZM234.215 28.3008L234.918 26.0742C235.4 26.5169 235.934 26.8945 236.52 27.207C237.118 27.5195 237.737 27.7604 238.375 27.9297C239.026 28.099 239.684 28.1836 240.348 28.1836C241.676 28.1836 242.757 27.8581 243.59 27.207C244.423 26.556 244.84 25.7096 244.84 24.668C244.84 23.9258 244.632 23.3203 244.215 22.8516C243.798 22.3698 243.251 21.9596 242.574 21.6211C241.897 21.2826 241.181 20.9635 240.426 20.6641C239.553 20.3255 238.701 19.9479 237.867 19.5312C237.034 19.1016 236.344 18.5482 235.797 17.8711C235.263 17.194 234.996 16.3021 234.996 15.1953C234.996 14.1536 235.25 13.2552 235.758 12.5C236.279 11.7318 237.001 11.1393 237.926 10.7227C238.863 10.293 239.944 10.0781 241.168 10.0781C242.926 10.0781 244.658 10.5078 246.363 11.3672L245.621 13.5352C245.217 13.2878 244.762 13.0729 244.254 12.8906C243.746 12.6953 243.225 12.5456 242.691 12.4414C242.158 12.3372 241.65 12.2852 241.168 12.2852C240.061 12.2852 239.169 12.5521 238.492 13.0859C237.815 13.6068 237.477 14.2969 237.477 15.1562C237.477 15.7161 237.626 16.2044 237.926 16.6211C238.238 17.0247 238.707 17.4023 239.332 17.7539C239.957 18.1055 240.738 18.4766 241.676 18.8672C242.574 19.2318 243.453 19.6484 244.312 20.1172C245.172 20.5729 245.882 21.1589 246.441 21.875C247.014 22.5911 247.301 23.5221 247.301 24.668C247.301 25.7878 247.008 26.7839 246.422 27.6562C245.849 28.5156 245.048 29.1862 244.02 29.668C243.004 30.1497 241.819 30.3906 240.465 30.3906C238.212 30.3906 236.129 29.694 234.215 28.3008ZM270.523 29.8633C268.674 29.8633 267.014 29.4336 265.543 28.5742C264.072 27.7018 262.906 26.5234 262.047 25.0391C261.201 23.5417 260.777 21.8555 260.777 19.9805C260.777 18.0924 261.201 16.4062 262.047 14.9219C262.906 13.4245 264.072 12.2461 265.543 11.3867C267.014 10.5143 268.681 10.0781 270.543 10.0781C272.236 10.0781 273.759 10.4492 275.113 11.1914C276.48 11.9336 277.574 12.9297 278.395 14.1797L278.512 10.4688H280.66V29.5117C280.66 31.7122 280.243 33.6068 279.41 35.1953C278.577 36.7839 277.385 38.0078 275.836 38.8672C274.286 39.7266 272.438 40.1562 270.289 40.1562C267.229 40.1562 264.605 39.1211 262.418 37.0508L263.551 35.1367C265.348 37.0378 267.581 37.9883 270.25 37.9883C271.904 37.9883 273.323 37.6367 274.508 36.9336C275.706 36.2435 276.63 35.2669 277.281 34.0039C277.932 32.7409 278.258 31.237 278.258 29.4922V25.918C277.424 27.1289 276.337 28.0924 274.996 28.8086C273.655 29.5117 272.164 29.8633 270.523 29.8633ZM270.719 27.7344C272.099 27.7344 273.349 27.4219 274.469 26.7969C275.589 26.1719 276.487 25.319 277.164 24.2383C277.854 23.1445 278.219 21.9076 278.258 20.5273V19.4336C278.219 18.0404 277.854 16.8034 277.164 15.7227C276.487 14.6289 275.589 13.7695 274.469 13.1445C273.362 12.5195 272.118 12.207 270.738 12.207C269.306 12.207 268.017 12.5521 266.871 13.2422C265.738 13.9193 264.84 14.8438 264.176 16.0156C263.525 17.1745 263.199 18.4961 263.199 19.9805C263.199 21.4518 263.525 22.7734 264.176 23.9453C264.84 25.1172 265.738 26.0417 266.871 26.7188C268.004 27.3958 269.286 27.7344 270.719 27.7344ZM289.312 30H286.91V10.4688H289.039L289.137 14.7852C289.788 13.2747 290.751 12.1159 292.027 11.3086C293.316 10.4883 294.82 10.0781 296.539 10.0781C296.852 10.0781 297.171 10.0977 297.496 10.1367C297.835 10.1628 298.167 10.2083 298.492 10.2734L298.199 12.4414C297.561 12.3112 296.923 12.2461 296.285 12.2461C294.931 12.2461 293.727 12.5781 292.672 13.2422C291.617 13.9062 290.79 14.8242 290.191 15.9961C289.605 17.1549 289.312 18.4961 289.312 20.0195V30ZM310.816 30.3906C308.889 30.3906 307.158 29.9479 305.621 29.0625C304.085 28.1771 302.874 26.9727 301.988 25.4492C301.103 23.9128 300.66 22.1745 300.66 20.2344C300.66 18.3073 301.103 16.582 301.988 15.0586C302.874 13.5221 304.085 12.3112 305.621 11.4258C307.158 10.5273 308.889 10.0781 310.816 10.0781C312.73 10.0781 314.449 10.5273 315.973 11.4258C317.496 12.3112 318.701 13.5221 319.586 15.0586C320.471 16.582 320.914 18.3073 320.914 20.2344C320.914 22.1615 320.471 23.8932 319.586 25.4297C318.701 26.9661 317.496 28.1771 315.973 29.0625C314.449 29.9479 312.73 30.3906 310.816 30.3906ZM310.797 28.2227C312.255 28.2227 313.557 27.8711 314.703 27.168C315.862 26.4648 316.773 25.5143 317.438 24.3164C318.115 23.1055 318.453 21.7383 318.453 20.2148C318.453 18.7174 318.115 17.3698 317.438 16.1719C316.773 14.9609 315.862 14.0039 314.703 13.3008C313.557 12.5977 312.255 12.2461 310.797 12.2461C309.339 12.2461 308.03 12.5977 306.871 13.3008C305.712 14.0039 304.794 14.9609 304.117 16.1719C303.453 17.3698 303.121 18.7174 303.121 20.2148C303.121 21.7383 303.453 23.1055 304.117 24.3164C304.794 25.5143 305.712 26.4648 306.871 27.168C308.03 27.8711 309.339 28.2227 310.797 28.2227ZM343.102 30H340.973L340.895 26.3281C340.204 27.6432 339.254 28.6523 338.043 29.3555C336.845 30.0456 335.406 30.3906 333.727 30.3906C331.148 30.3906 329.117 29.6094 327.633 28.0469C326.161 26.4714 325.426 24.3099 325.426 21.5625V10.4688H327.828V21.4062C327.828 23.4896 328.395 25.1432 329.527 26.3672C330.66 27.5781 332.19 28.1836 334.117 28.1836C336.109 28.1836 337.704 27.5456 338.902 26.2695C340.1 24.9805 340.699 23.2682 340.699 21.1328V10.4688H343.102V30ZM367.359 30H364.957V19.0625C364.957 16.9792 364.384 15.332 363.238 14.1211C362.092 12.8971 360.549 12.2852 358.609 12.2852C356.604 12.2852 354.996 12.9297 353.785 14.2188C352.574 15.4948 351.969 17.2005 351.969 19.3359V30H349.566V10.4688H351.695L351.773 14.1406C352.451 12.8255 353.401 11.8229 354.625 11.1328C355.849 10.4297 357.307 10.0781 359 10.0781C361.604 10.0781 363.648 10.8594 365.133 12.4219C366.617 13.9844 367.359 16.1458 367.359 18.9062V30ZM392.242 30H390.074L389.957 26.25C389.124 27.5391 388.004 28.5547 386.598 29.2969C385.204 30.026 383.655 30.3906 381.949 30.3906C380.022 30.3906 378.297 29.9479 376.773 29.0625C375.263 28.1771 374.065 26.9661 373.18 25.4297C372.307 23.8932 371.871 22.1615 371.871 20.2344C371.871 18.2943 372.307 16.5625 373.18 15.0391C374.065 13.5026 375.263 12.2917 376.773 11.4062C378.297 10.5208 380.022 10.0781 381.949 10.0781C383.616 10.0781 385.139 10.4362 386.52 11.1523C387.9 11.8555 389.007 12.832 389.84 14.082V0.703125H392.242V30ZM382.105 28.2227C383.525 28.2227 384.82 27.8971 385.992 27.2461C387.164 26.582 388.095 25.6836 388.785 24.5508C389.488 23.4049 389.84 22.1094 389.84 20.6641V19.7852C389.84 18.3529 389.495 17.0703 388.805 15.9375C388.115 14.7917 387.184 13.8932 386.012 13.2422C384.853 12.5781 383.551 12.2461 382.105 12.2461C380.634 12.2461 379.306 12.5977 378.121 13.3008C376.949 13.9909 376.025 14.9414 375.348 16.1523C374.671 17.3503 374.332 18.7044 374.332 20.2148C374.332 21.7383 374.671 23.1055 375.348 24.3164C376.025 25.5143 376.949 26.4648 378.121 27.168C379.293 27.8711 380.621 28.2227 382.105 28.2227ZM415.66 27.5586C413.264 29.4466 410.608 30.3906 407.691 30.3906C405.673 30.3906 403.863 29.9414 402.262 29.043C400.673 28.1315 399.423 26.8945 398.512 25.332C397.6 23.7695 397.145 21.9987 397.145 20.0195C397.145 18.1055 397.568 16.3997 398.414 14.9023C399.273 13.4049 400.445 12.2266 401.93 11.3672C403.414 10.5078 405.1 10.0781 406.988 10.0781C408.902 10.0781 410.589 10.5339 412.047 11.4453C413.505 12.3438 414.645 13.5938 415.465 15.1953C416.285 16.7839 416.695 18.6263 416.695 20.7227V21.3281H399.742C399.898 22.6953 400.348 23.8932 401.09 24.9219C401.845 25.9505 402.809 26.7513 403.98 27.3242C405.152 27.8971 406.467 28.1836 407.926 28.1836C410.322 28.1836 412.522 27.3893 414.527 25.8008L415.66 27.5586ZM399.664 19.2578H414.449C414.332 17.8646 413.948 16.6471 413.297 15.6055C412.646 14.5638 411.786 13.75 410.719 13.1641C409.664 12.5781 408.46 12.2852 407.105 12.2852C405.738 12.2852 404.508 12.5781 403.414 13.1641C402.333 13.75 401.461 14.5703 400.797 15.625C400.146 16.6667 399.768 17.8776 399.664 19.2578ZM440.406 30H438.238L438.121 26.25C437.288 27.5391 436.168 28.5547 434.762 29.2969C433.368 30.026 431.819 30.3906 430.113 30.3906C428.186 30.3906 426.461 29.9479 424.938 29.0625C423.427 28.1771 422.229 26.9661 421.344 25.4297C420.471 23.8932 420.035 22.1615 420.035 20.2344C420.035 18.2943 420.471 16.5625 421.344 15.0391C422.229 13.5026 423.427 12.2917 424.938 11.4062C426.461 10.5208 428.186 10.0781 430.113 10.0781C431.78 10.0781 433.303 10.4362 434.684 11.1523C436.064 11.8555 437.171 12.832 438.004 14.082V0.703125H440.406V30ZM430.27 28.2227C431.689 28.2227 432.984 27.8971 434.156 27.2461C435.328 26.582 436.259 25.6836 436.949 24.5508C437.652 23.4049 438.004 22.1094 438.004 20.6641V19.7852C438.004 18.3529 437.659 17.0703 436.969 15.9375C436.279 14.7917 435.348 13.8932 434.176 13.2422C433.017 12.5781 431.715 12.2461 430.27 12.2461C428.798 12.2461 427.47 12.5977 426.285 13.3008C425.113 13.9909 424.189 14.9414 423.512 16.1523C422.835 17.3503 422.496 18.7044 422.496 20.2148C422.496 21.7383 422.835 23.1055 423.512 24.3164C424.189 25.5143 425.113 26.4648 426.285 27.168C427.457 27.8711 428.785 28.2227 430.27 28.2227ZM458.98 30H456.832V0.703125H459.234V14.1797C460.081 12.9167 461.194 11.9206 462.574 11.1914C463.954 10.4492 465.491 10.0781 467.184 10.0781C469.098 10.0781 470.803 10.5208 472.301 11.4062C473.811 12.2917 475.003 13.5026 475.875 15.0391C476.747 16.5625 477.184 18.2943 477.184 20.2344C477.184 22.1615 476.747 23.8932 475.875 25.4297C475.003 26.9661 473.811 28.1771 472.301 29.0625C470.803 29.9479 469.098 30.3906 467.184 30.3906C465.452 30.3906 463.883 30.0065 462.477 29.2383C461.083 28.4701 459.957 27.4414 459.098 26.1523L458.98 30ZM466.988 28.2227C468.46 28.2227 469.775 27.8776 470.934 27.1875C472.105 26.4844 473.03 25.5339 473.707 24.3359C474.384 23.125 474.723 21.7643 474.723 20.2539C474.723 18.7305 474.384 17.3633 473.707 16.1523C473.03 14.9414 472.105 13.9909 470.934 13.3008C469.775 12.5977 468.46 12.2461 466.988 12.2461C465.582 12.2461 464.306 12.5716 463.16 13.2227C462.027 13.8607 461.109 14.7396 460.406 15.8594C459.716 16.9661 459.326 18.2292 459.234 19.6484V20.8008C459.326 22.2201 459.716 23.4896 460.406 24.6094C461.096 25.7292 462.008 26.6146 463.141 27.2656C464.286 27.9036 465.569 28.2227 466.988 28.2227ZM486.656 39.7656H484.039L488.16 29.8047L478.941 10.4688H481.598L489.312 27.0117L496.168 10.4688H498.766L486.656 39.7656ZM521.832 30.3906C519.905 30.3906 518.173 29.9479 516.637 29.0625C515.1 28.1771 513.889 26.9727 513.004 25.4492C512.118 23.9128 511.676 22.1745 511.676 20.2344C511.676 18.3073 512.118 16.582 513.004 15.0586C513.889 13.5221 515.1 12.3112 516.637 11.4258C518.173 10.5273 519.905 10.0781 521.832 10.0781C523.746 10.0781 525.465 10.5273 526.988 11.4258C528.512 12.3112 529.716 13.5221 530.602 15.0586C531.487 16.582 531.93 18.3073 531.93 20.2344C531.93 22.1615 531.487 23.8932 530.602 25.4297C529.716 26.9661 528.512 28.1771 526.988 29.0625C525.465 29.9479 523.746 30.3906 521.832 30.3906ZM521.812 28.2227C523.271 28.2227 524.573 27.8711 525.719 27.168C526.878 26.4648 527.789 25.5143 528.453 24.3164C529.13 23.1055 529.469 21.7383 529.469 20.2148C529.469 18.7174 529.13 17.3698 528.453 16.1719C527.789 14.9609 526.878 14.0039 525.719 13.3008C524.573 12.5977 523.271 12.2461 521.812 12.2461C520.354 12.2461 519.046 12.5977 517.887 13.3008C516.728 14.0039 515.81 14.9609 515.133 16.1719C514.469 17.3698 514.137 18.7174 514.137 20.2148C514.137 21.7383 514.469 23.1055 515.133 24.3164C515.81 25.5143 516.728 26.4648 517.887 27.168C519.046 27.8711 520.354 28.2227 521.812 28.2227ZM554.117 30H551.988L551.91 26.3281C551.22 27.6432 550.27 28.6523 549.059 29.3555C547.861 30.0456 546.422 30.3906 544.742 30.3906C542.164 30.3906 540.133 29.6094 538.648 28.0469C537.177 26.4714 536.441 24.3099 536.441 21.5625V10.4688H538.844V21.4062C538.844 23.4896 539.41 25.1432 540.543 26.3672C541.676 27.5781 543.206 28.1836 545.133 28.1836C547.125 28.1836 548.72 27.5456 549.918 26.2695C551.116 24.9805 551.715 23.2682 551.715 21.1328V10.4688H554.117V30ZM562.984 30H560.582V10.4688H562.711L562.809 14.7852C563.46 13.2747 564.423 12.1159 565.699 11.3086C566.988 10.4883 568.492 10.0781 570.211 10.0781C570.523 10.0781 570.842 10.0977 571.168 10.1367C571.507 10.1628 571.839 10.2083 572.164 10.2734L571.871 12.4414C571.233 12.3112 570.595 12.2461 569.957 12.2461C568.603 12.2461 567.398 12.5781 566.344 13.2422C565.289 13.9062 564.462 14.8242 563.863 15.9961C563.277 17.1549 562.984 18.4961 562.984 20.0195V30ZM596.48 29.5508C595.296 30.1107 594.124 30.3906 592.965 30.3906C591.871 30.3906 590.914 30.1497 590.094 29.668C589.286 29.1862 588.655 28.5091 588.199 27.6367C587.743 26.7643 587.516 25.7487 587.516 24.5898V12.6367H584.098V10.4688H587.613V5.58594H589.918V10.4688H595.895V12.6367H589.918V24.1602C589.918 25.3841 590.243 26.3672 590.895 27.1094C591.546 27.8516 592.405 28.2227 593.473 28.2227C594.319 28.2227 595.172 27.9753 596.031 27.4805L596.48 29.5508ZM601.168 30V0.703125H603.57V13.9648C604.977 11.3737 607.359 10.0781 610.719 10.0781C613.31 10.0781 615.328 10.8529 616.773 12.4023C618.232 13.9518 618.961 16.1198 618.961 18.9062V30H616.559V19.3945C616.559 17.1419 615.992 15.3906 614.859 14.1406C613.727 12.8776 612.151 12.2461 610.133 12.2461C608.102 12.2461 606.5 12.8841 605.328 14.1602C604.156 15.4362 603.57 17.181 603.57 19.3945V30H601.168ZM627.438 30H625.035V10.4688H627.164L627.262 14.7852C627.913 13.2747 628.876 12.1159 630.152 11.3086C631.441 10.4883 632.945 10.0781 634.664 10.0781C634.977 10.0781 635.296 10.0977 635.621 10.1367C635.96 10.1628 636.292 10.2083 636.617 10.2734L636.324 12.4414C635.686 12.3112 635.048 12.2461 634.41 12.2461C633.056 12.2461 631.852 12.5781 630.797 13.2422C629.742 13.9062 628.915 14.8242 628.316 15.9961C627.73 17.1549 627.438 18.4961 627.438 20.0195V30ZM657.301 27.5586C654.905 29.4466 652.249 30.3906 649.332 30.3906C647.314 30.3906 645.504 29.9414 643.902 29.043C642.314 28.1315 641.064 26.8945 640.152 25.332C639.241 23.7695 638.785 21.9987 638.785 20.0195C638.785 18.1055 639.208 16.3997 640.055 14.9023C640.914 13.4049 642.086 12.2266 643.57 11.3672C645.055 10.5078 646.741 10.0781 648.629 10.0781C650.543 10.0781 652.229 10.5339 653.688 11.4453C655.146 12.3438 656.285 13.5938 657.105 15.1953C657.926 16.7839 658.336 18.6263 658.336 20.7227V21.3281H641.383C641.539 22.6953 641.988 23.8932 642.73 24.9219C643.486 25.9505 644.449 26.7513 645.621 27.3242C646.793 27.8971 648.108 28.1836 649.566 28.1836C651.962 28.1836 654.163 27.3893 656.168 25.8008L657.301 27.5586ZM641.305 19.2578H656.09C655.973 17.8646 655.589 16.6471 654.938 15.6055C654.286 14.5638 653.427 13.75 652.359 13.1641C651.305 12.5781 650.1 12.2852 648.746 12.2852C647.379 12.2852 646.148 12.5781 645.055 13.1641C643.974 13.75 643.102 14.5703 642.438 15.625C641.786 16.6667 641.409 17.8776 641.305 19.2578ZM680.191 27.5586C677.796 29.4466 675.139 30.3906 672.223 30.3906C670.204 30.3906 668.395 29.9414 666.793 29.043C665.204 28.1315 663.954 26.8945 663.043 25.332C662.132 23.7695 661.676 21.9987 661.676 20.0195C661.676 18.1055 662.099 16.3997 662.945 14.9023C663.805 13.4049 664.977 12.2266 666.461 11.3672C667.945 10.5078 669.632 10.0781 671.52 10.0781C673.434 10.0781 675.12 10.5339 676.578 11.4453C678.036 12.3438 679.176 13.5938 679.996 15.1953C680.816 16.7839 681.227 18.6263 681.227 20.7227V21.3281H664.273C664.43 22.6953 664.879 23.8932 665.621 24.9219C666.376 25.9505 667.34 26.7513 668.512 27.3242C669.684 27.8971 670.999 28.1836 672.457 28.1836C674.853 28.1836 677.053 27.3893 679.059 25.8008L680.191 27.5586ZM664.195 19.2578H678.98C678.863 17.8646 678.479 16.6471 677.828 15.6055C677.177 14.5638 676.318 13.75 675.25 13.1641C674.195 12.5781 672.991 12.2852 671.637 12.2852C670.27 12.2852 669.039 12.5781 667.945 13.1641C666.865 13.75 665.992 14.5703 665.328 15.625C664.677 16.6667 664.299 17.8776 664.195 19.2578ZM716.422 30H713.551L706.246 17.6367H698.668V30H696.09V0.703125H705.895C707.9 0.703125 709.632 1.04818 711.09 1.73828C712.548 2.42839 713.674 3.40495 714.469 4.66797C715.263 5.93099 715.66 7.4349 715.66 9.17969C715.66 11.3021 715.068 13.0729 713.883 14.4922C712.698 15.8984 711.057 16.8294 708.961 17.2852L716.422 30ZM698.668 15.332H705.758C707.997 15.332 709.768 14.7852 711.07 13.6914C712.372 12.5846 713.023 11.0807 713.023 9.17969C713.023 7.26562 712.372 5.76172 711.07 4.66797C709.781 3.5612 708.01 3.00781 705.758 3.00781H698.668V15.332ZM722.789 9.10156H721.324L723.297 0.3125H725.152L722.789 9.10156ZM729.645 28.3008L730.348 26.0742C730.829 26.5169 731.363 26.8945 731.949 27.207C732.548 27.5195 733.167 27.7604 733.805 27.9297C734.456 28.099 735.113 28.1836 735.777 28.1836C737.105 28.1836 738.186 27.8581 739.02 27.207C739.853 26.556 740.27 25.7096 740.27 24.668C740.27 23.9258 740.061 23.3203 739.645 22.8516C739.228 22.3698 738.681 21.9596 738.004 21.6211C737.327 21.2826 736.611 20.9635 735.855 20.6641C734.983 20.3255 734.13 19.9479 733.297 19.5312C732.464 19.1016 731.773 18.5482 731.227 17.8711C730.693 17.194 730.426 16.3021 730.426 15.1953C730.426 14.1536 730.68 13.2552 731.188 12.5C731.708 11.7318 732.431 11.1393 733.355 10.7227C734.293 10.293 735.374 10.0781 736.598 10.0781C738.355 10.0781 740.087 10.5078 741.793 11.3672L741.051 13.5352C740.647 13.2878 740.191 13.0729 739.684 12.8906C739.176 12.6953 738.655 12.5456 738.121 12.4414C737.587 12.3372 737.079 12.2852 736.598 12.2852C735.491 12.2852 734.599 12.5521 733.922 13.0859C733.245 13.6068 732.906 14.2969 732.906 15.1562C732.906 15.7161 733.056 16.2044 733.355 16.6211C733.668 17.0247 734.137 17.4023 734.762 17.7539C735.387 18.1055 736.168 18.4766 737.105 18.8672C738.004 19.2318 738.883 19.6484 739.742 20.1172C740.602 20.5729 741.311 21.1589 741.871 21.875C742.444 22.5911 742.73 23.5221 742.73 24.668C742.73 25.7878 742.438 26.7839 741.852 27.6562C741.279 28.5156 740.478 29.1862 739.449 29.668C738.434 30.1497 737.249 30.3906 735.895 30.3906C733.642 30.3906 731.559 29.694 729.645 28.3008ZM132.203 78.5938L130.855 80.5273C129.918 79.8893 129 79.2448 128.102 78.5938C127.203 77.9297 126.337 77.2786 125.504 76.6406C124.202 77.9297 122.796 78.9128 121.285 79.5898C119.775 80.2539 118.173 80.5859 116.48 80.5859C114.658 80.5859 113.03 80.2279 111.598 79.5117C110.165 78.7826 109.039 77.7865 108.219 76.5234C107.411 75.2474 107.008 73.7956 107.008 72.168C107.008 70.7747 107.294 69.5898 107.867 68.6133C108.44 67.6237 109.189 66.7708 110.113 66.0547C111.038 65.3385 112.014 64.681 113.043 64.082C112.092 62.6497 111.363 61.2891 110.855 60C110.348 58.7109 110.094 57.513 110.094 56.4062C110.094 55.1953 110.374 54.1211 110.934 53.1836C111.507 52.2331 112.288 51.4844 113.277 50.9375C114.267 50.3906 115.393 50.1172 116.656 50.1172C117.906 50.1172 119 50.3841 119.938 50.918C120.888 51.4388 121.63 52.1745 122.164 53.125C122.698 54.0625 122.965 55.1432 122.965 56.3672C122.965 57.7865 122.633 58.9909 121.969 59.9805C121.318 60.957 120.471 61.8099 119.43 62.5391C118.401 63.2552 117.327 63.9388 116.207 64.5898C117.288 65.9961 118.59 67.4479 120.113 68.9453C121.637 70.4427 123.355 71.9661 125.27 73.5156C126.103 72.4609 126.871 71.2435 127.574 69.8633C128.29 68.4831 128.928 66.9531 129.488 65.2734L131.578 66.0742C130.966 67.8581 130.283 69.4922 129.527 70.9766C128.772 72.4479 127.945 73.75 127.047 74.8828C127.854 75.4948 128.688 76.1133 129.547 76.7383C130.406 77.3633 131.292 77.9818 132.203 78.5938ZM115.016 62.9688C116.018 62.4219 116.949 61.862 117.809 61.2891C118.668 60.7031 119.358 60.0391 119.879 59.2969C120.413 58.5417 120.68 57.6432 120.68 56.6016C120.68 55.3516 120.302 54.3294 119.547 53.5352C118.805 52.7409 117.841 52.3438 116.656 52.3438C115.471 52.3438 114.495 52.7474 113.727 53.5547C112.971 54.362 112.594 55.3971 112.594 56.6602C112.594 57.5586 112.802 58.5417 113.219 59.6094C113.635 60.6771 114.234 61.7969 115.016 62.9688ZM114.273 65.7617C113.414 66.2695 112.62 66.8229 111.891 67.4219C111.174 68.0208 110.595 68.6979 110.152 69.4531C109.723 70.2083 109.508 71.1003 109.508 72.1289C109.508 73.3268 109.814 74.401 110.426 75.3516C111.038 76.2891 111.871 77.0247 112.926 77.5586C113.993 78.0924 115.204 78.3594 116.559 78.3594C117.861 78.3594 119.111 78.099 120.309 77.5781C121.52 77.0443 122.652 76.263 123.707 75.2344C121.754 73.6068 119.983 71.9987 118.395 70.4102C116.806 68.8086 115.432 67.2591 114.273 65.7617ZM155.23 79.8633C153.382 79.8633 151.721 79.4336 150.25 78.5742C148.779 77.7018 147.613 76.5234 146.754 75.0391C145.908 73.5417 145.484 71.8555 145.484 69.9805C145.484 68.0924 145.908 66.4062 146.754 64.9219C147.613 63.4245 148.779 62.2461 150.25 61.3867C151.721 60.5143 153.388 60.0781 155.25 60.0781C156.943 60.0781 158.466 60.4492 159.82 61.1914C161.188 61.9336 162.281 62.9297 163.102 64.1797L163.219 60.4688H165.367V79.5117C165.367 81.7122 164.951 83.6068 164.117 85.1953C163.284 86.7839 162.092 88.0078 160.543 88.8672C158.993 89.7266 157.145 90.1562 154.996 90.1562C151.936 90.1562 149.312 89.1211 147.125 87.0508L148.258 85.1367C150.055 87.0378 152.288 87.9883 154.957 87.9883C156.611 87.9883 158.03 87.6367 159.215 86.9336C160.413 86.2435 161.337 85.2669 161.988 84.0039C162.639 82.7409 162.965 81.237 162.965 79.4922V75.918C162.132 77.1289 161.044 78.0924 159.703 78.8086C158.362 79.5117 156.871 79.8633 155.23 79.8633ZM155.426 77.7344C156.806 77.7344 158.056 77.4219 159.176 76.7969C160.296 76.1719 161.194 75.319 161.871 74.2383C162.561 73.1445 162.926 71.9076 162.965 70.5273V69.4336C162.926 68.0404 162.561 66.8034 161.871 65.7227C161.194 64.6289 160.296 63.7695 159.176 63.1445C158.069 62.5195 156.826 62.207 155.445 62.207C154.013 62.207 152.724 62.5521 151.578 63.2422C150.445 63.9193 149.547 64.8438 148.883 66.0156C148.232 67.1745 147.906 68.4961 147.906 69.9805C147.906 71.4518 148.232 72.7734 148.883 73.9453C149.547 75.1172 150.445 76.0417 151.578 76.7188C152.711 77.3958 153.993 77.7344 155.426 77.7344ZM188.902 80H186.773L186.695 76.3281C186.005 77.6432 185.055 78.6523 183.844 79.3555C182.646 80.0456 181.207 80.3906 179.527 80.3906C176.949 80.3906 174.918 79.6094 173.434 78.0469C171.962 76.4714 171.227 74.3099 171.227 71.5625V60.4688H173.629V71.4062C173.629 73.4896 174.195 75.1432 175.328 76.3672C176.461 77.5781 177.991 78.1836 179.918 78.1836C181.91 78.1836 183.505 77.5456 184.703 76.2695C185.901 74.9805 186.5 73.2682 186.5 71.1328V60.4688H188.902V80ZM196.734 53.6133C196.279 53.6133 195.895 53.457 195.582 53.1445C195.283 52.819 195.133 52.4284 195.133 51.9727C195.133 51.5299 195.283 51.1523 195.582 50.8398C195.895 50.5273 196.279 50.3711 196.734 50.3711C197.203 50.3711 197.594 50.5273 197.906 50.8398C198.232 51.1523 198.395 51.5299 198.395 51.9727C198.395 52.4284 198.232 52.819 197.906 53.1445C197.594 53.457 197.203 53.6133 196.734 53.6133ZM197.945 80H195.543V60.4688H197.945V80ZM223.395 80H221.227L221.109 76.25C220.276 77.5391 219.156 78.5547 217.75 79.2969C216.357 80.026 214.807 80.3906 213.102 80.3906C211.174 80.3906 209.449 79.9479 207.926 79.0625C206.415 78.1771 205.217 76.9661 204.332 75.4297C203.46 73.8932 203.023 72.1615 203.023 70.2344C203.023 68.2943 203.46 66.5625 204.332 65.0391C205.217 63.5026 206.415 62.2917 207.926 61.4062C209.449 60.5208 211.174 60.0781 213.102 60.0781C214.768 60.0781 216.292 60.4362 217.672 61.1523C219.052 61.8555 220.159 62.832 220.992 64.082V50.7031H223.395V80ZM213.258 78.2227C214.677 78.2227 215.973 77.8971 217.145 77.2461C218.316 76.582 219.247 75.6836 219.938 74.5508C220.641 73.4049 220.992 72.1094 220.992 70.6641V69.7852C220.992 68.3529 220.647 67.0703 219.957 65.9375C219.267 64.7917 218.336 63.8932 217.164 63.2422C216.005 62.5781 214.703 62.2461 213.258 62.2461C211.786 62.2461 210.458 62.5977 209.273 63.3008C208.102 63.9909 207.177 64.9414 206.5 66.1523C205.823 67.3503 205.484 68.7044 205.484 70.2148C205.484 71.7383 205.823 73.1055 206.5 74.3164C207.177 75.5143 208.102 76.4648 209.273 77.168C210.445 77.8711 211.773 78.2227 213.258 78.2227ZM246.812 77.5586C244.417 79.4466 241.76 80.3906 238.844 80.3906C236.826 80.3906 235.016 79.9414 233.414 79.043C231.826 78.1315 230.576 76.8945 229.664 75.332C228.753 73.7695 228.297 71.9987 228.297 70.0195C228.297 68.1055 228.72 66.3997 229.566 64.9023C230.426 63.4049 231.598 62.2266 233.082 61.3672C234.566 60.5078 236.253 60.0781 238.141 60.0781C240.055 60.0781 241.741 60.5339 243.199 61.4453C244.658 62.3438 245.797 63.5938 246.617 65.1953C247.438 66.7839 247.848 68.6263 247.848 70.7227V71.3281H230.895C231.051 72.6953 231.5 73.8932 232.242 74.9219C232.997 75.9505 233.961 76.7513 235.133 77.3242C236.305 77.8971 237.62 78.1836 239.078 78.1836C241.474 78.1836 243.674 77.3893 245.68 75.8008L246.812 77.5586ZM230.816 69.2578H245.602C245.484 67.8646 245.1 66.6471 244.449 65.6055C243.798 64.5638 242.939 63.75 241.871 63.1641C240.816 62.5781 239.612 62.2852 238.258 62.2852C236.891 62.2852 235.66 62.5781 234.566 63.1641C233.486 63.75 232.613 64.5703 231.949 65.625C231.298 66.6667 230.921 67.8776 230.816 69.2578ZM251.383 78.3008L252.086 76.0742C252.568 76.5169 253.102 76.8945 253.688 77.207C254.286 77.5195 254.905 77.7604 255.543 77.9297C256.194 78.099 256.852 78.1836 257.516 78.1836C258.844 78.1836 259.924 77.8581 260.758 77.207C261.591 76.556 262.008 75.7096 262.008 74.668C262.008 73.9258 261.799 73.3203 261.383 72.8516C260.966 72.3698 260.419 71.9596 259.742 71.6211C259.065 71.2826 258.349 70.9635 257.594 70.6641C256.721 70.3255 255.868 69.9479 255.035 69.5312C254.202 69.1016 253.512 68.5482 252.965 67.8711C252.431 67.194 252.164 66.3021 252.164 65.1953C252.164 64.1536 252.418 63.2552 252.926 62.5C253.447 61.7318 254.169 61.1393 255.094 60.7227C256.031 60.293 257.112 60.0781 258.336 60.0781C260.094 60.0781 261.826 60.5078 263.531 61.3672L262.789 63.5352C262.385 63.2878 261.93 63.0729 261.422 62.8906C260.914 62.6953 260.393 62.5456 259.859 62.4414C259.326 62.3372 258.818 62.2852 258.336 62.2852C257.229 62.2852 256.337 62.5521 255.66 63.0859C254.983 63.6068 254.645 64.2969 254.645 65.1562C254.645 65.7161 254.794 66.2044 255.094 66.6211C255.406 67.0247 255.875 67.4023 256.5 67.7539C257.125 68.1055 257.906 68.4766 258.844 68.8672C259.742 69.2318 260.621 69.6484 261.48 70.1172C262.34 70.5729 263.049 71.1589 263.609 71.875C264.182 72.5911 264.469 73.5221 264.469 74.668C264.469 75.7878 264.176 76.7839 263.59 77.6562C263.017 78.5156 262.216 79.1862 261.188 79.668C260.172 80.1497 258.987 80.3906 257.633 80.3906C255.38 80.3906 253.297 79.694 251.383 78.3008ZM288.102 80.3906C286.174 80.3906 284.443 79.9479 282.906 79.0625C281.37 78.1771 280.159 76.9727 279.273 75.4492C278.388 73.9128 277.945 72.1745 277.945 70.2344C277.945 68.3073 278.388 66.582 279.273 65.0586C280.159 63.5221 281.37 62.3112 282.906 61.4258C284.443 60.5273 286.174 60.0781 288.102 60.0781C290.016 60.0781 291.734 60.5273 293.258 61.4258C294.781 62.3112 295.986 63.5221 296.871 65.0586C297.757 66.582 298.199 68.3073 298.199 70.2344C298.199 72.1615 297.757 73.8932 296.871 75.4297C295.986 76.9661 294.781 78.1771 293.258 79.0625C291.734 79.9479 290.016 80.3906 288.102 80.3906ZM288.082 78.2227C289.54 78.2227 290.842 77.8711 291.988 77.168C293.147 76.4648 294.059 75.5143 294.723 74.3164C295.4 73.1055 295.738 71.7383 295.738 70.2148C295.738 68.7174 295.4 67.3698 294.723 66.1719C294.059 64.9609 293.147 64.0039 291.988 63.3008C290.842 62.5977 289.54 62.2461 288.082 62.2461C286.624 62.2461 285.315 62.5977 284.156 63.3008C282.997 64.0039 282.079 64.9609 281.402 66.1719C280.738 67.3698 280.406 68.7174 280.406 70.2148C280.406 71.7383 280.738 73.1055 281.402 74.3164C282.079 75.5143 282.997 76.4648 284.156 77.168C285.315 77.8711 286.624 78.2227 288.082 78.2227ZM320.387 80H318.258L318.18 76.3281C317.49 77.6432 316.539 78.6523 315.328 79.3555C314.13 80.0456 312.691 80.3906 311.012 80.3906C308.434 80.3906 306.402 79.6094 304.918 78.0469C303.447 76.4714 302.711 74.3099 302.711 71.5625V60.4688H305.113V71.4062C305.113 73.4896 305.68 75.1432 306.812 76.3672C307.945 77.5781 309.475 78.1836 311.402 78.1836C313.395 78.1836 314.99 77.5456 316.188 76.2695C317.385 74.9805 317.984 73.2682 317.984 71.1328V60.4688H320.387V80ZM329.254 80H326.852V60.4688H328.98L329.078 64.7852C329.729 63.2747 330.693 62.1159 331.969 61.3086C333.258 60.4883 334.762 60.0781 336.48 60.0781C336.793 60.0781 337.112 60.0977 337.438 60.1367C337.776 60.1628 338.108 60.2083 338.434 60.2734L338.141 62.4414C337.503 62.3112 336.865 62.2461 336.227 62.2461C334.872 62.2461 333.668 62.5781 332.613 63.2422C331.559 63.9062 330.732 64.8242 330.133 65.9961C329.547 67.1549 329.254 68.4961 329.254 70.0195V80ZM371.969 80H369.215L364.234 63.9844L359.254 80H356.52L350.172 60.4688H352.711L357.867 76.9531L363.102 60.4688H365.367L370.602 76.9531L375.777 60.4688H378.316L371.969 80ZM397.262 80H395.211L395.016 76.7383C394.365 77.8581 393.453 78.75 392.281 79.4141C391.109 80.0651 389.775 80.3906 388.277 80.3906C386.897 80.3906 385.66 80.1237 384.566 79.5898C383.486 79.043 382.633 78.3008 382.008 77.3633C381.383 76.4128 381.07 75.3385 381.07 74.1406C381.07 72.8906 381.409 71.7839 382.086 70.8203C382.763 69.8568 383.694 69.1016 384.879 68.5547C386.064 67.9948 387.411 67.7148 388.922 67.7148C389.977 67.7148 391.025 67.8516 392.066 68.125C393.108 68.3984 394.039 68.7826 394.859 69.2773V67.9492C394.859 66.7643 394.599 65.7487 394.078 64.9023C393.557 64.056 392.841 63.4115 391.93 62.9688C391.031 62.513 390.009 62.2852 388.863 62.2852C387.874 62.2852 386.884 62.4674 385.895 62.832C384.905 63.1836 383.98 63.7109 383.121 64.4141L382.262 62.3438C383.329 61.6016 384.469 61.0417 385.68 60.6641C386.904 60.2734 388.121 60.0781 389.332 60.0781C390.96 60.0781 392.359 60.4102 393.531 61.0742C394.716 61.7383 395.634 62.6823 396.285 63.9062C396.936 65.1172 397.262 66.5625 397.262 68.2422V80ZM388.668 78.1836C389.801 78.1836 390.823 77.9427 391.734 77.4609C392.659 76.9661 393.401 76.276 393.961 75.3906C394.521 74.4922 394.82 73.4635 394.859 72.3047V71.6406C394.052 71.0286 393.173 70.5664 392.223 70.2539C391.285 69.9284 390.309 69.7656 389.293 69.7656C387.639 69.7656 386.266 70.1628 385.172 70.957C384.091 71.7513 383.551 72.7734 383.551 74.0234C383.551 74.8047 383.772 75.5143 384.215 76.1523C384.671 76.7773 385.283 77.2721 386.051 77.6367C386.832 78.0013 387.704 78.1836 388.668 78.1836ZM408.746 89.7656H406.129L410.25 79.8047L401.031 60.4688H403.688L411.402 77.0117L418.258 60.4688H420.855L408.746 89.7656ZM443.922 80.3906C441.995 80.3906 440.263 79.9479 438.727 79.0625C437.19 78.1771 435.979 76.9727 435.094 75.4492C434.208 73.9128 433.766 72.1745 433.766 70.2344C433.766 68.3073 434.208 66.582 435.094 65.0586C435.979 63.5221 437.19 62.3112 438.727 61.4258C440.263 60.5273 441.995 60.0781 443.922 60.0781C445.836 60.0781 447.555 60.5273 449.078 61.4258C450.602 62.3112 451.806 63.5221 452.691 65.0586C453.577 66.582 454.02 68.3073 454.02 70.2344C454.02 72.1615 453.577 73.8932 452.691 75.4297C451.806 76.9661 450.602 78.1771 449.078 79.0625C447.555 79.9479 445.836 80.3906 443.922 80.3906ZM443.902 78.2227C445.361 78.2227 446.663 77.8711 447.809 77.168C448.967 76.4648 449.879 75.5143 450.543 74.3164C451.22 73.1055 451.559 71.7383 451.559 70.2148C451.559 68.7174 451.22 67.3698 450.543 66.1719C449.879 64.9609 448.967 64.0039 447.809 63.3008C446.663 62.5977 445.361 62.2461 443.902 62.2461C442.444 62.2461 441.135 62.5977 439.977 63.3008C438.818 64.0039 437.9 64.9609 437.223 66.1719C436.559 67.3698 436.227 68.7174 436.227 70.2148C436.227 71.7383 436.559 73.1055 437.223 74.3164C437.9 75.5143 438.818 76.4648 439.977 77.168C441.135 77.8711 442.444 78.2227 443.902 78.2227ZM462.789 80H460.387V62.6367H456.969V60.4688H460.387V55.8789C460.387 54.7331 460.621 53.7305 461.09 52.8711C461.559 51.9987 462.21 51.3216 463.043 50.8398C463.889 50.3581 464.859 50.1172 465.953 50.1172C466.617 50.1172 467.281 50.2083 467.945 50.3906C468.622 50.5729 469.286 50.8464 469.938 51.2109L469 53.1055C468.557 52.832 468.108 52.6302 467.652 52.5C467.197 52.3568 466.747 52.2852 466.305 52.2852C465.25 52.2852 464.397 52.6628 463.746 53.418C463.108 54.1602 462.789 55.1367 462.789 56.3477V60.4688H468.902V62.6367H462.789V80ZM504.234 80H501.48L496.5 63.9844L491.52 80H488.785L482.438 60.4688H484.977L490.133 76.9531L495.367 60.4688H497.633L502.867 76.9531L508.043 60.4688H510.582L504.234 80ZM523.102 80.3906C521.174 80.3906 519.443 79.9479 517.906 79.0625C516.37 78.1771 515.159 76.9727 514.273 75.4492C513.388 73.9128 512.945 72.1745 512.945 70.2344C512.945 68.3073 513.388 66.582 514.273 65.0586C515.159 63.5221 516.37 62.3112 517.906 61.4258C519.443 60.5273 521.174 60.0781 523.102 60.0781C525.016 60.0781 526.734 60.5273 528.258 61.4258C529.781 62.3112 530.986 63.5221 531.871 65.0586C532.757 66.582 533.199 68.3073 533.199 70.2344C533.199 72.1615 532.757 73.8932 531.871 75.4297C530.986 76.9661 529.781 78.1771 528.258 79.0625C526.734 79.9479 525.016 80.3906 523.102 80.3906ZM523.082 78.2227C524.54 78.2227 525.842 77.8711 526.988 77.168C528.147 76.4648 529.059 75.5143 529.723 74.3164C530.4 73.1055 530.738 71.7383 530.738 70.2148C530.738 68.7174 530.4 67.3698 529.723 66.1719C529.059 64.9609 528.147 64.0039 526.988 63.3008C525.842 62.5977 524.54 62.2461 523.082 62.2461C521.624 62.2461 520.315 62.5977 519.156 63.3008C517.997 64.0039 517.079 64.9609 516.402 66.1719C515.738 67.3698 515.406 68.7174 515.406 70.2148C515.406 71.7383 515.738 73.1055 516.402 74.3164C517.079 75.5143 517.997 76.4648 519.156 77.168C520.315 77.8711 521.624 78.2227 523.082 78.2227ZM540.504 80H538.102V60.4688H540.23L540.328 64.7852C540.979 63.2747 541.943 62.1159 543.219 61.3086C544.508 60.4883 546.012 60.0781 547.73 60.0781C548.043 60.0781 548.362 60.0977 548.688 60.1367C549.026 60.1628 549.358 60.2083 549.684 60.2734L549.391 62.4414C548.753 62.3112 548.115 62.2461 547.477 62.2461C546.122 62.2461 544.918 62.5781 543.863 63.2422C542.809 63.9062 541.982 64.8242 541.383 65.9961C540.797 67.1549 540.504 68.4961 540.504 70.0195V80ZM555.816 80H553.414V50.7031H555.816V72.168L557.203 70.4883L566.715 60.4688H569.723L561.793 68.8867L571.012 80H567.906L560.133 70.6445L555.816 75.2344V80ZM576.695 53.6133C576.24 53.6133 575.855 53.457 575.543 53.1445C575.243 52.819 575.094 52.4284 575.094 51.9727C575.094 51.5299 575.243 51.1523 575.543 50.8398C575.855 50.5273 576.24 50.3711 576.695 50.3711C577.164 50.3711 577.555 50.5273 577.867 50.8398C578.193 51.1523 578.355 51.5299 578.355 51.9727C578.355 52.4284 578.193 52.819 577.867 53.1445C577.555 53.457 577.164 53.6133 576.695 53.6133ZM577.906 80H575.504V60.4688H577.906V80ZM602.34 80H599.938V69.0625C599.938 66.9792 599.365 65.332 598.219 64.1211C597.073 62.8971 595.53 62.2852 593.59 62.2852C591.585 62.2852 589.977 62.9297 588.766 64.2188C587.555 65.4948 586.949 67.2005 586.949 69.3359V80H584.547V60.4688H586.676L586.754 64.1406C587.431 62.8255 588.382 61.8229 589.605 61.1328C590.829 60.4297 592.288 60.0781 593.98 60.0781C596.585 60.0781 598.629 60.8594 600.113 62.4219C601.598 63.9844 602.34 66.1458 602.34 68.9062V80ZM616.598 79.8633C614.749 79.8633 613.089 79.4336 611.617 78.5742C610.146 77.7018 608.98 76.5234 608.121 75.0391C607.275 73.5417 606.852 71.8555 606.852 69.9805C606.852 68.0924 607.275 66.4062 608.121 64.9219C608.98 63.4245 610.146 62.2461 611.617 61.3867C613.089 60.5143 614.755 60.0781 616.617 60.0781C618.31 60.0781 619.833 60.4492 621.188 61.1914C622.555 61.9336 623.648 62.9297 624.469 64.1797L624.586 60.4688H626.734V79.5117C626.734 81.7122 626.318 83.6068 625.484 85.1953C624.651 86.7839 623.46 88.0078 621.91 88.8672C620.361 89.7266 618.512 90.1562 616.363 90.1562C613.303 90.1562 610.68 89.1211 608.492 87.0508L609.625 85.1367C611.422 87.0378 613.655 87.9883 616.324 87.9883C617.978 87.9883 619.397 87.6367 620.582 86.9336C621.78 86.2435 622.704 85.2669 623.355 84.0039C624.007 82.7409 624.332 81.237 624.332 79.4922V75.918C623.499 77.1289 622.411 78.0924 621.07 78.8086C619.729 79.5117 618.238 79.8633 616.598 79.8633ZM616.793 77.7344C618.173 77.7344 619.423 77.4219 620.543 76.7969C621.663 76.1719 622.561 75.319 623.238 74.2383C623.928 73.1445 624.293 71.9076 624.332 70.5273V69.4336C624.293 68.0404 623.928 66.8034 623.238 65.7227C622.561 64.6289 621.663 63.7695 620.543 63.1445C619.436 62.5195 618.193 62.207 616.812 62.207C615.38 62.207 614.091 62.5521 612.945 63.2422C611.812 63.9193 610.914 64.8438 610.25 66.0156C609.599 67.1745 609.273 68.4961 609.273 69.9805C609.273 71.4518 609.599 72.7734 610.25 73.9453C610.914 75.1172 611.812 76.0417 612.945 76.7188C614.078 77.3958 615.361 77.7344 616.793 77.7344ZM634.176 80.3906C633.707 80.3906 633.323 80.2409 633.023 79.9414C632.724 79.6419 632.574 79.2513 632.574 78.7695C632.574 78.2878 632.724 77.8971 633.023 77.5977C633.323 77.2852 633.707 77.1289 634.176 77.1289C634.658 77.1289 635.048 77.2852 635.348 77.5977C635.66 77.8971 635.816 78.2878 635.816 78.7695C635.816 79.2513 635.66 79.6419 635.348 79.9414C635.048 80.2409 634.658 80.3906 634.176 80.3906Z" fill="black"/>
</svg>
