<svg width="917" height="246" viewBox="0 0 917 246" fill="none" xmlns="http://www.w3.org/2000/svg">
<g clip-path="url(#clip0_339_61)">
<path d="M350.349 189.806H336.269L310.556 145.99H285.129V189.806H272.487V82.0625H309.766C317.475 82.0625 324.107 83.3556 329.662 85.9414C335.217 88.5273 339.504 92.2143 342.518 97.0031C345.536 101.743 347.045 107.418 347.045 114.026C347.045 121.736 344.985 128.2 340.866 133.42C336.796 138.639 331.075 142.255 323.7 144.266L350.349 189.806ZM285.129 134.785H308.976C316.781 134.785 322.91 132.941 327.364 129.254C331.865 125.567 334.116 120.491 334.116 114.026C334.116 107.562 331.889 102.486 327.435 98.7985C322.982 95.1115 316.829 93.268 308.976 93.268H285.129V134.785Z" fill="white"/>
<path d="M368.502 136.848C368.502 135.223 369.818 133.906 371.443 133.906H389.042C390.668 133.906 391.987 135.223 391.987 136.848V154.5C391.987 156.125 390.668 157.442 389.042 157.442H371.443C369.818 157.442 368.502 156.125 368.502 154.5V136.848Z" fill="white"/>
<path d="M508.873 174.543C503.943 179.524 498.051 183.426 491.204 186.251C484.358 189.077 476.887 190.489 468.795 190.489C460.703 190.489 453.232 189.101 446.382 186.323C439.586 183.546 433.671 179.643 428.643 174.615C423.616 169.539 419.714 163.601 416.936 156.802C414.159 149.954 412.77 142.508 412.77 134.463C412.77 126.37 414.159 118.924 416.936 112.124C419.714 105.277 423.616 99.339 428.643 94.3108C433.671 89.283 439.586 85.3801 446.382 82.603C453.232 79.8255 460.703 78.4366 468.795 78.4366C476.84 78.4366 484.284 79.8496 491.134 82.6747C497.981 85.4522 503.869 89.3307 508.803 94.3108L499.967 103.289C496.138 99.0275 491.541 95.6997 486.177 93.3051C480.812 90.8632 474.947 89.6422 468.578 89.6422C462.402 89.6422 456.704 90.7674 451.483 93.0181C446.266 95.2207 441.716 98.3573 437.837 102.427C434.004 106.45 431.013 111.191 428.857 116.649C426.75 122.108 425.699 128.046 425.699 134.463C425.699 140.928 426.75 146.889 428.857 152.348C431.013 157.759 434.004 162.5 437.837 166.57C441.716 170.593 446.266 173.729 451.483 175.98C456.704 178.183 462.402 179.284 468.578 179.284C474.947 179.284 480.812 178.087 486.177 175.693C491.541 173.25 496.138 169.899 499.967 165.636L508.873 174.543Z" fill="white"/>
<path d="M617.982 80.5916V140.138C617.982 150.577 616.163 159.579 612.521 167.145C608.932 174.663 603.758 180.433 597.008 184.456C590.255 188.478 582.163 190.489 572.729 190.489C563.342 190.489 555.274 188.478 548.524 184.456C541.771 180.433 536.577 174.663 532.938 167.145C529.346 159.579 527.55 150.577 527.55 140.138V80.5916H540.192V139.132C540.192 147.608 541.484 154.838 544.071 160.824C546.655 166.81 550.367 171.383 555.204 174.543C560.088 177.704 565.93 179.284 572.729 179.284C579.576 179.284 585.418 177.704 590.255 174.543C595.139 171.383 598.874 166.81 601.461 160.824C604.045 154.838 605.34 147.608 605.34 139.132V80.5916H617.982Z" fill="white"/>
<path d="M640.318 188.335V80.5916H678.53C688.828 80.5916 696.92 82.9621 702.809 87.7025C708.7 92.4433 711.645 98.9558 711.645 107.24C711.645 113.13 710.183 118.278 707.262 122.683C704.341 127.041 700.438 130.201 695.555 132.164C702.114 133.793 707.262 136.929 710.997 141.574C714.779 146.171 716.672 151.822 716.672 158.525C716.672 164.464 715.187 169.683 712.219 174.184C709.298 178.637 705.202 182.109 699.938 184.599C694.67 187.09 688.514 188.335 681.478 188.335H640.318ZM652.959 128.142H678.243C684.565 128.142 689.616 126.466 693.402 123.114C697.23 119.762 699.147 115.333 699.147 109.826C699.147 104.271 697.207 99.8897 693.328 96.6814C689.449 93.4249 684.158 91.7967 677.455 91.7967H652.959V128.142ZM652.959 177.129H678.747C683.727 177.129 688.084 176.291 691.819 174.615C695.555 172.891 698.476 170.521 700.582 167.504C702.688 164.44 703.743 160.92 703.743 156.945C703.743 153.067 702.738 149.691 700.726 146.818C698.763 143.944 695.962 141.742 692.323 140.209C688.731 138.629 684.492 137.839 679.608 137.839H652.959V177.129Z" fill="white"/>
<path d="M733.984 188.335V80.5916H799.993V91.7967H746.626V127.998H797.049V139.204H746.626V177.129H800.711V188.335H733.984Z" fill="white"/>
<path d="M822.332 188.335V80.5916H853.361C866.577 80.5916 877.927 82.7465 887.407 87.0563C896.938 91.3658 904.238 97.5432 909.315 105.588C914.44 113.633 917 123.258 917 134.463C917 145.62 914.44 155.245 909.315 163.338C904.238 171.383 896.938 177.56 887.407 181.87C877.927 186.18 866.577 188.335 853.361 188.335H822.332ZM834.974 177.129H853.935C864.517 177.129 873.543 175.453 881.014 172.101C888.485 168.749 894.183 163.889 898.109 157.52C902.085 151.151 904.071 143.465 904.071 134.463C904.071 125.46 902.085 117.775 898.109 111.406C894.183 105.037 888.485 100.177 881.014 96.8249C873.543 93.473 864.517 91.7967 853.935 91.7967H834.974V177.129Z" fill="white"/>
<path fill-rule="evenodd" clip-rule="evenodd" d="M196.416 56L216.496 79.7014V221.179L196.416 244.88V56Z" fill="white"/>
<path fill-rule="evenodd" clip-rule="evenodd" d="M0.1875 82.5476V56H188.945V244.88H150.152L109.312 184.371C126.984 175.565 139.138 157.303 139.138 136.222C139.138 106.782 115.436 82.8389 86.1042 82.4679C86.0238 82.4674 22.2214 82.527 0.1875 82.5476ZM185.187 84.6794C185.187 83.227 184.007 82.0479 182.556 82.0479H168.634C167.18 82.0479 166.003 83.227 166.003 84.6794V98.6124C166.003 100.065 167.18 101.244 168.634 101.244H182.556C184.007 101.244 185.187 100.065 185.187 98.6124V84.6794ZM162.298 62.3378C162.298 60.8854 161.121 59.7062 159.669 59.7062H145.745C144.294 59.7062 143.116 60.8854 143.116 62.3378V76.2708C143.116 77.7232 144.294 78.9023 145.745 78.9023H159.669C161.121 78.9023 162.298 77.7232 162.298 76.2708V62.3378ZM185.187 62.3039C185.187 60.8516 184.007 59.6724 182.556 59.6724H168.634C167.18 59.6724 166.003 60.8516 166.003 62.3039V76.237C166.003 77.6894 167.18 78.8685 168.634 78.8685H182.556C184.007 78.8685 185.187 77.6894 185.187 76.237V62.3039Z" fill="white"/>
<path fill-rule="evenodd" clip-rule="evenodd" d="M72.1172 182.77H22.8295L22.7465 245.057H0V89.7544L86.0097 89.6713C111.41 89.9827 131.938 110.731 131.938 136.231C131.938 157.436 117.714 175.363 98.3056 180.965L141.559 244.912H114.044L99.1355 222.732L72.1172 182.77ZM22.7257 159.988V112.308L85.4706 112.246C98.4922 112.412 109.171 123.035 109.171 136.107C109.171 149.24 98.4094 159.905 85.3047 159.988H22.7257Z" fill="white"/>
<path d="M304.352 239.5C302.742 241.125 300.82 242.398 298.586 243.32C296.352 244.242 293.914 244.703 291.273 244.703C288.633 244.703 286.195 244.25 283.961 243.344C281.742 242.438 279.812 241.164 278.172 239.523C276.531 237.867 275.258 235.93 274.352 233.711C273.445 231.477 272.992 229.047 272.992 226.422C272.992 223.781 273.445 221.352 274.352 219.133C275.258 216.898 276.531 214.961 278.172 213.32C279.812 211.68 281.742 210.406 283.961 209.5C286.195 208.594 288.633 208.141 291.273 208.141C293.898 208.141 296.328 208.602 298.562 209.523C300.797 210.43 302.719 211.695 304.328 213.32L301.445 216.25C300.195 214.859 298.695 213.773 296.945 212.992C295.195 212.195 293.281 211.797 291.203 211.797C289.188 211.797 287.328 212.164 285.625 212.898C283.922 213.617 282.438 214.641 281.172 215.969C279.922 217.281 278.945 218.828 278.242 220.609C277.555 222.391 277.211 224.328 277.211 226.422C277.211 228.531 277.555 230.477 278.242 232.258C278.945 234.023 279.922 235.57 281.172 236.898C282.438 238.211 283.922 239.234 285.625 239.969C287.328 240.688 289.188 241.047 291.203 241.047C293.281 241.047 295.195 240.656 296.945 239.875C298.695 239.078 300.195 237.984 301.445 236.594L304.352 239.5ZM363.806 244.703C361.165 244.703 358.728 244.25 356.493 243.344C354.275 242.438 352.345 241.164 350.704 239.523C349.064 237.867 347.79 235.93 346.884 233.711C345.978 231.477 345.525 229.047 345.525 226.422C345.525 223.781 345.978 221.352 346.884 219.133C347.79 216.898 349.064 214.961 350.704 213.32C352.345 211.68 354.275 210.406 356.493 209.5C358.728 208.594 361.165 208.141 363.806 208.141C366.447 208.141 368.876 208.594 371.095 209.5C373.314 210.406 375.243 211.68 376.884 213.32C378.525 214.961 379.798 216.898 380.704 219.133C381.611 221.352 382.064 223.781 382.064 226.422C382.064 229.047 381.611 231.477 380.704 233.711C379.798 235.93 378.525 237.867 376.884 239.523C375.243 241.164 373.314 242.438 371.095 243.344C368.876 244.25 366.447 244.703 363.806 244.703ZM363.806 241.047C365.822 241.047 367.681 240.68 369.384 239.945C371.103 239.211 372.595 238.188 373.861 236.875C375.126 235.547 376.103 234 376.79 232.234C377.493 230.453 377.845 228.516 377.845 226.422C377.845 224.328 377.493 222.391 376.79 220.609C376.103 218.828 375.126 217.281 373.861 215.969C372.595 214.641 371.103 213.617 369.384 212.898C367.681 212.164 365.822 211.797 363.806 211.797C361.79 211.797 359.923 212.164 358.204 212.898C356.501 213.617 355.017 214.641 353.751 215.969C352.486 217.281 351.501 218.828 350.798 220.609C350.095 222.391 349.743 224.328 349.743 226.422C349.743 228.516 350.095 230.453 350.798 232.234C351.501 234.016 352.486 235.57 353.751 236.898C355.017 238.211 356.501 239.234 358.204 239.969C359.923 240.688 361.79 241.047 363.806 241.047ZM455.018 244H450.659L428.557 215.289V244H424.432V208.844H428.792L450.893 237.555V208.844H455.018V244ZM497.387 240.578L499.379 237.414C500.394 238.242 501.41 238.93 502.426 239.477C503.441 240.023 504.473 240.43 505.519 240.695C506.582 240.961 507.66 241.094 508.754 241.094C510.348 241.094 511.738 240.828 512.926 240.297C514.129 239.766 515.066 239.031 515.738 238.094C516.41 237.141 516.746 236.047 516.746 234.812C516.746 233.469 516.363 232.359 515.598 231.484C514.848 230.594 513.871 229.836 512.668 229.211C511.465 228.586 510.183 227.992 508.824 227.43C507.683 226.945 506.551 226.43 505.426 225.883C504.301 225.336 503.277 224.703 502.355 223.984C501.449 223.25 500.723 222.367 500.176 221.336C499.629 220.305 499.355 219.062 499.355 217.609C499.355 215.75 499.824 214.109 500.762 212.688C501.699 211.266 502.996 210.156 504.652 209.359C506.324 208.562 508.246 208.164 510.418 208.164C511.887 208.164 513.363 208.359 514.848 208.75C516.332 209.125 517.769 209.68 519.16 210.414L517.473 213.789C516.379 213.148 515.23 212.656 514.027 212.312C512.84 211.969 511.668 211.797 510.512 211.797C509.137 211.797 507.926 212.031 506.879 212.5C505.848 212.953 505.035 213.594 504.441 214.422C503.863 215.234 503.574 216.188 503.574 217.281C503.574 218.5 503.926 219.523 504.629 220.352C505.348 221.18 506.269 221.898 507.394 222.508C508.535 223.102 509.738 223.68 511.004 224.242C512.207 224.773 513.394 225.336 514.566 225.93C515.754 226.508 516.824 227.195 517.777 227.992C518.746 228.773 519.519 229.711 520.098 230.805C520.676 231.898 520.965 233.219 520.965 234.766C520.965 236.75 520.465 238.492 519.465 239.992C518.465 241.477 517.058 242.633 515.246 243.461C513.449 244.289 511.34 244.703 508.918 244.703C506.793 244.703 504.769 244.359 502.848 243.672C500.926 242.984 499.105 241.953 497.387 240.578ZM593.286 208.844V228.273C593.286 231.68 592.693 234.617 591.505 237.086C590.333 239.539 588.646 241.422 586.443 242.734C584.239 244.047 581.599 244.703 578.521 244.703C575.458 244.703 572.825 244.047 570.622 242.734C568.419 241.422 566.724 239.539 565.536 237.086C564.364 234.617 563.778 231.68 563.778 228.273V208.844H567.903V227.945C567.903 230.711 568.325 233.07 569.169 235.023C570.013 236.977 571.224 238.469 572.802 239.5C574.396 240.531 576.302 241.047 578.521 241.047C580.755 241.047 582.661 240.531 584.239 239.5C585.833 238.469 587.052 236.977 587.896 235.023C588.739 233.07 589.161 230.711 589.161 227.945V208.844H593.286ZM658.858 244H637.295V208.844H641.42V240.344H658.858V244ZM707.953 244H703.828V212.5H692.531V208.844H719.25V212.5H707.953V244ZM764.548 208.844H760.423V244H764.548V208.844ZM839.119 244H834.76L812.658 215.289V244H808.533V208.844H812.893L834.994 237.555V208.844H839.119V244ZM909.753 215.711C908.457 214.445 906.933 213.477 905.183 212.805C903.433 212.133 901.582 211.797 899.628 211.797C897.597 211.797 895.73 212.156 894.027 212.875C892.324 213.578 890.847 214.586 889.597 215.898C888.363 217.195 887.402 218.734 886.714 220.516C886.042 222.297 885.707 224.258 885.707 226.398C885.707 228.523 886.042 230.484 886.714 232.281C887.386 234.062 888.332 235.609 889.55 236.922C890.769 238.234 892.214 239.25 893.886 239.969C895.558 240.688 897.394 241.047 899.394 241.047C901.238 241.047 902.933 240.742 904.48 240.133C906.042 239.508 907.41 238.633 908.582 237.508C909.769 236.367 910.722 235.016 911.441 233.453C912.175 231.875 912.628 230.141 912.8 228.25H899.91V224.992H916.457L916.574 226.516C916.574 229.188 916.152 231.633 915.308 233.852C914.48 236.07 913.3 237.992 911.769 239.617C910.238 241.242 908.425 242.5 906.332 243.391C904.238 244.266 901.933 244.703 899.417 244.703C896.839 244.703 894.457 244.25 892.269 243.344C890.097 242.422 888.199 241.141 886.574 239.5C884.964 237.859 883.714 235.938 882.824 233.734C881.933 231.516 881.488 229.102 881.488 226.492C881.488 223.867 881.941 221.438 882.847 219.203C883.753 216.969 885.019 215.023 886.644 213.367C888.269 211.711 890.183 210.43 892.386 209.523C894.589 208.602 896.988 208.141 899.582 208.141C902.035 208.141 904.363 208.562 906.566 209.406C908.785 210.25 910.753 211.461 912.472 213.039L909.753 215.711Z" fill="white"/>
</g>
<defs>
<clipPath id="clip0_339_61">
<rect width="917" height="246" fill="white"/>
</clipPath>
</defs>
</svg>
