<svg width="182" height="158" viewBox="0 0 182 158" fill="none" xmlns="http://www.w3.org/2000/svg">
<path fill-rule="evenodd" clip-rule="evenodd" d="M164.549 0L181.341 19.8079V138.044L164.549 157.852V0Z" fill="#43729E"/>
<path fill-rule="evenodd" clip-rule="evenodd" d="M0.450378 22.1866V0H158.301V157.852H125.86L91.7073 107.283C106.485 99.9235 116.649 84.6614 116.649 67.0434C116.649 42.44 96.8285 22.43 72.2991 22.12C72.2318 22.1195 18.8765 22.1693 0.450378 22.1866ZM155.158 23.9681C155.158 22.7543 154.171 21.7689 152.958 21.7689H141.316C140.1 21.7689 139.115 22.7543 139.115 23.9681V35.6123C139.115 36.8261 140.1 37.8116 141.316 37.8116H152.958C154.171 37.8116 155.158 36.8261 155.158 35.6123V23.9681ZM136.017 5.29664C136.017 4.08285 135.032 3.0974 133.819 3.0974H122.174C120.961 3.0974 119.976 4.08285 119.976 5.29664V16.9409C119.976 18.1547 120.961 19.1401 122.174 19.1401H133.819C135.032 19.1401 136.017 18.1547 136.017 16.9409V5.29664ZM155.158 5.26838C155.158 4.05459 154.171 3.06915 152.958 3.06915H141.316C140.1 3.06915 139.115 4.05459 139.115 5.26838V16.9126C139.115 18.1264 140.1 19.1118 141.316 19.1118H152.958C154.171 19.1118 155.158 18.1264 155.158 16.9126V5.26838Z" fill="#43729E"/>
<path fill-rule="evenodd" clip-rule="evenodd" d="M60.6024 105.945H19.385L19.3156 158H0.293579V28.2096L72.2202 28.1401C93.4618 28.4002 110.628 45.7402 110.628 67.0512C110.628 84.7727 98.7331 99.7547 82.5027 104.436L118.674 157.879H95.664L83.1966 139.342L60.6024 105.945ZM19.2982 86.9057V47.0582L71.7693 47.0062C82.6589 47.1449 91.5889 56.023 91.5889 66.9472C91.5889 77.9235 82.5894 86.8363 71.6305 86.9057H19.2982Z" fill="#43729E"/>
</svg>
