<svg width="637" height="450" viewBox="0 0 637 450" fill="none" xmlns="http://www.w3.org/2000/svg">
<path fill-rule="evenodd" clip-rule="evenodd" d="M430.493 0L456 30.0869V209.681L430.493 239.767V0Z" fill="#43729E"/>
<path fill-rule="evenodd" clip-rule="evenodd" d="M181.238 33.7V0H421.003V239.767H371.727L319.852 162.957C342.299 151.778 357.737 128.595 357.737 101.835C357.737 64.4637 327.63 34.0697 290.372 33.5988C290.27 33.5981 209.226 33.6738 181.238 33.7ZM416.23 36.4061C416.23 34.5624 414.731 33.0656 412.887 33.0656H395.204C393.357 33.0656 391.861 34.5624 391.861 36.4061V54.0929C391.861 55.9366 393.357 57.4334 395.204 57.4334H412.887C414.731 57.4334 416.23 55.9366 416.23 54.0929V36.4061ZM387.156 8.04526C387.156 6.20159 385.66 4.70476 383.816 4.70476H366.129C364.286 4.70476 362.79 6.20159 362.79 8.04526V25.7321C362.79 27.5758 364.286 29.0726 366.129 29.0726H383.816C385.66 29.0726 387.156 27.5758 387.156 25.7321V8.04526ZM416.23 8.00234C416.23 6.15866 414.731 4.66184 412.887 4.66184H395.204C393.357 4.66184 391.861 6.15866 391.861 8.00234V25.6892C391.861 27.5329 393.357 29.0297 395.204 29.0297H412.887C414.731 29.0297 416.23 27.5329 416.23 25.6892V8.00234Z" fill="#43729E"/>
<path fill-rule="evenodd" clip-rule="evenodd" d="M272.605 160.924H209.999L209.893 239.992H181V42.8486L290.252 42.7431C322.517 43.1382 348.592 69.4765 348.592 101.847C348.592 128.764 330.523 151.521 305.871 158.632L360.813 239.808H325.862L306.924 211.652L272.605 160.924ZM209.867 132.004V71.4785L289.567 71.3994C306.108 71.6101 319.672 85.0954 319.672 101.689C319.672 118.361 306.002 131.899 289.356 132.004H209.867Z" fill="#43729E"/>
<path d="M153.498 339.638H143.928L126.447 309.853H109.162V339.638H100.568V266.396H125.91C131.151 266.396 135.66 267.275 139.436 269.033C143.212 270.79 146.125 273.297 148.176 276.552C150.227 279.775 151.252 283.632 151.252 288.124C151.252 293.365 149.852 297.76 147.053 301.308C144.286 304.856 140.396 307.314 135.383 308.681L153.498 339.638ZM109.162 302.236H125.373C130.679 302.236 134.846 300.982 137.873 298.476C140.933 295.969 142.463 292.519 142.463 288.124C142.463 283.73 140.949 280.279 137.922 277.773C134.895 275.266 130.712 274.013 125.373 274.013H109.162V302.236Z" fill="black"/>
<path d="M179.803 301.638H167.838C166.734 301.638 165.838 302.533 165.838 303.638V315.638C165.838 316.743 166.734 317.638 167.838 317.638H179.803C180.907 317.638 181.803 316.743 181.803 315.638V303.638C181.803 302.533 180.907 301.638 179.803 301.638Z" fill="#43729E"/>
<path d="M261.263 329.263C257.91 332.648 253.906 335.301 249.251 337.222C244.596 339.143 239.518 340.103 234.017 340.103C228.516 340.103 223.437 339.159 218.782 337.271C214.16 335.383 210.14 332.73 206.722 329.312C203.304 325.861 200.651 321.825 198.763 317.203C196.875 312.548 195.931 307.486 195.931 302.017C195.931 296.516 196.875 291.454 198.763 286.831C200.651 282.176 203.304 278.14 206.722 274.722C210.14 271.304 214.16 268.651 218.782 266.763C223.437 264.875 228.516 263.931 234.017 263.931C239.486 263.931 244.547 264.891 249.202 266.812C253.857 268.7 257.861 271.337 261.214 274.722L255.208 280.826C252.604 277.928 249.479 275.666 245.833 274.038C242.187 272.378 238.2 271.548 233.87 271.548C229.671 271.548 225.797 272.313 222.249 273.843C218.701 275.341 215.609 277.473 212.972 280.24C210.368 282.974 208.333 286.197 206.868 289.908C205.436 293.619 204.72 297.655 204.72 302.017C204.72 306.411 205.436 310.464 206.868 314.175C208.333 317.854 210.368 321.076 212.972 323.843C215.609 326.578 218.701 328.71 222.249 330.24C225.797 331.737 229.671 332.486 233.87 332.486C238.2 332.486 242.187 331.672 245.833 330.044C249.479 328.384 252.604 326.106 255.208 323.208L261.263 329.263ZM335.433 265.396V305.874C335.433 312.971 334.196 319.091 331.722 324.234C329.28 329.344 325.765 333.267 321.175 336.001C316.585 338.736 311.084 340.103 304.671 340.103C298.291 340.103 292.806 338.736 288.216 336.001C283.626 333.267 280.094 329.344 277.62 324.234C275.179 319.091 273.958 312.971 273.958 305.874V265.396H282.552V305.191C282.552 310.953 283.431 315.868 285.189 319.937C286.947 324.006 289.469 327.115 292.757 329.263C296.077 331.411 300.049 332.486 304.671 332.486C309.326 332.486 313.297 331.411 316.585 329.263C319.905 327.115 322.445 324.006 324.202 319.937C325.96 315.868 326.839 310.953 326.839 305.191V265.396H335.433ZM350.618 338.638V265.396H376.595C383.594 265.396 389.095 267.007 393.099 270.23C397.103 273.453 399.105 277.88 399.105 283.511C399.105 287.515 398.112 291.014 396.126 294.009C394.141 296.971 391.488 299.12 388.167 300.454C392.627 301.561 396.126 303.693 398.665 306.851C401.237 309.976 402.523 313.817 402.523 318.374C402.523 322.411 401.514 325.959 399.495 329.019C397.51 332.046 394.726 334.406 391.146 336.099C387.565 337.792 383.382 338.638 378.597 338.638H350.618ZM359.212 297.72H376.4C380.697 297.72 384.131 296.581 386.702 294.302C389.307 292.023 390.609 289.012 390.609 285.269C390.609 281.493 389.29 278.514 386.654 276.333C384.017 274.12 380.42 273.013 375.863 273.013H359.212V297.72ZM359.212 331.021H376.741C380.127 331.021 383.089 330.451 385.628 329.312C388.167 328.14 390.153 326.529 391.585 324.478C393.017 322.395 393.734 320.002 393.734 317.3C393.734 314.663 393.05 312.369 391.683 310.415C390.348 308.462 388.444 306.965 385.97 305.923C383.529 304.849 380.648 304.312 377.327 304.312H359.212V331.021ZM414.29 338.638V265.396H459.163V273.013H422.884V297.622H457.161V305.24H422.884V331.021H459.652V338.638H414.29ZM474.349 338.638V265.396H495.443C504.427 265.396 512.142 266.861 518.587 269.79C525.065 272.72 530.029 276.919 533.48 282.388C536.963 287.857 538.704 294.4 538.704 302.017C538.704 309.602 536.963 316.145 533.48 321.646C530.029 327.115 525.065 331.314 518.587 334.244C512.142 337.173 504.427 338.638 495.443 338.638H474.349ZM482.943 331.021H495.833C503.027 331.021 509.163 329.882 514.241 327.603C519.32 325.324 523.193 322.02 525.863 317.691C528.564 313.361 529.915 308.137 529.915 302.017C529.915 295.897 528.564 290.673 525.863 286.343C523.193 282.014 519.32 278.71 514.241 276.431C509.163 274.152 503.027 273.013 495.833 273.013H482.943V331.021Z" fill="black"/>
<path d="M125.793 375.25C124.452 376.604 122.85 377.665 120.988 378.434C119.126 379.202 117.095 379.586 114.894 379.586C112.694 379.586 110.663 379.208 108.801 378.453C106.952 377.698 105.344 376.637 103.977 375.27C102.609 373.889 101.548 372.275 100.793 370.426C100.038 368.564 99.6602 366.539 99.6602 364.352C99.6602 362.151 100.038 360.126 100.793 358.277C101.548 356.415 102.609 354.801 103.977 353.434C105.344 352.066 106.952 351.005 108.801 350.25C110.663 349.495 112.694 349.117 114.894 349.117C117.082 349.117 119.107 349.501 120.969 350.27C122.831 351.025 124.432 352.079 125.773 353.434L123.371 355.875C122.329 354.716 121.079 353.811 119.621 353.16C118.163 352.496 116.568 352.164 114.836 352.164C113.156 352.164 111.607 352.47 110.187 353.082C108.768 353.681 107.531 354.534 106.477 355.641C105.435 356.734 104.621 358.023 104.035 359.508C103.462 360.992 103.176 362.607 103.176 364.352C103.176 366.109 103.462 367.73 104.035 369.215C104.621 370.686 105.435 371.975 106.477 373.082C107.531 374.176 108.768 375.029 110.187 375.641C111.607 376.24 113.156 376.539 114.836 376.539C116.568 376.539 118.163 376.214 119.621 375.562C121.079 374.898 122.329 373.987 123.371 372.828L125.793 375.25ZM164.338 379.586C162.138 379.586 160.106 379.208 158.244 378.453C156.396 377.698 154.787 376.637 153.42 375.27C152.053 373.889 150.992 372.275 150.237 370.426C149.481 368.564 149.104 366.539 149.104 364.352C149.104 362.151 149.481 360.126 150.237 358.277C150.992 356.415 152.053 354.801 153.42 353.434C154.787 352.066 156.396 351.005 158.244 350.25C160.106 349.495 162.138 349.117 164.338 349.117C166.539 349.117 168.563 349.495 170.412 350.25C172.261 351.005 173.869 352.066 175.237 353.434C176.604 354.801 177.665 356.415 178.42 358.277C179.176 360.126 179.553 362.151 179.553 364.352C179.553 366.539 179.176 368.564 178.42 370.426C177.665 372.275 176.604 373.889 175.237 375.27C173.869 376.637 172.261 377.698 170.412 378.453C168.563 379.208 166.539 379.586 164.338 379.586ZM164.338 376.539C166.018 376.539 167.567 376.233 168.987 375.621C170.419 375.009 171.662 374.156 172.717 373.062C173.772 371.956 174.586 370.667 175.159 369.195C175.744 367.711 176.037 366.096 176.037 364.352C176.037 362.607 175.744 360.992 175.159 359.508C174.586 358.023 173.772 356.734 172.717 355.641C171.662 354.534 170.419 353.681 168.987 353.082C167.567 352.47 166.018 352.164 164.338 352.164C162.659 352.164 161.103 352.47 159.67 353.082C158.251 353.681 157.014 354.534 155.959 355.641C154.905 356.734 154.084 358.023 153.498 359.508C152.912 360.992 152.619 362.607 152.619 364.352C152.619 366.096 152.912 367.711 153.498 369.195C154.084 370.68 154.905 371.975 155.959 373.082C157.014 374.176 158.251 375.029 159.67 375.641C161.103 376.24 162.659 376.539 164.338 376.539ZM229.348 379H225.716L207.298 355.074V379H203.86V349.703H207.493L225.911 373.629V349.703H229.348V379ZM253.655 376.148L255.316 373.512C256.162 374.202 257.008 374.775 257.855 375.23C258.701 375.686 259.56 376.025 260.433 376.246C261.318 376.467 262.217 376.578 263.128 376.578C264.456 376.578 265.615 376.357 266.605 375.914C267.607 375.471 268.389 374.859 268.948 374.078C269.508 373.284 269.788 372.372 269.788 371.344C269.788 370.224 269.469 369.299 268.831 368.57C268.206 367.828 267.392 367.197 266.39 366.676C265.387 366.155 264.32 365.66 263.187 365.191C262.236 364.788 261.292 364.358 260.355 363.902C259.417 363.447 258.564 362.919 257.796 362.32C257.041 361.708 256.435 360.973 255.98 360.113C255.524 359.254 255.296 358.219 255.296 357.008C255.296 355.458 255.687 354.091 256.468 352.906C257.249 351.721 258.33 350.797 259.71 350.133C261.103 349.469 262.705 349.137 264.515 349.137C265.739 349.137 266.969 349.299 268.206 349.625C269.443 349.938 270.641 350.4 271.8 351.012L270.394 353.824C269.482 353.29 268.525 352.88 267.523 352.594C266.533 352.307 265.557 352.164 264.593 352.164C263.447 352.164 262.438 352.359 261.566 352.75C260.706 353.128 260.029 353.661 259.534 354.352C259.053 355.029 258.812 355.823 258.812 356.734C258.812 357.75 259.105 358.603 259.691 359.293C260.29 359.983 261.058 360.582 261.995 361.09C262.946 361.585 263.948 362.066 265.003 362.535C266.006 362.978 266.995 363.447 267.972 363.941C268.961 364.423 269.853 364.996 270.648 365.66C271.455 366.311 272.099 367.092 272.581 368.004C273.063 368.915 273.304 370.016 273.304 371.305C273.304 372.958 272.887 374.41 272.054 375.66C271.221 376.897 270.049 377.861 268.538 378.551C267.041 379.241 265.283 379.586 263.265 379.586C261.494 379.586 259.808 379.299 258.206 378.727C256.605 378.154 255.088 377.294 253.655 376.148ZM322.572 349.703V365.895C322.572 368.733 322.077 371.181 321.087 373.238C320.111 375.283 318.705 376.852 316.869 377.945C315.033 379.039 312.832 379.586 310.267 379.586C307.715 379.586 305.521 379.039 303.685 377.945C301.849 376.852 300.436 375.283 299.447 373.238C298.47 371.181 297.982 368.733 297.982 365.895V349.703H301.42V365.621C301.42 367.926 301.771 369.892 302.474 371.52C303.177 373.147 304.186 374.391 305.502 375.25C306.83 376.109 308.418 376.539 310.267 376.539C312.129 376.539 313.718 376.109 315.033 375.25C316.361 374.391 317.377 373.147 318.08 371.52C318.783 369.892 319.134 367.926 319.134 365.621V349.703H322.572ZM366.215 379H348.246V349.703H351.684V375.953H366.215V379ZM396.127 379H392.69V352.75H383.276V349.703H405.541V352.75H396.127V379ZM432.29 349.703H428.852V379H432.29V349.703ZM483.433 379H479.8L461.382 355.074V379H457.945V349.703H461.577L479.995 373.629V349.703H483.433V379ZM531.295 355.426C530.214 354.371 528.944 353.564 527.486 353.004C526.028 352.444 524.485 352.164 522.857 352.164C521.164 352.164 519.608 352.464 518.189 353.062C516.77 353.648 515.539 354.488 514.498 355.582C513.469 356.663 512.668 357.945 512.095 359.43C511.535 360.914 511.255 362.548 511.255 364.332C511.255 366.103 511.535 367.737 512.095 369.234C512.655 370.719 513.443 372.008 514.459 373.102C515.474 374.195 516.679 375.042 518.072 375.641C519.465 376.24 520.995 376.539 522.662 376.539C524.198 376.539 525.611 376.285 526.9 375.777C528.202 375.257 529.341 374.527 530.318 373.59C531.308 372.639 532.102 371.513 532.701 370.211C533.313 368.896 533.69 367.451 533.834 365.875H523.091V363.16H536.88L536.978 364.43C536.978 366.656 536.627 368.694 535.923 370.543C535.233 372.392 534.25 373.993 532.974 375.348C531.698 376.702 530.188 377.75 528.443 378.492C526.698 379.221 524.778 379.586 522.681 379.586C520.533 379.586 518.547 379.208 516.724 378.453C514.914 377.685 513.332 376.617 511.978 375.25C510.637 373.883 509.595 372.281 508.853 370.445C508.111 368.596 507.74 366.585 507.74 364.41C507.74 362.223 508.117 360.198 508.873 358.336C509.628 356.474 510.683 354.853 512.037 353.473C513.391 352.092 514.986 351.025 516.822 350.27C518.658 349.501 520.657 349.117 522.818 349.117C524.862 349.117 526.802 349.469 528.638 350.172C530.487 350.875 532.128 351.884 533.56 353.199L531.295 355.426Z" fill="black"/>
<path d="M475.939 442H473.26L468.365 433.66H463.525V442H461.119V421.492H468.215C469.682 421.492 470.945 421.738 472.002 422.23C473.059 422.723 473.875 423.424 474.449 424.336C475.023 425.238 475.311 426.318 475.311 427.576C475.311 429.044 474.919 430.274 474.135 431.268C473.36 432.261 472.271 432.949 470.867 433.332L475.939 442ZM463.525 431.527H468.064C469.55 431.527 470.717 431.176 471.564 430.475C472.421 429.773 472.85 428.807 472.85 427.576C472.85 426.346 472.426 425.38 471.578 424.678C470.73 423.976 469.559 423.625 468.064 423.625H463.525V431.527ZM479.084 442V421.492H491.648V423.625H481.49V430.516H491.088V432.648H481.49V439.867H491.785V442H479.084ZM495.9 442V421.492H502.217C503.894 421.492 505.329 421.752 506.523 422.271C507.727 422.791 508.647 423.534 509.285 424.5C509.923 425.466 510.242 426.624 510.242 427.973C510.242 429.312 509.923 430.47 509.285 431.445C508.647 432.421 507.727 433.173 506.523 433.701C505.329 434.221 503.894 434.48 502.217 434.48H498.307V442H495.9ZM498.307 432.348H502.012C503.853 432.348 505.275 431.96 506.277 431.186C507.28 430.411 507.781 429.34 507.781 427.973C507.781 426.605 507.28 425.539 506.277 424.773C505.275 424.008 503.853 423.625 502.012 423.625H498.307V432.348ZM530.75 421.492V432.826C530.75 434.813 530.404 436.527 529.711 437.967C529.027 439.398 528.043 440.496 526.758 441.262C525.473 442.027 523.932 442.41 522.137 442.41C520.35 442.41 518.814 442.027 517.529 441.262C516.244 440.496 515.255 439.398 514.562 437.967C513.879 436.527 513.537 434.813 513.537 432.826V421.492H515.943V432.635C515.943 434.248 516.189 435.624 516.682 436.764C517.174 437.903 517.88 438.773 518.801 439.375C519.73 439.977 520.842 440.277 522.137 440.277C523.44 440.277 524.552 439.977 525.473 439.375C526.402 438.773 527.113 437.903 527.605 436.764C528.098 435.624 528.344 434.248 528.344 432.635V421.492H530.75ZM542.357 442H539.951V423.625H533.361V421.492H548.947V423.625H542.357V442ZM550.93 442H548.4L556.822 421.492H559.434L567.842 442H565.312L563.084 436.463H553.158L550.93 442ZM554.006 434.33H562.236L558.121 424.09L554.006 434.33ZM576.564 442H574.158V423.625H567.568V421.492H583.154V423.625H576.564V442ZM588.158 421.492H585.752V442H588.158V421.492ZM602.104 442.41C600.563 442.41 599.141 442.146 597.838 441.617C596.544 441.089 595.418 440.346 594.461 439.389C593.504 438.423 592.761 437.292 592.232 435.998C591.704 434.695 591.439 433.277 591.439 431.746C591.439 430.206 591.704 428.788 592.232 427.494C592.761 426.191 593.504 425.061 594.461 424.104C595.418 423.146 596.544 422.404 597.838 421.875C599.141 421.346 600.563 421.082 602.104 421.082C603.644 421.082 605.061 421.346 606.355 421.875C607.65 422.404 608.775 423.146 609.732 424.104C610.689 425.061 611.432 426.191 611.961 427.494C612.49 428.788 612.754 430.206 612.754 431.746C612.754 433.277 612.49 434.695 611.961 435.998C611.432 437.292 610.689 438.423 609.732 439.389C608.775 440.346 607.65 441.089 606.355 441.617C605.061 442.146 603.644 442.41 602.104 442.41ZM602.104 440.277C603.279 440.277 604.364 440.063 605.357 439.635C606.36 439.206 607.23 438.609 607.969 437.844C608.707 437.069 609.277 436.167 609.678 435.137C610.088 434.098 610.293 432.967 610.293 431.746C610.293 430.525 610.088 429.395 609.678 428.355C609.277 427.316 608.707 426.414 607.969 425.648C607.23 424.874 606.36 424.277 605.357 423.857C604.364 423.429 603.279 423.215 602.104 423.215C600.928 423.215 599.839 423.429 598.836 423.857C597.842 424.277 596.977 424.874 596.238 425.648C595.5 426.414 594.926 427.316 594.516 428.355C594.105 429.395 593.9 430.525 593.9 431.746C593.9 432.967 594.105 434.098 594.516 435.137C594.926 436.176 595.5 437.083 596.238 437.857C596.977 438.623 597.842 439.22 598.836 439.648C599.839 440.068 600.928 440.277 602.104 440.277ZM633.891 442H631.348L618.455 425.252V442H616.049V421.492H618.592L631.484 438.24V421.492H633.891V442Z" fill="black"/>
<circle cx="428.5" cy="431.5" r="3" fill="black" stroke="black"/>
<path d="M295.939 442H293.26L288.365 433.66H283.525V442H281.119V421.492H288.215C289.682 421.492 290.945 421.738 292.002 422.23C293.059 422.723 293.875 423.424 294.449 424.336C295.023 425.238 295.311 426.318 295.311 427.576C295.311 429.044 294.919 430.274 294.135 431.268C293.36 432.261 292.271 432.949 290.867 433.332L295.939 442ZM283.525 431.527H288.064C289.55 431.527 290.717 431.176 291.564 430.475C292.421 429.773 292.85 428.807 292.85 427.576C292.85 426.346 292.426 425.38 291.578 424.678C290.73 423.976 289.559 423.625 288.064 423.625H283.525V431.527ZM299.084 442V421.492H311.648V423.625H301.49V430.516H311.088V432.648H301.49V439.867H311.785V442H299.084ZM314.807 440.004L315.969 438.158C316.561 438.641 317.154 439.042 317.746 439.361C318.339 439.68 318.94 439.917 319.551 440.072C320.171 440.227 320.799 440.305 321.438 440.305C322.367 440.305 323.178 440.15 323.871 439.84C324.573 439.53 325.12 439.102 325.512 438.555C325.904 437.999 326.1 437.361 326.1 436.641C326.1 435.857 325.876 435.21 325.43 434.699C324.992 434.18 324.423 433.738 323.721 433.373C323.019 433.008 322.271 432.662 321.479 432.334C320.813 432.051 320.152 431.751 319.496 431.432C318.84 431.113 318.243 430.743 317.705 430.324C317.176 429.896 316.753 429.381 316.434 428.779C316.115 428.178 315.955 427.453 315.955 426.605C315.955 425.521 316.229 424.564 316.775 423.734C317.322 422.905 318.079 422.258 319.045 421.793C320.02 421.328 321.141 421.096 322.408 421.096C323.265 421.096 324.126 421.21 324.992 421.438C325.858 421.656 326.697 421.98 327.508 422.408L326.523 424.377C325.885 424.003 325.215 423.716 324.514 423.516C323.821 423.315 323.137 423.215 322.463 423.215C321.661 423.215 320.954 423.352 320.344 423.625C319.742 423.889 319.268 424.263 318.922 424.746C318.585 425.22 318.416 425.776 318.416 426.414C318.416 427.125 318.621 427.722 319.031 428.205C319.451 428.688 319.988 429.107 320.645 429.463C321.31 429.809 322.012 430.146 322.75 430.475C323.452 430.785 324.145 431.113 324.828 431.459C325.521 431.796 326.145 432.197 326.701 432.662C327.266 433.118 327.717 433.665 328.055 434.303C328.392 434.941 328.561 435.711 328.561 436.613C328.561 437.771 328.269 438.787 327.686 439.662C327.102 440.528 326.282 441.202 325.225 441.686C324.176 442.169 322.946 442.41 321.533 442.41C320.294 442.41 319.113 442.21 317.992 441.809C316.871 441.408 315.809 440.806 314.807 440.004ZM349.328 421.492V432.826C349.328 434.813 348.982 436.527 348.289 437.967C347.605 439.398 346.621 440.496 345.336 441.262C344.051 442.027 342.51 442.41 340.715 442.41C338.928 442.41 337.393 442.027 336.107 441.262C334.822 440.496 333.833 439.398 333.141 437.967C332.457 436.527 332.115 434.813 332.115 432.826V421.492H334.521V432.635C334.521 434.248 334.768 435.624 335.26 436.764C335.752 437.903 336.458 438.773 337.379 439.375C338.309 439.977 339.421 440.277 340.715 440.277C342.018 440.277 343.13 439.977 344.051 439.375C344.98 438.773 345.691 437.903 346.184 436.764C346.676 435.624 346.922 434.248 346.922 432.635V421.492H349.328ZM366.158 442H353.58V421.492H355.986V439.867H366.158V442ZM373.377 442H370.971V423.625H364.381V421.492H379.967V423.625H373.377V442ZM381.607 440.004L382.77 438.158C383.362 438.641 383.954 439.042 384.547 439.361C385.139 439.68 385.741 439.917 386.352 440.072C386.971 440.227 387.6 440.305 388.238 440.305C389.168 440.305 389.979 440.15 390.672 439.84C391.374 439.53 391.921 439.102 392.312 438.555C392.704 437.999 392.9 437.361 392.9 436.641C392.9 435.857 392.677 435.21 392.23 434.699C391.793 434.18 391.223 433.738 390.521 433.373C389.82 433.008 389.072 432.662 388.279 432.334C387.614 432.051 386.953 431.751 386.297 431.432C385.641 431.113 385.044 430.743 384.506 430.324C383.977 429.896 383.553 429.381 383.234 428.779C382.915 428.178 382.756 427.453 382.756 426.605C382.756 425.521 383.029 424.564 383.576 423.734C384.123 422.905 384.88 422.258 385.846 421.793C386.821 421.328 387.942 421.096 389.209 421.096C390.066 421.096 390.927 421.21 391.793 421.438C392.659 421.656 393.497 421.98 394.309 422.408L393.324 424.377C392.686 424.003 392.016 423.716 391.314 423.516C390.622 423.315 389.938 423.215 389.264 423.215C388.462 423.215 387.755 423.352 387.145 423.625C386.543 423.889 386.069 424.263 385.723 424.746C385.385 425.22 385.217 425.776 385.217 426.414C385.217 427.125 385.422 427.722 385.832 428.205C386.251 428.688 386.789 429.107 387.445 429.463C388.111 429.809 388.812 430.146 389.551 430.475C390.253 430.785 390.945 431.113 391.629 431.459C392.322 431.796 392.946 432.197 393.502 432.662C394.067 433.118 394.518 433.665 394.855 434.303C395.193 434.941 395.361 435.711 395.361 436.613C395.361 437.771 395.07 438.787 394.486 439.662C393.903 440.528 393.083 441.202 392.025 441.686C390.977 442.169 389.747 442.41 388.334 442.41C387.094 442.41 385.914 442.21 384.793 441.809C383.672 441.408 382.61 440.806 381.607 440.004Z" fill="black"/>
<circle cx="247.5" cy="431.5" r="3" fill="black" stroke="black"/>
<path d="M16.9395 442H14.2598L9.36523 433.66H4.52539V442H2.11914V421.492H9.21484C10.6823 421.492 11.9447 421.738 13.002 422.23C14.0592 422.723 14.875 423.424 15.4492 424.336C16.0234 425.238 16.3105 426.318 16.3105 427.576C16.3105 429.044 15.9186 430.274 15.1348 431.268C14.36 432.261 13.2708 432.949 11.8672 433.332L16.9395 442ZM4.52539 431.527H9.06445C10.5501 431.527 11.7168 431.176 12.5645 430.475C13.4212 429.773 13.8496 428.807 13.8496 427.576C13.8496 426.346 13.4258 425.38 12.5781 424.678C11.7305 423.976 10.5592 423.625 9.06445 423.625H4.52539V431.527ZM20.084 442V421.492H32.6484V423.625H22.4902V430.516H32.0879V432.648H22.4902V439.867H32.7852V442H20.084ZM49.4785 442H36.9004V421.492H39.3066V439.867H49.4785V442ZM53.6484 442H51.1191L59.541 421.492H62.1523L70.5605 442H68.0312L65.8027 436.463H55.877L53.6484 442ZM56.7246 434.33H64.9551L60.8398 424.09L56.7246 434.33ZM79.2832 442H76.877V423.625H70.2871V421.492H85.873V423.625H79.2832V442ZM90.877 421.492H88.4707V442H90.877V421.492ZM104.822 442.41C103.282 442.41 101.86 442.146 100.557 441.617C99.2624 441.089 98.1367 440.346 97.1797 439.389C96.2227 438.423 95.4798 437.292 94.9512 435.998C94.4225 434.695 94.1582 433.277 94.1582 431.746C94.1582 430.206 94.4225 428.788 94.9512 427.494C95.4798 426.191 96.2227 425.061 97.1797 424.104C98.1367 423.146 99.2624 422.404 100.557 421.875C101.86 421.346 103.282 421.082 104.822 421.082C106.363 421.082 107.78 421.346 109.074 421.875C110.368 422.404 111.494 423.146 112.451 424.104C113.408 425.061 114.151 426.191 114.68 427.494C115.208 428.788 115.473 430.206 115.473 431.746C115.473 433.277 115.208 434.695 114.68 435.998C114.151 437.292 113.408 438.423 112.451 439.389C111.494 440.346 110.368 441.089 109.074 441.617C107.78 442.146 106.363 442.41 104.822 442.41ZM104.822 440.277C105.998 440.277 107.083 440.063 108.076 439.635C109.079 439.206 109.949 438.609 110.688 437.844C111.426 437.069 111.995 436.167 112.396 435.137C112.807 434.098 113.012 432.967 113.012 431.746C113.012 430.525 112.807 429.395 112.396 428.355C111.995 427.316 111.426 426.414 110.688 425.648C109.949 424.874 109.079 424.277 108.076 423.857C107.083 423.429 105.998 423.215 104.822 423.215C103.646 423.215 102.557 423.429 101.555 423.857C100.561 424.277 99.6953 424.874 98.957 425.648C98.2188 426.414 97.6445 427.316 97.2344 428.355C96.8242 429.395 96.6191 430.525 96.6191 431.746C96.6191 432.967 96.8242 434.098 97.2344 435.137C97.6445 436.176 98.2188 437.083 98.957 437.857C99.6953 438.623 100.561 439.22 101.555 439.648C102.557 440.068 103.646 440.277 104.822 440.277ZM136.609 442H134.066L121.174 425.252V442H118.768V421.492H121.311L134.203 438.24V421.492H136.609V442ZM139.904 440.004L141.066 438.158C141.659 438.641 142.251 439.042 142.844 439.361C143.436 439.68 144.038 439.917 144.648 440.072C145.268 440.227 145.897 440.305 146.535 440.305C147.465 440.305 148.276 440.15 148.969 439.84C149.671 439.53 150.217 439.102 150.609 438.555C151.001 437.999 151.197 437.361 151.197 436.641C151.197 435.857 150.974 435.21 150.527 434.699C150.09 434.18 149.52 433.738 148.818 433.373C148.117 433.008 147.369 432.662 146.576 432.334C145.911 432.051 145.25 431.751 144.594 431.432C143.938 431.113 143.34 430.743 142.803 430.324C142.274 429.896 141.85 429.381 141.531 428.779C141.212 428.178 141.053 427.453 141.053 426.605C141.053 425.521 141.326 424.564 141.873 423.734C142.42 422.905 143.176 422.258 144.143 421.793C145.118 421.328 146.239 421.096 147.506 421.096C148.363 421.096 149.224 421.21 150.09 421.438C150.956 421.656 151.794 421.98 152.605 422.408L151.621 424.377C150.983 424.003 150.313 423.716 149.611 423.516C148.919 423.315 148.235 423.215 147.561 423.215C146.758 423.215 146.052 423.352 145.441 423.625C144.84 423.889 144.366 424.263 144.02 424.746C143.682 425.22 143.514 425.776 143.514 426.414C143.514 427.125 143.719 427.722 144.129 428.205C144.548 428.688 145.086 429.107 145.742 429.463C146.408 429.809 147.109 430.146 147.848 430.475C148.549 430.785 149.242 431.113 149.926 431.459C150.618 431.796 151.243 432.197 151.799 432.662C152.364 433.118 152.815 433.665 153.152 434.303C153.49 434.941 153.658 435.711 153.658 436.613C153.658 437.771 153.367 438.787 152.783 439.662C152.2 440.528 151.38 441.202 150.322 441.686C149.274 442.169 148.044 442.41 146.631 442.41C145.391 442.41 144.211 442.21 143.09 441.809C141.969 441.408 140.907 440.806 139.904 440.004ZM159.619 442H157.213V421.492H159.619V430.816H171.062V421.492H173.469V442H171.062V432.949H159.619V442ZM180.127 421.492H177.721V442H180.127V421.492ZM184.365 442V421.492H190.682C192.359 421.492 193.794 421.752 194.988 422.271C196.191 422.791 197.112 423.534 197.75 424.5C198.388 425.466 198.707 426.624 198.707 427.973C198.707 429.312 198.388 430.47 197.75 431.445C197.112 432.421 196.191 433.173 194.988 433.701C193.794 434.221 192.359 434.48 190.682 434.48H186.771V442H184.365ZM186.771 432.348H190.477C192.318 432.348 193.74 431.96 194.742 431.186C195.745 430.411 196.246 429.34 196.246 427.973C196.246 426.605 195.745 425.539 194.742 424.773C193.74 424.008 192.318 423.625 190.477 423.625H186.771V432.348ZM200.225 440.004L201.387 438.158C201.979 438.641 202.572 439.042 203.164 439.361C203.757 439.68 204.358 439.917 204.969 440.072C205.589 440.227 206.217 440.305 206.855 440.305C207.785 440.305 208.596 440.15 209.289 439.84C209.991 439.53 210.538 439.102 210.93 438.555C211.322 437.999 211.518 437.361 211.518 436.641C211.518 435.857 211.294 435.21 210.848 434.699C210.41 434.18 209.84 433.738 209.139 433.373C208.437 433.008 207.689 432.662 206.896 432.334C206.231 432.051 205.57 431.751 204.914 431.432C204.258 431.113 203.661 430.743 203.123 430.324C202.594 429.896 202.171 429.381 201.852 428.779C201.533 428.178 201.373 427.453 201.373 426.605C201.373 425.521 201.646 424.564 202.193 423.734C202.74 422.905 203.497 422.258 204.463 421.793C205.438 421.328 206.559 421.096 207.826 421.096C208.683 421.096 209.544 421.21 210.41 421.438C211.276 421.656 212.115 421.98 212.926 422.408L211.941 424.377C211.303 424.003 210.633 423.716 209.932 423.516C209.239 423.315 208.555 423.215 207.881 423.215C207.079 423.215 206.372 423.352 205.762 423.625C205.16 423.889 204.686 424.263 204.34 424.746C204.003 425.22 203.834 425.776 203.834 426.414C203.834 427.125 204.039 427.722 204.449 428.205C204.868 428.688 205.406 429.107 206.062 429.463C206.728 429.809 207.43 430.146 208.168 430.475C208.87 430.785 209.562 431.113 210.246 431.459C210.939 431.796 211.563 432.197 212.119 432.662C212.684 433.118 213.135 433.665 213.473 434.303C213.81 434.941 213.979 435.711 213.979 436.613C213.979 437.771 213.687 438.787 213.104 439.662C212.52 440.528 211.7 441.202 210.643 441.686C209.594 442.169 208.364 442.41 206.951 442.41C205.712 442.41 204.531 442.21 203.41 441.809C202.289 441.408 201.227 440.806 200.225 440.004Z" fill="black"/>
<rect y="400" width="637" height="2" fill="black"/>
</svg>
