<svg width="450" height="389" viewBox="0 0 450 389" fill="none" xmlns="http://www.w3.org/2000/svg">
<path fill-rule="evenodd" clip-rule="evenodd" d="M337.493 0L363 30.0869V209.681L337.493 239.767V0Z" fill="#43729E"/>
<path fill-rule="evenodd" clip-rule="evenodd" d="M88.2382 33.7V0H328.003V239.767H278.727L226.852 162.957C249.299 151.778 264.737 128.595 264.737 101.835C264.737 64.4637 234.63 34.0697 197.372 33.5988C197.27 33.5981 116.226 33.6738 88.2382 33.7ZM323.23 36.4061C323.23 34.5624 321.731 33.0656 319.887 33.0656H302.204C300.357 33.0656 298.861 34.5624 298.861 36.4061V54.0929C298.861 55.9366 300.357 57.4334 302.204 57.4334H319.887C321.731 57.4334 323.23 55.9366 323.23 54.0929V36.4061ZM294.156 8.04526C294.156 6.20159 292.66 4.70476 290.816 4.70476H273.129C271.286 4.70476 269.79 6.20159 269.79 8.04526V25.7321C269.79 27.5758 271.286 29.0726 273.129 29.0726H290.816C292.66 29.0726 294.156 27.5758 294.156 25.7321V8.04526ZM323.23 8.00234C323.23 6.15866 321.731 4.66184 319.887 4.66184H302.204C300.357 4.66184 298.861 6.15866 298.861 8.00234V25.6892C298.861 27.5329 300.357 29.0297 302.204 29.0297H319.887C321.731 29.0297 323.23 27.5329 323.23 25.6892V8.00234Z" fill="#43729E"/>
<path fill-rule="evenodd" clip-rule="evenodd" d="M179.605 160.924H116.999L116.893 239.992H88V42.8486L197.252 42.7431C229.517 43.1382 255.592 69.4765 255.592 101.847C255.592 128.764 237.523 151.521 212.871 158.632L267.813 239.808H232.862L213.924 211.652L179.605 160.924ZM116.867 132.004V71.4785L196.567 71.3994C213.108 71.6101 226.672 85.0954 226.672 101.689C226.672 118.361 213.002 131.899 196.356 132.004H116.867Z" fill="#43729E"/>
<path d="M60.498 339.638H50.9277L33.4473 309.853H16.1621V339.638H7.56836V266.396H32.9102C38.151 266.396 42.6595 267.275 46.4355 269.033C50.2116 270.79 53.125 273.297 55.1758 276.552C57.2266 279.775 58.252 283.632 58.252 288.124C58.252 293.365 56.8522 297.76 54.0527 301.308C51.2858 304.856 47.3958 307.314 42.3828 308.681L60.498 339.638ZM16.1621 302.236H32.373C37.679 302.236 41.8457 300.982 44.873 298.476C47.9329 295.969 49.4629 292.519 49.4629 288.124C49.4629 283.73 47.9492 280.279 44.9219 277.773C41.8945 275.266 37.7116 274.013 32.373 274.013H16.1621V302.236Z" fill="#272727"/>
<rect x="72.8381" y="301.638" width="15.9645" height="16" rx="2" fill="#43729E"/>
<path d="M168.263 329.263C164.91 332.648 160.906 335.301 156.251 337.222C151.596 339.143 146.518 340.103 141.017 340.103C135.516 340.103 130.437 339.159 125.782 337.271C121.16 335.383 117.14 332.73 113.722 329.312C110.304 325.861 107.651 321.825 105.763 317.203C103.875 312.548 102.931 307.486 102.931 302.017C102.931 296.516 103.875 291.454 105.763 286.831C107.651 282.176 110.304 278.14 113.722 274.722C117.14 271.304 121.16 268.651 125.782 266.763C130.437 264.875 135.516 263.931 141.017 263.931C146.486 263.931 151.547 264.891 156.202 266.812C160.857 268.7 164.861 271.337 168.214 274.722L162.208 280.826C159.604 277.928 156.479 275.666 152.833 274.038C149.187 272.378 145.2 271.548 140.87 271.548C136.671 271.548 132.797 272.313 129.249 273.843C125.701 275.341 122.609 277.473 119.972 280.24C117.368 282.974 115.333 286.197 113.868 289.908C112.436 293.619 111.72 297.655 111.72 302.017C111.72 306.411 112.436 310.464 113.868 314.175C115.333 317.854 117.368 321.076 119.972 323.843C122.609 326.578 125.701 328.71 129.249 330.24C132.797 331.737 136.671 332.486 140.87 332.486C145.2 332.486 149.187 331.672 152.833 330.044C156.479 328.384 159.604 326.106 162.208 323.208L168.263 329.263ZM242.433 265.396V305.874C242.433 312.971 241.196 319.091 238.722 324.234C236.28 329.344 232.765 333.267 228.175 336.001C223.585 338.736 218.084 340.103 211.671 340.103C205.291 340.103 199.806 338.736 195.216 336.001C190.626 333.267 187.094 329.344 184.62 324.234C182.179 319.091 180.958 312.971 180.958 305.874V265.396H189.552V305.191C189.552 310.953 190.431 315.868 192.189 319.937C193.947 324.006 196.469 327.115 199.757 329.263C203.077 331.411 207.049 332.486 211.671 332.486C216.326 332.486 220.297 331.411 223.585 329.263C226.905 327.115 229.445 324.006 231.202 319.937C232.96 315.868 233.839 310.953 233.839 305.191V265.396H242.433ZM257.618 338.638V265.396H283.595C290.594 265.396 296.095 267.007 300.099 270.23C304.103 273.453 306.105 277.88 306.105 283.511C306.105 287.515 305.112 291.014 303.126 294.009C301.141 296.971 298.488 299.12 295.167 300.454C299.627 301.561 303.126 303.693 305.665 306.851C308.237 309.976 309.523 313.817 309.523 318.374C309.523 322.411 308.514 325.959 306.495 329.019C304.51 332.046 301.726 334.406 298.146 336.099C294.565 337.792 290.382 338.638 285.597 338.638H257.618ZM266.212 297.72H283.4C287.697 297.72 291.131 296.581 293.702 294.302C296.307 292.023 297.609 289.012 297.609 285.269C297.609 281.493 296.29 278.514 293.654 276.333C291.017 274.12 287.42 273.013 282.863 273.013H266.212V297.72ZM266.212 331.021H283.741C287.127 331.021 290.089 330.451 292.628 329.312C295.167 328.14 297.153 326.529 298.585 324.478C300.017 322.395 300.734 320.002 300.734 317.3C300.734 314.663 300.05 312.369 298.683 310.415C297.348 308.462 295.444 306.965 292.97 305.923C290.529 304.849 287.648 304.312 284.327 304.312H266.212V331.021ZM321.29 338.638V265.396H366.163V273.013H329.884V297.622H364.161V305.24H329.884V331.021H366.652V338.638H321.29ZM381.349 338.638V265.396H402.443C411.427 265.396 419.142 266.861 425.587 269.79C432.065 272.72 437.029 276.919 440.48 282.388C443.963 287.857 445.704 294.4 445.704 302.017C445.704 309.602 443.963 316.145 440.48 321.646C437.029 327.115 432.065 331.314 425.587 334.244C419.142 337.173 411.427 338.638 402.443 338.638H381.349ZM389.943 331.021H402.833C410.027 331.021 416.163 329.882 421.241 327.603C426.32 325.324 430.193 322.02 432.863 317.691C435.564 313.361 436.915 308.137 436.915 302.017C436.915 295.897 435.564 290.673 432.863 286.343C430.193 282.014 426.32 278.71 421.241 276.431C416.163 274.152 410.027 273.013 402.833 273.013H389.943V331.021Z" fill="#272727"/>
<path d="M32.793 375.25C31.4518 376.604 29.8503 377.665 27.9883 378.434C26.1263 379.202 24.0951 379.586 21.8945 379.586C19.694 379.586 17.6628 379.208 15.8008 378.453C13.9518 377.698 12.3438 376.637 10.9766 375.27C9.60938 373.889 8.54818 372.275 7.79297 370.426C7.03776 368.564 6.66016 366.539 6.66016 364.352C6.66016 362.151 7.03776 360.126 7.79297 358.277C8.54818 356.415 9.60938 354.801 10.9766 353.434C12.3438 352.066 13.9518 351.005 15.8008 350.25C17.6628 349.495 19.694 349.117 21.8945 349.117C24.082 349.117 26.1068 349.501 27.9688 350.27C29.8307 351.025 31.4323 352.079 32.7734 353.434L30.3711 355.875C29.3294 354.716 28.0794 353.811 26.6211 353.16C25.1628 352.496 23.5677 352.164 21.8359 352.164C20.1562 352.164 18.6068 352.47 17.1875 353.082C15.7682 353.681 14.5312 354.534 13.4766 355.641C12.4349 356.734 11.6211 358.023 11.0352 359.508C10.4622 360.992 10.1758 362.607 10.1758 364.352C10.1758 366.109 10.4622 367.73 11.0352 369.215C11.6211 370.686 12.4349 371.975 13.4766 373.082C14.5312 374.176 15.7682 375.029 17.1875 375.641C18.6068 376.24 20.1562 376.539 21.8359 376.539C23.5677 376.539 25.1628 376.214 26.6211 375.562C28.0794 374.898 29.3294 373.987 30.3711 372.828L32.793 375.25ZM71.3383 379.586C69.1378 379.586 67.1065 379.208 65.2445 378.453C63.3956 377.698 61.7875 376.637 60.4203 375.27C59.0531 373.889 57.9919 372.275 57.2367 370.426C56.4815 368.564 56.1039 366.539 56.1039 364.352C56.1039 362.151 56.4815 360.126 57.2367 358.277C57.9919 356.415 59.0531 354.801 60.4203 353.434C61.7875 352.066 63.3956 351.005 65.2445 350.25C67.1065 349.495 69.1378 349.117 71.3383 349.117C73.5388 349.117 75.5635 349.495 77.4125 350.25C79.2615 351.005 80.8695 352.066 82.2367 353.434C83.6039 354.801 84.6651 356.415 85.4203 358.277C86.1755 360.126 86.5531 362.151 86.5531 364.352C86.5531 366.539 86.1755 368.564 85.4203 370.426C84.6651 372.275 83.6039 373.889 82.2367 375.27C80.8695 376.637 79.2615 377.698 77.4125 378.453C75.5635 379.208 73.5388 379.586 71.3383 379.586ZM71.3383 376.539C73.018 376.539 74.5674 376.233 75.9867 375.621C77.419 375.009 78.6625 374.156 79.7172 373.062C80.7719 371.956 81.5857 370.667 82.1586 369.195C82.7445 367.711 83.0375 366.096 83.0375 364.352C83.0375 362.607 82.7445 360.992 82.1586 359.508C81.5857 358.023 80.7719 356.734 79.7172 355.641C78.6625 354.534 77.419 353.681 75.9867 353.082C74.5674 352.47 73.018 352.164 71.3383 352.164C69.6586 352.164 68.1026 352.47 66.6703 353.082C65.251 353.681 64.0141 354.534 62.9594 355.641C61.9047 356.734 61.0844 358.023 60.4984 359.508C59.9125 360.992 59.6195 362.607 59.6195 364.352C59.6195 366.096 59.9125 367.711 60.4984 369.195C61.0844 370.68 61.9047 371.975 62.9594 373.082C64.0141 374.176 65.251 375.029 66.6703 375.641C68.1026 376.24 69.6586 376.539 71.3383 376.539ZM136.348 379H132.716L114.298 355.074V379H110.86V349.703H114.493L132.911 373.629V349.703H136.348V379ZM160.655 376.148L162.316 373.512C163.162 374.202 164.008 374.775 164.855 375.23C165.701 375.686 166.56 376.025 167.433 376.246C168.318 376.467 169.217 376.578 170.128 376.578C171.456 376.578 172.615 376.357 173.605 375.914C174.607 375.471 175.389 374.859 175.948 374.078C176.508 373.284 176.788 372.372 176.788 371.344C176.788 370.224 176.469 369.299 175.831 368.57C175.206 367.828 174.392 367.197 173.39 366.676C172.387 366.155 171.32 365.66 170.187 365.191C169.236 364.788 168.292 364.358 167.355 363.902C166.417 363.447 165.564 362.919 164.796 362.32C164.041 361.708 163.435 360.973 162.98 360.113C162.524 359.254 162.296 358.219 162.296 357.008C162.296 355.458 162.687 354.091 163.468 352.906C164.249 351.721 165.33 350.797 166.71 350.133C168.103 349.469 169.705 349.137 171.515 349.137C172.739 349.137 173.969 349.299 175.206 349.625C176.443 349.938 177.641 350.4 178.8 351.012L177.394 353.824C176.482 353.29 175.525 352.88 174.523 352.594C173.533 352.307 172.557 352.164 171.593 352.164C170.447 352.164 169.438 352.359 168.566 352.75C167.706 353.128 167.029 353.661 166.534 354.352C166.053 355.029 165.812 355.823 165.812 356.734C165.812 357.75 166.105 358.603 166.691 359.293C167.29 359.983 168.058 360.582 168.995 361.09C169.946 361.585 170.948 362.066 172.003 362.535C173.006 362.978 173.995 363.447 174.972 363.941C175.961 364.423 176.853 364.996 177.648 365.66C178.455 366.311 179.099 367.092 179.581 368.004C180.063 368.915 180.304 370.016 180.304 371.305C180.304 372.958 179.887 374.41 179.054 375.66C178.221 376.897 177.049 377.861 175.538 378.551C174.041 379.241 172.283 379.586 170.265 379.586C168.494 379.586 166.808 379.299 165.206 378.727C163.605 378.154 162.088 377.294 160.655 376.148ZM229.572 349.703V365.895C229.572 368.733 229.077 371.181 228.087 373.238C227.111 375.283 225.705 376.852 223.869 377.945C222.033 379.039 219.832 379.586 217.267 379.586C214.715 379.586 212.521 379.039 210.685 377.945C208.849 376.852 207.436 375.283 206.447 373.238C205.47 371.181 204.982 368.733 204.982 365.895V349.703H208.42V365.621C208.42 367.926 208.771 369.892 209.474 371.52C210.177 373.147 211.186 374.391 212.502 375.25C213.83 376.109 215.418 376.539 217.267 376.539C219.129 376.539 220.718 376.109 222.033 375.25C223.361 374.391 224.377 373.147 225.08 371.52C225.783 369.892 226.134 367.926 226.134 365.621V349.703H229.572ZM273.215 379H255.246V349.703H258.684V375.953H273.215V379ZM303.127 379H299.69V352.75H290.276V349.703H312.541V352.75H303.127V379ZM339.29 349.703H335.852V379H339.29V349.703ZM390.433 379H386.8L368.382 355.074V379H364.945V349.703H368.577L386.995 373.629V349.703H390.433V379ZM438.295 355.426C437.214 354.371 435.944 353.564 434.486 353.004C433.028 352.444 431.485 352.164 429.857 352.164C428.164 352.164 426.608 352.464 425.189 353.062C423.77 353.648 422.539 354.488 421.498 355.582C420.469 356.663 419.668 357.945 419.095 359.43C418.535 360.914 418.255 362.548 418.255 364.332C418.255 366.103 418.535 367.737 419.095 369.234C419.655 370.719 420.443 372.008 421.459 373.102C422.474 374.195 423.679 375.042 425.072 375.641C426.465 376.24 427.995 376.539 429.662 376.539C431.198 376.539 432.611 376.285 433.9 375.777C435.202 375.257 436.341 374.527 437.318 373.59C438.308 372.639 439.102 371.513 439.701 370.211C440.313 368.896 440.69 367.451 440.834 365.875H430.091V363.16H443.88L443.978 364.43C443.978 366.656 443.627 368.694 442.923 370.543C442.233 372.392 441.25 373.993 439.974 375.348C438.698 376.702 437.188 377.75 435.443 378.492C433.698 379.221 431.778 379.586 429.681 379.586C427.533 379.586 425.547 379.208 423.724 378.453C421.914 377.685 420.332 376.617 418.978 375.25C417.637 373.883 416.595 372.281 415.853 370.445C415.111 368.596 414.74 366.585 414.74 364.41C414.74 362.223 415.117 360.198 415.873 358.336C416.628 356.474 417.683 354.853 419.037 353.473C420.391 352.092 421.986 351.025 423.822 350.27C425.658 349.501 427.657 349.117 429.818 349.117C431.862 349.117 433.802 349.469 435.638 350.172C437.487 350.875 439.128 351.884 440.56 353.199L438.295 355.426Z" fill="#272727"/>
</svg>
