<svg width="637" height="36" viewBox="0 0 637 36" fill="none" xmlns="http://www.w3.org/2000/svg">
<path d="M475.939 28H473.26L468.365 19.6602H463.525V28H461.119V7.49219H468.215C469.682 7.49219 470.945 7.73828 472.002 8.23047C473.059 8.72266 473.875 9.42448 474.449 10.3359C475.023 11.2383 475.311 12.3184 475.311 13.5762C475.311 15.0436 474.919 16.2741 474.135 17.2676C473.36 18.2611 472.271 18.9492 470.867 19.332L475.939 28ZM463.525 17.5273H468.064C469.55 17.5273 470.717 17.1764 471.564 16.4746C472.421 15.7728 472.85 14.8066 472.85 13.5762C472.85 12.3457 472.426 11.3796 471.578 10.6777C470.73 9.97591 469.559 9.625 468.064 9.625H463.525V17.5273ZM479.084 28V7.49219H491.648V9.625H481.49V16.5156H491.088V18.6484H481.49V25.8672H491.785V28H479.084ZM495.9 28V7.49219H502.217C503.894 7.49219 505.329 7.75195 506.523 8.27148C507.727 8.79102 508.647 9.53385 509.285 10.5C509.923 11.4661 510.242 12.6237 510.242 13.9727C510.242 15.3125 509.923 16.4701 509.285 17.4453C508.647 18.4206 507.727 19.1725 506.523 19.7012C505.329 20.2207 503.894 20.4805 502.217 20.4805H498.307V28H495.9ZM498.307 18.3477H502.012C503.853 18.3477 505.275 17.9603 506.277 17.1855C507.28 16.4108 507.781 15.3398 507.781 13.9727C507.781 12.6055 507.28 11.5391 506.277 10.7734C505.275 10.0078 503.853 9.625 502.012 9.625H498.307V18.3477ZM530.75 7.49219V18.8262C530.75 20.8132 530.404 22.5267 529.711 23.9668C529.027 25.3978 528.043 26.4961 526.758 27.2617C525.473 28.0273 523.932 28.4102 522.137 28.4102C520.35 28.4102 518.814 28.0273 517.529 27.2617C516.244 26.4961 515.255 25.3978 514.562 23.9668C513.879 22.5267 513.537 20.8132 513.537 18.8262V7.49219H515.943V18.6348C515.943 20.248 516.189 21.6243 516.682 22.7637C517.174 23.903 517.88 24.7734 518.801 25.375C519.73 25.9766 520.842 26.2773 522.137 26.2773C523.44 26.2773 524.552 25.9766 525.473 25.375C526.402 24.7734 527.113 23.903 527.605 22.7637C528.098 21.6243 528.344 20.248 528.344 18.6348V7.49219H530.75ZM542.357 28H539.951V9.625H533.361V7.49219H548.947V9.625H542.357V28ZM550.93 28H548.4L556.822 7.49219H559.434L567.842 28H565.312L563.084 22.4629H553.158L550.93 28ZM554.006 20.3301H562.236L558.121 10.0898L554.006 20.3301ZM576.564 28H574.158V9.625H567.568V7.49219H583.154V9.625H576.564V28ZM588.158 7.49219H585.752V28H588.158V7.49219ZM602.104 28.4102C600.563 28.4102 599.141 28.1458 597.838 27.6172C596.544 27.0885 595.418 26.3457 594.461 25.3887C593.504 24.4225 592.761 23.2923 592.232 21.998C591.704 20.6947 591.439 19.2773 591.439 17.7461C591.439 16.2057 591.704 14.7884 592.232 13.4941C592.761 12.1908 593.504 11.0605 594.461 10.1035C595.418 9.14648 596.544 8.40365 597.838 7.875C599.141 7.34635 600.563 7.08203 602.104 7.08203C603.644 7.08203 605.061 7.34635 606.355 7.875C607.65 8.40365 608.775 9.14648 609.732 10.1035C610.689 11.0605 611.432 12.1908 611.961 13.4941C612.49 14.7884 612.754 16.2057 612.754 17.7461C612.754 19.2773 612.49 20.6947 611.961 21.998C611.432 23.2923 610.689 24.4225 609.732 25.3887C608.775 26.3457 607.65 27.0885 606.355 27.6172C605.061 28.1458 603.644 28.4102 602.104 28.4102ZM602.104 26.2773C603.279 26.2773 604.364 26.0632 605.357 25.6348C606.36 25.2064 607.23 24.6094 607.969 23.8438C608.707 23.069 609.277 22.1667 609.678 21.1367C610.088 20.0977 610.293 18.9674 610.293 17.7461C610.293 16.5247 610.088 15.3945 609.678 14.3555C609.277 13.3164 608.707 12.4141 607.969 11.6484C607.23 10.8737 606.36 10.2767 605.357 9.85742C604.364 9.42904 603.279 9.21484 602.104 9.21484C600.928 9.21484 599.839 9.42904 598.836 9.85742C597.842 10.2767 596.977 10.8737 596.238 11.6484C595.5 12.4141 594.926 13.3164 594.516 14.3555C594.105 15.3945 593.9 16.5247 593.9 17.7461C593.9 18.9674 594.105 20.0977 594.516 21.1367C594.926 22.1758 595.5 23.0827 596.238 23.8574C596.977 24.623 597.842 25.2201 598.836 25.6484C599.839 26.0677 600.928 26.2773 602.104 26.2773ZM633.891 28H631.348L618.455 11.252V28H616.049V7.49219H618.592L631.484 24.2402V7.49219H633.891V28Z" fill="#4A4A4A"/>
<circle cx="428.5" cy="16.5" r="5" stroke="black"/>
<path d="M295.939 28H293.26L288.365 19.6602H283.525V28H281.119V7.49219H288.215C289.682 7.49219 290.945 7.73828 292.002 8.23047C293.059 8.72266 293.875 9.42448 294.449 10.3359C295.023 11.2383 295.311 12.3184 295.311 13.5762C295.311 15.0436 294.919 16.2741 294.135 17.2676C293.36 18.2611 292.271 18.9492 290.867 19.332L295.939 28ZM283.525 17.5273H288.064C289.55 17.5273 290.717 17.1764 291.564 16.4746C292.421 15.7728 292.85 14.8066 292.85 13.5762C292.85 12.3457 292.426 11.3796 291.578 10.6777C290.73 9.97591 289.559 9.625 288.064 9.625H283.525V17.5273ZM299.084 28V7.49219H311.648V9.625H301.49V16.5156H311.088V18.6484H301.49V25.8672H311.785V28H299.084ZM314.807 26.0039L315.969 24.1582C316.561 24.6413 317.154 25.0423 317.746 25.3613C318.339 25.6803 318.94 25.9173 319.551 26.0723C320.171 26.2272 320.799 26.3047 321.438 26.3047C322.367 26.3047 323.178 26.1497 323.871 25.8398C324.573 25.5299 325.12 25.1016 325.512 24.5547C325.904 23.9987 326.1 23.3607 326.1 22.6406C326.1 21.8568 325.876 21.2096 325.43 20.6992C324.992 20.1797 324.423 19.7376 323.721 19.373C323.019 19.0085 322.271 18.6621 321.479 18.334C320.813 18.0514 320.152 17.7507 319.496 17.4316C318.84 17.1126 318.243 16.7435 317.705 16.3242C317.176 15.8958 316.753 15.3809 316.434 14.7793C316.115 14.1777 315.955 13.4531 315.955 12.6055C315.955 11.5208 316.229 10.5638 316.775 9.73438C317.322 8.90495 318.079 8.25781 319.045 7.79297C320.02 7.32812 321.141 7.0957 322.408 7.0957C323.265 7.0957 324.126 7.20964 324.992 7.4375C325.858 7.65625 326.697 7.97982 327.508 8.4082L326.523 10.377C325.885 10.0033 325.215 9.71615 324.514 9.51562C323.821 9.3151 323.137 9.21484 322.463 9.21484C321.661 9.21484 320.954 9.35156 320.344 9.625C319.742 9.88932 319.268 10.263 318.922 10.7461C318.585 11.2201 318.416 11.776 318.416 12.4141C318.416 13.125 318.621 13.722 319.031 14.2051C319.451 14.6882 319.988 15.1074 320.645 15.4629C321.31 15.8092 322.012 16.1465 322.75 16.4746C323.452 16.7845 324.145 17.1126 324.828 17.459C325.521 17.7962 326.145 18.1973 326.701 18.6621C327.266 19.1178 327.717 19.6647 328.055 20.3027C328.392 20.9408 328.561 21.7109 328.561 22.6133C328.561 23.7708 328.269 24.7871 327.686 25.6621C327.102 26.528 326.282 27.2025 325.225 27.6855C324.176 28.1686 322.946 28.4102 321.533 28.4102C320.294 28.4102 319.113 28.2096 317.992 27.8086C316.871 27.4076 315.809 26.806 314.807 26.0039ZM349.328 7.49219V18.8262C349.328 20.8132 348.982 22.5267 348.289 23.9668C347.605 25.3978 346.621 26.4961 345.336 27.2617C344.051 28.0273 342.51 28.4102 340.715 28.4102C338.928 28.4102 337.393 28.0273 336.107 27.2617C334.822 26.4961 333.833 25.3978 333.141 23.9668C332.457 22.5267 332.115 20.8132 332.115 18.8262V7.49219H334.521V18.6348C334.521 20.248 334.768 21.6243 335.26 22.7637C335.752 23.903 336.458 24.7734 337.379 25.375C338.309 25.9766 339.421 26.2773 340.715 26.2773C342.018 26.2773 343.13 25.9766 344.051 25.375C344.98 24.7734 345.691 23.903 346.184 22.7637C346.676 21.6243 346.922 20.248 346.922 18.6348V7.49219H349.328ZM366.158 28H353.58V7.49219H355.986V25.8672H366.158V28ZM373.377 28H370.971V9.625H364.381V7.49219H379.967V9.625H373.377V28ZM381.607 26.0039L382.77 24.1582C383.362 24.6413 383.954 25.0423 384.547 25.3613C385.139 25.6803 385.741 25.9173 386.352 26.0723C386.971 26.2272 387.6 26.3047 388.238 26.3047C389.168 26.3047 389.979 26.1497 390.672 25.8398C391.374 25.5299 391.921 25.1016 392.312 24.5547C392.704 23.9987 392.9 23.3607 392.9 22.6406C392.9 21.8568 392.677 21.2096 392.23 20.6992C391.793 20.1797 391.223 19.7376 390.521 19.373C389.82 19.0085 389.072 18.6621 388.279 18.334C387.614 18.0514 386.953 17.7507 386.297 17.4316C385.641 17.1126 385.044 16.7435 384.506 16.3242C383.977 15.8958 383.553 15.3809 383.234 14.7793C382.915 14.1777 382.756 13.4531 382.756 12.6055C382.756 11.5208 383.029 10.5638 383.576 9.73438C384.123 8.90495 384.88 8.25781 385.846 7.79297C386.821 7.32812 387.942 7.0957 389.209 7.0957C390.066 7.0957 390.927 7.20964 391.793 7.4375C392.659 7.65625 393.497 7.97982 394.309 8.4082L393.324 10.377C392.686 10.0033 392.016 9.71615 391.314 9.51562C390.622 9.3151 389.938 9.21484 389.264 9.21484C388.462 9.21484 387.755 9.35156 387.145 9.625C386.543 9.88932 386.069 10.263 385.723 10.7461C385.385 11.2201 385.217 11.776 385.217 12.4141C385.217 13.125 385.422 13.722 385.832 14.2051C386.251 14.6882 386.789 15.1074 387.445 15.4629C388.111 15.8092 388.812 16.1465 389.551 16.4746C390.253 16.7845 390.945 17.1126 391.629 17.459C392.322 17.7962 392.946 18.1973 393.502 18.6621C394.067 19.1178 394.518 19.6647 394.855 20.3027C395.193 20.9408 395.361 21.7109 395.361 22.6133C395.361 23.7708 395.07 24.7871 394.486 25.6621C393.903 26.528 393.083 27.2025 392.025 27.6855C390.977 28.1686 389.747 28.4102 388.334 28.4102C387.094 28.4102 385.914 28.2096 384.793 27.8086C383.672 27.4076 382.61 26.806 381.607 26.0039Z" fill="#4A4A4A"/>
<circle cx="247.5" cy="16.5" r="5" stroke="black"/>
<path d="M16.9395 28H14.2598L9.36523 19.6602H4.52539V28H2.11914V7.49219H9.21484C10.6823 7.49219 11.9447 7.73828 13.002 8.23047C14.0592 8.72266 14.875 9.42448 15.4492 10.3359C16.0234 11.2383 16.3105 12.3184 16.3105 13.5762C16.3105 15.0436 15.9186 16.2741 15.1348 17.2676C14.36 18.2611 13.2708 18.9492 11.8672 19.332L16.9395 28ZM4.52539 17.5273H9.06445C10.5501 17.5273 11.7168 17.1764 12.5645 16.4746C13.4212 15.7728 13.8496 14.8066 13.8496 13.5762C13.8496 12.3457 13.4258 11.3796 12.5781 10.6777C11.7305 9.97591 10.5592 9.625 9.06445 9.625H4.52539V17.5273ZM20.084 28V7.49219H32.6484V9.625H22.4902V16.5156H32.0879V18.6484H22.4902V25.8672H32.7852V28H20.084ZM49.4785 28H36.9004V7.49219H39.3066V25.8672H49.4785V28ZM53.6484 28H51.1191L59.541 7.49219H62.1523L70.5605 28H68.0312L65.8027 22.4629H55.877L53.6484 28ZM56.7246 20.3301H64.9551L60.8398 10.0898L56.7246 20.3301ZM79.2832 28H76.877V9.625H70.2871V7.49219H85.873V9.625H79.2832V28ZM90.877 7.49219H88.4707V28H90.877V7.49219ZM104.822 28.4102C103.282 28.4102 101.86 28.1458 100.557 27.6172C99.2624 27.0885 98.1367 26.3457 97.1797 25.3887C96.2227 24.4225 95.4798 23.2923 94.9512 21.998C94.4225 20.6947 94.1582 19.2773 94.1582 17.7461C94.1582 16.2057 94.4225 14.7884 94.9512 13.4941C95.4798 12.1908 96.2227 11.0605 97.1797 10.1035C98.1367 9.14648 99.2624 8.40365 100.557 7.875C101.86 7.34635 103.282 7.08203 104.822 7.08203C106.363 7.08203 107.78 7.34635 109.074 7.875C110.368 8.40365 111.494 9.14648 112.451 10.1035C113.408 11.0605 114.151 12.1908 114.68 13.4941C115.208 14.7884 115.473 16.2057 115.473 17.7461C115.473 19.2773 115.208 20.6947 114.68 21.998C114.151 23.2923 113.408 24.4225 112.451 25.3887C111.494 26.3457 110.368 27.0885 109.074 27.6172C107.78 28.1458 106.363 28.4102 104.822 28.4102ZM104.822 26.2773C105.998 26.2773 107.083 26.0632 108.076 25.6348C109.079 25.2064 109.949 24.6094 110.688 23.8438C111.426 23.069 111.995 22.1667 112.396 21.1367C112.807 20.0977 113.012 18.9674 113.012 17.7461C113.012 16.5247 112.807 15.3945 112.396 14.3555C111.995 13.3164 111.426 12.4141 110.688 11.6484C109.949 10.8737 109.079 10.2767 108.076 9.85742C107.083 9.42904 105.998 9.21484 104.822 9.21484C103.646 9.21484 102.557 9.42904 101.555 9.85742C100.561 10.2767 99.6953 10.8737 98.957 11.6484C98.2188 12.4141 97.6445 13.3164 97.2344 14.3555C96.8242 15.3945 96.6191 16.5247 96.6191 17.7461C96.6191 18.9674 96.8242 20.0977 97.2344 21.1367C97.6445 22.1758 98.2188 23.0827 98.957 23.8574C99.6953 24.623 100.561 25.2201 101.555 25.6484C102.557 26.0677 103.646 26.2773 104.822 26.2773ZM136.609 28H134.066L121.174 11.252V28H118.768V7.49219H121.311L134.203 24.2402V7.49219H136.609V28ZM139.904 26.0039L141.066 24.1582C141.659 24.6413 142.251 25.0423 142.844 25.3613C143.436 25.6803 144.038 25.9173 144.648 26.0723C145.268 26.2272 145.897 26.3047 146.535 26.3047C147.465 26.3047 148.276 26.1497 148.969 25.8398C149.671 25.5299 150.217 25.1016 150.609 24.5547C151.001 23.9987 151.197 23.3607 151.197 22.6406C151.197 21.8568 150.974 21.2096 150.527 20.6992C150.09 20.1797 149.52 19.7376 148.818 19.373C148.117 19.0085 147.369 18.6621 146.576 18.334C145.911 18.0514 145.25 17.7507 144.594 17.4316C143.938 17.1126 143.34 16.7435 142.803 16.3242C142.274 15.8958 141.85 15.3809 141.531 14.7793C141.212 14.1777 141.053 13.4531 141.053 12.6055C141.053 11.5208 141.326 10.5638 141.873 9.73438C142.42 8.90495 143.176 8.25781 144.143 7.79297C145.118 7.32812 146.239 7.0957 147.506 7.0957C148.363 7.0957 149.224 7.20964 150.09 7.4375C150.956 7.65625 151.794 7.97982 152.605 8.4082L151.621 10.377C150.983 10.0033 150.313 9.71615 149.611 9.51562C148.919 9.3151 148.235 9.21484 147.561 9.21484C146.758 9.21484 146.052 9.35156 145.441 9.625C144.84 9.88932 144.366 10.263 144.02 10.7461C143.682 11.2201 143.514 11.776 143.514 12.4141C143.514 13.125 143.719 13.722 144.129 14.2051C144.548 14.6882 145.086 15.1074 145.742 15.4629C146.408 15.8092 147.109 16.1465 147.848 16.4746C148.549 16.7845 149.242 17.1126 149.926 17.459C150.618 17.7962 151.243 18.1973 151.799 18.6621C152.364 19.1178 152.815 19.6647 153.152 20.3027C153.49 20.9408 153.658 21.7109 153.658 22.6133C153.658 23.7708 153.367 24.7871 152.783 25.6621C152.2 26.528 151.38 27.2025 150.322 27.6855C149.274 28.1686 148.044 28.4102 146.631 28.4102C145.391 28.4102 144.211 28.2096 143.09 27.8086C141.969 27.4076 140.907 26.806 139.904 26.0039ZM159.619 28H157.213V7.49219H159.619V16.8164H171.062V7.49219H173.469V28H171.062V18.9492H159.619V28ZM180.127 7.49219H177.721V28H180.127V7.49219ZM184.365 28V7.49219H190.682C192.359 7.49219 193.794 7.75195 194.988 8.27148C196.191 8.79102 197.112 9.53385 197.75 10.5C198.388 11.4661 198.707 12.6237 198.707 13.9727C198.707 15.3125 198.388 16.4701 197.75 17.4453C197.112 18.4206 196.191 19.1725 194.988 19.7012C193.794 20.2207 192.359 20.4805 190.682 20.4805H186.771V28H184.365ZM186.771 18.3477H190.477C192.318 18.3477 193.74 17.9603 194.742 17.1855C195.745 16.4108 196.246 15.3398 196.246 13.9727C196.246 12.6055 195.745 11.5391 194.742 10.7734C193.74 10.0078 192.318 9.625 190.477 9.625H186.771V18.3477ZM200.225 26.0039L201.387 24.1582C201.979 24.6413 202.572 25.0423 203.164 25.3613C203.757 25.6803 204.358 25.9173 204.969 26.0723C205.589 26.2272 206.217 26.3047 206.855 26.3047C207.785 26.3047 208.596 26.1497 209.289 25.8398C209.991 25.5299 210.538 25.1016 210.93 24.5547C211.322 23.9987 211.518 23.3607 211.518 22.6406C211.518 21.8568 211.294 21.2096 210.848 20.6992C210.41 20.1797 209.84 19.7376 209.139 19.373C208.437 19.0085 207.689 18.6621 206.896 18.334C206.231 18.0514 205.57 17.7507 204.914 17.4316C204.258 17.1126 203.661 16.7435 203.123 16.3242C202.594 15.8958 202.171 15.3809 201.852 14.7793C201.533 14.1777 201.373 13.4531 201.373 12.6055C201.373 11.5208 201.646 10.5638 202.193 9.73438C202.74 8.90495 203.497 8.25781 204.463 7.79297C205.438 7.32812 206.559 7.0957 207.826 7.0957C208.683 7.0957 209.544 7.20964 210.41 7.4375C211.276 7.65625 212.115 7.97982 212.926 8.4082L211.941 10.377C211.303 10.0033 210.633 9.71615 209.932 9.51562C209.239 9.3151 208.555 9.21484 207.881 9.21484C207.079 9.21484 206.372 9.35156 205.762 9.625C205.16 9.88932 204.686 10.263 204.34 10.7461C204.003 11.2201 203.834 11.776 203.834 12.4141C203.834 13.125 204.039 13.722 204.449 14.2051C204.868 14.6882 205.406 15.1074 206.062 15.4629C206.728 15.8092 207.43 16.1465 208.168 16.4746C208.87 16.7845 209.562 17.1126 210.246 17.459C210.939 17.7962 211.563 18.1973 212.119 18.6621C212.684 19.1178 213.135 19.6647 213.473 20.3027C213.81 20.9408 213.979 21.7109 213.979 22.6133C213.979 23.7708 213.687 24.7871 213.104 25.6621C212.52 26.528 211.7 27.2025 210.643 27.6855C209.594 28.1686 208.364 28.4102 206.951 28.4102C205.712 28.4102 204.531 28.2096 203.41 27.8086C202.289 27.4076 201.227 26.806 200.225 26.0039Z" fill="#4A4A4A"/>
</svg>
