<svg width="485" height="74" viewBox="0 0 485 74" fill="none" xmlns="http://www.w3.org/2000/svg">
<path d="M154.654 49.3794C152.212 51.8462 149.296 53.7793 145.905 55.1788C142.515 56.5782 138.816 57.2779 134.81 57.2779C130.803 57.2779 127.104 56.5901 123.714 55.2144C120.347 53.8386 117.419 51.9055 114.93 49.415C112.44 46.9008 110.508 43.9596 109.133 40.5914C107.758 37.1996 107.07 33.5112 107.07 29.5264C107.07 25.5178 107.758 21.8295 109.133 18.4614C110.508 15.0695 112.44 12.1283 114.93 9.63781C117.419 7.14729 120.347 5.21417 123.714 3.83845C127.104 2.46274 130.803 1.77488 134.81 1.77488C138.793 1.77488 142.479 2.4746 145.87 3.87403C149.26 5.24975 152.176 7.17101 154.618 9.63781L150.244 14.0852C148.347 11.9742 146.071 10.3257 143.416 9.13971C140.761 7.93002 137.856 7.32518 134.703 7.32518C131.645 7.32518 128.823 7.88259 126.239 8.99739C123.655 10.0885 121.402 11.6421 119.482 13.6582C117.585 15.6506 116.104 17.9988 115.037 20.7028C113.993 23.4068 113.472 26.348 113.472 29.5264C113.472 32.7285 113.993 35.6815 115.037 38.3855C116.104 41.0658 117.585 43.414 119.482 45.4302C121.402 47.4226 123.655 48.9762 126.239 50.091C128.823 51.1821 131.645 51.7276 134.703 51.7276C137.856 51.7276 140.761 51.1346 143.416 49.9487C146.071 48.739 148.347 47.0787 150.244 44.9676L154.654 49.3794Z" fill="black"/>
<path d="M191.889 56.2106H186.874L186.483 51.5142C185.179 53.1982 183.519 54.5265 181.504 55.499C179.489 56.4478 177.237 56.9221 174.747 56.9221C172.187 56.9221 169.899 56.424 167.883 55.4278C165.868 54.4079 164.28 53.0203 163.118 51.2651C161.98 49.5099 161.411 47.5175 161.411 45.2878C161.411 42.9396 162.027 40.8761 163.26 39.0971C164.517 37.2945 166.212 35.8832 168.346 34.8632C170.503 33.8433 172.945 33.3333 175.672 33.3333C177.45 33.3333 179.264 33.5587 181.113 34.0093C182.962 34.4363 184.61 35.0293 186.056 35.7883V34.294C186.056 32.3964 185.582 30.7835 184.634 29.4552C183.685 28.1032 182.417 27.0715 180.828 26.3599C179.24 25.6246 177.485 25.2569 175.565 25.2569C173.905 25.2569 172.21 25.5653 170.48 26.182C168.749 26.775 167.089 27.7 165.501 28.9571L163.58 23.9405C165.643 22.6122 167.812 21.616 170.088 20.9519C172.364 20.264 174.617 19.9201 176.845 19.9201C179.927 19.9201 182.583 20.5487 184.811 21.8058C187.064 23.0392 188.806 24.8063 190.039 27.107C191.272 29.3841 191.889 32.0881 191.889 35.219V56.2106ZM175.778 51.5853C177.604 51.5853 179.275 51.2058 180.793 50.4468C182.31 49.6878 183.543 48.5967 184.491 47.1735C185.44 45.7267 185.961 44.0189 186.056 42.0502V41.4453C184.752 40.4254 183.282 39.6427 181.646 39.0971C180.034 38.5279 178.386 38.2432 176.703 38.2432C174.071 38.2432 171.867 38.8836 170.088 40.1645C168.334 41.4453 167.457 43.0701 167.457 45.0388C167.457 46.2722 167.812 47.387 168.524 48.3832C169.259 49.3794 170.254 50.1622 171.511 50.7314C172.767 51.3007 174.19 51.5853 175.778 51.5853Z" fill="black"/>
<path d="M199.748 53.1152L201.277 47.6361C202.131 48.4425 203.103 49.1422 204.193 49.7352C205.284 50.3282 206.434 50.7907 207.643 51.1228C208.852 51.4311 210.073 51.5853 211.306 51.5853C213.511 51.5853 215.289 51.0991 216.641 50.1266C217.992 49.1541 218.668 47.8851 218.668 46.3196C218.668 45.1811 218.312 44.2442 217.601 43.5089C216.913 42.7499 216 42.0976 214.862 41.5521C213.724 41.0065 212.503 40.4847 211.199 39.9866C209.611 39.3699 208.034 38.6702 206.469 37.8874C204.905 37.1047 203.601 36.0729 202.558 34.7921C201.538 33.5112 201.028 31.8272 201.028 29.7399C201.028 27.7475 201.526 26.016 202.522 24.5454C203.518 23.0748 204.905 21.9362 206.683 21.1298C208.485 20.3233 210.547 19.9201 212.871 19.9201C216.38 19.9201 219.829 20.7977 223.22 22.5529L221.477 27.8186C220.718 27.3205 219.841 26.8817 218.845 26.5022C217.85 26.099 216.83 25.7906 215.787 25.5771C214.744 25.3637 213.76 25.2569 212.835 25.2569C211.105 25.2569 209.706 25.6602 208.639 26.4666C207.572 27.2494 207.038 28.3049 207.038 29.6331C207.038 30.3922 207.252 31.0919 207.679 31.7323C208.129 32.349 208.876 32.9657 209.919 33.5824C210.962 34.1991 212.408 34.887 214.258 35.646C215.894 36.3101 217.506 37.0691 219.094 37.923C220.683 38.7532 221.999 39.8324 223.042 41.1607C224.109 42.4653 224.642 44.173 224.642 46.2841C224.642 48.3713 224.085 50.2215 222.971 51.8344C221.88 53.4236 220.351 54.6688 218.383 55.5701C216.439 56.4715 214.187 56.9221 211.626 56.9221C207.382 56.9221 203.423 55.6532 199.748 53.1152Z" fill="black"/>
<path d="M264.366 51.8344C259.956 55.2262 255.096 56.9221 249.785 56.9221C246.087 56.9221 242.768 56.092 239.828 54.4316C236.888 52.7713 234.564 50.5179 232.857 47.6716C231.174 44.8016 230.332 41.5639 230.332 37.9586C230.332 34.4956 231.115 31.4121 232.679 28.7081C234.244 25.9804 236.39 23.8338 239.116 22.2683C241.843 20.7028 244.937 19.9201 248.398 19.9201C251.955 19.9201 255.084 20.774 257.787 22.4818C260.514 24.1896 262.636 26.5615 264.153 29.5976C265.67 32.6336 266.429 36.1441 266.429 40.1289V41.2674H236.663C237.089 43.3547 237.943 45.1693 239.223 46.711C240.527 48.2528 242.139 49.4506 244.06 50.3045C245.98 51.1584 248.126 51.5853 250.497 51.5853C254.575 51.5853 258.297 50.2452 261.663 47.5649L264.366 51.8344ZM236.449 36.2864H260.917C260.656 34.0805 259.968 32.1592 258.854 30.5226C257.763 28.8623 256.341 27.5696 254.586 26.6445C252.856 25.7195 250.9 25.2569 248.718 25.2569C246.514 25.2569 244.522 25.7195 242.744 26.6445C240.989 27.5696 239.555 28.8623 238.441 30.5226C237.35 32.1592 236.686 34.0805 236.449 36.2864Z" fill="black"/>
<path d="M289.936 51.016L292.959 46.2129C294.5 47.47 296.041 48.5137 297.582 49.3438C299.123 50.174 300.688 50.7907 302.277 51.1939C303.889 51.5972 305.525 51.7988 307.184 51.7988C309.603 51.7988 311.713 51.3956 313.515 50.5891C315.34 49.7826 316.763 48.6678 317.782 47.2447C318.802 45.7978 319.311 44.1375 319.311 42.2636C319.311 40.2238 318.73 38.5397 317.569 37.2114C316.431 35.8594 314.949 34.7091 313.123 33.7603C311.298 32.8115 309.354 31.9102 307.291 31.0563C305.56 30.321 303.841 29.5383 302.134 28.7081C300.427 27.8779 298.874 26.9173 297.476 25.8262C296.1 24.7114 294.998 23.3713 294.168 21.8058C293.338 20.2403 292.923 18.3546 292.923 16.1487C292.923 13.3262 293.635 10.8356 295.057 8.67718C296.48 6.51873 298.448 4.83466 300.961 3.62498C303.498 2.4153 306.414 1.81046 309.709 1.81046C311.938 1.81046 314.178 2.10695 316.431 2.69993C318.683 3.26919 320.864 4.11122 322.974 5.22603L320.414 10.3494C318.754 9.3769 317.012 8.62974 315.186 8.10792C313.384 7.58609 311.606 7.32518 309.852 7.32518C307.765 7.32518 305.928 7.68097 304.339 8.39255C302.774 9.08041 301.542 10.0529 300.641 11.31C299.763 12.5434 299.325 13.9903 299.325 15.6506C299.325 17.5007 299.858 19.0544 300.925 20.3115C302.016 21.5686 303.415 22.6597 305.122 23.5847C306.852 24.4861 308.678 25.3637 310.598 26.2176C312.424 27.024 314.226 27.8779 316.004 28.7792C317.806 29.6569 319.43 30.7005 320.876 31.9102C322.346 33.0962 323.52 34.5193 324.397 36.1797C325.274 37.84 325.713 39.8443 325.713 42.1925C325.713 45.2048 324.954 47.8495 323.437 50.1266C321.919 52.3799 319.785 54.1351 317.035 55.3922C314.309 56.6494 311.108 57.2779 307.433 57.2779C304.209 57.2779 301.139 56.7561 298.222 55.7125C295.306 54.6688 292.544 53.1033 289.936 51.016Z" fill="black"/>
<path d="M353.452 55.3567C351.105 56.4003 348.817 56.9221 346.588 56.9221C344.454 56.9221 342.581 56.4596 340.969 55.5346C339.357 54.5858 338.1 53.2694 337.2 51.5853C336.299 49.8775 335.848 47.897 335.848 45.6436V25.8618H329.625V20.6317H336.133V11.737H341.681V20.6317H352.314V25.8618H341.681V44.5763C341.681 46.711 342.25 48.4306 343.388 49.7352C344.549 51.0398 346.067 51.692 347.94 51.692C349.457 51.692 350.974 51.2414 352.492 50.34L353.452 55.3567Z" fill="black"/>
<path d="M393.852 56.2106H388.731L388.517 50.4468C387.213 52.5341 385.494 54.1351 383.361 55.2499C381.25 56.3647 378.749 56.9221 375.857 56.9221C371.139 56.9221 367.405 55.499 364.654 52.6527C361.928 49.7826 360.565 45.869 360.565 40.9116V20.6317H366.397V40.4847C366.397 43.8528 367.345 46.545 369.242 48.5611C371.162 50.5772 373.711 51.5853 376.888 51.5853C380.207 51.5853 382.886 50.4942 384.925 48.3121C386.988 46.1299 388.019 43.2836 388.019 39.7731V20.6317H393.852V56.2106Z" fill="black"/>
<path d="M439.586 56.2106H434.394L434.074 51.016C432.438 52.8424 430.446 54.2893 428.099 55.3567C425.752 56.4003 423.191 56.9221 420.417 56.9221C416.908 56.9221 413.767 56.1157 410.993 54.5028C408.219 52.8899 406.026 50.684 404.414 47.8851C402.825 45.0862 402.031 41.9316 402.031 38.4211C402.031 34.887 402.825 31.7323 404.414 28.9571C406.026 26.1583 408.219 23.9524 410.993 22.3395C413.767 20.7266 416.908 19.9201 420.417 19.9201C423.096 19.9201 425.574 20.4064 427.85 21.3788C430.15 22.3513 432.118 23.7033 433.753 25.4348V2.84224H439.586V56.2106ZM420.915 51.6565C423.286 51.6565 425.444 51.1109 427.388 50.0198C429.332 48.905 430.873 47.3989 432.011 45.5013C433.173 43.5801 433.753 41.4097 433.753 38.9904V37.7807C433.753 35.3613 433.173 33.2029 432.011 31.3053C430.873 29.3841 429.332 27.8779 427.388 26.7868C425.444 25.6957 423.286 25.1502 420.915 25.1502C418.449 25.1502 416.245 25.7313 414.3 26.8936C412.356 28.0558 410.815 29.6331 409.677 31.6256C408.563 33.618 408.006 35.8713 408.006 38.3855C408.006 40.8998 408.563 43.165 409.677 45.1811C410.815 47.1735 412.356 48.7509 414.3 49.9131C416.245 51.0753 418.449 51.6565 420.915 51.6565Z" fill="black"/>
<path d="M462.951 74H456.585L464.053 55.9259L447.054 20.6317H453.491L466.863 49.2015L478.67 20.6317H485L462.951 74Z" fill="black"/>
<path d="M56.1857 0H37.4571C35.1586 0 33.2952 1.86417 33.2952 4.16375V22.9006C33.2952 25.2002 35.1586 27.0643 37.4571 27.0643H56.1857C58.4843 27.0643 60.3476 25.2002 60.3476 22.9006V4.16375C60.3476 1.86417 58.4843 0 56.1857 0Z" fill="black"/>
<path d="M56.1857 33.31H37.4571C35.1586 33.31 33.2952 35.1741 33.2952 37.4737V56.2106C33.2952 58.5101 35.1586 60.3743 37.4571 60.3743H56.1857C58.4843 60.3743 60.3476 58.5101 60.3476 56.2106V37.4737C60.3476 35.1741 58.4843 33.31 56.1857 33.31Z" fill="black"/>
<path d="M22.8905 0H4.1619C1.86335 0 0 1.86417 0 4.16375V22.9006C0 25.2002 1.86335 27.0643 4.1619 27.0643H22.8905C25.189 27.0643 27.0524 25.2002 27.0524 22.9006V4.16375C27.0524 1.86417 25.189 0 22.8905 0Z" fill="black"/>
</svg>
