<svg width="2418" height="338" viewBox="0 0 2418 338" fill="none" xmlns="http://www.w3.org/2000/svg">
<path d="M707 225.854C695.812 237.143 682.453 245.989 666.918 252.394C651.387 258.798 634.44 262 616.087 262C597.73 262 580.783 258.852 565.252 252.557C549.827 246.261 536.413 237.414 525.01 226.017C513.602 214.511 504.751 201.051 498.451 185.637C492.152 170.115 489 153.236 489 135C489 116.655 492.152 99.7765 498.451 84.363C504.751 68.8405 513.602 55.3806 525.01 43.9833C536.413 32.5859 549.827 23.7393 565.252 17.4436C580.783 11.1479 597.73 8 616.087 8C634.335 8 651.222 11.2021 666.757 17.6064C682.288 23.9021 695.647 32.6945 706.835 43.9833L686.796 64.3361C678.105 54.6754 667.678 47.1314 655.515 41.7039C643.351 36.1679 630.042 33.4 615.597 33.4C601.587 33.4 588.659 35.9509 576.82 41.0526C564.982 46.0458 554.66 53.1556 545.864 62.382C537.173 71.4998 530.388 82.246 525.5 94.6204C520.717 106.995 518.33 120.455 518.33 135C518.33 149.654 520.717 163.168 525.5 175.542C530.388 187.808 537.173 198.554 545.864 207.781C554.66 216.899 564.982 224.009 576.82 229.11C588.659 234.104 601.587 236.6 615.597 236.6C630.042 236.6 643.351 233.886 655.515 228.459C667.678 222.923 678.105 215.325 686.796 205.664L707 225.854Z" fill="black"/>
<path d="M877 256.75H854.128L852.345 235.3C846.398 242.992 838.827 249.059 829.637 253.5C820.448 257.834 810.177 260 798.821 260C787.146 260 776.711 257.725 767.517 253.175C758.327 248.517 751.085 242.179 745.785 234.163C740.595 226.146 738 217.046 738 206.862C738 196.137 740.809 186.713 746.433 178.588C752.165 170.354 759.896 163.909 769.628 159.25C779.466 154.592 790.603 152.262 803.04 152.262C811.149 152.262 819.422 153.292 827.854 155.35C836.287 157.3 843.803 160.009 850.398 163.475V156.65C850.398 147.983 848.236 140.617 843.912 134.55C839.584 128.375 833.801 123.663 826.554 120.413C819.312 117.054 811.308 115.375 802.552 115.375C794.981 115.375 787.251 116.783 779.361 119.6C771.466 122.309 763.896 126.533 756.653 132.275L747.892 109.362C757.301 103.296 767.193 98.7457 777.573 95.7126C787.953 92.5707 798.228 91 808.389 91C822.445 91 834.558 93.871 844.72 99.6126C854.995 105.246 862.939 113.317 868.563 123.825C874.186 134.225 877 146.575 877 160.875V256.75ZM803.523 235.625C811.851 235.625 819.472 233.892 826.395 230.425C833.313 226.959 838.937 221.975 843.26 215.475C847.588 208.867 849.964 201.067 850.398 192.075V189.313C844.451 184.654 837.746 181.079 830.285 178.588C822.933 175.988 815.417 174.687 807.742 174.687C795.738 174.687 785.686 177.612 777.573 183.463C769.573 189.313 765.574 196.733 765.574 205.725C765.574 211.358 767.193 216.45 770.44 221C773.792 225.55 778.33 229.125 784.063 231.725C789.791 234.325 796.281 235.625 803.523 235.625Z" fill="black"/>
<path d="M913 242.613L920.002 217.588C923.913 221.271 928.364 224.467 933.355 227.175C938.352 229.884 943.618 231.996 949.155 233.513C954.691 234.921 960.282 235.625 965.929 235.625C976.027 235.625 984.169 233.404 990.36 228.963C996.547 224.521 999.643 218.725 999.643 211.575C999.643 206.375 998.012 202.096 994.756 198.738C991.606 195.271 987.425 192.292 982.213 189.8C977.002 187.308 971.41 184.925 965.439 182.65C958.167 179.833 950.945 176.638 943.778 173.062C936.616 169.488 930.644 164.775 925.868 158.925C921.197 153.075 918.862 145.384 918.862 135.85C918.862 126.75 921.142 118.842 925.703 112.125C930.264 105.409 936.616 100.208 944.758 96.5251C953.01 92.8416 962.453 91 973.096 91C989.165 91 1004.96 95.0083 1020.49 103.025L1012.51 127.075C1009.03 124.8 1005.01 122.796 1000.45 121.063C995.897 119.221 991.226 117.812 986.449 116.837C981.673 115.863 977.167 115.375 972.931 115.375C965.008 115.375 958.602 117.217 953.716 120.9C948.829 124.475 946.384 129.296 946.384 135.362C946.384 138.829 947.364 142.025 949.319 144.95C951.38 147.767 954.801 150.583 959.577 153.4C964.354 156.217 970.975 159.359 979.447 162.825C986.939 165.858 994.321 169.325 1001.59 173.225C1008.87 177.017 1014.9 181.946 1019.67 188.013C1024.56 193.971 1027 201.771 1027 211.413C1027 220.946 1024.45 229.396 1019.35 236.763C1014.35 244.021 1007.35 249.708 998.337 253.825C989.435 257.942 979.122 260 967.394 260C947.959 260 929.829 254.205 913 242.613Z" fill="black"/>
<path d="M1208.57 236.763C1188.41 252.254 1166.2 260 1141.92 260C1125.02 260 1109.85 256.209 1096.41 248.625C1082.97 241.042 1072.34 230.75 1064.54 217.75C1056.85 204.642 1053 189.854 1053 173.388C1053 157.571 1056.58 143.488 1063.73 131.138C1070.88 118.679 1080.69 108.875 1093.15 101.725C1105.62 94.5748 1119.76 91 1135.58 91C1151.84 91 1166.14 94.9 1178.5 102.7C1190.96 110.5 1200.66 121.333 1207.6 135.2C1214.53 149.067 1218 165.1 1218 183.3V188.5H1081.94C1083.89 198.033 1087.79 206.321 1093.64 213.363C1099.6 220.405 1106.97 225.875 1115.75 229.775C1124.53 233.675 1134.34 235.625 1145.17 235.625C1163.82 235.625 1180.83 229.504 1196.21 217.263L1208.57 236.763ZM1080.96 165.75H1192.8C1191.61 155.675 1188.47 146.9 1183.37 139.425C1178.39 131.842 1171.89 125.938 1163.87 121.712C1155.96 117.488 1147.02 115.375 1137.04 115.375C1126.97 115.375 1117.86 117.488 1109.74 121.712C1101.71 125.938 1095.16 131.842 1090.07 139.425C1085.08 146.9 1082.04 155.675 1080.96 165.75Z" fill="black"/>
<path d="M1325 233.325L1338.86 211.33C1345.92 217.087 1352.98 221.866 1360.05 225.668C1367.11 229.469 1374.29 232.293 1381.57 234.14C1388.96 235.987 1396.46 236.91 1404.06 236.91C1415.15 236.91 1424.82 235.063 1433.08 231.37C1441.45 227.677 1447.97 222.572 1452.64 216.055C1457.32 209.43 1459.65 201.827 1459.65 193.246C1459.65 183.905 1456.99 176.193 1451.67 170.11C1446.45 163.919 1439.66 158.652 1431.29 154.307C1422.92 149.962 1414.01 145.835 1404.55 141.924C1396.62 138.557 1388.74 134.973 1380.92 131.171C1373.09 127.37 1365.97 122.971 1359.56 117.974C1353.26 112.869 1348.2 106.733 1344.4 99.5639C1340.59 92.3951 1338.69 83.76 1338.69 73.6586C1338.69 60.7336 1341.96 49.3285 1348.47 39.4445C1355 29.5604 1364.02 21.8486 1375.54 16.3092C1387.17 10.7697 1400.53 8 1415.64 8C1425.86 8 1436.12 9.35771 1446.45 12.0731C1456.77 14.6799 1466.77 18.5358 1476.44 23.6408L1464.71 47.102C1457.1 42.6487 1449.12 39.2273 1440.74 36.8377C1432.48 34.4481 1424.33 33.2534 1416.29 33.2534C1406.73 33.2534 1398.31 34.8826 1391.02 38.1411C1383.85 41.291 1378.2 45.7443 1374.07 51.5009C1370.05 57.149 1368.04 63.7747 1368.04 71.3776C1368.04 79.8497 1370.48 86.9645 1375.37 92.7211C1380.37 98.4777 1386.79 103.474 1394.61 107.71C1402.54 111.838 1410.91 115.856 1419.71 119.767C1428.08 123.459 1436.34 127.37 1444.49 131.497C1452.75 135.516 1460.2 140.295 1466.83 145.835C1473.57 151.266 1478.95 157.782 1482.97 165.386C1486.99 172.989 1489 182.167 1489 192.92C1489 206.714 1485.52 218.825 1478.57 229.252C1471.61 239.571 1461.83 247.608 1449.22 253.365C1436.72 259.122 1422.05 262 1405.21 262C1390.43 262 1376.35 259.611 1362.98 254.832C1349.62 250.052 1336.95 242.883 1325 233.325Z" fill="black"/>
<path d="M1616 252.863C1605.26 257.621 1594.8 260 1584.6 260C1574.84 260 1566.27 257.891 1558.89 253.674C1551.52 249.349 1545.77 243.347 1541.65 235.669C1537.53 227.883 1535.47 218.854 1535.47 208.581V118.395H1507V94.5512H1536.77V54H1562.15V94.5512H1610.79V118.395H1562.15V203.715C1562.15 213.447 1564.75 221.287 1569.96 227.235C1575.27 233.182 1582.22 236.156 1590.78 236.156C1597.72 236.156 1604.66 234.102 1611.61 229.992L1616 252.863Z" fill="black"/>
<path d="M1800 256.745H1776.62L1775.64 230.381C1769.68 239.928 1761.83 247.252 1752.09 252.351C1742.45 257.45 1731.03 260 1717.83 260C1696.28 260 1679.23 253.49 1666.67 240.471C1654.22 227.342 1648 209.441 1648 186.765V94H1674.63V184.812C1674.63 200.218 1678.96 212.533 1687.62 221.755C1696.39 230.977 1708.03 235.588 1722.54 235.588C1737.69 235.588 1749.93 230.597 1759.24 220.616C1768.66 210.634 1773.36 197.615 1773.36 181.557V94H1800V256.745Z" fill="black"/>
<path d="M2010 256.75H1986.22L1984.76 233.025C1977.26 241.367 1968.14 247.975 1957.39 252.85C1946.64 257.617 1934.91 260 1922.21 260C1906.14 260 1891.75 256.317 1879.05 248.95C1866.34 241.584 1856.3 231.509 1848.91 218.725C1841.64 205.942 1838 191.534 1838 175.5C1838 159.359 1841.64 144.95 1848.91 132.275C1856.3 119.492 1866.34 109.417 1879.05 102.05C1891.75 94.6836 1906.14 91 1922.21 91C1934.48 91 1945.83 93.2211 1956.25 97.6624C1966.78 102.104 1975.8 108.279 1983.29 116.187V13H2010V256.75ZM1924.49 235.95C1935.35 235.95 1945.23 233.458 1954.13 228.475C1963.04 223.383 1970.09 216.505 1975.31 207.838C1980.63 199.063 1983.29 189.15 1983.29 178.1V172.575C1983.29 161.525 1980.63 151.667 1975.31 143C1970.09 134.225 1963.04 127.346 1954.13 122.362C1945.23 117.379 1935.35 114.888 1924.49 114.888C1913.19 114.888 1903.1 117.542 1894.19 122.85C1885.29 128.158 1878.23 135.362 1873.02 144.463C1867.92 153.563 1865.37 163.854 1865.37 175.337C1865.37 186.821 1867.92 197.167 1873.02 206.375C1878.23 215.475 1885.29 222.68 1894.19 227.988C1903.1 233.296 1913.19 235.95 1924.49 235.95Z" fill="black"/>
<path d="M2116.48 338H2087.45L2121.5 255.365L2044 94H2073.35L2134.31 224.621L2188.14 94H2217L2116.48 338Z" fill="black"/>
<path d="M256.923 0H171.077C160.541 0 152 8.54103 152 19.077V104.923C152 115.459 160.541 124 171.077 124H256.923C267.459 124 276 115.459 276 104.923V19.077C276 8.54103 267.459 0 256.923 0Z" fill="black"/>
<path d="M256.923 152H171.077C160.541 152 152 160.541 152 171.077V256.923C152 267.459 160.541 276 171.077 276H256.923C267.459 276 276 267.459 276 256.923V171.077C276 160.541 267.459 152 256.923 152Z" fill="black"/>
<path d="M104.923 0H19.0769C8.54103 0 0 8.54103 0 19.077V104.923C0 115.459 8.54103 124 19.0769 124H104.923C115.459 124 124 115.459 124 104.923V19.077C124 8.54103 115.459 0 104.923 0Z" fill="black"/>
<path d="M2306.48 114.699C2301.69 114.699 2297.65 113.104 2294.34 109.914C2291.15 106.61 2289.56 102.565 2289.56 97.7803C2289.56 92.9951 2291.15 88.9505 2294.34 85.6465C2297.65 82.2285 2301.69 80.5195 2306.48 80.5195C2311.26 80.5195 2315.25 82.2285 2318.44 85.6465C2321.74 88.9505 2323.4 92.9951 2323.4 97.7803C2323.4 102.565 2321.74 106.61 2318.44 109.914C2315.25 113.104 2311.26 114.699 2306.48 114.699ZM2306.48 251.418C2301.69 251.418 2297.65 249.766 2294.34 246.462C2291.15 243.158 2289.56 239.113 2289.56 234.328C2289.56 229.657 2291.15 225.669 2294.34 222.365C2297.65 218.947 2301.69 217.238 2306.48 217.238C2311.26 217.238 2315.25 218.947 2318.44 222.365C2321.74 225.669 2323.4 229.657 2323.4 234.328C2323.4 239.113 2321.74 243.158 2318.44 246.462C2315.25 249.766 2311.26 251.418 2306.48 251.418Z" fill="black"/>
</svg>
