<svg width="483" height="36" viewBox="0 0 483 36" fill="none" xmlns="http://www.w3.org/2000/svg">
<path d="M68.3716 27H52.6489V1.36523H55.6567V24.334H68.3716V27ZM86.9482 24.8979C84.8291 26.5272 82.4935 27.3418 79.9414 27.3418C78.1641 27.3418 76.569 26.943 75.1562 26.1455C73.7435 25.348 72.627 24.2656 71.8066 22.8984C70.9977 21.5199 70.5933 19.9647 70.5933 18.2329C70.5933 16.5695 70.9692 15.0884 71.7212 13.7896C72.4731 12.4793 73.5042 11.4482 74.8145 10.6963C76.1247 9.94434 77.6115 9.56836 79.2749 9.56836C80.9839 9.56836 82.4878 9.97852 83.7866 10.7988C85.0968 11.6191 86.1165 12.7585 86.8457 14.2168C87.5749 15.6751 87.9395 17.3613 87.9395 19.2754V19.8223H73.6353C73.8403 20.8249 74.2505 21.6965 74.8657 22.437C75.4924 23.1776 76.2671 23.7529 77.1899 24.1631C78.1128 24.5732 79.1439 24.7783 80.2832 24.7783C82.2428 24.7783 84.0316 24.1346 85.6494 22.8472L86.9482 24.8979ZM73.5327 17.4297H85.2905C85.1652 16.3701 84.8348 15.4473 84.2993 14.6611C83.7752 13.8636 83.0916 13.2427 82.2485 12.7983C81.4168 12.354 80.4769 12.1318 79.4287 12.1318C78.3691 12.1318 77.4121 12.354 76.5576 12.7983C75.7145 13.2427 75.0252 13.8636 74.4897 14.6611C73.9657 15.4473 73.6466 16.3701 73.5327 17.4297ZM105.679 27H103.269L103.081 24.7441C102.454 25.5531 101.657 26.1911 100.688 26.6582C99.7201 27.1139 98.6377 27.3418 97.4414 27.3418C96.2109 27.3418 95.1115 27.1025 94.1431 26.624C93.1746 26.1341 92.4113 25.4676 91.853 24.6245C91.3062 23.7814 91.0327 22.8244 91.0327 21.7534C91.0327 20.6255 91.3289 19.6343 91.9214 18.7798C92.5252 17.9139 93.3398 17.236 94.3652 16.7461C95.402 16.2562 96.5755 16.0112 97.8857 16.0112C98.7402 16.0112 99.6118 16.1195 100.5 16.3359C101.389 16.541 102.181 16.8258 102.876 17.1904V16.4727C102.876 15.5612 102.648 14.7865 102.192 14.1484C101.737 13.499 101.127 13.0034 100.364 12.6616C99.6004 12.3084 98.7573 12.1318 97.8345 12.1318C97.0369 12.1318 96.2223 12.2799 95.3906 12.5762C94.5589 12.861 93.7614 13.3053 92.998 13.9092L92.0752 11.4995C93.0664 10.8615 94.1089 10.383 95.2026 10.064C96.2964 9.73356 97.3787 9.56836 98.4497 9.56836C99.9308 9.56836 101.207 9.87028 102.278 10.4741C103.36 11.0666 104.198 11.9154 104.79 13.0205C105.382 14.1143 105.679 15.4131 105.679 16.917V27ZM97.937 24.7783C98.8143 24.7783 99.6175 24.596 100.347 24.2314C101.076 23.8669 101.668 23.3428 102.124 22.6592C102.58 21.9642 102.83 21.1439 102.876 20.1982V19.9077C102.249 19.4178 101.543 19.0418 100.757 18.7798C99.9821 18.5063 99.1903 18.3696 98.3813 18.3696C97.1167 18.3696 96.0571 18.6772 95.2026 19.2925C94.3595 19.9077 93.938 20.6882 93.938 21.6338C93.938 22.2262 94.1089 22.7617 94.4507 23.2402C94.8039 23.7188 95.2824 24.0947 95.8862 24.3682C96.4901 24.6416 97.1737 24.7783 97.937 24.7783ZM127.332 27H124.836L124.683 24.5049C123.896 25.3822 122.939 26.0771 121.812 26.5898C120.684 27.0911 119.453 27.3418 118.12 27.3418C116.434 27.3418 114.924 26.9544 113.591 26.1797C112.258 25.4049 111.204 24.3454 110.43 23.001C109.666 21.6566 109.285 20.1413 109.285 18.4551C109.285 16.7575 109.666 15.2422 110.43 13.9092C111.204 12.5648 112.258 11.5052 113.591 10.7305C114.924 9.95573 116.434 9.56836 118.12 9.56836C119.408 9.56836 120.598 9.80192 121.692 10.269C122.797 10.7362 123.743 11.3856 124.529 12.2173V1.36523H127.332V27ZM118.359 24.8125C119.499 24.8125 120.535 24.5505 121.47 24.0264C122.404 23.4909 123.145 22.7674 123.691 21.856C124.25 20.9331 124.529 19.8906 124.529 18.7285V18.1475C124.529 16.9854 124.25 15.9486 123.691 15.0371C123.145 14.1143 122.404 13.3908 121.47 12.8667C120.535 12.3426 119.499 12.0806 118.359 12.0806C117.174 12.0806 116.115 12.3597 115.181 12.918C114.246 13.4762 113.506 14.2339 112.959 15.1909C112.424 16.1479 112.156 17.2303 112.156 18.438C112.156 19.6457 112.424 20.7337 112.959 21.7021C113.506 22.6592 114.246 23.4168 115.181 23.9751C116.115 24.5334 117.174 24.8125 118.359 24.8125ZM147.617 24.8979C145.498 26.5272 143.162 27.3418 140.61 27.3418C138.833 27.3418 137.238 26.943 135.825 26.1455C134.412 25.348 133.296 24.2656 132.476 22.8984C131.667 21.5199 131.262 19.9647 131.262 18.2329C131.262 16.5695 131.638 15.0884 132.39 13.7896C133.142 12.4793 134.173 11.4482 135.483 10.6963C136.794 9.94434 138.28 9.56836 139.944 9.56836C141.653 9.56836 143.157 9.97852 144.456 10.7988C145.766 11.6191 146.785 12.7585 147.515 14.2168C148.244 15.6751 148.608 17.3613 148.608 19.2754V19.8223H134.304C134.509 20.8249 134.919 21.6965 135.535 22.437C136.161 23.1776 136.936 23.7529 137.859 24.1631C138.782 24.5732 139.813 24.7783 140.952 24.7783C142.912 24.7783 144.701 24.1346 146.318 22.8472L147.617 24.8979ZM134.202 17.4297H145.959C145.834 16.3701 145.504 15.4473 144.968 14.6611C144.444 13.8636 143.761 13.2427 142.917 12.7983C142.086 12.354 141.146 12.1318 140.098 12.1318C139.038 12.1318 138.081 12.354 137.227 12.7983C136.383 13.2427 135.694 13.8636 135.159 14.6611C134.635 15.4473 134.316 16.3701 134.202 17.4297ZM155.359 27H152.556V9.91016H155.017L155.137 13.2939C155.729 12.1204 156.561 11.209 157.632 10.5596C158.714 9.89876 159.956 9.56836 161.357 9.56836C161.665 9.56836 161.978 9.58545 162.297 9.61963C162.616 9.65381 162.935 9.70508 163.254 9.77344L162.913 12.3027C162.286 12.1546 161.665 12.0806 161.05 12.0806C159.933 12.0806 158.942 12.354 158.076 12.9009C157.222 13.4478 156.555 14.1997 156.077 15.1567C155.598 16.1138 155.359 17.2132 155.359 18.4551V27ZM164.963 25.5132L165.698 22.8813C166.108 23.2687 166.576 23.6048 167.1 23.8896C167.624 24.1745 168.176 24.3966 168.757 24.5562C169.338 24.7043 169.925 24.7783 170.518 24.7783C171.577 24.7783 172.432 24.5448 173.081 24.0776C173.73 23.6105 174.055 23.001 174.055 22.249C174.055 21.7021 173.884 21.2521 173.542 20.8989C173.212 20.5343 172.773 20.221 172.227 19.959C171.68 19.6969 171.093 19.4463 170.466 19.207C169.703 18.9108 168.945 18.5747 168.193 18.1987C167.441 17.8228 166.815 17.3271 166.313 16.7119C165.824 16.0967 165.579 15.2878 165.579 14.2852C165.579 13.3281 165.818 12.4964 166.296 11.79C166.775 11.0837 167.441 10.5368 168.296 10.1494C169.162 9.76204 170.153 9.56836 171.27 9.56836C172.956 9.56836 174.613 9.98991 176.243 10.833L175.405 13.3623C175.041 13.123 174.619 12.9123 174.141 12.73C173.662 12.5363 173.172 12.3882 172.671 12.2856C172.17 12.1831 171.697 12.1318 171.252 12.1318C170.421 12.1318 169.749 12.3255 169.236 12.7129C168.723 13.0889 168.467 13.5959 168.467 14.2339C168.467 14.5985 168.569 14.9346 168.774 15.2422C168.991 15.5384 169.35 15.8346 169.851 16.1309C170.352 16.4271 171.047 16.7575 171.936 17.1221C172.722 17.4411 173.497 17.8057 174.26 18.2158C175.024 18.6146 175.656 19.133 176.157 19.771C176.67 20.3976 176.926 21.2179 176.926 22.2319C176.926 23.2345 176.659 24.1232 176.123 24.8979C175.599 25.6613 174.864 26.2594 173.918 26.6924C172.984 27.1253 171.902 27.3418 170.671 27.3418C168.632 27.3418 166.729 26.7323 164.963 25.5132ZM181.028 27V1.36523H183.831V12.4736C185.118 10.5368 187.112 9.56836 189.812 9.56836C192.079 9.56836 193.845 10.2463 195.11 11.6021C196.386 12.9465 197.024 14.8263 197.024 17.2417V27H194.221V17.8911C194.221 16.0568 193.765 14.6326 192.854 13.6187C191.954 12.5933 190.695 12.0806 189.077 12.0806C187.448 12.0806 186.166 12.599 185.232 13.6357C184.298 14.6725 183.831 16.091 183.831 17.8911V27H181.028ZM203.45 4.50977C202.971 4.50977 202.567 4.34456 202.236 4.01416C201.917 3.67236 201.758 3.26221 201.758 2.78369C201.758 2.31657 201.917 1.91781 202.236 1.5874C202.567 1.257 202.971 1.0918 203.45 1.0918C203.94 1.0918 204.35 1.257 204.68 1.5874C205.011 1.91781 205.176 2.31657 205.176 2.78369C205.176 3.26221 205.011 3.67236 204.68 4.01416C204.35 4.34456 203.94 4.50977 203.45 4.50977ZM204.851 27H202.048V9.91016H204.851V27ZM213.054 35.5449H210.251V9.91016H212.747L212.883 12.4053C213.681 11.528 214.644 10.8387 215.771 10.3374C216.899 9.82471 218.136 9.56836 219.48 9.56836C221.155 9.56836 222.653 9.95573 223.975 10.7305C225.308 11.5052 226.356 12.5648 227.119 13.9092C227.894 15.2422 228.281 16.7575 228.281 18.4551C228.281 20.1413 227.894 21.6566 227.119 23.001C226.356 24.3454 225.308 25.4049 223.975 26.1797C222.653 26.9544 221.155 27.3418 219.48 27.3418C218.193 27.3418 216.996 27.1082 215.891 26.6411C214.797 26.174 213.852 25.5246 213.054 24.6929V35.5449ZM219.258 24.7783C220.454 24.7783 221.514 24.5106 222.437 23.9751C223.359 23.4282 224.077 22.6763 224.59 21.7192C225.114 20.7622 225.376 19.6685 225.376 18.438C225.376 17.1961 225.114 16.1024 224.59 15.1567C224.066 14.1997 223.342 13.4478 222.419 12.9009C221.508 12.354 220.46 12.0806 219.275 12.0806C218.147 12.0806 217.127 12.3312 216.216 12.8325C215.316 13.3338 214.587 14.0231 214.028 14.9004C213.47 15.7663 213.145 16.7575 213.054 17.874V19.0361C213.145 20.1527 213.464 21.1439 214.011 22.0098C214.558 22.8757 215.282 23.5535 216.182 24.0435C217.093 24.5334 218.118 24.7783 219.258 24.7783Z" fill="white"/>
<path d="M27 0H18C16.8954 0 16 0.89543 16 2V11C16 12.1046 16.8954 13 18 13H27C28.1046 13 29 12.1046 29 11V2C29 0.89543 28.1046 0 27 0Z" fill="white"/>
<path d="M27 16H18C16.8954 16 16 16.8954 16 18V27C16 28.1046 16.8954 29 18 29H27C28.1046 29 29 28.1046 29 27V18C29 16.8954 28.1046 16 27 16Z" fill="white"/>
<path d="M11 0H2C0.89543 0 0 0.89543 0 2V11C0 12.1046 0.89543 13 2 13H11C12.1046 13 13 12.1046 13 11V2C13 0.89543 12.1046 0 11 0Z" fill="white"/>
</svg>
