<svg width="483" height="36" viewBox="0 0 483 36" fill="none" xmlns="http://www.w3.org/2000/svg">
<path d="M65.9194 27H62.6211L52.1108 1.36523H55.2896L64.2788 23.7529L73.251 1.36523H76.4297L65.9194 27Z" fill="white"/>
<path d="M91.2637 27H88.854L88.666 24.7441C88.0394 25.5531 87.2419 26.1911 86.2734 26.6582C85.305 27.1139 84.2227 27.3418 83.0264 27.3418C81.7959 27.3418 80.6965 27.1025 79.728 26.624C78.7596 26.1341 77.9963 25.4676 77.438 24.6245C76.8911 23.7814 76.6177 22.8244 76.6177 21.7534C76.6177 20.6255 76.9139 19.6343 77.5063 18.7798C78.1102 17.9139 78.9248 17.236 79.9502 16.7461C80.987 16.2562 82.1605 16.0112 83.4707 16.0112C84.3252 16.0112 85.1968 16.1195 86.0854 16.3359C86.9741 16.541 87.766 16.8258 88.4609 17.1904V16.4727C88.4609 15.5612 88.2331 14.7865 87.7773 14.1484C87.3216 13.499 86.7121 13.0034 85.9487 12.6616C85.1854 12.3084 84.3423 12.1318 83.4194 12.1318C82.6219 12.1318 81.8073 12.2799 80.9756 12.5762C80.1439 12.861 79.3464 13.3053 78.583 13.9092L77.6602 11.4995C78.6514 10.8615 79.6938 10.383 80.7876 10.064C81.8813 9.73356 82.9637 9.56836 84.0347 9.56836C85.5158 9.56836 86.7918 9.87028 87.8628 10.4741C88.9451 11.0666 89.7826 11.9154 90.375 13.0205C90.9674 14.1143 91.2637 15.4131 91.2637 16.917V27ZM83.522 24.7783C84.3993 24.7783 85.2025 24.596 85.9316 24.2314C86.6608 23.8669 87.2533 23.3428 87.709 22.6592C88.1647 21.9642 88.4154 21.1439 88.4609 20.1982V19.9077C87.8343 19.4178 87.1279 19.0418 86.3418 18.7798C85.5671 18.5063 84.7752 18.3696 83.9663 18.3696C82.7017 18.3696 81.6421 18.6772 80.7876 19.2925C79.9445 19.9077 79.5229 20.6882 79.5229 21.6338C79.5229 22.2262 79.6938 22.7617 80.0356 23.2402C80.3888 23.7188 80.8674 24.0947 81.4712 24.3682C82.075 24.6416 82.7586 24.7783 83.522 24.7783Z" fill="white"/>
<path d="M99.2104 27H96.2368V0.681641H99.2104V27Z" fill="white"/>
<path d="M120.163 27H117.702L117.599 24.2314C116.972 25.234 116.146 26.0031 115.121 26.5386C114.107 27.0741 112.905 27.3418 111.515 27.3418C109.248 27.3418 107.453 26.6582 106.132 25.291C104.822 23.9124 104.167 22.0326 104.167 19.6514V9.91016H106.969V19.4463C106.969 21.0641 107.425 22.3573 108.336 23.3257C109.259 24.2941 110.484 24.7783 112.011 24.7783C113.606 24.7783 114.893 24.2542 115.873 23.2061C116.864 22.1579 117.36 20.7907 117.36 19.1045V9.91016H120.163V27Z" fill="white"/>
<path d="M140.448 24.8979C138.329 26.5272 135.993 27.3418 133.441 27.3418C131.664 27.3418 130.069 26.943 128.656 26.1455C127.243 25.348 126.127 24.2656 125.307 22.8984C124.498 21.5199 124.093 19.9647 124.093 18.2329C124.093 16.5695 124.469 15.0884 125.221 13.7896C125.973 12.4793 127.004 11.4482 128.314 10.6963C129.625 9.94434 131.111 9.56836 132.775 9.56836C134.484 9.56836 135.988 9.97852 137.287 10.7988C138.597 11.6191 139.617 12.7585 140.346 14.2168C141.075 15.6751 141.439 17.3613 141.439 19.2754V19.8223H127.135C127.34 20.8249 127.75 21.6965 128.366 22.437C128.992 23.1776 129.767 23.7529 130.69 24.1631C131.613 24.5732 132.644 24.7783 133.783 24.7783C135.743 24.7783 137.532 24.1346 139.149 22.8472L140.448 24.8979ZM127.033 17.4297H138.791C138.665 16.3701 138.335 15.4473 137.799 14.6611C137.275 13.8636 136.592 13.2427 135.749 12.7983C134.917 12.354 133.977 12.1318 132.929 12.1318C131.869 12.1318 130.912 12.354 130.058 12.7983C129.215 13.2427 128.525 13.8636 127.99 14.6611C127.466 15.4473 127.147 16.3701 127.033 17.4297Z" fill="white"/>
<path d="M144.191 25.5132L144.926 22.8813C145.336 23.2687 145.803 23.6048 146.327 23.8896C146.851 24.1745 147.404 24.3966 147.985 24.5562C148.566 24.7043 149.153 24.7783 149.745 24.7783C150.805 24.7783 151.659 24.5448 152.309 24.0776C152.958 23.6105 153.283 23.001 153.283 22.249C153.283 21.7021 153.112 21.2521 152.77 20.8989C152.44 20.5343 152.001 20.221 151.454 19.959C150.907 19.6969 150.32 19.4463 149.694 19.207C148.931 18.9108 148.173 18.5747 147.421 18.1987C146.669 17.8228 146.042 17.3271 145.541 16.7119C145.051 16.0967 144.806 15.2878 144.806 14.2852C144.806 13.3281 145.045 12.4964 145.524 11.79C146.002 11.0837 146.669 10.5368 147.523 10.1494C148.389 9.76204 149.381 9.56836 150.497 9.56836C152.183 9.56836 153.841 9.98991 155.47 10.833L154.633 13.3623C154.268 13.123 153.847 12.9123 153.368 12.73C152.89 12.5363 152.4 12.3882 151.898 12.2856C151.397 12.1831 150.924 12.1318 150.48 12.1318C149.648 12.1318 148.976 12.3255 148.463 12.7129C147.951 13.0889 147.694 13.5959 147.694 14.2339C147.694 14.5985 147.797 14.9346 148.002 15.2422C148.218 15.5384 148.577 15.8346 149.079 16.1309C149.58 16.4271 150.275 16.7575 151.164 17.1221C151.95 17.4411 152.724 17.8057 153.488 18.2158C154.251 18.6146 154.883 19.133 155.385 19.771C155.897 20.3976 156.154 21.2179 156.154 22.2319C156.154 23.2345 155.886 24.1232 155.351 24.8979C154.826 25.6613 154.092 26.2594 153.146 26.6924C152.212 27.1253 151.129 27.3418 149.899 27.3418C147.86 27.3418 145.957 26.7323 144.191 25.5132Z" fill="white"/>
<path d="M16 2C16 0.89543 16.8954 0 18 0H27C28.1046 0 29 0.895431 29 2V11C29 12.1046 28.1046 13 27 13H18C16.8954 13 16 12.1046 16 11V2Z" fill="white"/>
<path d="M16 18C16 16.8954 16.8954 16 18 16H27C28.1046 16 29 16.8954 29 18V27C29 28.1046 28.1046 29 27 29H18C16.8954 29 16 28.1046 16 27V18Z" fill="white"/>
<path d="M0 2C0 0.89543 0.895431 0 2 0H11C12.1046 0 13 0.895431 13 2V11C13 12.1046 12.1046 13 11 13H2C0.89543 13 0 12.1046 0 11V2Z" fill="white"/>
    <rect x="16" width="13" height="13" rx="2" fill="white"/>
    <rect x="16" y="16" width="13" height="13" rx="2" fill="white"/>
    <rect width="13" height="13" rx="2" fill="white"/>
</svg>
