<svg width="1666" height="321" viewBox="0 0 1666 321" fill="none" xmlns="http://www.w3.org/2000/svg">
<path d="M143.716 250H129.614L94.5459 138.95L59.4775 250H45.376L0.102539 110.84H17.1729L52.334 222.168L87.4951 110.84H101.597L136.665 221.89L171.641 110.84H188.804L143.716 250Z" fill="black"/>
<path d="M261.664 250H245.336V110.84H261.664V174.111H339.316V110.84H355.644V250H339.316V188.584H261.664V250Z" fill="black"/>
<path d="M487.415 252.783C476.963 252.783 467.315 250.99 458.47 247.402C449.688 243.815 442.049 238.774 435.555 232.28C429.061 225.724 424.02 218.055 420.433 209.272C416.846 200.428 415.052 190.811 415.052 180.42C415.052 169.967 416.846 160.35 420.433 151.567C424.02 142.723 429.061 135.054 435.555 128.56C442.049 122.065 449.688 117.025 458.47 113.438C467.315 109.85 476.963 108.057 487.415 108.057C497.868 108.057 507.485 109.85 516.268 113.438C525.05 117.025 532.689 122.065 539.183 128.56C545.677 135.054 550.718 142.723 554.305 151.567C557.892 160.35 559.686 169.967 559.686 180.42C559.686 190.811 557.892 200.428 554.305 209.272C550.718 218.055 545.677 225.724 539.183 232.28C532.689 238.774 525.05 243.815 516.268 247.402C507.485 250.99 497.868 252.783 487.415 252.783ZM487.415 238.311C495.394 238.311 502.754 236.857 509.496 233.95C516.299 231.043 522.205 226.992 527.215 221.797C532.225 216.54 536.091 210.417 538.812 203.428C541.595 196.377 542.987 188.708 542.987 180.42C542.987 172.132 541.595 164.463 538.812 157.412C536.091 150.361 532.225 144.238 527.215 139.043C522.205 133.786 516.299 129.735 509.496 126.89C502.754 123.983 495.394 122.529 487.415 122.529C479.437 122.529 472.046 123.983 465.243 126.89C458.501 129.735 452.625 133.786 447.616 139.043C442.606 144.238 438.709 150.361 435.926 157.412C433.143 164.463 431.751 172.132 431.751 180.42C431.751 188.708 433.143 196.377 435.926 203.428C438.709 210.479 442.606 216.632 447.616 221.89C452.625 227.085 458.501 231.136 465.243 234.043C472.046 236.888 479.437 238.311 487.415 238.311Z" fill="black"/>
<path d="M874.716 250H860.614L825.546 138.95L790.478 250H776.376L731.103 110.84H748.173L783.334 222.168L818.495 110.84H832.597L867.665 221.89L902.641 110.84H919.804L874.716 250Z" fill="black"/>
<path d="M976.336 250V110.84H1061.59V125.312H992.664V172.07H1057.79V186.543H992.664V235.527H1062.52V250H976.336Z" fill="black"/>
<path d="M1250.34 250H1233.17L1290.32 110.84H1308.04L1365.1 250H1347.94L1332.81 212.427H1265.46L1250.34 250ZM1271.21 197.954H1327.06L1299.14 128.467L1271.21 197.954Z" fill="black"/>
<path d="M1521.27 250H1503.09L1469.87 193.408H1437.03V250H1420.7V110.84H1468.85C1478.81 110.84 1487.38 112.51 1494.55 115.85C1501.73 119.189 1507.26 123.952 1511.16 130.137C1515.05 136.26 1517 143.589 1517 152.124C1517 162.082 1514.34 170.431 1509.02 177.173C1503.77 183.914 1496.38 188.584 1486.85 191.182L1521.27 250ZM1437.03 178.936H1467.83C1477.91 178.936 1485.83 176.554 1491.58 171.792C1497.4 167.03 1500.3 160.474 1500.3 152.124C1500.3 143.774 1497.43 137.218 1491.68 132.456C1485.92 127.694 1477.98 125.312 1467.83 125.312H1437.03V178.936Z" fill="black"/>
<path d="M1579.66 250V110.84H1664.92V125.312H1595.99V172.07H1661.11V186.543H1595.99V235.527H1665.84V250H1579.66Z" fill="black"/>
<path d="M650 0H657V321H650V0Z" fill="black"/>
<path d="M1144 0H1151V321H1144V0Z" fill="black"/>
</svg>
