<svg width="315" height="63" viewBox="0 0 315 63" fill="none" xmlns="http://www.w3.org/2000/svg">
<path d="M24.1875 45H21.8125L15.9062 26.2969L10 45H7.625L0 21.5625H2.875L8.79688 40.3125L14.7188 21.5625H17.0938L23 40.2656L28.8906 21.5625H31.7812L24.1875 45Z" fill="black"/>
<path d="M49.1725 45H46.4225V21.5625H49.1725V32.2188H62.2506V21.5625H65.0006V45H62.2506V34.6562H49.1725V45Z" fill="black"/>
<path d="M92.3138 45.4688C90.5533 45.4688 88.9283 45.1667 87.4388 44.5625C85.9596 43.9583 84.6731 43.1094 83.5794 42.0156C82.4856 40.9115 81.6367 39.6198 81.0325 38.1406C80.4283 36.651 80.1263 35.0312 80.1263 33.2812C80.1263 31.5208 80.4283 29.901 81.0325 28.4219C81.6367 26.9323 82.4856 25.6406 83.5794 24.5469C84.6731 23.4531 85.9596 22.6042 87.4388 22C88.9283 21.3958 90.5533 21.0938 92.3138 21.0938C94.0742 21.0938 95.694 21.3958 97.1731 22C98.6523 22.6042 99.9388 23.4531 101.033 24.5469C102.126 25.6406 102.975 26.9323 103.579 28.4219C104.184 29.901 104.486 31.5208 104.486 33.2812C104.486 35.0312 104.184 36.651 103.579 38.1406C102.975 39.6198 102.126 40.9115 101.033 42.0156C99.9388 43.1094 98.6523 43.9583 97.1731 44.5625C95.694 45.1667 94.0742 45.4688 92.3138 45.4688ZM92.3138 43.0312C93.6575 43.0312 94.8971 42.7865 96.0325 42.2969C97.1783 41.8073 98.1731 41.125 99.0169 40.25C99.8606 39.3646 100.512 38.3333 100.97 37.1562C101.439 35.9688 101.673 34.6771 101.673 33.2812C101.673 31.8854 101.439 30.5938 100.97 29.4062C100.512 28.2188 99.8606 27.1875 99.0169 26.3125C98.1731 25.4271 97.1783 24.7448 96.0325 24.2656C94.8971 23.776 93.6575 23.5312 92.3138 23.5312C90.97 23.5312 89.7252 23.776 88.5794 24.2656C87.444 24.7448 86.4544 25.4271 85.6106 26.3125C84.7669 27.1875 84.1106 28.2188 83.6419 29.4062C83.1731 30.5938 82.9388 31.8854 82.9388 33.2812C82.9388 34.6771 83.1731 35.9688 83.6419 37.1562C84.1106 38.3438 84.7669 39.3802 85.6106 40.2656C86.4544 41.1406 87.444 41.8229 88.5794 42.3125C89.7252 42.7917 90.97 43.0312 92.3138 43.0312Z" fill="black"/>
<path d="M161.409 45H159.034L153.128 26.2969L147.221 45H144.846L137.221 21.5625H140.096L146.018 40.3125L151.94 21.5625H154.315L160.221 40.2656L166.112 21.5625H169.003L161.409 45Z" fill="black"/>
<path d="M183.644 45V21.5625H198.003V24H186.394V31.875H197.363V34.3125H186.394V42.5625H198.159V45H183.644Z" fill="black"/>
<path d="M234.567 45H231.676L241.301 21.5625H244.286L253.895 45H251.004L248.458 38.6719H237.114L234.567 45ZM238.083 36.2344H247.489L242.786 24.5312L238.083 36.2344Z" fill="black"/>
<path d="M285.318 45H282.255L276.661 35.4688H271.13V45H268.38V21.5625H276.489C278.166 21.5625 279.609 21.8438 280.818 22.4062C282.026 22.9688 282.958 23.7708 283.614 24.8125C284.271 25.8438 284.599 27.0781 284.599 28.5156C284.599 30.1927 284.151 31.599 283.255 32.7344C282.37 33.8698 281.125 34.6562 279.521 35.0938L285.318 45ZM271.13 33.0312H276.318C278.015 33.0312 279.349 32.6302 280.318 31.8281C281.297 31.026 281.786 29.9219 281.786 28.5156C281.786 27.1094 281.302 26.0052 280.333 25.2031C279.364 24.401 278.026 24 276.318 24H271.13V33.0312Z" fill="black"/>
<path d="M300.271 45V21.5625H314.631V24H303.021V31.875H313.99V34.3125H303.021V42.5625H314.787V45H300.271Z" fill="black"/>
<path d="M122.104 1H123.104V63H122.104V1Z" fill="black"/>
<path d="M215.104 0H216.104V62H215.104V0Z" fill="black"/>
</svg>
